<svg fill="none" viewBox="0 0 24 24" xmlns="http://www.w3.org/2000/svg"><g fill="currentColor"><path d="m3.5 12c0 4.6944 3.80558 8.5 8.5 8.5.4544 0 .9004-.0356 1.3354-.1043.1837.5002.438.9664.7508 1.3864-.6729.1428-1.3708.2179-2.0862.2179-5.52285 0-10-4.4772-10-10 0-5.52285 4.47715-10 10-10 5.5228 0 10 4.47715 10 10 0 .7154-.0751 1.4133-.2179 2.0862-.42-.3128-.8862-.5671-1.3864-.7508.0687-.435.1043-.881.1043-1.3354 0-4.69442-3.8056-8.5-8.5-8.5-4.69442 0-8.5 3.80558-8.5 8.5z"/><path d="m20.3416 13.3159c.1035-.4216.1584-.8624.1584-1.3159 0-1.5265-.6219-2.90778-1.6261-3.90426-.2813-.06268-.5737-.09574-.8739-.09574-2.2091 0-4 1.79086-4 4 0 .9087.303 1.7467.8135 2.4183.3716-.3358.7891-.6215 1.2422-.8467-.3475-.4294-.5557-.9762-.5557-1.5716 0-1.3807 1.1193-2.5 2.5-2.5s2.5 1.1193 2.5 2.5c0 .4577-.123.8867-.3377 1.2557.0602.019.12.0391.1793.0602z" fill-opacity=".3"/><path d="m15 5c.8324 0 1.6308.14528 2.3713.41186 1.9095 1.55868 3.1287 3.93103 3.1287 6.58814 0-3.03757-2.4624-5.5-5.5-5.5s-5.5 2.46243-5.5 5.5c0 2.3916 1.5265 4.4268 3.6584 5.1841-.1035.4216-.1584.8624-.1584 1.3159 0 .0708.0013.1412.004.2113-2.8936-.8593-5.004-3.5388-5.004-6.7113 0-3.86599 3.134-7 7-7z" fill-opacity=".5"/><path d="m20.3957 13.3354c.0687-.435.1043-.881.1043-1.3354 0 .4535-.0549.8943-.1584 1.3159.0181.0064.0361.0129.0541.0195z" fill-opacity=".5"/><path clip-rule="evenodd" d="m18.5 23c2.4853 0 4.5-2.0147 4.5-4.5s-2.0147-4.5-4.5-4.5-4.5 2.0147-4.5 4.5 2.0147 4.5 4.5 4.5zm.6244-1.9951c0-.3449-.2796-.6245-.6245-.6245s-.6245.2796-.6245.6245.2796.6245.6245.6245.6245-.2796.6245-.6245zm1.229-3.552c0-1.1037-.8224-1.9495-1.8534-1.9495-1.048 0-1.8643.8174-1.8534 1.9543.0026.2762.2286.4979.5048.4952.2761-.0026.4978-.2286.4951-.5048-.0055-.579.3597-.9447.8535-.9447.4723 0 .8534.3919.8534.9495 0 .2018-.0712.315-.3597.5439l-.278.215c-.5058.4043-.7157.7176-.7158 1.2885 0 .2761.2239.5.5.5.2455 0 .4496-.1769.492-.4101l.0115-.1561c.0168-.1478.0996-.2537.3453-.4483l.277-.2143c.5134-.4108.7277-.7328.7277-1.3186z" fill-rule="evenodd"/></g></svg>