<svg fill="none" viewBox="0 0 24 24"  xmlns="http://www.w3.org/2000/svg"><g fill="currentColor"><path d="m3.46878 3.13084c-.72955 1.35782-1.64295 2.46112-2.12845 3.00401-.18408.20584-.18408.52452 0 .73036.4855.54289 1.3989 1.64619 2.12845 3.00401.21363.39758.84884.39758 1.06247 0 .72954-1.35782 1.64295-2.46112 2.12845-3.00401.18407-.20584.18407-.52452 0-.73036-.4855-.54289-1.39891-1.64619-2.12845-3.00401-.21363-.3976-.84884-.3976-1.06247 0z"/><path d="m2.25002 9.75364v4.47846c-.00001.8128-.00002 1.4685.04336 1.9994.04466.5466.13902 1.0267.36536 1.471.35953.7056.9332 1.2793 1.63881 1.6388.44422.2263.92436.3207 1.471.3653.5309.0434 1.18651.0434 1.99934.0434h4.46421c.8129 0 1.4685 0 1.9994-.0434.5466-.0446 1.0268-.139 1.471-.3653.7056-.3595 1.2793-.9332 1.6388-1.6388.2263-.4443.3207-.9244.3654-1.471.0265-.3255.0368-.6979.0408-1.1246l1.8095.7238c.342.1368.6446.2579.8982.3335.2629.0785.5718.1407.9009.0723.4515-.0938.8477-.3621 1.1025-.7465.1857-.2801.2427-.59.2675-.8633.024-.2635.0239-.5894.0239-.9577v-3.3378c0-.36827.0001-.69412-.0239-.95769-.0248-.27325-.0818-.58314-.2675-.86328-.2548-.38438-.651-.65265-1.1025-.74647-.3291-.06838-.638-.00622-.9009.07224-.2536.07568-.5562.19672-.8981.33353l-1.8096.72382c-.004-.42683-.0143-.79927-.0408-1.12482-.0447-.54663-.1391-1.02677-.3654-1.47099-.3595-.70561-.9332-1.27929-1.6388-1.63881-.4442-.22634-.9244-.3207-1.471-.36537-.5309-.04337-1.1865-.04337-1.9994-.04336h-4.46419c-.50395 0-.94751-.00001-1.33834.01033.37951.51941.73309.93681.97554 1.20792.07844.08772.14513.18233.20007.28178l4.59482-.00003c.8525 0 1.4467.00058 1.9093.03838.4539.03709.7147.10622.9122.20686.4234.21571.7676.55992.9833.98328.1006.19752.1698.45829.2068.91216.0378.46263.0384 1.05687.0384 1.90932v4.4c0 .8525-.0006 1.4467-.0384 1.9093-.037.4539-.1062.7147-.2068.9122-.2157.4233-.5599.7675-.9833.9833-.1975.1006-.4583.1697-.9122.2068-.4626.0378-1.0568.0384-1.9093.0384h-4.39998c-.85246 0-1.44669-.0006-1.90932-.0384-.45388-.0371-.71465-.1062-.91216-.2068-.42337-.2158-.76757-.56-.98329-.9833-.10064-.1975-.16977-.4583-.20685-.9122-.0378-.4626-.03838-1.0568-.03838-1.9093v-3.0518c-.4383-.0673-.89831-.3146-1.16214-.8057-.10879-.2025-.22221-.39917-.33786-.58886zm17.83428-.17947c.3809-.15235.6195-.24698.7998-.3008.111-.03312.1616-.03816.1758-.03894.0578.01425.1086.04864.1432.09698.0046.01348.0187.06234.0292.17768.017.18743.0177.44407.0177.85431v3.2735c0 .4102-.0007.6668-.0177.8543-.0105.1153-.0246.1642-.0292.1776-.0346.0484-.0854.0828-.1432.097-.0142-.0008-.0648-.0058-.1758-.0389-.1803-.0538-.4189-.1485-.7998-.3008l-2.3343-.9338v-2.9844z"/><path d="m7.67628 9.81282c-.51863 1.14748-1.18968 2.07058-1.50203 2.47128-.09638.1236-.08954.3023.01418.4199.32888.3728 1.01739 1.2285 1.48716 2.336.11668.2751.5796.2914.70628.0208.5171-1.1046 1.16166-1.9845 1.45689-2.3615.09122-.1165.09122-.2821 0-.3986-.3064-.3914-.98908-1.3243-1.51502-2.48788-.11767-.26036-.52978-.26036-.64746 0z"/><path d="m10.0538 8.39191c.2465-.28428.7761-.93925 1.1855-1.75337.0928-.18472.4181-.18472.511 0 .4151.82559.9539 1.48751 1.1957 1.76516.072.08266.072.20015 0 .28281-.233.26753-.7417.89181-1.1498 1.67549-.1.192-.4654.1804-.5575-.0147-.3707-.78579-.9142-1.39297-1.1737-1.65744-.08187-.08341-.08728-.21023-.0112-.29795z"/></g></svg>