<svg fill="none" viewBox="0 0 24 24" xmlns="http://www.w3.org/2000/svg"><g fill="currentColor"><path d="m8.5 3c2.485 0 4.5 2.015 4.5 4.5s-2.015 4.5-4.5 4.5-4.5-2.015-4.5-4.5 2.015-4.5 4.5-4.5zm9 2c1.933 0 3.5 1.567 3.5 3.5s-1.567 3.5-3.5 3.5-3.5-1.567-3.5-3.5 1.567-3.5 3.5-3.5zm-9-.5c-1.654 0-3 1.346-3 3s1.346 3 3 3 3-1.346 3-3-1.346-3-3-3zm9 2c-1.103 0-2 .897-2 2s.897 2 2 2 2-.897 2-2-.897-2-2-2z"/><path d="m13 15.5c.2761 0 .5.2239.5.5 0 2.4853-2.0147 4.5-4.5 4.5h-1c-2.48528 0-4.5-2.0147-4.5-4.5 0-.2761.22386-.5.5-.5zm-9-1.5c-1.10457 0-2 .8954-2 2 0 3.3137 2.68629 6 6 6h1c3.3137 0 6-2.6863 6-6 0-1.1046-.8954-2-2-2z"/><path d="m14.7721 20.7891c.4688.1373.9647.2109 1.4779.2109h.5c2.8995 0 5.25-2.3505 5.25-5.25 0-.9665-.7835-1.75-1.75-1.75h-4.3773c.3051.4375.5129.948.5919 1.5h3.7854c.1381 0 .25.1119.25.25 0 2.0711-1.6789 3.75-3.75 3.75h-.5c-.201 0-.3983-.0158-.5908-.0463-.2481.4775-.5461.9249-.8871 1.3354z"/></g></svg>