<svg viewBox="0 0 16 16" fill="none" xmlns="http://www.w3.org/2000/svg"><path d="M4.5 9.5L4.00945 9.58919C2.46052 9.87081 1.68605 10.0116 1.28388 9.56187C0.881709 9.11211 1.1079 8.35814 1.56028 6.85021L1.62719 6.62719" stroke="currentColor" stroke-opacity="0.5" stroke-linecap="round" stroke-linejoin="round"/><path d="M9.5 5.5C9.5 7.70914 7.70914 9.5 5.5 9.5C3.29086 9.5 1.5 7.70914 1.5 5.5C1.5 3.29086 3.29086 1.5 5.5 1.5C7.70914 1.5 9.5 3.29086 9.5 5.5Z" stroke="currentColor" stroke-linejoin="round"/><path d="M11.5 14.5L11.9686 14.6172C13.4955 14.9989 14.2589 15.1897 14.6871 14.7898C14.7137 14.7649 14.7391 14.7386 14.7631 14.7112C15.1485 14.2699 14.9324 13.5133 14.5 12V12" stroke="currentColor" stroke-opacity="0.5" stroke-linecap="round" stroke-linejoin="round"/><path fill-rule="evenodd" clip-rule="evenodd" d="M6.0249 10.9753C6.26234 13.2372 8.17535 15 10.5001 15C12.9854 15 15.0001 12.9853 15.0001 10.5C15.0001 8.17526 13.2372 6.26224 10.9754 6.02481C10.9433 6.36371 10.8805 6.69365 10.7897 7.01182C12.5872 7.15905 14.0001 8.66453 14.0001 10.5C14.0001 12.433 12.4331 14 10.5001 14C8.66462 14 7.15915 12.5871 7.01191 10.7896C6.69375 10.8804 6.3638 10.9432 6.0249 10.9753Z" fill="currentColor"/></svg>