<svg fill="none" viewBox="0 0 24 24" xmlns="http://www.w3.org/2000/svg"><path d="m19.8084 3.6915c-1.2692-1.26921-3.327-1.26921-4.5962 0l-9.0636 9.0636c-.67658.6765-1.08035 1.0802-1.40906 1.5428-.29151.4102-.53624.8517-.72961 1.3164-.21804.5239-.3464 1.0802-.56148 2.0125l-.45755 1.9827c-.05815.252.01761.5162.20046.699.18286.1829.44701.2586.69898.2005l1.9827-.4576c.93229-.2151 1.48866-.3434 2.01256-.5615.46463-.1933.90618-.4381 1.31641-.7296.46256-.3287.86629-.7324 1.54279-1.409l9.0636-9.06361c1.2692-1.2692 1.2692-3.32699 0-4.59619zm-3.5356 1.06066c.6835-.68342 1.7915-.68342 2.4749 0 .6834.68341.6834 1.79145 0 2.47487l-.8837.88373-2.4749-2.47488zm-1.9443 1.94438 2.4748 2.47488-7.06891 7.06888c-.74152.7416-1.05363 1.0503-1.40126 1.2973-.31907.2267-.6625.4171-1.02388.5675-.39373.1638-.82092.2649-1.84274.5007l-.74419.1718.17173-.7442c.23581-1.0219.33687-1.4491.50073-1.8428.1504-.3614.34074-.7048.56748-1.0239.24704-.3476.55573-.6597 1.29726-1.4012z" fill="currentColor"/></svg>