<svg viewBox="0 0 16 16" fill="none" xmlns="http://www.w3.org/2000/svg"><path d="M12.9498 3.4197C13.0892 3.23275 13.0809 2.97426 12.9297 2.79669C12.7786 2.61913 12.5247 2.56964 12.3179 2.67743L4.60979 6.69494C4.44796 6.77929 4.34494 6.9451 4.34101 7.12755C4.33707 7.31 4.43285 7.4801 4.59089 7.57135L6.64224 8.75569L3.08669 12.5366C2.9236 12.71 2.9054 12.9744 3.0432 13.1685C3.18099 13.3627 3.43655 13.4327 3.65408 13.336L11.9396 9.65183C12.1114 9.57542 12.2258 9.40905 12.2357 9.22125C12.2456 9.03344 12.1493 8.85598 11.9864 8.76195L9.87527 7.54308L12.9498 3.4197Z" fill="currentColor"/></svg>