<svg fill="none" viewBox="0 0 24 24" xmlns="http://www.w3.org/2000/svg"><path d="m14.633 2.25h-5.266c-1.09214-.00001-1.95765-.00001-2.65527.05699-.71338.05828-1.31701.17989-1.86818.46073-.89377.4554-1.62043 1.18206-2.07583 2.07583-.28084.55117-.40245 1.15479-.46073 1.86818-.057.69762-.057 1.56312-.05699 2.65526v5.26601c-.00001 1.0921-.00001 1.9576.05699 2.6553.05828.7134.17989 1.317.46073 1.8682.4554.8937 1.18206 1.6204 2.07583 2.0758.55117.2808 1.15479.4024 1.86818.4607.69762.057 1.56311.057 2.65525.057h3.38002c.4186.0003.7481.0005 1.0665-.076.2806-.0673.5489-.1785.7949-.3292.2792-.1711.5121-.4043.8079-.7004l5.228-5.228c.2962-.2959.5294-.5288.7005-.808.1507-.246.2619-.5143.3292-.7949.0765-.3184.0763-.6479.076-1.0665v-3.38002c0-1.09214 0-1.95763-.057-2.65525-.0583-.71339-.1799-1.31701-.4607-1.86818-.4554-.89377-1.1821-1.62043-2.0758-2.07583-.5512-.28084-1.1548-.40245-1.8682-.46073-.6977-.057-1.5632-.057-2.6553-.05699zm-9.10847 1.85423c.30447-.15514.68872-.25152 1.30935-.30222.62938-.05143 1.43364-.05201 2.56612-.05201h5.2c1.1325 0 1.9367.00058 2.5661.05201.6206.0507 1.0049.14708 1.3094.30222.6115.31159 1.1087.80877 1.4203 1.4203.1551.30447.2515.68872.3022 1.30935.0514.62939.052 1.43364.052 2.56612v3.2745.0755h-3.5804c-.5342 0-.98 0-1.3443.0297-.3799.0311-.7365.0982-1.0738.27-.5174.2637-.9381.6844-1.2018 1.2018-.1718.3373-.2389.6939-.27 1.0738-.0297.3643-.0297.8101-.0297 1.3443v3.5804c-.0242 0-.0494 0-.0755 0h-3.2745c-1.13248 0-1.93674-.0006-2.56612-.052-.62063-.0507-1.00488-.1471-1.30935-.3022-.61153-.3116-1.10871-.8088-1.4203-1.4203-.15514-.3045-.25152-.6888-.30222-1.3094-.05143-.6294-.05201-1.4336-.05201-2.5661v-5.2c0-1.13248.00058-1.93673.05201-2.56612.0507-.62063.14708-1.00488.30222-1.30935.31159-.61153.80877-1.10871 1.4203-1.4203zm8.72547 15.58447v-2.9887c0-.5724.0006-.9566.0248-1.2525.0234-.2871.0653-.4244.1114-.515.1199-.2352.3111-.4264.5463-.5463.0906-.0461.2279-.088.515-.1114.2959-.0242.6801-.0248 1.2525-.0248h2.9887c-.0459.0463-.0976.0983-.1563.1569l-5.1255 5.1255c-.0586.0587-.1106.1104-.1569.1563z" fill="currentColor"/></svg>