<svg fill="none" viewBox="0 0 24 24" xmlns="http://www.w3.org/2000/svg"><g fill="currentColor"><path d="m20.75 4c0-.41421-.3358-.75-.75-.75h-5.5c-.4142 0-.75.33579-.75.75s.3358.75.75.75h3.6893l-5.2196 5.21967c-.2929.29293-.2929.76773 0 1.06063s.7677.2929 1.0606 0l5.2197-5.21964v3.68934c0 .41421.3358.75.75.75s.75-.33579.75-.75z"/><path d="m10.25 20c0 .4142-.33579.75-.75.75h-5.5c-.41421 0-.75-.3358-.75-.75v-5.5c0-.4142.33579-.75.75-.75s.75.3358.75.75v3.6893l5.21967-5.2196c.29293-.2929.76773-.2929 1.06063 0s.2929.7677 0 1.0606l-5.21964 5.2197h3.68934c.41421 0 .75.3358.75.75z"/></g></svg>
