<svg fill="none" viewBox="0 0 24 24" xmlns="http://www.w3.org/2000/svg"><g fill="currentColor"><path d="m10.8831 2.67565c.7111-.31603 1.5227-.31603 2.2338 0l8.1877 3.63899c.2708.12037.4454.38896.4454.68535 0 .2964-.1746.56499-.4454.68536l-4.1686 1.85271 4.2231 2.30354c.2506.1366.4019.4037.3903.6888-.0116.2852-.184.5391-.4448.655l-8.1877 3.639c-.7111.316-1.5227.316-2.2338 0l-8.1877-3.639c-.2608-.1159-.43321-.3698-.44478-.655-.01157-.2851.1397-.5522.39024-.6888l4.22313-2.30354-4.16859-1.85271c-.27085-.12037-.4454-.38896-.4454-.68536 0-.29639.17455-.56498.4454-.68535zm2.2338 8.64865c-.7111.3161-1.5227.3161-2.2338 0l-2.29304-1.0191-3.89791 2.1261 6.80015 3.0223c.3232.1437.6922.1437 1.0154 0l6.8002-3.0223-3.898-2.1261zm-.6092-7.27794c-.3232-.14364-.6922-.14364-1.0154 0l-6.64564 2.95363 6.64564 2.95363c.3232.14368.6922.14368 1.0154 0l6.6456-2.95363z"/><path d="m11.2893 18.5992-6.65538-2.9579-1.97916 1.0262c-.24867.129-.40476.3857-.40476.6658 0 .2802.15609.5369.40476.6659l8.04354 3.8738c.8226.3962 1.7808.3962 2.6034 0l8.0435-3.8738c.2487-.129.4048-.3857.4048-.6659 0-.2801-.1561-.5368-.4048-.6658l-1.9791-1.0262-6.6554 2.9579c-.4524.2011-.969.2011-1.4214 0z"/></g></svg>