<svg fill="none" viewBox="0 0 24 24" xmlns="http://www.w3.org/2000/svg"><g fill="currentColor"><path d="m2.83449 18.6393c.41725 0 .65832-.1947.81595-.6398l1.17756-3.3194h5.2944l1.1868 3.3194c.1577.4451.3987.6398.816.6398.4821 0 .8345-.306.8345-.7325 0-.1205-.0279-.2596-.102-.4636l-4.31157-11.6458c-.20399-.54705-.53779-.7974-1.04775-.7974-.54706 0-.89013.25962-1.09412.80668l-4.30227 11.63652c-.07417.204-.10199.3431-.10199.4636 0 .4265.35234.7325.83449.7325zm2.47566-5.3778 2.14187-6.10109h.05563l2.14186 6.10109z"/><path d="m17.3268 18.6764c1.2981 0 2.5313-.7232 3.1062-1.8266h.0371v1.0107c0 .4821.3153.8159.7696.8159.445 0 .7603-.3338.7603-.8159v-6.0177c0-1.9193-1.4279-3.14322-3.6903-3.14322-1.567 0-2.9764.69541-3.5234 1.75242-.1298.2318-.1947.4636-.1947.6676 0 .4358.2967.7232.7139.7232.306 0 .5193-.1205.6676-.3894.5378-.955 1.2517-1.3352 2.2995-1.3352 1.3352 0 2.114.7047 2.114 1.8823v.8066l-2.7723.1577c-2.2253.1298-3.4956 1.1683-3.4956 2.8187 0 1.7339 1.2888 2.8929 3.2081 2.8929zm.3617-1.3723c-1.1591 0-1.9286-.6027-1.9286-1.5206 0-.9087.7417-1.4835 2.0398-1.567l2.5869-.1576v.7881c0 1.3908-1.1775 2.4571-2.6981 2.4571z"/></g></svg>