<svg fill="none" viewBox="0 0 24 24" xmlns="http://www.w3.org/2000/svg"><g fill="currentColor"><path d="m9.25 15c0 .2702.14534.5195.38048.6526.23513.1332.52372.1295.75542-.0095l5-3c.2259-.1355.3641-.3797.3641-.6431s-.1382-.5076-.3641-.6431l-5-3.00002c-.2317-.13902-.52029-.14266-.75542-.00953-.23514.13313-.38048.38245-.38048.65265z"/><path d="m12 2.25c-5.38478 0-9.75 4.36522-9.75 9.75 0 5.3848 4.36522 9.75 9.75 9.75 5.3848 0 9.75-4.3652 9.75-9.75 0-5.38478-4.3652-9.75-9.75-9.75zm-8.25 9.75c0-4.55635 3.69365-8.25 8.25-8.25 4.5563 0 8.25 3.69365 8.25 8.25 0 4.5563-3.6937 8.25-8.25 8.25-4.55635 0-8.25-3.6937-8.25-8.25z"/></g></svg>