<svg fill="none" viewBox="0 0 24 24" xmlns="http://www.w3.org/2000/svg"><path d="m13.1169 2.67565c-.7111-.31603-1.5227-.31603-2.2338 0l-8.1877 3.63899c-.27085.12037-.4454.38896-.4454.68535 0 .2964.17455.56499.4454.68536l4.03704 1.79425-4.04279 1.8376c-.26879.1222-.44088.3907-.43964.686.00124.2952.17558.5623.44539.6822l4.03703 1.7942-4.04278 1.8376c-.26879.1222-.44088.3907-.43964.686.00124.2952.17558.5623.44539.6822l8.1877 3.639c.7111.316 1.5227.316 2.2338 0l8.1877-3.639c.2698-.1199.4442-.387.4454-.6822.0012-.2953-.1709-.5638-.4396-.686l-4.0428-1.8376 4.037-1.7942c.2698-.1199.4442-.387.4454-.6822.0012-.2953-.1709-.5638-.4396-.686l-4.0428-1.8376 4.037-1.79425c.2708-.12037.4454-.38896.4454-.68536 0-.29639-.1746-.56498-.4454-.68535zm2.3178 12.61855 3.7359 1.6981-6.6629 2.9613c-.3232.1437-.6922.1437-1.0154 0l-6.66293-2.9613 3.73588-1.6981 2.31785 1.0302c.7111.316 1.5227.316 2.2338 0zm-10.60533-3.3019 3.7359-1.6981 2.31783 1.0301c.7111.3161 1.5227.3161 2.2338 0l2.3178-1.0301 3.7359 1.6981-6.6629 2.9613c-.3232.1437-.6922.1437-1.0154 0z" fill="currentColor"/></svg>