<svg fill="none" viewBox="0 0 24 24" xmlns="http://www.w3.org/2000/svg"><path d="m12 4.5c4.1421 0 7.5 3.35786 7.5 7.5 0 4.1421-3.3579 7.5-7.5 7.5-4.14214 0-7.5-3.3579-7.5-7.5 0-.3764.02772-.7462.08123-1.1077.06722-.4541-.26514-.8923-.72415-.8923-.37085 0-.69608.2562-.75237.6228-.06895.449-.10471.9089-.10471 1.3772 0 4.9706 4.02944 9 9 9 4.9706 0 9-4.0294 9-9 0-4.97056-4.0294-9-9-9-2.30506 0-4.40773.86656-6 2.29168v-1.04168c0-.41421-.33579-.75-.75-.75s-.75.33579-.75.75v3c0 .41421.33579.75.75.75h3c.41421 0 .75-.33579.75-.75s-.33579-.75-.75-.75h-1.34907c1.33814-1.24117 3.12997-2 5.09907-2z" fill="currentColor"/></svg>