<svg fill="none" viewBox="0 0 24 24" xmlns="http://www.w3.org/2000/svg"><g fill="currentColor"><path d="m15.5 10c.8284 0 1.5-.67157 1.5-1.5s-.6716-1.5-1.5-1.5-1.5.67157-1.5 1.5.6716 1.5 1.5 1.5z"/><path d="m3.54497 5.73005c-.54497 1.06956-.54497 2.46969-.54497 5.26995v2c0 2.8003 0 4.2004.54497 5.27.47936.9408 1.24427 1.7057 2.18508 2.185 1.06956.545 2.46969.545 5.26995.545h2c2.8003 0 4.2004 0 5.27-.545.9408-.4793 1.7057-1.2442 2.185-2.185.545-1.0696.545-2.4697.545-5.27v-2c0-2.80026 0-4.20039-.545-5.26995-.4793-.94081-1.2442-1.70572-2.185-2.18508-1.0696-.54497-2.4697-.54497-5.27-.54497h-2c-2.80026 0-4.20039 0-5.26995.54497-.94081.47936-1.70572 1.24427-2.18508 2.18508zm9.45503-1.23005c1.4249 0 2.4033.00117 3.1618.06314.741.06054 1.1391.17155 1.4272.31834.6585.33555 1.194.87099 1.5295 1.52955.1468.28808.2578.68613.3184 1.42713.0619.75851.0631 1.73696.0631 3.16184v.9254l-4.6962 2.8177-2.6382-2.6381c-1.2045-1.2046-3.06967-1.4459-4.54113-.5876l-3.12441 1.8226-.00006-2.34c0-1.42488.00117-2.40333.06314-3.16184.06054-.741.17155-1.13905.31834-1.42713.33555-.65856.87099-1.194 1.52955-1.52955.28808-.14679.68613-.2578 1.42713-.31834.75851-.06197 1.73696-.06314 3.16184-.06314zm-8.43686 11.6618c-.02611-.3195-.04142-.6781-.05041-1.0926l3.86754-2.2561c.88288-.515 2.00193-.3702 2.72473.3525l2.3729 2.373-1.3638.8183c-.3552.2131-.4703.6738-.2572 1.029s.6738.4703 1.029.2572l6.6137-3.9682c-.0017 1.0693-.0111 1.8546-.0627 2.4869-.0606.741-.1716 1.1391-.3184 1.4272-.3355.6585-.871 1.194-1.5295 1.5295-.2881.1468-.6862.2578-1.4272.3184-.7585.0619-1.7369.0631-3.1618.0631h-2c-1.42488 0-2.40333-.0012-3.16184-.0631-.741-.0606-1.13905-.1716-1.42713-.3184-.65856-.3355-1.194-.871-1.52955-1.5295-.14679-.2881-.2578-.6862-.31834-1.4272z"/></g></svg>