<svg width="16" height="16" viewBox="0 0 16 16" fill="none" xmlns="http://www.w3.org/2000/svg">
<path d="M8.5 10.0095C8.77598 10.0095 8.99974 10.2336 9 10.5095C9 10.7856 8.77614 11.0095 8.5 11.0095H4.5L4.39941 10.9997C4.17149 10.9532 4 10.7512 4 10.5095C4.00023 10.268 4.1716 10.0658 4.39941 10.0193L4.5 10.0095H8.5Z" fill="white"/>
<path d="M11.5 10.0095C11.776 10.0095 11.9997 10.2336 12 10.5095C12 10.7856 11.7761 11.0095 11.5 11.0095H10.5C10.2239 11.0095 10 10.7856 10 10.5095C10.0003 10.2336 10.224 10.0095 10.5 10.0095H11.5Z" fill="white"/>
<path d="M5.5 6.99973C5.77607 6.99973 5.99988 7.22369 6 7.49973C6 7.77587 5.77614 7.99973 5.5 7.99973H4.5C4.22386 7.99973 4 7.77587 4 7.49973C4.00013 7.22369 4.22394 6.99973 4.5 6.99973H5.5Z" fill="white"/>
<path d="M11.6006 7.00949C11.8285 7.05601 11.9999 7.25812 12 7.49973C12 7.74143 11.8285 7.94342 11.6006 7.98996L11.5 7.99973H7.5C7.22386 7.99973 7 7.77587 7 7.49973C7.00013 7.22369 7.22394 6.99973 7.5 6.99973H11.5L11.6006 7.00949Z" fill="white"/>
<path fill-rule="evenodd" clip-rule="evenodd" d="M7.65039 2.24778C7.9184 2.18357 8.20031 2.19438 8.46387 2.28L8.6084 2.33762C8.74666 2.40321 8.86722 2.49153 8.98047 2.58762C9.12717 2.71216 9.29323 2.87792 9.48535 3.07004L9.67188 3.25754L10.0146 3.59348C10.0954 3.66833 10.1521 3.71393 10.2109 3.75266L10.333 3.82492C10.4584 3.89141 10.5929 3.93969 10.7324 3.96848L10.8428 3.98606C10.9644 3.99878 11.1328 3.99973 11.4648 3.99973C11.9401 3.99973 12.3226 3.99931 12.6328 4.02121C12.9479 4.04347 13.2267 4.09078 13.4893 4.20383L13.7031 4.30832C14.189 4.57507 14.5747 4.99731 14.7959 5.51047L14.8691 5.71067C14.9311 5.91451 14.9618 6.13056 14.9785 6.36692C15.0004 6.67712 15 7.0597 15 7.53488V10.2995C15 10.8512 15 11.2955 14.9707 11.654C14.9447 11.9727 14.8937 12.2577 14.7803 12.5222L14.7275 12.6345C14.4879 13.1049 14.1051 13.4876 13.6348 13.7273C13.3387 13.8781 13.0186 13.9407 12.6543 13.9704C12.2957 13.9997 11.8516 13.9997 11.2998 13.9997H4.7002C4.14839 13.9997 3.70429 13.9997 3.3457 13.9704C3.02698 13.9444 2.74208 13.8934 2.47754 13.78L2.36523 13.7273C1.89487 13.4876 1.51213 13.1049 1.27246 12.6345C1.1217 12.3385 1.05906 12.0183 1.0293 11.654C1.01466 11.4748 1.00747 11.2741 1.00391 11.0495L1 10.2995V7.53488C1 7.0597 0.999583 6.67712 1.02148 6.36692C1.04375 6.05192 1.09106 5.77295 1.2041 5.51047L1.30859 5.2966C1.57538 4.81073 1.99756 4.42495 2.51074 4.20383C2.77326 4.09078 3.05213 4.04347 3.36719 4.02121C3.67744 3.99931 4.05988 3.99973 4.53516 3.99973C4.97761 3.99973 5.12932 3.99698 5.26758 3.96848L5.40527 3.93332C5.54087 3.89163 5.67016 3.83091 5.78906 3.75266L5.87891 3.68625C5.97379 3.60931 6.09383 3.49184 6.32813 3.25754L6.51465 3.07004L6.78418 2.80442C6.86786 2.72337 6.94614 2.64992 7.01953 2.58762C7.17051 2.45952 7.33456 2.34554 7.53613 2.28L7.65039 2.24778ZM7.92188 3.21262L7.8457 3.23117C7.81932 3.23974 7.76984 3.26219 7.66602 3.35031C7.61193 3.39623 7.5523 3.45254 7.48047 3.52219L7.22266 3.77805L7.03516 3.96457C6.82251 4.17722 6.66254 4.33904 6.50195 4.46848L6.33887 4.58762C6.14067 4.71806 5.92525 4.81988 5.69922 4.88938L5.46973 4.94797C5.20831 5.00187 4.9367 4.99973 4.53516 4.99973C4.04565 4.99973 3.70439 5.00041 3.4375 5.01926C3.17532 5.03778 3.02244 5.07177 2.90625 5.1218C2.55446 5.27338 2.2737 5.55421 2.12207 5.90598C2.07204 6.02214 2.03806 6.17513 2.01953 6.43723C2.00068 6.70408 2 7.04549 2 7.53488V10.2995L2.00293 11.0339C2.00618 11.2423 2.01281 11.4189 2.02539 11.573C2.05008 11.8749 2.09618 12.0488 2.16309 12.1804C2.30688 12.4626 2.53713 12.6928 2.81934 12.8366L2.92676 12.8825C3.04536 12.925 3.19985 12.9558 3.42676 12.9743C3.73518 12.9995 4.13189 12.9997 4.7002 12.9997H11.2998C11.8681 12.9997 12.2648 12.9995 12.5732 12.9743C12.8753 12.9496 13.0491 12.9036 13.1807 12.8366C13.4629 12.6928 13.6931 12.4626 13.8369 12.1804L13.8828 12.073C13.9252 11.9544 13.9561 11.7998 13.9746 11.573C13.9998 11.2646 14 10.8677 14 10.2995V7.53488C14 7.04549 13.9993 6.70408 13.9805 6.43723C13.9666 6.24076 13.9438 6.10579 13.9121 6.00168L13.8779 5.90598C13.7452 5.59813 13.5132 5.34531 13.2217 5.18528L13.0938 5.1218C12.9776 5.07177 12.8247 5.03778 12.5625 5.01926C12.2956 5.00041 11.9543 4.99973 11.4648 4.99973C11.1638 4.99973 10.9357 5.00127 10.7305 4.97922L10.5303 4.94797C10.298 4.90003 10.0741 4.81937 9.86524 4.70871L9.66113 4.58762C9.54987 4.51436 9.44654 4.42977 9.33594 4.32785L8.96484 3.96457L8.77734 3.77805C8.57363 3.57434 8.4423 3.44228 8.33398 3.35031C8.28211 3.30628 8.24334 3.2791 8.21484 3.26145L8.1543 3.23117C8.07906 3.20678 7.99928 3.20039 7.92188 3.21262Z" fill="white"/>
</svg>
