<svg height="38" viewBox="0 0 84 38" width="84" xmlns="http://www.w3.org/2000/svg"><g fill="#fff" fill-rule="nonzero"><path d="m0 0v38h84v-38zm81.8315 35.787h-79.66329v-33.57403h79.66329z"/><path d="m48.5483 17.804c-1.7448 0-2.9968.3687-3.9399 1.1598-.9186.771-1.3467 1.8193-1.3467 3.2995 0 1.3727.3313 2.2929 1.1081 3.0761.8918.896 2.1286 1.3469 3.8916 1.4182.2923.0221.6229.033 1.011.033.3142 0 .6179-.0119.9032-.0357 1.3362-.0756 2.824-.7753 3.704-1.741.6835-.7502.9845-1.606.9845-2.7753v-6.0307c0-1.8132-.4018-3.0384-1.2734-3.8549-.9143-.8568-2.3211-1.2558-4.4312-1.2558-1.2751 0-2.1837.1415-3.0398.4739-.888.3535-1.6602.9545-2.3624 1.8384l-.08.101 1.5903 1.4895.0964-.1327c.8182-1.1255 2.0365-1.6727 3.7246-1.6727 1.2845 0 2.1988.2611 2.7999.7981.5843.5221.8662 1.3073.8662 2.4004v1.4106h-4.2061zm4.2061 3.4012c0 1.6819-.2433 2.2578-.6116 2.6054-.7143.6809-1.8221 1.0116-3.3895 1.0116-1.1928 0-2.1007-.2136-2.6988-.6344-.591-.4158-.8904-1.0495-.8904-1.8836 0-.834.3051-1.5287.9065-1.9647.6008-.436 1.4969-.6654 2.6632-.6654h4.0212v1.5308z"/><path d="m65.7216 26.9025v-15.7704h-2.2125l.0063 13.6383-6.6699-.0429-.1287-.001v2.176z"/><path d="m30.4093 25.6466c.9143.8568 2.3211 1.2559 4.4312 1.2559 1.2751 0 2.1837-.1416 3.0398-.474.888-.3535 1.6602-.9545 2.3624-1.8383l.08-.101-1.5903-1.4895-.0964.1326c-.8182 1.1255-2.0365 1.6727-3.7246 1.6727-1.2845 0-2.1988-.2611-2.7999-.798-.5843-.5222-.8662-1.3074-.8662-2.4005v-1.4264h4.2061c1.7448 0 2.9967-.3608 3.9399-1.1519.9189-.771 1.3467-1.8153 1.3467-3.2955 0-1.3727-.3313-2.2909-1.1082-3.0741-.8917-.8964-2.1285-1.3459-3.8915-1.4172-.2923-.0221-.623-.0327-1.011-.0327-.3142 0-.6179.0122-.9032.0357-1.3363.0752-2.8241.7752-3.7041 1.7413-.6834.7502-.9844 1.6063-.9844 2.7754v6.0306c0 1.8133.4018 3.0384 1.2734 3.8549zm.8363-8.8522c0-1.6819.2433-2.2578.6116-2.6054.7143-.6808 1.8221-1.0116 3.3899-1.0116 1.1928 0 2.1006.2136 2.6987.6344.591.4159.8904 1.0495.8904 1.8836 0 .834-.3051 1.5208-.9065 1.9568-.6008.436-1.4969.6575-2.6631.6575h-4.0213v-1.5153z"/><path d="m20.491 26.9025-.0064-13.6732 6.6699.0429.1287.001v-2.1411h-9.0048v15.7704z"/></g></svg>