<svg fill="none" height="28" viewBox="0 0 90 28" width="90" xmlns="http://www.w3.org/2000/svg"><g fill="#fff"><path d="m77.1306 27.9999c-.5945 0-1.1523-.0462-1.6734-.1387-.5137-.0854-.9394-.1957-1.277-.3308l1.0569-3.3933c.5504.1636 1.0458.2526 1.4862.2668.4477.0142.833-.0854 1.1559-.2988.3303-.2134.5981-.5762.8036-1.0884l.2753-.6936-6.0659-16.8596h4.9319l3.5009 12.0365h.1761l3.5338-12.0365h4.965l-6.5722 18.1614c-.3156.8821-.745 1.6504-1.2881 2.3049-.5357.6616-1.2146 1.1702-2.0366 1.5259-.822.3628-1.8128.5442-2.9724.5442z"/><path d="m63.8677 22.1729c-1.7394 0-3.2366-.3415-4.4917-1.0244-1.2476-.69-2.2091-1.6646-2.8843-2.9237-.6752-1.2663-1.0128-2.7637-1.0128-4.4924 0-1.6859.3376-3.1656 1.0128-4.43896s1.6257-2.26573 2.8513-2.97711c1.233-.71137 2.6788-1.06706 4.3375-1.06706 1.1156 0 2.1541.17429 3.1155.52286.9688.34146 1.8128.85721 2.5321 1.54724.7265.69004 1.2917 1.55792 1.6953 2.60364.4037 1.03859.6055 2.25509.6055 3.64939v1.2484h-14.2785v-2.817h9.864c0-.6545-.1468-1.2343-.4404-1.7393-.2936-.50511-.7009-.89992-1.222-1.18447-.5137-.29167-1.1119-.4375-1.7944-.4375-.7119 0-1.3431.16006-1.8935.48018-.5432.31301-.9688.73627-1.2771 1.26979-.3082.5264-.466 1.1133-.4734 1.7607v2.6783c0 .811.1542 1.5117.4624 2.1021.3156.5905.7596 1.0457 1.3321 1.3659.5724.3201 1.2513.4801 2.0366.4801.5211 0 .9982-.0711 1.4312-.2134.433-.1422.8036-.3557 1.1119-.6402.3082-.2846.5431-.6331.7045-1.0457l4.3375.2774c-.2201 1.0102-.6715 1.8923-1.3541 2.6463-.6752.747-1.5485 1.3303-2.6201 1.75-1.0642.4126-2.2935.6189-3.6879.6189z"/><path d="m52.405 0v21.8535h-4.6898v-21.8535z"/><path d="m43.9581 0v21.8535h-4.6897v-21.8535z"/><path d="m30.8277 14.875v-9.4115h4.6898v16.3901h-4.5026v-2.9771h-.1762c-.3816.9604-1.0165 1.7322-1.9045 2.3155-.8807.5834-1.9559.875-3.2256.875-1.1303 0-2.1247-.249-2.9834-.7469-.8587-.498-1.5302-1.2058-2.0146-2.1235-.4771-.9177-.7193-2.0167-.7266-3.2972v-10.4359h4.6898v9.6249c.0073.9675.2752 1.7322.8036 2.2942s1.2367.843 2.1247.843c.5651 0 1.0936-.1245 1.5853-.3735.4917-.2561.888-.6331 1.1889-1.1311.3083-.4979.4587-1.1133.4514-1.846z"/><path d="m0 21.8535v-21.8535h8.89516c1.71004 0 3.16684.316562 4.37054.949687 1.2036.626013 2.121 1.497443 2.7522 2.614303.6385 1.10975.9578 2.39023.9578 3.84144 0 1.4512-.323 2.73167-.9688 3.84147-.6459 1.1097-1.5816 1.974-2.8073 2.5929-1.2183.6189-2.6935.9284-4.42554.9284h-5.66956v-3.7027h4.89894c.9174 0 1.67335-.153 2.26786-.4589.6018-.313 1.0495-.74337 1.343-1.29113.301-.55487.4514-1.19155.4514-1.91004 0-.72561-.1504-1.35873-.4514-1.89938-.2935-.54776-.7412-.97103-1.343-1.2698-.60185-.3059-1.36513-.45884-2.28988-.45884h-3.21458v18.07609z"/></g></svg>