<svg fill="none" height="24" viewBox="0 0 128 24" width="128" xmlns="http://www.w3.org/2000/svg" xmlns:xlink="http://www.w3.org/1999/xlink"><clipPath id="a"><path d="m0 0h128v24h-128z"/></clipPath><g clip-path="url(#a)" clip-rule="evenodd" fill="#fff" fill-rule="evenodd"><path d="m42.1412 11.9294c0 6.5647-5.2941 11.9294-11.9294 11.9294-3.1059 0-5.8588-1.1294-7.9764-3.0353l16.0941-17.57643c2.3294 2.18824 3.8117 5.22353 3.8117 8.68233z"/><path d="m38.3293 3.24706-16.0941 17.50584c-2.4-2.1882-3.953-5.2941-3.953-8.8235 0-6.56469 5.3647-11.9294 11.9294-11.9294 3.1765 0 6 1.2 8.1177 3.24706z" fill-opacity=".6"/><g><path d="m0 3.24707h4.51765l7.19995 9.31763v-9.31763h4.8706v17.57643h-4.2353l-7.5529-9.6v9.6h-4.8z"/><path d="m43.6943 3.24707h14.0471v4.23529h-9.1765v2.96474h8.2588v4.0235h-8.2588v6.2824h-4.8706z"/><path d="m58.6585 3.24707h8.3294c2.6823 0 4.5176.70588 5.7176 1.90588 1.0589.98824 1.553 2.32941 1.553 4.09412v.07059c0 2.68234-1.4118 4.44704-3.6 5.36474l4.1647 6.1411h-5.6471l-3.5294-5.2941h-.0706-2.1176v5.2941h-4.8706v-17.57643zm8.1176 8.47063c1.6236 0 2.6118-.7765 2.6118-2.11769v-.07059c0-1.41176-.9882-2.11764-2.6118-2.11764h-3.1764v4.23532h3.1764z"/><path d="m81.247 3.10596h4.6588l7.4824 17.71764h-5.2235l-1.2706-3.1059h-6.7765l-1.2706 3.1059h-5.0824zm4.2353 10.80004-1.9765-5.01181-1.9764 5.01181z"/><path d="m92.9648 13.1294v-9.88233h4.9412v9.74113c0 2.5412 1.2706 3.7412 3.247 3.7412 1.977 0 3.247-1.1294 3.247-3.6v-9.88233h4.941v9.74113c0 5.6471-3.247 8.1883-8.259 8.1883-5.0113 0-8.1172-2.5412-8.1172-8.0471z"/><path d="m110.965 3.24707h6.777c6.282 0 9.882 3.6 9.882 8.68233v.0706c0 5.0824-3.671 8.8235-10.024 8.8235h-6.705v-17.57643zm6.847 13.27063c2.894 0 4.871-1.6236 4.871-4.4471v-.0706c0-2.82352-1.906-4.44705-4.871-4.44705h-1.976v8.96475z"/></g></g></svg>