<svg viewBox="0 0 139.14 55.34" xmlns="http://www.w3.org/2000/svg"><g fill="#fff"><path d="m18 9.06h3.8l2-9.06h-8.03c-9.1 0-15.19 5.91-15.77 15.3v38.7h10.13v-27h8.63l1.24-9.13h-9.87v-1.77c.16-4.28 3.26-7.04 7.87-7.04z"/><path d="m129.52 20.43-.32-.26a15.53 15.53 0 0 0 -10.12-3.48c-9.83 0-17.54 8.49-17.54 19.33 0 11.19 7.74 19.32 18.4 19.32 3.48 0 6.71-1.71 9.32-3.78l.32-.25.29 3h9.27v-36.73h-9.27zm-9 25.42c-5.05 0-9.16-4.58-9.16-9.83s4.11-9.83 9.16-9.83 9.18 4.58 9.18 9.83-4.13 9.83-9.19 9.83z"/><path d="m41.28 17.37c-3 0-5.62 1.42-7.93 3l-.28.2-.45-2.91h-9v36.72h9.78v-20.86c.07-4.7 2.39-7 7.09-7h.66l1.75-9.09h-.27q-.73-.06-1.35-.06z"/><path d="m46.6 17.58h9.81v36.73h-9.81z"/><path d="m88.32 20.33-.32-.33a15.54 15.54 0 0 0 -10-3.31c-9.84 0-17.54 8.49-17.54 19.33 0 11.19 7.74 19.32 18.4 19.32 3.51 0 6.75-1.72 9.37-3.82l.32-.26.3 3.05h9.26v-52.55l-9.8 1.55zm-8.9 25.52c-5 0-9.15-4.58-9.15-9.83s4.11-9.83 9.15-9.83 9.14 4.58 9.14 9.83-4.1 9.83-9.14 9.83z"/><path d="m51.5 1.12a6.27 6.27 0 1 0 6.27 6.27 6.27 6.27 0 0 0 -6.27-6.27z"/></g></svg>