<svg height="17" viewBox="0 0 149 17" width="149" xmlns="http://www.w3.org/2000/svg"><g fill="#fff" fill-rule="nonzero"><path d="m104.8-0v3.5h1.2v9.4h-1.2v3.5h5.8v-3.5h-1.2v-1.8h5.8l2.3-2.4v-6.3l-2.3-2.4zm9.3 6.7-.8.8h-3.9v-4h3.9l.8.8z"/><path d="m14.1 3.5h2.3v9.4h-2.3v3.5h8.1v-3.5h-2.3v-9.4h2.3v-3.5h-8.1z"/><path d="m32.4 3.5h1.2l-2.3 9.4-2.3-9.4h1v-3.5h-5.8v3.5h1.2l3.5 12.9h4.6l3.5-12.9h1.2v-3.5h-5.8z"/><path d="m40.3 0v3.5h1.2v9.4h-1.2v3.5h12.8v-4.6h-2.3v1.1h-5.8v-3h4.6v-3.4h-4.6v-3h5.8v1.2h2.3v-4.7z"/><path d="m100.7 3.5h1.1v-3.5h-4.6l-3.5 7.1-3.5-7.1h-4.6v3.5h1.2v9.4h-1.2v3.5h5.8v-3.5h-1.2v-7.1l2.3 4.7h2.3l2.3-4.7v7.1h-1.2v3.5h5.8v-3.5h-1.2v-9.4z"/><path d="m148.7 4.7v-2.3l-2.3-2.4h-8.1l-2.3 2.4v4.9l2.3 2.3h7v3.3h-5.8v-1.1h-3.5v2.3l2.3 2.3h8.1l2.3-2.3v-5.5l-2.3-2.3h-7v-2.8h5.8v1.2z"/><path d="m58.3 0-2.3 2.4v11.7l2.3 2.4h7l2.3-2.4v-3.5h-3.5v2.4h-4.6v-9.5h4.6v2.4h3.5v-3.5l-2.3-2.4z"/><path d="m2.3 0-2.3 2.3v11.7l2.3 2.4h9.3v-8.2h-4.6v2.4h1.2v2.3h-4.7v-9.4h4.6v2.4h3.5v-3.5l-2.3-2.4z"/><path d="m127.9 3.5h1.2v9.4h-4.7v-9.4h1.1v-3.5h-5.8v3.5h1.2v10.6l2.3 2.3h7 .1l2.3-2.3v-10.6h1.2v-3.5h-5.8v3.5z"/><path d="m82.1 12.9-3.4-12.9h-4.7l-3.5 12.9h-1.2v3.5h5.8v-3.5h-1.2l.3-1.1h4.1l.3 1.1h-1.2v3.5h5.8v-3.5zm-6.9-4.6 1.2-4.7 1.2 4.7z"/></g></svg>