<svg fill="none" height="24" viewBox="0 0 63 24" width="63" xmlns="http://www.w3.org/2000/svg"><g fill="#fff"><path d="m7.98335 18.6606 2.14755-6.0489.1166-.3302h3.2478c2.5038 0 2.9991 1.4452 2.9991 3.0793h.4196l2.478-7.42696h-.4197c-1.0236 1.5126-2.4617 2.86206-4.9708 2.86206h-3.2324l3.103-8.78199h6.5662c4.1661 0 4.7098 1.67638 4.7098 3.1945h.4335l1.8216-5.20841h-20.37852v.384387c1.70649.286526 2.79854 2.230903 2.06222 4.317983l-4.88762 13.83943c-.72208 1.8409-2.91944 3.9308-4.19928 4.1843v.3843h10.1866v-.3843c-1.24677-.3967-2.90682-1.9274-2.20325-4.0655z"/><path d="m60.3691 22.7718c-.5061-.253-1.7238-1.4483-2.8507-3.9533-.7848-1.6121-1.6116-3.2074-2.3244-4.8532l.933-1.3206c1.7997-2.5421 2.7164-3.72318 3.6593-3.92127v1.27707c.4744.1483.9548.1452 1.2879.143.0377-.0002.0734-.0004.107-.0004 1.2893 0 1.8564-.79238 1.7876-1.7168-.0714-.95743-.8965-1.65075-2.0409-1.68376-1.3628 0-2.5447 1.082-4.2486 3.42606l-1.9717 2.724c-.9239-2.0378-1.8889-4.05486-2.7692-6.11275h-4.5732v.38439c1.2219.4807 2.2367 2.38217 3.0671 4.19286.6506 1.5535 1.29 3.1113 1.9674 4.6551l-1.2644 1.8159c-1.5856 2.2773-2.7163 3.3014-3.6593 3.4995v-1.1885c-.528-.1651-1.0634-.2311-1.3949-.2311-1.2892 0-1.8564.7924-1.7875 1.7168.0498.6695.4684 1.2099 1.107 1.4856.2745.1186.5897.1882.9338.1981.3958 0 .7935-.0585 1.1994-.1981.9919-.341 2.1846-1.6206 3.0492-2.8062l2.3332-3.1863c.9374 2.0071 2.8805 5.9155 2.9199 5.9925h4.533z"/><path d="m25.8808 19.8798c-.6955 2.0638.8446 1.531 3.0063.2586.0286.1959.0651.3882.1091.5766-1.9945 1.403-3.8382 2.5935-5.4831 2.5935-1.5278 0-1.9048-.9791-.8222-3.9618l6.6384-19.3467h3.3728z"/><path clip-rule="evenodd" d="m43.6664 19.2577c-1.3751 2.7871-3.6803 4.0093-6.3861 4.0735-3.6199.0858-6.238-2.3115-6.5727-5.7138-.4827-4.9073 3.2523-11.4166 8.7116-11.4166 3.3137 0 4.8663 1.40802 4.909 3.20804v.00052c.0475 2.02454-2.5671 3.60964-7.7181 6.73244h-.0002c-.6874.4168-1.4201.861-2.1976 1.3372.0534.3568.1156.6882.192.9942.5067 1.8219 1.5853 2.818 4.3015 2.7536 1.7185-.0408 3.1531-.9781 4.5074-2.4858zm-2.4072-8.9008c-.021-.88931-.6689-1.6912-1.7169-1.66635-3.6932.08757-5.5338 4.84265-5.2573 7.99865.254-.1686.5706-.3692.9277-.5954 2.2449-1.4222 6.0911-3.8589 6.0465-5.7369z" fill-rule="evenodd"/></g></svg>