<svg fill="none" height="24" viewBox="0 0 110 24" width="110" xmlns="http://www.w3.org/2000/svg" xmlns:xlink="http://www.w3.org/1999/xlink"><clipPath id="a"><path d="m0 0h109.819v24h-109.819z"/></clipPath><g clip-path="url(#a)" fill="#fff"><path d="m12.2707 16.2972h-3.96565c-1.20495 0-2.3489.5185-3.13441 1.4261l-5.010487 5.7655c3.645377.1906 7.458527.1906 10.142947.1906 13.9638 0 15.9314-8.5948 15.9314-12.6215-1.2126 1.4719-4.6215 5.2393-13.9714 5.2393zm12.2403-13.04104c-.061.70162-.45 3.57674-8.6254 3.57674-6.65014 0-9.3346 0-15.8856-.12965l4.91134 5.64345c.95329 1.0982 2.32603 1.7388 3.78265 1.7541 1.62441.0229 3.85131.0457 4.21731.0457 8.3966 0 13.1097-3.8513 13.1097-7.54239 0-1.53289-.511-2.62345-1.5024-3.35557z"/><path d="m53.5061 6.6042v11.5767c0 1.2813-.2669 2.3566-.8007 3.226-.5339.8617-1.2584 1.5024-2.1735 1.9371-.9076.4194-1.9219.6253-3.0582.6253s-2.1354-.2135-3.0581-.6482c-.9152-.4271-1.6473-1.0753-2.1888-1.9371-.0686-.1068-.1296-.2135-.183-.3203-.061.1144-.122.2211-.1831.3203-.5338.8618-1.2583 1.5024-2.1887 1.9371-.9152.427-1.9371.6482-3.0582.6482-1.121 0-2.1353-.2059-3.0047-.6253-.8694-.4195-1.5634-1.0601-2.0668-1.9219-.5109-.8694-.7702-1.9523-.7778-3.2412l-.1678-11.5767h5.5977v10.4023c0 .6253.1449 1.0448.4271 1.2736.2974.2135.6482.3203 1.0524.3203s.7779-.1144 1.1058-.3432.4957-.6482.4957-1.2583v-10.40233h5.5672v10.40233c0 .6101.1678 1.0295.4957 1.2583.328.2288.694.3432 1.1059.3432.4118 0 .755-.1068 1.0371-.3203.2975-.2288.4424-.6483.4424-1.2736v-10.4023h5.5977zm1.8685 0v16.9762h5.5977v-16.9762zm4.3241-1.42612c.4652-.22879.8236-.54147 1.0829-.95329.2746-.41945.4042-.90753.4042-1.4795 0-.57198-.1373-1.02193-.4042-1.44138-.2593-.419444-.6253-.739749-1.0829-.968539-.45-.228789-.9533-.3431835-1.51-.3431835s-1.083.1143945-1.5405.3431835c-.45.22879-.8161.549095-1.083.968539-.2745.41945-.4042.89991-.4042 1.44138 0 .83889.2898 1.50238.8618 2.00572.5796.49571 1.3041.74737 2.1735.74737.5567 0 1.0601-.10676 1.51-.3203zm6.7569 1.49476c-1.0829.30505-1.9828.84652-2.6997 1.63203-.7093.77788-1.0677 1.83033-1.0677 3.14203 0 .8465.1296 1.5939.3889 2.2421.2746.6483.6254 1.2355 1.0525 1.7846.1677.2135.4194.4957.7474.8465.2821.3051.488.5491.6101.7321.1372.1831.2059.3585.2059.5263 0 .3813-.3051.6634-.9152.8312-.6101.1602-1.2355.2364-1.8837.2364-.0763-.0076-.1678-.0152-.2517-.0152l.7779 5.2927c.3203.0533.7016.0838 1.1516.0838 1.449 0 2.7455-.2135 3.8894-.6482 1.144-.4271 2.0439-1.0829 2.6997-1.9523.6711-.8694.9991-1.9447.9991-3.226 0-.5185-.0534-.999-.1678-1.4261-.0991-.4423-.244-.8312-.4271-1.1744-.1678-.3508-.3737-.6711-.6101-.9686-.2288-.2821-.5643-.6253-1.0219-1.0372-.2974-.2516-.511-.4499-.6482-.6101-.1373-.1677-.2059-.3431-.2059-.5109 0-.3508.1982-.6025.5948-.7474.4042-.1449.8923-.2212 1.4566-.2212.1907 0 .389.0077.5949.0305l-.5415-5.24686c-.3508-.05338-.7474-.08389-1.1897-.08389-1.266 0-2.448.16015-3.5462.47283zm14.9018 11.98096c-.755 0-1.3041-.1754-1.632-.5262-.3203-.3585-.4729-.8999-.4729-1.6092v-5.0105h3.2107v-4.9037h-3.2107v-4.02669l-5.5977 1.41086v14.39083c0 1.8685.3585 3.2717 1.0677 4.2097.7245.9305 1.8685 1.3957 3.4242 1.3957.7245 0 1.4185-.0534 2.0896-.1678.6712-.0992 1.2355-.2593 1.716-.4728l1.0524-4.8046c-.4195.0762-.9685.122-1.6473.122zm3.1497-12.0496v16.9762h5.5977v-16.9762zm4.3241-1.42612c.4652-.22879.8236-.54147 1.0829-.95329.2746-.41945.4042-.90753.4042-1.4795 0-.57198-.1372-1.02193-.4042-1.44138-.2593-.419444-.6253-.739749-1.0829-.968539-.45-.228789-.9533-.3431835-1.51-.3431835s-1.0829.1143945-1.5405.3431835c-.45.22879-.816.549095-1.083.968539-.2745.41945-.4042.89991-.4042 1.44138 0 .83889.2898 1.50238.8694 2.00572.5796.49571 1.3041.74737 2.1735.74737.5568 0 1.0601-.10676 1.5101-.3203zm20.9798 1.42612v16.9762h-5.598v-1.7388c-.312.3279-.648.633-1.021.9075-1.099.816-2.38 1.2202-3.8517 1.2202-1.4719 0-2.7531-.3966-3.8895-1.1897-1.1287-.8008-2.0057-1.8837-2.631-3.2412-.6254-1.3575-.9305-2.8446-.9305-4.4614 0-1.6167.3127-3.1039.9305-4.4461.6253-1.35749 1.5023-2.4328 2.631-3.22594 1.1287-.80076 2.4252-1.20495 3.8895-1.20495 1.4647 0 2.7527.40419 3.8517 1.2202.366.27455.709.57198 1.021.90754v-1.72355zm-5.415 8.4728c0-.6101-.144-1.1668-.427-1.6625-.282-.511-.671-.9075-1.174-1.205-.488-.2974-1.022-.4423-1.594-.4423s-1.106.1449-1.5938.4423c-.4881.2975-.877.694-1.1745 1.205-.2821.511-.4271 1.0601-.4271 1.6625 0 .6025.145 1.1516.4271 1.6626.2975.5109.6864.9075 1.1745 1.2049.4878.2975 1.0218.4424 1.5938.4424s1.106-.1449 1.594-.4424c.496-.2974.885-.694 1.174-1.1897.283-.5109.427-1.0677.427-1.6778z"/></g></svg>