<svg fill="none" viewBox="0 0 115 28" xmlns="http://www.w3.org/2000/svg"><g fill="#fff"><path d="m45.9974 13.3438c.4645-.7568.9186-1.6485 1.5126-2.4395.9898-1.30858 2.3629-2.28393 3.9326-2.79343 1.5698-.5095 3.2601-.52843 4.8411-.05423 2.167.66452 3.3447 2.22076 3.7643 4.36976.1224.6854.1871 1.3796.1934 2.0756.0449 2.0328-.0207 4.0725.0984 6.1002.0768 1.7694.8016 3.4507 2.0393 4.7302.6858.7394 1.5824 1.2553 2.5711 1.4794.2504.0546.4335.1708.3454.4202-.0421.0709-.1007.1306-.1711.1743-.0703.0437-.1502.0701-.233.0768-3.4535.0137-6.907.0137-10.3605 0-.1381 0-.2745-.1708-.411-.2528.0916-.1332.1624-.3553.2815-.3861 2.882-.7345 4.2323-2.8101 4.8764-5.475.3453-1.4537.2901-2.9536.1502-4.4193-.1589-1.6775-1.188-2.904-2.6316-3.6967-2.5746-1.4196-5.2683-1.5682-7.9431-.3126-1.908.8968-2.9441 2.4309-2.9251 4.5867.0173 1.4486-.0846 2.9041.3316 4.3254.5836 1.9884 1.6197 3.6369 3.5726 4.5781.2815.135.594.2102.8876.3229.24.094.6458.0171.5802.4629-.0657.4459-.4473.2665-.6907.27-1.2519.017-2.5038 0-3.7557 0h-6.389c-.0986.0198-.2002.0198-.2987 0-.133-.0633-.3454-.1828-.3454-.258.0102-.0806.0397-.1576.0859-.2248.0462-.0671.1079-.1224.18-.1613 3.0495-.7994 4.4274-3.0219 4.9265-5.8576.3195-1.7853.3037-3.6135-.0467-5.3931-.3298-1.6502-1.5109-2.6153-3.2117-2.6922-.6907-.0307-1.3814.0359-2.0618.0273-.1122 0-.3229-.1605-.3194-.2408.0397-1.0967.1226-2.1918.6786-3.18084.6009-1.06597 1.6611-1.55795 2.894-1.45204 1.6094.14008 2.4676 1.21459 2.7628 2.66828.1883.8952.2003 1.8228.2884 2.6223z"/><path d="m98.2057 17.8357c.2541 1.2425.929 2.3622 1.9133 3.174 1.236 1.054 2.692 1.6826 4.272 2.0226 2.207.4749 4.422.5124 6.62-.0547 1.156-.3007 2.219-.7858 3.007-1.7322.065-.0786.309-.1367.345-.0957.105.1213.233.3109.205.4459-.226 1.2365-.76 2.3977-1.554 3.379-1.681 2.0345-3.914 2.846-6.511 2.8169-1.401.005-2.786-.296-4.056-.8815-1.972-.9013-3.5051-2.5352-4.2672-4.5474-1.0266-2.5348-1.137-5.3425-.3125-7.9486 1.0533-3.3909 3.4017-5.51429 6.8677-6.34964 2.567-.61839 5.116-.51248 7.501.77044 1.314.7021 2.324 1.7185 2.635 3.2098.488 2.3318-.392 4.3425-2.936 5.2154-1.45.4971-2.96.5586-4.469.5706-2.904.0188-5.81 0-8.7163 0zm-.0725-.8131c.0558.0215.1137.0375.1727.0478 3.7501-.0222 7.5031-.0205 11.2531-.0906.772-.0153 1.554-.2494 2.302-.4885.794-.2563 1.14-.8849 1.036-1.6622-.035-.2631-.133-.5142-.286-.7323s-.356-.3969-.593-.5215c-.526-.3176-1.09-.569-1.678-.7483-2.311-.6218-4.663-.6337-7.008-.2391-1.46.246-2.837.7345-3.9607 1.7458-.386.3368-.6958.7504-.9091 1.2137-.2134.4634-.3255.966-.329 1.4752z"/><path d="m37.4738 18.1571c-.1727 3.5447-1.7699 6.676-5.327 8.6149-3.7488 2.0414-8.3955 1.1718-11.2429-1.9953-3.8714-4.3048-3.5571-10.9774.6907-14.7082 4.0872-3.5874 10.0739-3.09371 13.5153 1.1069 1.58 1.9218 2.3155 4.1289 2.3639 6.9817zm-9.1777 5.1983c.468-.0581 1.4039-.1161 2.3156-.2989 1.8234-.3639 3.4777-1.0933 4.7934-2.4429 1.6456-1.6877 1.6802-4.0264.0225-5.6988-.5916-.5995-1.2731-1.1054-2.0203-1.4998-2.6851-1.3957-5.5481-1.5716-8.4749-.9737-1.7492.357-3.3344 1.0745-4.6139 2.3437-1.7561 1.7442-1.7561 4.1528 0 5.8953.2843.2818.5915.5401.9186.7721 1.9703 1.4008 4.2202 1.8706 7.059 1.903z"/><path d="m75.3433 7.77804c1.6784-.02904 3.3326.13154 4.8625.89343 2.578 1.2812 3.3033 4.38173 1.5679 6.67083-.3454.4663-.411.4595-.6907-.0308-.411-.7345-1.0516-1.2333-1.763-1.6553-1.4695-.8712-3.0857-1.3051-4.7659-1.5169-1.5005-.1897-3.0097-.2836-4.5016.0803-.3203.0796-.6287.2008-.9169.3604-.8047.4493-.9549 1.3102-.3039 1.9662.3486.3375.7512.6158 1.1914.8234 1.7095.8354 3.5589 1.2727 5.372 1.8176 1.4245.4271 2.818.9635 4.2081 1.4982.4608.1996.8942.4561 1.2898.7636 2.1136 1.522 2.3588 4.4312.5578 6.3206-.8373.8766-1.9296 1.4737-3.1254 1.7083-2.7628.5688-5.4946.4492-8.1555-.5006-1.3348-.4766-2.4727-1.2504-2.9458-2.6734-.4887-1.4725-.2521-2.834.7597-4.0401.266-.3177.3454-.3058.5492.0427.4196.7414 1.1033 1.1958 1.8372 1.5614 1.6335.8268 3.3896 1.2436 5.1975 1.4571 1.3814.1709 2.7628.2102 4.1201-.0922.3499-.0773.6883-.199 1.0067-.3622.8374-.4373 1.0757-1.2214.4904-1.9542-.442-.5401-.9733-1.0022-1.5714-1.3666-1.2881-.7995-2.749-1.1958-4.1977-1.6297-1.7268-.5125-3.4535-1.0506-5.1803-1.6024-.4054-.1453-.7962-.3277-1.1673-.5449-1.6058-.8747-2.2102-2.3694-1.7025-4.1238.3747-1.2932 1.2674-2.13877 2.4174-2.76058 1.2968-.70381 2.7145-.99251 4.1719-1.10867.4662-.03075.9272-.00171 1.3883-.00171z"/><path d="m8.36765 7.77805c1.67845-.02733 3.33095.13325 4.86085.89855 2.5676 1.28633 3.2894 4.4039 1.554 6.6776-.3453.4459-.4058.4374-.6907-.058-.3816-.6833-.9652-1.1565-1.6197-1.5597-1.5074-.9276-3.17719-1.382-4.91603-1.6006-1.48673-.188-2.98037-.2819-4.45847.0785-.33446.0799-.65631.2046-.95662.3707-.78568.4425-.94108 1.2932-.30909 1.9389.35633.3504.76959.6391 1.22254.8542 1.70948.8336 3.55884 1.2692 5.37365 1.8141 1.43839.4322 2.84222.9789 4.24262 1.5221.4609.201.8934.4605 1.2864.7722 1.5403 1.124 2.048 2.7076 1.504 4.5269-.4765 1.5955-1.6162 2.5453-3.1081 3.1466-1.1438.4348-2.36126.6488-3.58647.6304-1.98059.0154-3.94218-.1162-5.79499-.8917-1.25362-.5279-2.322478-1.283-2.748986-2.6479-.45759-1.4622-.2192978-2.8067.790856-4.0024.14332-.1709.32117-.3742.48867-.0462.41269.8098 1.12929 1.2761 1.89943 1.6673 1.61969.8234 3.36198 1.2334 5.15608 1.4503 1.3814.1709 2.76281.217 4.12001-.0871.3773-.0841.7415-.218 1.0827-.398.7805-.4203.9532-1.1172.4938-1.8791-.378-.612-.9341-1.0967-1.5955-1.3906-1.0715-.5117-2.1714-.9628-3.29462-1.3512-1.81136-.5962-3.66071-1.0745-5.48071-1.6468-.62617-.2096-1.23092-.4773-1.80618-.7995-1.593796-.8541-2.189526-2.3454-1.697402-4.0844.371252-1.3137 1.274342-2.16784 2.434722-2.79648 1.2847-.69356 2.69028-.97884 4.13212-1.10013.46968-.03929.94799-.00854 1.42112-.00854z"/><path d="m91.3365 27.4979c-1.6819 0-3.3655 0-5.0491 0-.1968 0-.4541.0854-.5076-.2409-.0536-.3263.1623-.3912.4213-.4578 2.4313-.6321 3.7816-2.342 4.4896-4.5918.2689-.9148.4135-1.861.4299-2.8136.0532-1.1925-.0011-2.3873-.1623-3.5703-.2607-1.7492-1.485-2.7896-3.267-2.904-.6596-.021-1.3198-.0028-1.9772.0546-.2141.012-.385.0154-.3764-.2545.0397-1.1138.1382-2.2207.7011-3.22009.6112-1.08817 1.5903-1.46057 2.7835-1.41445 1.6197.06321 2.4693 1.11209 2.8198 2.49404.1673.6767.2543 1.3704.259 2.0671.0311 2.3198 0 4.6396.0138 6.9595 0 1.698.392 3.3004 1.3227 4.7456.7943 1.2333 1.8718 2.108 3.3327 2.4633.2365.0581.3988.1213.3764.4083-.0242.3416-.2677.2784-.4731.2801z"/><path d="m90.5649 6.18558c-.8289.02809-1.6352-.27073-2.2414-.83073-.6062-.55999-.9627-1.33529-.9911-2.15533s.2737-1.61766.8397-2.21738c.5661-.59972 1.3497-.9524208 2.1787-.98051066 1.7975-.05466474 3.2514 1.27266066 3.2929 3.00485066.0105.40917-.0609.81636-.2103 1.19807-.1493.38172-.3735.73041-.6597 1.02596-.2863.29554-.6288.5321-1.0079.69602-.3791.16393-.7873.25197-1.2009.25905z"/></g></svg>