<svg fill="none" viewBox="0 0 24 24" xmlns="http://www.w3.org/2000/svg"><g fill="currentColor"><path d="m12 3.75c-4.55635 0-8.25 3.69365-8.25 8.25 0 4.5563 3.69365 8.25 8.25 8.25 4.5563 0 8.25-3.6937 8.25-8.25 0-4.55635-3.6937-8.25-8.25-8.25zm-9.75 8.25c0-5.38478 4.36522-9.75 9.75-9.75 5.3848 0 9.75 4.36522 9.75 9.75 0 5.3848-4.3652 9.75-9.75 9.75-5.38478 0-9.75-4.3652-9.75-9.75z"/><path d="m14 15.75c-.4142 0-.75-.3358-.75-.75v-6c0-.41421.3358-.75.75-.75s.75.33579.75.75v6c0 .4142-.3358.75-.75.75z"/><path d="m10 15.75c-.41421 0-.75-.3358-.75-.75v-6c0-.41421.33579-.75.75-.75.4142 0 .75.33579.75.75v6c0 .4142-.3358.75-.75.75z"/></g></svg>