<svg fill="none" viewBox="0 0 24 24" xmlns="http://www.w3.org/2000/svg"><path d="m14.3285 6.69676c1.3668-1.36684 3.5829-1.36684 4.9497 0 1.3669 1.36683 1.3669 3.58294 0 4.94974l-6.8943 6.8943c-2.0502 2.0502-5.37433 2.0502-7.42458 0-2.05025-2.0503-2.05025-5.3744 0-7.4246l4.59619-4.59622c.2929-.29289.76779-.29289 1.06069 0s.2929.76777 0 1.06066l-4.59622 4.59616c-1.46447 1.4645-1.46447 3.8389 0 5.3033 1.46447 1.4645 3.83883 1.4645 5.30332 0l6.8943-6.8943c.781-.781.781-2.04733 0-2.82838-.7811-.78105-2.0474-.78105-2.8285 0l-6.54069 6.54078c-.2929.2928-.76777.2928-1.06066 0-.2929-.2929-.2929-.7678 0-1.0607z" fill="currentColor"/></svg>