<svg fill="none" viewBox="0 0 24 24" xmlns="http://www.w3.org/2000/svg"><path d="m8.25 5.25c0-1.933 1.567-3.5 3.5-3.5s3.5 1.567 3.5 3.5h4.25c.4142 0 .75.33579.75.75s-.3358.75-.75.75h-.7985l-.6567 9.85c-.0509.763-.092 1.3796-.1652 1.8786-.0756.5146-.1927.9645-.4281 1.3776-.3751.6585-.941 1.1879-1.623 1.5184-.4279.2074-.8845.2943-1.4031.3355-.5026.0399-1.1206.0399-1.8853.0399h-1.0805c-.7647 0-1.3827 0-1.88542-.0399-.51857-.0412-.97519-.1281-1.40312-.3355-.68197-.3305-1.24781-.8599-1.62294-1.5184-.23539-.4131-.35253-.863-.4281-1.3776-.07325-.499-.11436-1.1156-.16521-1.8786l-.65667-9.85h-.79814c-.41421 0-.75-.33579-.75-.75s.33579-.75.75-.75zm1.5 0h4c0-1.10457-.8954-2-2-2s-2 .89543-2 2zm-2.94853 1.5.64796 9.7194c.0534.801.09109 1.3582.15468 1.7913.06226.424.14186.6679.24735.853.22507.3951.56458.7128.97376.9111.19176.0929.44043.1561.86766.19.43632.0346.99472.0352 1.79762.0352h1.0186c.8029 0 1.3613-.0006 1.7976-.0352.4273-.0339.6759-.0971.8677-.19.4092-.1983.7487-.516.9738-.9111.1054-.1851.185-.429.2473-.853.0636-.4331.1013-.9903.1547-1.7913l.6479-9.7194z" fill="currentColor"/></svg>