<svg width="32" height="32" viewBox="0 0 32 32" fill="none" xmlns="http://www.w3.org/2000/svg">
<path d="M16.0013 6C12.3013 6 9.06886 8.00951 7.33889 11H10.0013C10.5536 11 11.0013 11.4477 11.0013 12C11.0013 12.5523 10.5536 13 10.0013 13H4.66797C4.11568 13 3.66797 12.5523 3.66797 12V6.66667C3.66797 6.11438 4.11568 5.66667 4.66797 5.66667C5.22025 5.66667 5.66797 6.11438 5.66797 6.66667V9.89568C7.75636 6.36792 11.6014 4 16.0013 4C22.6287 4 28.0013 9.37258 28.0013 16C28.0013 16.5523 27.5536 17 27.0013 17C26.449 17 26.0013 16.5523 26.0013 16C26.0013 10.4772 21.5242 6 16.0013 6Z" fill="white"/>
<path d="M5.0013 15C5.55359 15 6.0013 15.4477 6.0013 16C6.0013 21.5228 10.4785 26 16.0013 26C19.1198 26 21.9055 24.5731 23.7406 22.3333H20.668C20.1157 22.3333 19.668 21.8856 19.668 21.3333C19.668 20.781 20.1157 20.3333 20.668 20.3333H26.0013C26.5536 20.3333 27.0013 20.781 27.0013 21.3333V26.6667C27.0013 27.219 26.5536 27.6667 26.0013 27.6667C25.449 27.6667 25.0013 27.219 25.0013 26.6667V23.9374C22.8035 26.4274 19.5862 28 16.0013 28C9.37389 28 4.0013 22.6274 4.0013 16C4.0013 15.4477 4.44902 15 5.0013 15Z" fill="white"/>
<path d="M16.0013 12.3333C13.9763 12.3333 12.3346 13.975 12.3346 16C12.3346 18.025 13.9763 19.6667 16.0013 19.6667C18.0263 19.6667 19.668 18.025 19.668 16C19.668 13.975 18.0263 12.3333 16.0013 12.3333ZM14.3346 16C14.3346 15.0795 15.0808 14.3333 16.0013 14.3333C16.9218 14.3333 17.668 15.0795 17.668 16C17.668 16.9205 16.9218 17.6667 16.0013 17.6667C15.0808 17.6667 14.3346 16.9205 14.3346 16Z" fill="white"/>
</svg>
