<svg width="24" height="24" viewBox="0 0 24 24" fill="none" xmlns="http://www.w3.org/2000/svg">
<path d="M20.0303 3.96967C20.3232 4.26256 20.3232 4.73744 20.0303 5.03033L11.5303 13.5303C11.2374 13.8232 10.7626 13.8232 10.4697 13.5303C10.1768 13.2374 10.1768 12.7626 10.4697 12.4697L18.9697 3.96967C19.2626 3.67678 19.7374 3.67678 20.0303 3.96967Z" fill="white"/>
<path d="M6.25 3C4.45507 3 3 4.45508 3 6.25V17.75C3 19.5449 4.45507 21 6.25 21H17.75C19.5449 21 21 19.5449 21 17.75V9.75C21 9.33579 20.6642 9 20.25 9C19.8358 9 19.5 9.33579 19.5 9.75V17.75C19.5 18.7165 18.7165 19.5 17.75 19.5H6.25C5.2835 19.5 4.5 18.7165 4.5 17.75V6.25C4.5 5.2835 5.2835 4.5 6.25 4.5H14.25C14.6642 4.5 15 4.16421 15 3.75C15 3.33579 14.6642 3 14.25 3H6.25Z" fill="white"/>
</svg>
