<svg width="16" height="16" viewBox="0 0 16 16" fill="none" xmlns="http://www.w3.org/2000/svg">
<path d="M8.32462 5.25132C8.34448 5.26925 8.35835 5.29283 8.36437 5.31887C8.3704 5.34492 8.36827 5.37218 8.3583 5.39698L6.7013 10.9396C6.68043 11.0001 6.63774 11.0507 6.5816 11.0815C6.53592 11.112 6.48304 11.13 6.42823 11.1338H1.16172C1.11675 11.1316 1.07413 11.113 1.04203 11.0815C1.02293 11.0639 1.00952 11.0409 1.00352 11.0157C0.997526 10.9904 0.999215 10.9639 1.00836 10.9396L2.66911 5.39698C2.68825 5.3357 2.72959 5.28376 2.78506 5.25132C2.8315 5.223 2.88412 5.20634 2.93842 5.20276H8.20493C8.24955 5.20319 8.29234 5.22055 8.32462 5.25132ZM5.57541 9.82284L6.56663 6.51371H3.79125L2.80376 9.82284H5.57541ZM13.3518 5.30734C13.3697 5.32819 13.3922 5.34473 13.4174 5.35572C13.4427 5.36671 13.4701 5.37188 13.4976 5.37083H14.1821C14.2082 5.37109 14.2339 5.36471 14.2568 5.35229C14.2797 5.33987 14.2991 5.32183 14.313 5.29987C14.3252 5.28272 14.3338 5.2633 14.3383 5.24276C14.3428 5.22224 14.3431 5.20101 14.3392 5.18036L14.2046 4.19434C14.1918 4.14871 14.1687 4.10657 14.1373 4.07109C14.1193 4.05024 14.0968 4.0337 14.0716 4.02271C14.0463 4.01172 14.0189 4.00655 13.9914 4.0076H13.3069C13.2808 4.00734 13.2551 4.01373 13.2322 4.02614C13.2093 4.03856 13.1899 4.0566 13.176 4.07856C13.1498 4.13085 13.1386 4.16446 13.1498 4.19434L13.2882 5.18036C13.2953 5.22837 13.3176 5.27286 13.3518 5.30734ZM15.525 4.18687C15.5121 4.14124 15.4891 4.0991 15.4576 4.06362C15.4404 4.04285 15.4186 4.02632 15.394 4.0153C15.3693 4.00429 15.3425 3.9991 15.3155 4.00013H14.6272C14.6016 3.9994 14.5762 4.00561 14.5539 4.0181C14.5315 4.03059 14.5129 4.04891 14.5001 4.07109C14.4752 4.10423 14.4644 4.14585 14.4702 4.18687L14.6085 5.17288C14.6172 5.22039 14.6393 5.26444 14.6721 5.29987C14.6904 5.32031 14.7129 5.33657 14.7381 5.34753C14.7633 5.35849 14.7905 5.36389 14.818 5.36336H15.5062C15.5318 5.3637 15.557 5.35732 15.5793 5.34487C15.6017 5.33241 15.6203 5.31432 15.6334 5.2924C15.6464 5.27569 15.6555 5.25628 15.6601 5.2356C15.6646 5.21492 15.6644 5.19349 15.6596 5.17288L15.525 4.18687ZM12.7495 5.68083L12.6822 5.19529H9.36447C9.31238 5.19816 9.26198 5.21493 9.21858 5.24385C9.19104 5.25885 9.16706 5.27964 9.14833 5.30479C9.12962 5.32994 9.11659 5.35884 9.11013 5.38951L8.83333 6.31576C8.82228 6.33891 8.8185 6.36488 8.8225 6.39021C8.82653 6.41554 8.83811 6.43906 8.85576 6.45769C8.88731 6.4873 8.92847 6.50455 8.97173 6.50625H13.0039L12.0127 9.81537H7.99173C7.93988 9.81655 7.88939 9.83207 7.84587 9.86017C7.79296 9.89373 7.75433 9.9456 7.73739 10.0058L7.45686 10.9321C7.4477 10.9559 7.44529 10.9817 7.44991 11.0067C7.45455 11.0318 7.46599 11.0551 7.48302 11.074C7.51359 11.1056 7.55507 11.1243 7.59899 11.1263H12.8805C12.9351 11.1216 12.9877 11.1037 13.0338 11.074C13.089 11.043 13.1305 10.9923 13.1498 10.9321L14.6684 5.86758H12.959C12.9319 5.86811 12.905 5.86308 12.8799 5.8528C12.8548 5.84253 12.8321 5.82721 12.8131 5.80781C12.7822 5.77395 12.7603 5.73284 12.7495 5.6883V5.68083Z" fill="white"/>
</svg>
