<svg width="24" height="24" viewBox="0 0 24 24" fill="none" xmlns="http://www.w3.org/2000/svg">
<path d="M12 3.75C13.3878 3.75 14.6492 4.02422 15.7744 4.47168C15.7135 4.53581 15.6506 4.59832 15.585 4.6582C15.4315 4.7982 15.2564 4.92613 14.7773 5.27051L14.7305 5.30371C14.6611 5.35359 14.5617 5.42484 14.4795 5.49414C14.4533 5.51619 14.4207 5.5448 14.3848 5.58008C13.6454 5.36991 12.8494 5.25 12 5.25C9.24392 5.25 7.05001 6.51053 5.53027 8.03027C4.77032 8.79023 4.19031 9.60481 3.80371 10.335C3.40604 11.0861 3.25 11.6775 3.25 12C3.25 12.3225 3.40604 12.9139 3.80371 13.665C4.19031 14.3952 4.77032 15.2098 5.53027 15.9697C7.05001 17.4895 9.24392 18.75 12 18.75C14.7561 18.75 16.95 17.4895 18.4697 15.9697C19.2297 15.2098 19.8097 14.3952 20.1963 13.665C20.594 12.9139 20.75 12.3225 20.75 12C20.75 11.6775 20.594 11.0861 20.1963 10.335C20.0358 10.0318 19.8406 9.71492 19.6143 9.39258C19.6825 9.25999 19.7334 9.17027 19.7881 9.08496C19.9626 8.81285 20.1734 8.56232 20.415 8.3418C20.4681 8.29339 20.5238 8.2464 20.5938 8.19141C20.9632 8.67851 21.2749 9.16623 21.5225 9.63379C21.9684 10.4763 22.25 11.3226 22.25 12C22.25 12.6774 21.9684 13.5237 21.5225 14.3662C21.0653 15.2297 20.3952 16.1654 19.5303 17.0303C17.8 18.7605 15.2439 20.25 12 20.25C8.75608 20.25 6.19999 18.7605 4.46973 17.0303C3.60481 16.1654 2.93469 15.2297 2.47754 14.3662C2.03157 13.5237 1.75 12.6774 1.75 12C1.75 11.3226 2.03157 10.4763 2.47754 9.63379C2.93469 8.77029 3.60481 7.83465 4.46973 6.96973C6.19999 5.23947 8.75608 3.75 12 3.75ZM12 8.75C13.7949 8.75 15.25 10.2051 15.25 12C15.25 13.7949 13.7949 15.25 12 15.25C10.2051 15.25 8.75 13.7949 8.75 12C8.75 10.2051 10.2051 8.75 12 8.75ZM12 10.25C11.0335 10.25 10.25 11.0335 10.25 12C10.25 12.9665 11.0335 13.75 12 13.75C12.9665 13.75 13.75 12.9665 13.75 12C13.75 11.0335 12.9665 10.25 12 10.25Z" fill="white"/>
<path d="M21.1421 1.21175C21.1941 1.10157 21.2201 1.04649 21.2526 1.02452C21.301 0.991826 21.3644 0.991826 21.4128 1.02452C21.4453 1.04649 21.4713 1.10157 21.5234 1.21175C21.6321 1.44199 21.6865 1.55712 21.7531 1.66371C21.8516 1.82152 21.9703 1.96584 22.1061 2.09304C22.1978 2.17896 22.3002 2.25457 22.5051 2.40577L22.5259 2.42114C22.5993 2.47527 22.636 2.50234 22.6514 2.53445C22.6701 2.57355 22.6701 2.61905 22.6514 2.65816C22.636 2.69026 22.5993 2.71733 22.5259 2.77147L22.5051 2.78684C22.3002 2.93804 22.1978 3.01364 22.1061 3.09956C21.9703 3.22677 21.8516 3.37109 21.7531 3.5289C21.6865 3.63549 21.6321 3.75061 21.5234 3.98086C21.4713 4.09103 21.4453 4.14612 21.4128 4.16808C21.3644 4.20078 21.301 4.20078 21.2526 4.16808C21.2201 4.14612 21.1941 4.09103 21.1421 3.98086C21.0333 3.75061 20.9789 3.63549 20.9124 3.5289C20.8138 3.37109 20.6951 3.22677 20.5594 3.09956C20.4676 3.01364 20.3652 2.93804 20.1603 2.78684L20.1395 2.77147C20.0661 2.71733 20.0295 2.69026 20.0141 2.65816C19.9953 2.61905 19.9953 2.57355 20.0141 2.53445C20.0295 2.50234 20.0661 2.47527 20.1395 2.42114L20.1603 2.40577C20.3652 2.25457 20.4676 2.17896 20.5594 2.09304C20.6951 1.96584 20.8138 1.82152 20.9124 1.66371C20.9789 1.55712 21.0333 1.44199 21.1421 1.21175Z" fill="url(#paint0_linear_7328_44737)"/>
<path d="M17.5708 3.46427C17.688 3.22271 17.7465 3.10193 17.8197 3.05377C17.9286 2.98208 18.0714 2.98208 18.1803 3.05377C18.2535 3.10193 18.312 3.22271 18.4292 3.46427C18.674 3.9691 18.7964 4.22151 18.9462 4.45522C19.1681 4.80123 19.4352 5.11767 19.7409 5.39657C19.9473 5.58495 20.1779 5.75072 20.6391 6.08225L20.686 6.11594C20.8511 6.23464 20.9337 6.29398 20.9683 6.36437C21.0106 6.45012 21.0106 6.54988 20.9683 6.63563C20.9337 6.70602 20.8511 6.76536 20.686 6.88406L20.6391 6.91775C20.1779 7.24928 19.9473 7.41505 19.7409 7.60343C19.4352 7.88233 19.1681 8.19877 18.9462 8.54478C18.7964 8.77849 18.674 9.0309 18.4292 9.53573C18.312 9.77729 18.2535 9.89807 18.1803 9.94623C18.0714 10.0179 17.9286 10.0179 17.8197 9.94623C17.7465 9.89807 17.688 9.77729 17.5708 9.53573C17.326 9.0309 17.2036 8.77849 17.0538 8.54478C16.8319 8.19877 16.5648 7.88233 16.2591 7.60343C16.0527 7.41505 15.8221 7.24928 15.3609 6.91775L15.314 6.88406C15.1489 6.76536 15.0663 6.70602 15.0317 6.63563C14.9894 6.54988 14.9894 6.45012 15.0317 6.36437C15.0663 6.29398 15.1489 6.23464 15.314 6.11594L15.3609 6.08225C15.8221 5.75072 16.0527 5.58495 16.2591 5.39657C16.5648 5.11767 16.8319 4.80123 17.0538 4.45522C17.2036 4.22151 17.326 3.9691 17.5708 3.46427Z" fill="url(#paint1_linear_7328_44737)"/>
<defs>
<linearGradient id="paint0_linear_7328_44737" x1="22.6654" y1="4.19261" x2="19.6277" y2="3.78683" gradientUnits="userSpaceOnUse">
<stop stop-color="#D4FC79"/>
<stop offset="1" stop-color="#96E6A1"/>
</linearGradient>
<linearGradient id="paint1_linear_7328_44737" x1="21" y1="10" x2="14.1685" y2="9.06311" gradientUnits="userSpaceOnUse">
<stop stop-color="#D4FC79"/>
<stop offset="1" stop-color="#96E6A1"/>
</linearGradient>
</defs>
</svg>
