<svg width="85" height="20" viewBox="0 0 85 20" fill="none" xmlns="http://www.w3.org/2000/svg">
<path d="M10 18.5C5.30558 18.5 1.5 14.6944 1.5 10C1.5 5.30558 5.30558 1.5 10 1.5C14.6944 1.5 18.5 5.30558 18.5 10C18.5 14.6944 14.6944 18.5 10 18.5ZM10 20C15.5228 20 20 15.5228 20 10C20 4.47715 15.5228 0 10 0C4.47715 0 0 4.47715 0 10C0 15.5228 4.47715 20 10 20Z" fill="white"/>
<path d="M40.75 3C37.1601 3 34.25 5.91015 34.25 9.5C34.25 13.0899 37.1601 16 40.75 16C44.3399 16 47.25 13.0899 47.25 9.5C47.25 5.91015 44.3399 3 40.75 3ZM35.75 9.5C35.75 6.73858 37.9886 4.5 40.75 4.5C43.5114 4.5 45.75 6.73858 45.75 9.5C45.75 12.2614 43.5114 14.5 40.75 14.5C37.9886 14.5 35.75 12.2614 35.75 9.5Z" fill="white"/>
<path d="M33 3.25001L32.9063 3.25C31.8008 3.24993 31.1423 3.24988 30.5779 3.35068C27.9128 3.8266 25.8266 5.91282 25.3507 8.5779C25.2499 9.14235 25.2499 9.8008 25.25 10.9063L25.25 16H26.75V11C26.75 9.77309 26.753 9.25803 26.8273 8.84159C27.1928 6.79493 28.7949 5.19281 30.8416 4.82732C31.258 4.75295 31.7731 4.75001 33 4.75001V3.25001Z" fill="white"/>
<path d="M60.75 13.6536V16H62.25V9.5C62.25 5.91015 59.3399 3 55.75 3C52.1601 3 49.25 5.91015 49.25 9.5C49.25 13.0899 52.1601 16 55.75 16C57.7604 16 59.5577 15.0873 60.75 13.6536ZM55.75 4.5C58.5114 4.5 60.75 6.73858 60.75 9.5C60.75 12.2614 58.5114 14.5 55.75 14.5C52.9886 14.5 50.75 12.2614 50.75 9.5C50.75 6.73858 52.9886 4.5 55.75 4.5Z" fill="white"/>
<path d="M70.5 4.75C68.4289 4.75 66.75 6.42893 66.75 8.5V16H65.25V8.5C65.25 5.60051 67.6005 3.25 70.5 3.25C72.4097 3.25 74.0813 4.26969 75 5.79431C75.9187 4.26969 77.5903 3.25 79.5 3.25C82.3995 3.25 84.75 5.60051 84.75 8.5V16H83.25V8.5C83.25 6.42893 81.5711 4.75 79.5 4.75C77.4289 4.75 75.75 6.42893 75.75 8.5V16H74.25V8.5C74.25 6.42893 72.5711 4.75 70.5 4.75Z" fill="white"/>
<path d="M14.1043 2.55474C13.5423 2.42313 12.9563 2.35352 12.3541 2.35352C8.13074 2.35352 4.70703 5.77722 4.70703 10.0006C4.70703 14.2239 8.13074 17.6476 12.3541 17.6476C12.9563 17.6476 13.5423 17.578 14.1044 17.4464C16.7212 16.0013 18.4949 13.2167 18.5011 10.0174C18.4921 13.4046 15.7434 16.1476 12.3541 16.1476C8.95916 16.1476 6.20703 13.3955 6.20703 10.0006C6.20703 6.60565 8.95916 3.85352 12.3541 3.85352C15.7434 3.85352 18.4921 6.59656 18.5011 9.98376C18.4949 6.78439 16.7211 3.99987 14.1043 2.55474Z" fill="white" fill-opacity="0.5"/>
<path d="M15.6018 15.2175C17.3367 14.1346 18.4925 12.2105 18.4984 10.016V10.0078C18.4937 12.0993 16.7968 13.7933 14.7043 13.7933C12.6088 13.7933 10.9102 12.0946 10.9102 9.9992C10.9102 7.90376 12.6088 6.20508 14.7043 6.20508C16.7968 6.20508 18.4937 7.89912 18.4984 9.9906V9.98239C18.4925 7.7879 17.3367 5.86379 15.6018 4.78084C15.31 4.73103 15.0102 4.70508 14.7043 4.70508C11.7804 4.70508 9.41016 7.07534 9.41016 9.9992C9.41016 12.9231 11.7804 15.2933 14.7043 15.2933C15.0102 15.2933 15.3101 15.2674 15.6018 15.2175Z" fill="white" fill-opacity="0.3"/>
</svg>
