<svg width="32" height="32" viewBox="0 0 32 32" fill="none" xmlns="http://www.w3.org/2000/svg">
<path fill-rule="evenodd" clip-rule="evenodd" d="M16 4.75C9.7868 4.75 4.75 9.7868 4.75 16C4.75 22.2132 9.7868 27.25 16 27.25C22.2132 27.25 27.25 22.2132 27.25 16C27.25 9.7868 22.2132 4.75 16 4.75ZM3.25 16C3.25 8.95837 8.95837 3.25 16 3.25C23.0416 3.25 28.75 8.95837 28.75 16C28.75 23.0416 23.0416 28.75 16 28.75C8.95837 28.75 3.25 23.0416 3.25 16Z" fill="white"/>
<path fill-rule="evenodd" clip-rule="evenodd" d="M24.7473 10.5203C24.1963 10.3447 23.6092 10.25 23 10.25C19.8244 10.25 17.25 12.8244 17.25 16C17.25 19.1756 19.8244 21.75 23 21.75C23.6092 21.75 24.1963 21.6553 24.7473 21.4797C26.2804 20.1504 27.25 18.1884 27.25 16C27.25 13.8116 26.2804 11.8496 24.7473 10.5203ZM27.25 16C27.25 13.6528 25.3472 11.75 23 11.75C20.6528 11.75 18.75 13.6528 18.75 16C18.75 18.3472 20.6528 20.25 23 20.25C25.3472 20.25 27.25 18.3472 27.25 16Z" fill="white" fill-opacity="0.3"/>
<path fill-rule="evenodd" clip-rule="evenodd" d="M24.2466 8.34779C22.9891 7.64839 21.5411 7.25 20 7.25C15.1675 7.25 11.25 11.1675 11.25 16C11.25 20.8325 15.1675 24.75 20 24.75C21.5411 24.75 22.9891 24.3516 24.2467 23.6522C26.1104 21.6446 27.25 18.9554 27.25 16C27.25 13.0446 26.1104 10.3554 24.2466 8.34779ZM27.25 16C27.25 11.9959 24.0041 8.75 20 8.75C15.9959 8.75 12.75 11.9959 12.75 16C12.75 20.0041 15.9959 23.25 20 23.25C24.0041 23.25 27.25 20.0041 27.25 16Z" fill="white" fill-opacity="0.5"/>
</svg>
