<svg width="78" height="13" viewBox="0 0 78 13" fill="none" xmlns="http://www.w3.org/2000/svg">
<path d="M2.13379 7.90039C2.72262 7.90066 3.2001 8.41493 3.2002 9.0498V11.3496C3.2002 11.9846 2.72268 12.4997 2.13379 12.5H1.06641C0.477422 12.4998 0 11.9846 0 11.3496V9.0498C9.79152e-05 8.41486 0.477483 7.90054 1.06641 7.90039H2.13379ZM7.43359 5.5C8.02258 5.50015 8.5 6.02275 8.5 6.66699V11.333C8.5 11.9772 8.02258 12.4998 7.43359 12.5H6.36621C5.77732 12.4997 5.2998 11.9772 5.2998 11.333V6.66699C5.2998 6.02283 5.77732 5.50027 6.36621 5.5H7.43359ZM12.833 2.90039C13.422 2.90039 13.9003 3.41564 13.9004 4.05176V11.3477C13.9004 11.9839 13.4221 12.5 12.833 12.5H11.7666C11.1775 12.5 10.7002 11.9839 10.7002 11.3477V4.05176C10.7003 3.41566 11.1776 2.90043 11.7666 2.90039H12.833ZM18.1338 0.5C18.7227 0.50026 19.2002 1.00384 19.2002 1.625V11.375C19.2002 11.9962 18.7227 12.4997 18.1338 12.5H17.0664C16.4774 12.4999 16 11.9962 16 11.375V1.625C16 1.00377 16.4774 0.500148 17.0664 0.5H18.1338Z" fill="white"/>
<path d="M32.3623 9.48493C33.7524 8.19537 35.7886 8.19537 37.1787 9.48493C37.2485 9.55427 37.2891 9.6522 37.291 9.75543C37.2929 9.85879 37.2557 9.9584 37.1885 10.0308L35.0117 12.44C34.948 12.5107 34.8612 12.5503 34.7705 12.5504C34.6797 12.5504 34.5921 12.5108 34.5283 12.44L32.3516 10.0308C32.2844 9.95837 32.2471 9.85874 32.249 9.75543C32.251 9.65206 32.2924 9.55423 32.3623 9.48493ZM29.334 6.61188C32.3977 3.77481 37.1423 3.77488 40.2061 6.61188C40.2752 6.67841 40.3154 6.77004 40.3164 6.86579C40.3174 6.96145 40.2796 7.05374 40.2119 7.12164L38.9238 8.41657C38.7912 8.54854 38.5774 8.55107 38.4414 8.42243C37.4353 7.51542 36.1259 7.01316 34.7686 7.01325C33.4122 7.01387 32.104 7.51607 31.0986 8.42243C30.9626 8.55102 30.7489 8.54862 30.6162 8.41657L29.3291 7.12164C29.2612 7.05382 29.2237 6.96156 29.2246 6.86579C29.2255 6.77004 29.2648 6.67839 29.334 6.61188ZM26.3076 3.67145C31.0386 -0.622254 38.5024 -0.622254 43.2334 3.67145C43.3016 3.73516 43.3402 3.82191 43.3408 3.91266C43.3414 4.00358 43.304 4.09129 43.2363 4.15582L41.9385 5.39606C41.8048 5.52316 41.5878 5.52423 41.4522 5.39899C39.6497 3.77628 37.2575 2.87175 34.7705 2.87164C32.2832 2.87166 29.8906 3.77606 28.0879 5.39899C27.9522 5.52447 27.7352 5.5235 27.6016 5.39606L26.3037 4.15582C26.2362 4.09125 26.1986 4.00356 26.1992 3.91266C26.1999 3.82176 26.2391 3.73516 26.3076 3.67145Z" fill="white"/>
<rect opacity="0.35" x="50.8398" y="0.5" width="24" height="12" rx="3.8" stroke="white"/>
<path opacity="0.4" d="M76.2383 4.66602V8.66602C77.043 8.32724 77.5663 7.53915 77.5663 6.66602C77.5663 5.79288 77.043 5.00479 76.2383 4.66602" fill="white"/>
<rect x="52.1406" y="2" width="21" height="9" rx="2.5" fill="white"/>
</svg>
