<svg width="12" height="27" viewBox="0 0 12 27" fill="none" xmlns="http://www.w3.org/2000/svg">
<path d="M0 2.63672V2.26758C0 0.755859 0.738281 0 2.21484 0H8.95605C10.4326 0 11.1709 0.755859 11.1709 2.26758V2.63672H0ZM4.52637 26.8066C3.80566 26.8066 3.25781 26.6133 2.88281 26.2266C2.50781 25.8398 2.32031 25.2773 2.32031 24.5391V11.4697C2.32031 10.8486 2.25293 10.3184 2.11816 9.87891C1.98926 9.43359 1.81348 9.04102 1.59082 8.70117L0.931641 7.68164C0.65625 7.24805 0.430664 6.82617 0.254883 6.41602C0.0849609 6 0 5.53418 0 5.01855V3.96387H11.1709V5.01855C11.1709 5.53418 11.083 6 10.9072 6.41602C10.7314 6.82617 10.5059 7.24805 10.2305 7.68164L9.58008 8.70117C9.35742 9.04102 9.17871 9.43359 9.04395 9.87891C8.91504 10.3184 8.85059 10.8486 8.85059 11.4697V24.5391C8.85059 25.2773 8.66016 25.8398 8.2793 26.2266C7.9043 26.6133 7.35938 26.8066 6.64453 26.8066H4.52637ZM3.57715 12.4893V15.9346C3.57715 16.4971 3.77051 16.9717 4.15723 17.3584C4.54395 17.7393 5.02148 17.9297 5.58984 17.9297C5.9707 17.9297 6.31055 17.8418 6.60938 17.666C6.91406 17.4902 7.1543 17.2529 7.33008 16.9541C7.50586 16.6494 7.59375 16.3096 7.59375 15.9346V12.4893C7.59375 12.1143 7.50586 11.7773 7.33008 11.4785C7.1543 11.1738 6.91406 10.9336 6.60938 10.7578C6.31055 10.5762 5.9707 10.4854 5.58984 10.4854C5.02148 10.4854 4.54395 10.6787 4.15723 11.0654C3.77051 11.4521 3.57715 11.9268 3.57715 12.4893ZM5.58984 17.2266C5.2207 17.2266 4.91016 17.1035 4.6582 16.8574C4.41211 16.6113 4.28906 16.3037 4.28906 15.9346C4.28906 15.5771 4.41504 15.2725 4.66699 15.0205C4.91895 14.7686 5.22656 14.6426 5.58984 14.6426C5.94727 14.6426 6.25195 14.7686 6.50391 15.0205C6.76172 15.2725 6.89062 15.5771 6.89062 15.9346C6.89062 16.3037 6.76758 16.6113 6.52148 16.8574C6.27539 17.1035 5.96484 17.2266 5.58984 17.2266Z" fill="white"/>
</svg>
