<svg width="16" height="16" viewBox="0 0 16 16" fill="none" xmlns="http://www.w3.org/2000/svg">
<path d="M14.1668 9.33333C14.8112 9.33333 15.3335 9.85567 15.3335 10.5C15.3335 12.433 13.7665 14 11.8335 14H11.5002C11.1581 14 10.8276 13.9508 10.5151 13.8594C10.7423 13.5858 10.9409 13.2876 11.1063 12.9694C11.2346 12.9897 11.3662 13 11.5002 13H11.8335C13.2142 13 14.3335 11.8807 14.3335 10.5C14.3335 10.408 14.2589 10.3333 14.1668 10.3333H11.6434C11.5908 9.96537 11.4523 9.62497 11.2489 9.33333H14.1668Z" fill="white"/>
<path fill-rule="evenodd" clip-rule="evenodd" d="M6.3335 2C7.99016 2 9.3335 3.34333 9.3335 5C9.3335 6.65667 7.99016 8 6.3335 8C4.67683 8 3.3335 6.65667 3.3335 5C3.3335 3.34333 4.67683 2 6.3335 2ZM6.3335 3C5.23083 3 4.3335 3.89733 4.3335 5C4.3335 6.10267 5.23083 7 6.3335 7C7.43616 7 8.3335 6.10267 8.3335 5C8.3335 3.89733 7.43616 3 6.3335 3Z" fill="white"/>
<path fill-rule="evenodd" clip-rule="evenodd" d="M12.3335 3.33333C13.6222 3.33333 14.6668 4.378 14.6668 5.66667C14.6668 6.95533 13.6222 8 12.3335 8C11.0448 8 10.0002 6.95533 10.0002 5.66667C10.0002 4.378 11.0448 3.33333 12.3335 3.33333ZM12.3335 4.33333C11.5982 4.33333 11.0002 4.93133 11.0002 5.66667C11.0002 6.402 11.5982 7 12.3335 7C13.0688 7 13.6668 6.402 13.6668 5.66667C13.6668 4.93133 13.0688 4.33333 12.3335 4.33333Z" fill="white"/>
<path d="M6.51123 9.83331H9.33317C9.70136 9.83331 9.99984 10.1318 9.99984 10.5V10.8333C9.99984 12.6743 8.50746 14.1666 6.66651 14.1666H5.87334C5.09355 14.1666 4.33844 13.8933 3.73939 13.3941L3.6665 13.3333" stroke="white" stroke-linecap="round" stroke-linejoin="round"/>
<path d="M3.00342 8.07178V11.5949" stroke="white" stroke-linecap="round"/>
<path d="M1.29443 9.83728L4.66675 9.83728" stroke="white" stroke-linecap="round"/>
</svg>
