<svg width="22" height="22" viewBox="0 0 22 22" fill="none" xmlns="http://www.w3.org/2000/svg">
<g opacity="0.76" filter="url(#filter0_d_7384_32478)" style="mix-blend-mode:hard-light">
<path d="M12.5036 5.49835C12.9114 5.01163 13.1943 4.34732 13.1943 3.67644C13.1943 3.58435 13.1877 3.49227 13.1679 3.41992C12.5168 3.44623 11.7275 3.85402 11.254 4.40652C10.8856 4.82746 10.5436 5.49835 10.5436 6.16923C10.5436 6.27447 10.5568 6.37313 10.5699 6.40602C10.6094 6.41259 10.6752 6.42575 10.7409 6.42575C11.3329 6.42575 12.0695 6.03111 12.5036 5.49835ZM12.9706 6.56387C11.984 6.56387 11.1882 7.1624 10.6752 7.1624C10.1292 7.1624 9.41889 6.60333 8.56384 6.60333C6.93925 6.60333 5.29492 7.9451 5.29492 10.4708C5.29492 12.0493 5.90003 13.7134 6.65642 14.7855C7.301 15.6932 7.86665 16.4364 8.67565 16.4364C9.48466 16.4364 9.83984 15.9036 10.833 15.9036C11.8525 15.9036 12.0761 16.4232 12.9706 16.4232C13.852 16.4232 14.4374 15.6142 14.9899 14.8184C15.6147 13.9041 15.8712 13.0162 15.8844 12.9702C15.8318 12.957 14.1414 12.2664 14.1414 10.3392C14.1414 8.66861 15.47 7.91879 15.5424 7.8596C14.6742 6.60333 13.339 6.56387 12.9706 6.56387Z" fill="white"/>
</g>
<defs>
<filter id="filter0_d_7384_32478" x="1.63778" y="1.59135" width="17.9041" height="20.3299" filterUnits="userSpaceOnUse" color-interpolation-filters="sRGB">
<feFlood flood-opacity="0" result="BackgroundImageFix"/>
<feColorMatrix in="SourceAlpha" type="matrix" values="0 0 0 0 0 0 0 0 0 0 0 0 0 0 0 0 0 0 127 0" result="hardAlpha"/>
<feOffset dy="1.82857"/>
<feGaussianBlur stdDeviation="1.82857"/>
<feColorMatrix type="matrix" values="0 0 0 0 0 0 0 0 0 0 0 0 0 0 0 0 0 0 0.15 0"/>
<feBlend mode="normal" in2="BackgroundImageFix" result="effect1_dropShadow_7384_32478"/>
<feBlend mode="normal" in="SourceGraphic" in2="effect1_dropShadow_7384_32478" result="shape"/>
</filter>
</defs>
</svg>
