<svg width="16" height="16" viewBox="0 0 16 16" fill="none" xmlns="http://www.w3.org/2000/svg">
<circle cx="8" cy="8" r="6" stroke="white" stroke-linejoin="round"/>
<path d="M1.58269 9.03418C1.69343 9.72671 1.91403 10.3822 2.22527 10.9834C2.14958 11.4237 2.09963 11.7947 2.08269 12.1143C2.04937 12.7434 2.15279 13.0682 2.35613 13.2979C2.55954 13.5274 2.86949 13.6692 3.49773 13.7119C3.86885 13.7371 4.31452 13.7244 4.86101 13.6924C5.66403 14.1361 6.57075 14.4133 7.53582 14.4814L7.53777 14.498L6.30242 14.5938C5.11079 14.6854 4.16136 14.7595 3.43035 14.71C2.68682 14.6595 2.0627 14.4751 1.60711 13.9609C1.15188 13.4468 1.04426 12.8056 1.08367 12.0615C1.12242 11.3298 1.3102 10.3966 1.54461 9.22461L1.58269 9.03418Z" fill="white" fill-opacity="0.5"/>
<path d="M6.5 6.5H9.5" stroke="white" stroke-linecap="round"/>
<path d="M6.5 9.5H8.5" stroke="white" stroke-linecap="round"/>
</svg>
