<svg width="16" height="16" viewBox="0 0 16 16" fill="none" xmlns="http://www.w3.org/2000/svg">
<path d="M12.5654 9.8066C12.6257 9.67905 12.8071 9.67905 12.8674 9.8066C13.0443 10.1812 13.3115 10.5061 13.6448 10.7521L13.6613 10.7643C13.6617 10.7646 13.6619 10.7648 13.6621 10.7649C13.7548 10.8336 13.7548 10.9724 13.6621 11.0412C13.6619 11.0413 13.6617 11.0414 13.6613 11.0417L13.6448 11.0539C13.3115 11.2999 13.0443 11.6248 12.8674 11.9995C12.8071 12.127 12.6257 12.127 12.5654 11.9995C12.3885 11.6248 12.1213 11.2999 11.788 11.0539L11.7715 11.0417C11.7711 11.0414 11.7709 11.0413 11.7707 11.0412C11.678 10.9724 11.678 10.8336 11.7707 10.7649C11.7709 10.7648 11.7711 10.7646 11.7715 10.7643L11.788 10.7521C12.1213 10.5061 12.3885 10.1812 12.5654 9.8066Z" fill="white"/>
<path d="M3.89675 10.8755C3.73219 11.7305 3.61416 12.6459 3.54034 13.6172C3.52234 13.854 3.31581 14.0313 3.07903 14.0133C2.84226 13.9953 2.6649 13.7888 2.6829 13.552C2.94293 10.1305 3.74552 7.25756 5.28709 5.23158C6.84614 3.18262 9.1271 2.04492 12.2201 2.04492C12.3562 2.04492 12.4842 2.10932 12.5653 2.21856C12.6464 2.3278 12.6711 2.46899 12.6317 2.59924C12.2047 4.01257 11.6952 4.97907 10.9247 5.68646C10.3852 6.18175 9.73901 6.52975 8.95874 6.82598C9.39006 6.92642 9.96932 6.96006 10.6769 6.76516C10.8395 6.72039 11.0133 6.77477 11.1213 6.90425C11.2293 7.03373 11.2516 7.2144 11.1785 7.36631C9.90541 10.0085 7.20696 11.2399 3.89675 10.8755ZM4.07947 10.0302C6.70772 10.2967 8.77162 9.46242 9.95891 7.75701C9.35346 7.79714 8.84422 7.70465 8.44878 7.57573C8.15698 7.48059 7.92929 7.3664 7.77163 7.27363C7.69272 7.22721 7.63105 7.18597 7.58732 7.15486C7.56544 7.13929 7.54802 7.12624 7.53513 7.1163L7.51919 7.10379L7.51378 7.09943L7.51172 7.09774L7.51085 7.09703L7.51046 7.0967C7.51027 7.09655 7.51009 7.09639 7.78456 6.76545L7.51009 7.09639C7.38813 6.99525 7.33169 6.83522 7.36319 6.67994C7.3947 6.52467 7.50906 6.3993 7.6608 6.35369C8.90567 5.97951 9.72769 5.61806 10.3432 5.05301C10.8613 4.57732 11.264 3.92799 11.6221 2.92053C9.08329 3.05633 7.2532 4.06773 5.97142 5.75229C5.11643 6.87594 4.49296 8.31569 4.07947 10.0302Z" fill="white"/>
<path d="M10.936 12.448C11.0845 12.2629 11.355 12.2331 11.5402 12.3816C11.7255 12.5301 11.7554 12.8007 11.6069 12.986L11.2714 12.7171C11.6069 12.986 11.6068 12.9861 11.6067 12.9862L11.6065 12.9864L11.6061 12.987L11.6049 12.9884L11.6014 12.9926L11.5902 13.0062C11.5808 13.0175 11.5677 13.0331 11.5509 13.0524C11.5173 13.0909 11.4692 13.1445 11.4081 13.2081C11.2862 13.3348 11.1103 13.5038 10.8925 13.6737C10.4687 14.0044 9.83055 14.3824 9.09497 14.3824C8.52977 14.3824 8.09926 14.1758 7.7655 14.0156C7.68119 13.9752 7.60306 13.9377 7.53049 13.9072C7.33729 13.8261 7.14105 13.7659 6.89675 13.7504C6.64985 13.7348 6.33259 13.7638 5.90092 13.8884C5.67279 13.9543 5.43444 13.8228 5.36855 13.5946C5.30267 13.3665 5.4342 13.1282 5.66233 13.0623C6.16858 12.9161 6.58615 12.8692 6.951 12.8922C7.31845 12.9155 7.61088 13.0084 7.86325 13.1143C8.00221 13.1726 8.12002 13.2283 8.2268 13.2789C8.52825 13.4215 8.74175 13.5225 9.09497 13.5225C9.54571 13.5225 9.99575 13.2828 10.3635 12.9958C10.5416 12.8568 10.6873 12.7171 10.7882 12.6121C10.8384 12.5599 10.8769 12.5169 10.9021 12.4879C10.9147 12.4735 10.924 12.4625 10.9297 12.4557L10.9355 12.4486L10.9359 12.4482C10.9359 12.4481 10.9359 12.4481 10.936 12.448Z" fill="white"/>
</svg>
