<svg width="16" height="16" viewBox="0 0 16 16" fill="none" xmlns="http://www.w3.org/2000/svg">
<path d="M3.3536 2.64628C3.15834 2.45102 2.84176 2.45102 2.64649 2.64628C2.45123 2.84154 2.45123 3.15812 2.64649 3.35339L7.293 7.99989L2.64645 12.6464C2.45118 12.8417 2.45118 13.1583 2.64645 13.3536C2.84171 13.5488 3.15829 13.5488 3.35355 13.3536L8.00011 8.707L12.6465 13.3534C12.8418 13.5486 13.1583 13.5486 13.3536 13.3534C13.5489 13.1581 13.5489 12.8415 13.3536 12.6463L8.70721 7.99989L13.3536 3.35356C13.5488 3.15829 13.5488 2.84171 13.3536 2.64645C13.1583 2.45119 12.8417 2.45119 12.6464 2.64645L8.00011 7.29279L3.3536 2.64628Z" fill="white"/>
</svg>
