<svg width="16" height="16" viewBox="0 0 16 16" fill="none" xmlns="http://www.w3.org/2000/svg">
<path fill-rule="evenodd" clip-rule="evenodd" d="M6.51029 13C6.19534 12.9997 5.97358 12.9978 5.79832 12.9835C5.6069 12.9679 5.51538 12.9399 5.45501 12.9092C5.29821 12.8293 5.17072 12.7018 5.09083 12.545C5.06007 12.4846 5.03215 12.3931 5.01651 12.2017C5.00039 12.0044 5 11.7483 5 11.3667L5 9.66671C5 9.39056 4.77614 9.16671 4.5 9.16671C4.22386 9.16671 4 9.39056 4 9.66671V11.387C3.99999 11.7431 3.99999 12.0403 4.01983 12.2831C4.04052 12.5364 4.08526 12.7741 4.19982 12.999C4.37559 13.3439 4.65605 13.6244 5.00102 13.8002C5.22586 13.9147 5.46363 13.9595 5.71689 13.9802C5.9597 14 6.25691 14 6.61298 14H6.66667C6.67663 14 6.68653 13.9997 6.69635 13.9991C6.72154 14.0538 6.75026 14.1072 6.78307 14.1592C7.03083 14.5518 7.41828 14.8357 7.86722 14.9538C8.16667 15.0325 8.46905 15.0015 8.7802 14.9331C9.08357 14.8664 9.45352 14.7496 9.90391 14.6073L12.0749 13.9218C12.5297 13.7787 12.8861 13.6665 13.1605 13.4422C13.4012 13.2454 13.5879 12.9907 13.703 12.7019C13.8343 12.3727 13.8339 11.9991 13.8335 11.5223L13.8334 5.3872C13.8334 5.31171 13.8334 5.23836 13.8333 5.16716V3.66671C13.8333 2.74621 13.0871 2 12.1666 2H6.61303C6.25694 1.99999 5.95971 1.99999 5.71689 2.01983C5.46363 2.04052 5.22586 2.08526 5.00102 2.19982C4.65606 2.37559 4.37559 2.65605 4.19982 3.00102C4.08526 3.22586 4.04052 3.46363 4.01983 3.71689C3.99999 3.95972 3.99999 4.25696 4 4.61308V5.66671C4 5.94285 4.22386 6.16671 4.5 6.16671C4.77614 6.16671 5 5.94285 5 5.66671V4.63333C5 4.25172 5.00039 3.99557 5.01651 3.79832C5.03215 3.6069 5.06007 3.51538 5.09083 3.45501C5.17072 3.29821 5.29821 3.17072 5.45501 3.09083C5.51538 3.06007 5.60691 3.03215 5.79832 3.01651C5.99557 3.00039 6.25172 3 6.63334 3L10.0895 3L8.25863 3.5781C7.80385 3.72125 7.44741 3.83344 7.17304 4.05775C6.93237 4.25451 6.74568 4.50923 6.63053 4.79798C6.49925 5.12717 6.4996 5.50084 6.50005 5.97762L6.50011 12.1127C6.5001 12.451 6.5001 12.7461 6.51029 13ZM12.8333 5.19429C12.8328 4.80749 12.8295 4.52706 12.8097 4.30681C12.7867 4.05023 12.7454 3.93866 12.7048 3.87444C12.5922 3.69601 12.4161 3.56693 12.212 3.51328C12.1386 3.49396 12.0197 3.48812 11.7681 3.54345C11.5138 3.59939 11.1867 3.70218 10.7083 3.85327L8.64159 4.5059C8.06467 4.68809 7.91185 4.7454 7.80598 4.83195C7.69659 4.92138 7.61173 5.03717 7.55939 5.16841C7.50874 5.29543 7.50011 5.45841 7.50011 6.06342V12.0891C7.50011 12.5909 7.50058 12.9337 7.52383 13.1931C7.54683 13.4497 7.58819 13.5612 7.62873 13.6255C7.74134 13.8039 7.91746 13.933 8.12152 13.9866C8.19497 14.0059 8.31381 14.0118 8.56541 13.9565C8.81976 13.9005 9.14683 13.7977 9.62529 13.6466L11.692 12.994C12.2689 12.8118 12.4217 12.7545 12.5276 12.668C12.637 12.5785 12.7218 12.4627 12.7742 12.3315C12.8248 12.2045 12.8334 12.0415 12.8334 11.4365V10.0106C12.8334 10.0071 12.8333 10.0036 12.8333 10L12.8333 5.19429Z" fill="white"/>
<path d="M2.81311 6.14645C3.00838 5.95118 3.32496 5.95118 3.52022 6.14645L4.52022 7.14645C4.71548 7.34171 4.71548 7.65829 4.52022 7.85355L3.52022 8.85355C3.32496 9.04882 3.00838 9.04882 2.81311 8.85355C2.61785 8.65829 2.61785 8.34171 2.81311 8.14645L2.95956 8H1.5C1.22386 8 1 7.77614 1 7.5C1 7.22386 1.22386 7 1.5 7H2.95956L2.81311 6.85355C2.61785 6.65829 2.61785 6.34171 2.81311 6.14645Z" fill="white"/>
<path d="M8.66667 9.33333C9.03486 9.33333 9.33333 9.03486 9.33333 8.66667C9.33333 8.29848 9.03486 8 8.66667 8C8.29848 8 8 8.29848 8 8.66667C8 9.03486 8.29848 9.33333 8.66667 9.33333Z" fill="white"/>
</svg>
