<svg width="16" height="16" viewBox="0 0 16 16" fill="none" xmlns="http://www.w3.org/2000/svg">
<path d="M6.13649 9.66655C5.95232 9.46078 5.63623 9.44327 5.43046 9.62744C5.2247 9.8116 5.20719 10.1277 5.39135 10.3335C6.03151 11.0487 6.9634 11.5 8.00003 11.5C9.03666 11.5 9.96854 11.0487 10.6087 10.3335C10.7929 10.1277 10.7754 9.8116 10.5696 9.62744C10.3638 9.44327 10.0477 9.46078 9.86357 9.66655C9.40508 10.1788 8.7404 10.5 8.00003 10.5C7.25966 10.5 6.59497 10.1788 6.13649 9.66655Z" fill="white"/>
<path d="M7 6.75C7 7.16421 6.66421 7.5 6.25 7.5C5.83579 7.5 5.5 7.16421 5.5 6.75C5.5 6.33579 5.83579 6 6.25 6C6.66421 6 7 6.33579 7 6.75Z" fill="white"/>
<path d="M9.75 7.5C10.1642 7.5 10.5 7.16421 10.5 6.75C10.5 6.33579 10.1642 6 9.75 6C9.33579 6 9 6.33579 9 6.75C9 7.16421 9.33579 7.5 9.75 7.5Z" fill="white"/>
<path fill-rule="evenodd" clip-rule="evenodd" d="M1.5 8C1.5 4.41015 4.41015 1.5 8 1.5C11.5899 1.5 14.5 4.41015 14.5 8C14.5 11.5899 11.5899 14.5 8 14.5C4.41015 14.5 1.5 11.5899 1.5 8ZM8 2.5C4.96243 2.5 2.5 4.96243 2.5 8C2.5 11.0376 4.96243 13.5 8 13.5C11.0376 13.5 13.5 11.0376 13.5 8C13.5 4.96243 11.0376 2.5 8 2.5Z" fill="white"/>
</svg>
