<svg width="16" height="16" viewBox="0 0 16 16" fill="none" xmlns="http://www.w3.org/2000/svg">
<path d="M10.7202 1.33338C11.0763 1.33337 11.3739 1.33307 11.6167 1.35291C11.8698 1.37361 12.1078 1.41907 12.3325 1.53357C12.6773 1.70934 12.9576 1.98956 13.1333 2.33435C13.2478 2.55916 13.2923 2.79696 13.313 3.05017C13.3328 3.29296 13.3335 3.59061 13.3335 3.94666V12.0541C13.3335 12.4099 13.3328 12.7069 13.313 12.9496C13.2923 13.2028 13.2478 13.4406 13.1333 13.6654C12.9576 14.0103 12.6774 14.2914 12.3325 14.4672C12.1078 14.5817 11.8698 14.6261 11.6167 14.6469C11.3739 14.6667 11.0763 14.6664 10.7202 14.6664H5.27979C4.92368 14.6664 4.62612 14.6667 4.3833 14.6469C4.13011 14.6262 3.89227 14.5817 3.66748 14.4672C3.32252 14.2914 3.04247 14.0104 2.8667 13.6654C2.75215 13.4406 2.70673 13.2028 2.68604 12.9496C2.66622 12.7069 2.6665 12.4099 2.6665 12.0541V3.94666C2.6665 3.59056 2.6662 3.29299 2.68604 3.05017C2.70673 2.79694 2.75215 2.55918 2.8667 2.33435C3.04244 1.98953 3.32266 1.70931 3.66748 1.53357C3.8923 1.41902 4.13007 1.3736 4.3833 1.35291C4.62612 1.33307 4.92369 1.33337 5.27979 1.33338H10.7202ZM3.6665 12.0336C3.66651 12.4151 3.66699 12.6713 3.68311 12.8685C3.69872 13.0595 3.72663 13.1509 3.75733 13.2113C3.83721 13.3681 3.96481 13.4957 4.12158 13.5756C4.1819 13.6063 4.27328 13.6341 4.46436 13.6498C4.66161 13.6659 4.91868 13.6664 5.30029 13.6664H10.6997C11.0812 13.6664 11.3374 13.6659 11.5347 13.6498C11.7261 13.6341 11.818 13.6063 11.8784 13.5756C12.0351 13.4957 12.1628 13.368 12.2427 13.2113C12.2733 13.1509 12.3013 13.0594 12.3169 12.8685C12.333 12.6713 12.3335 12.4151 12.3335 12.0336V11.0004H3.6665V12.0336ZM3.6665 10.0004H12.3335V6.00037H3.6665V10.0004ZM5.30029 2.33338C4.91868 2.33338 4.66161 2.33386 4.46436 2.34998C4.27332 2.36562 4.18191 2.39347 4.12158 2.4242C3.96478 2.50409 3.83722 2.63165 3.75733 2.78845C3.7266 2.84878 3.69875 2.9402 3.68311 3.13123C3.66699 3.32848 3.6665 3.58554 3.6665 3.96716V5.00037H12.3335V3.96716C12.3335 3.58555 12.333 3.32848 12.3169 3.13123C12.3013 2.94032 12.2734 2.84878 12.2427 2.78845C12.1628 2.63172 12.0351 2.5041 11.8784 2.4242C11.818 2.39343 11.7261 2.36562 11.5347 2.34998C11.3374 2.33387 11.0812 2.33338 10.6997 2.33338H5.30029Z" fill="white"/>
</svg>
