<svg width="16" height="16" viewBox="0 0 16 16" fill="none" xmlns="http://www.w3.org/2000/svg">
<path fill-rule="evenodd" clip-rule="evenodd" d="M4.43126 1.50002C4.03357 1.49981 3.73824 1.49965 3.48241 1.5682C2.79223 1.75313 2.25313 2.29223 2.0682 2.98241C1.99965 3.23824 1.99981 3.53357 2.00002 3.93126L2.00012 9.2C2.00012 10.8802 2.00012 11.7202 2.3271 12.362C2.61472 12.9265 3.07366 13.3854 3.63815 13.673C4.27989 14 5.11996 14 6.80012 14H9.20012C10.8803 14 11.7204 14 12.3621 13.673C12.9266 13.3854 13.3855 12.9265 13.6731 12.362C14.0001 11.7202 14.0001 10.8802 14.0001 9.2V8.8C14.0001 7.11984 14.0001 6.27976 13.6731 5.63803C13.3855 5.07354 12.9266 4.6146 12.3621 4.32698C11.7204 4 10.8803 4 9.20012 4H8.23147L6.91824 2.45254C6.71287 2.21032 6.55787 2.02749 6.36745 1.88773C6.15216 1.72972 5.90742 1.61642 5.64764 1.55452C5.41787 1.49977 5.17818 1.49988 4.86062 1.50003L4.43126 1.50002ZM6.9199 4L6.18892 3.13866C5.93578 2.84037 5.85939 2.75528 5.77575 2.69389C5.66811 2.61488 5.54573 2.55823 5.41585 2.52728C5.31492 2.50323 5.20061 2.50005 4.80939 2.50005H4.50005C4.00287 2.50005 3.85237 2.50434 3.74123 2.53412C3.39614 2.62659 3.12659 2.89614 3.03412 3.24123C3.00434 3.35236 3.00005 3.50286 3.00005 4H6.9199ZM3.00012 5H9.20012C10.0567 5 10.639 5.00078 11.0891 5.03755C11.5275 5.07337 11.7517 5.1383 11.9081 5.21799C12.2844 5.40973 12.5904 5.71569 12.7821 6.09202C12.8618 6.24842 12.9268 6.47262 12.9626 6.91104C12.9993 7.36113 13.0001 7.94342 13.0001 8.8V9.2C13.0001 10.0566 12.9993 10.6389 12.9626 11.089C12.9268 11.5274 12.8618 11.7516 12.7821 11.908C12.5904 12.2843 12.2844 12.5903 11.9081 12.782C11.7517 12.8617 11.5275 12.9266 11.0891 12.9624C10.639 12.9992 10.0567 13 9.20012 13H6.80012C5.94354 13 5.36125 12.9992 4.91116 12.9624C4.47274 12.9266 4.24854 12.8617 4.09214 12.782C3.71582 12.5903 3.40986 12.2843 3.21811 11.908C3.13842 11.7516 3.07349 11.5274 3.03767 11.089C3.0009 10.6389 3.00012 10.0566 3.00012 9.2V5Z" fill="white"/>
</svg>
