<svg viewBox="0 0 24 24" xmlns="http://www.w3.org/2000/svg"><g fill="currentColor" transform="matrix(1 0 0 -1 2.0259 21.6934)"><path d="m5.55698685 18.9355042c-.39715697-.0965054-.78689045-.3563277-.87226064-.5790326-.15589339-.4082922.10764068-.8685489.69780852-1.2174531.37117474-.2227049 1.04671276-.4713919 1.47727546-.5493386.05938796-.0111353.11877592-.0259823.13362291-.0334058s.08165844-.0259822.15218164-.0371174c.0705232-.0111353.2115696-.0371175.31178678-.0556762.10392893-.0185588.24497533-.0408293.31549853-.0519645.0705232-.0111353.19672261-.0259822.27838106-.0371175.56047386-.0816584 1.19147091-.1150642 2.24560719-.1150642 1.0207305 0 1.718539.0371175 2.115696.1113525.0519645.0111352.1670286.0259822.2598223.0371174.0927937.0111353.1930109.029694.2227049.0371175.0296939.0074235.1150641.0259822.1855873.0371175.0705232.0111352.2635341.0556762.426851.0965054.1633169.044541.322922.0816585.352616.089082s.1076407.0334057.1670286.0556762c.0630997.0222705.1373347.0482527.1670287.0556762.1187759.0259822.6569792.2523988.9316486.3934452.720079.3711747.8574136.8759724.3154985 1.1543534-.2672458.1373347-.4825272.2041462-.8759724.2709576-.6866733.1224877-2.498006.1336229-2.6130702.0185587-.0408292-.0408292-.0593879-.0408292.4045805-.0556762 1.057848-.0371174 1.8447385-.1855873 2.2010662-.4157157.1967226-.1261994.2264166-.2115696.1187759-.3266337-.0816584-.089082-.6235735-.3377691-.8017374-.367463-.0482527-.0111353-.1002172-.0259823-.1150642-.0334058-.0334057-.0222705-.5085094-.1224876-.7386377-.1596051-.074235-.0111352-.1707404-.029694-.2152814-.0371175-.0408292-.0074235-.1521816-.0259822-.2449753-.0371175-.0927937-.0111352-.2078579-.0259822-.2598223-.0334057-.0519645-.0111352-.2004344-.0259822-.3340573-.0371175-.1336229-.0148469-.3154985-.0296939-.4082922-.0371174-1.0986772-.1002172-2.92485695-.0853702-3.88619953.0371174-.19672261.0222705-.25982232.0334058-.51222114.074235-.05938796.0074235-.17445213.0259822-.25239882.0408292-.27095756.0408292-.84627841.2004344-1.11723597.3080751-.53077988.2115696-.79431394.4416979-.79431394.690385-.00371175.3117867.15960513.4788154.60872657.6198618.41942746.1299111.38602173.1930108-.04825272.0890819z"/><path d="m1.79698674 15.6357608c-.23755184-.1150642-.5085094-.4008687-.61986182-.6458441-.352616-.7646199.19672261-1.4921224 1.58491614-2.100849.62728531-.2746693 2.14539-.660691 2.95083918-.749773.10392893-.0111352.21156961-.029694.24126359-.0371174.02969397-.0074235.15589339-.0259823.27838105-.0371175.12248767-.0111353.2895163-.0334057.37117474-.044541.08165844-.0111352.20785786-.0259822.27838106-.029694.0705232-.0074235.24868707-.0222705.38973347-.0334057 1.4327345-.1224877 3.81567635-.1410464 4.97374155-.044541.1039289.0111353.3192102.0259823.4825271.0408293.3154986.0259822.4973742.0445409.7534848.0742349.0853701.0111352.2264165.0259822.3154985.0371175.1484699.014847.3637512.0482527.5270681.0779467.0371175.0074235.1299112.0222705.2041461.0334057.074235.0111352.1744522.029694.2227049.0371175.0519644.0111352.1558934.0259822.2375518.0371175.0779467.0111352.1521816.0259822.1670286.0371174.014847.0074235.0853702.0259823.1558934.0371175s.2635341.0556762.4342745.0965054c.1670286.0408293.3489042.0853702.4045804.0927937.0556762.0111353.1113525.0259822.1299112.0371175.014847.0111352.059388.0259822.0927937.0334057.3897335.0779467 1.7074038.5938796 2.0934255.8240079.4713919.2746693.6792498.6161501.5864561.9576309-.0668114.2449753-.5938796.5419151-1.1840474.6718262-.0705232.014847-.1447582.0334058-.1670286.0371175-.0185588.0037118-.0853702.0185588-.1484699.029694-.059388.0111352-.1447582.029694-.1892992.0371175-.0445409.0074235-.1670286.0259822-.2746693.0408292-.1076406.014847-.2301283.029694-.2709575.0408292-.4751037.089082-3.5484305.0853702-3.8639291-.0074235-.0482527-.0185587-.0556762-.0334057-.0259822-.0630997.0259822-.0259822.2115696-.044541.4602567-.0482527.9650543-.014847 1.9226851-.0890819 2.5685292-.2041461.3340572-.059388.8091609-.1818756.8648371-.2264166.0222705-.0222705.044541-.029694.044541-.014847 0 .0408292.3489042-.1521816.4565449-.2486871.1224877-.1187759.1261994-.1892991.0074235-.308075-.1224877-.1224877-.749773-.4008687-.9650543-.4268509-.0185587-.0037118-.0779467-.0222705-.1299112-.0408293-.0927937-.0371174-.9242251-.2338401-1.1320829-.2672458-.6495558-.1113524-1.176624-.1892991-1.5960514-.2301283-.0816585-.0111353-.2227049-.0222705-.3154985-.0334057-.0927937-.0111353-.2672459-.0259823-.3897335-.0334058-.1224877-.0111352-.3303455-.0259822-.4639684-.0408292-1.8261798-.1596051-4.99972379-.1410464-6.50298149.0371175-.61243832.0742349-.69038502.0853702-1.06898325.1484699-.0705232.0111352-.22270485.0371174-.33405727.0593879s-.24868708.044541-.30065154.0556762c-.05196446.0111353-.22641659.0519645-.38973348.089082-.15960513.0408292-.33034551.0853702-.37488648.0927937-.21528135.0482527-.84627841.2858045-1.10610073.4120039-.67924977.337769-.86483714.7423495-.59759133 1.2916881.05567621.1113524.14475815.2449754.20043436.2895163.05567621.0482527.12248766.1150642.15218164.1521817.0705232.0927937-.00742349.0853702-.21899309-.0222705z"/><path d="m.81337367 11.7569847c-.05938795-.0334057-.11506416-.0742349-.12248766-.0890819-.00742349-.0185587-.02969398-.029694-.05196446-.029694-.08908194 0-.41200397-.367463-.52335639-.5901678-.10392892-.2152814-.11877591-.2783811-.11506417-.5419151 0-.3934453.06681146-.53077991.44169794-.92422513.31549853-.33034552.84999016-.65326754 1.52181644-.9242251.22641659-.08908194.46025668-.17445213.51964463-.19301087.13362291-.03711747.08908194-.02598223.42685096-.12248766.15218164-.04454097.33776901-.10021718.40829221-.11877592.11135242-.02969398.17445213-.04454097.38973348-.09279369.03340572-.01113524.55676211-.12248766.69038501-.14846989.11877592-.02598223.87597239-.13733466 1.2137414-.18187562.08537019-.01113525.2189931-.02969398.2969398-.04082923.07794669-.01113524.22270484-.02598223.32292202-.03711747.10392893-.0074235.27838106-.02598223.38973348-.03711747 1.54037517-.14475815 4.24252724-.18187563 5.64185604-.0779467.0927937.0074235.3266338.02598223.5196446.04082922.1930109.01484699.4045805.02969398.4639685.03711748.4379862.04082922.6087265.05938795.690385.07423494.0482527.0074235.1744521.02227049.2746693.03711748.3154985.03711747.7126555.10021718 1.057848.16702863.1113524.02227049.2635341.04825272.3340573.05938796.278381.04082922 1.5218164.36375124 1.9449556.50479765 1.1209477.37488648 1.8558737.72379074 2.1713722 1.03557752.2598224.25982232.3563278.64955577.2115696.86854887-.1558933.2375519-.630997.4825272-1.2211649.6272853-.4045804.103929-.675538.1521817-1.2879763.2264166-.5901678.0779467-2.6687464.1002172-3.5447188.0408292-.2449753-.0185587-.5047976-.0334057-.5753208-.0371174-.089082-.0037118-.1336229-.0259823-.1410464-.0705232-.0111353-.0556762.0222705-.0630997.2598223-.0668115.6866733-.0074235 1.6851333-.0519644 1.9746496-.0853702.0630997-.0111352.2486871-.0259822.412004-.0408292s.3303455-.0334057.3711747-.0408292c.0408292-.0111353.1336229-.0259822.2041461-.0371175.0705232-.0111352.1707404-.0259822.2227049-.0371175.0519644-.0111352.1447581-.0259822.2041461-.0371174.0630997-.0111353.1373346-.0259823.1670286-.0371175.029694-.0111353.0965054-.029694.1484699-.0371175.2041461-.0371175.6235736-.2078578.8054492-.3303455.3414808-.2264166.2969398-.3897335-.1670286-.61615007-.3711748-.17816388-1.2100297-.43798619-1.7333861-.53820337-.0408292-.0074235-.1558934-.02969398-.2598223-.05196447-.1002172-.01855874-.2449753-.04454097-.3154985-.05567621s-.2115696-.03711747-.3154986-.05567621c-.1002171-.01855874-.2672458-.04454097-.3711747-.05938796-.1002172-.01113524-.2189931-.02969398-.2598223-.03340573-.0408292-.00742349-.1558934-.02227048-.2598223-.03340572-.1002172-.01484699-.2338401-.02969398-.2969398-.03711748-.0965055-.01113524-.2523988-.02598223-.779467-.08165844-.0593879-.00371175-.2449753-.01855874-.4082922-.03340573-.1633169-.01113524-.3897335-.02969397-.5010859-.04082922-.2561106-.02227048-.7386377-.04454097-1.3696348-.06681145-.2672458-.01113524-.5010859-.02598223-.5159329-.03340573-.0890819-.04082922-3.50760127.01113525-4.01611066.06681146-.09279369.00742349-.30065154.02598223-.46396843.03711747-.16331688.01484699-.35632775.02969398-.42685095.03711747-.0705232.01113525-.2115696.02227049-.31549853.03340573-.18558737.01855874-.69780851.08537019-.87226064.11506417-.05196446.01113524-.16702863.02598223-.25982231.04082922-.09279369.01113524-.22641659.03340573-.2969398.05196447-.0705232.01855873-.18929911.04082922-.25982231.05196446-.2189931.03340573-1.1506417.27838105-1.44758149.37859823-.7126555.24868708-1.2916881.60501481-1.4327345.87968411-.18558737.352616.01113525.9873248.38973348 1.2657059.18187562.1336229.04825272.1892991-.16331689.0668114z"/><path d="m1.46292947 7.23607641c-.61986182-.34890426-.89081938-1.05413626-.60501483-1.58120439.10392893-.19672262.39344523-.51222114.6421323-.70523201.367463-.28580455 1.46242848-.74234948 2.28272466-.95020733.44169794-.11506417.52335638-.13362291 1.05784801-.23012834.21528134-.04082922.4231392-.0779467.46396842-.08537019.0705232-.01484699.30436329-.04825272.56789735-.08537019.06309971-.0074235.17445213-.02227049.24126358-.02969398.12991116-.01855874.40458047-.04825272.74977298-.0779467.12248766-.01113524.29693979-.02969398.38973348-.03711747.7757552-.0779467 3.19210278-.12248767 4.17571578-.0779467 1.0838303.05196447 1.7222508.10764068 2.4497533.20785786.1633169.02227048.3563278.04825271.426851.05938796.0742349.00742349.1670286.02227048.2115696.02969397.0408292.01113525.1410464.02598224.2189931.04082923.0816584.01113524.3117868.05567621.5159329.09650543.2041461.04454097.3971569.08165844.4268509.08908194.029694.00742349.1299112.02969398.2227049.05567621.0927936.02598223.1930108.04825271.2227048.05567621.2449753.04825271 1.3881935.41942745 1.6517276.53449162.0408292.01855874.1410464.06309971.2227048.09650544.734926.31549853 1.1395065.61615006 1.2397237.92051335.1076407.32292203-.0222705.57532085-.397157.77946696-.1633169.08908193-.675538.2746693-.8425667.30807503-.0408292.0074235-.1558933.02969398-.2598223.05196446-.2820928.05938796-.3192102.06309971-.5419151.08908194-.1150642.01484699-.2486871.03340573-.293228.04082922-.4788155.09279369-2.5314118.09279369-3.8416586.00371175-.0668115-.00371175-.1150642-.02969398-.1224877-.06309971-.0074235-.05196446.0630997-.05938795.4825272-.06681145.8796841-.01484699 1.5960514-.0630997 2.2567424-.15218164.4379862-.05938796.6940968-.11135242 1.0170188-.20414611.4157157-.12248766.6347088-.22641659.7906022-.37859823.1002172-.10392893.1150642-.13733466.0853702-.19672262-.0519645-.09650543-.3117868-.26724581-.5567621-.36003949-.2746693-.10764068-.6309971-.23384009-.6421323-.23012834-.0037118.00371174-.0816585-.01484699-.1744521-.04082922-.0927937-.02598224-.1967227-.05196447-.2301284-.05938796-.0371175-.0074235-.1039289-.02227049-.1484699-.03711748-.0927937-.01855873-.2041461-.04454097-.3340572-.06681145-.0482528-.0074235-.1261995-.02598223-.1781639-.03711747-.1113524-.02598224-.2598223-.05196447-.4825272-.08165845-.0927937-.01113524-.1781639-.02969398-.1892991-.03711747-.0111352-.00371175-.1039289-.02227049-.2078579-.03340573-.1002171-.01113524-.2227048-.02969398-.2709575-.03711747-.0519645-.01113524-.2004344-.02598223-.3340573-.04082922-.1336229-.01113525-.2672458-.02598223-.2969398-.03340573-.1299111-.02598223-1.057848-.10392893-1.7445213-.1484699-1.3770582-.09279368-4.32789742-.09279368-5.27068126 0-.0705232.00371175-.25611057.02227049-.40829222.03340573-.15218164.01484699-.31921027.02969398-.37117474.03711747-.05196446.0074235-.19301086.02598224-.31549853.04082923-.24868707.02598223-.40086872.04454097-.60130308.07794669-.07794669.01113524-.18929911.02598223-.25239882.03340573-.05938796.01113524-.15218164.02598223-.20414611.03711747-.05196446.01113524-.15218164.02969398-.22270484.04082922-.26724581.04454097-.92051336.20414611-1.28055285.31921028-.20414611.06309971-.38973348.11877592-.41571571.12619941-.14104641.02598223-.7906022.38973348-.94278384.52335639-.38230999.34890425-.3600395.8537019.06681145 1.31395858.23012834.24497532.19301086.28951629-.10021718.12248766z"/><path d="m5.11900066 2.69289759c-.11506417-.04454097-.33405727-.27466931-.40829221-.4305627-.17445213-.36375124-.06309971-.74977297.31178678-1.09867723.37117474-.34890425 1.24343538-.73492598 1.95237913-.86854889.04082922-.0074235.19301087-.03711747.33405727-.06681145.26353406-.05567622.55305036-.10392893.72379074-.11877592.05196446-.00371175.17816388-.01855874.27838106-.02969398.87968413-.10392893 3.25891417-.10764068 3.65607117-.00371175.029694.0074235.1410464.02227049.2412636.03711748.1039289.01113524.2820928.03711747.397157.05567621.1187759.02227048.2561105.04454097.308075.05196446.0519645.01113524.1224877.02598223.1596051.03711748.0334058.01113524.103929.02598223.1558934.03711747.0519645.01113524.2115696.05196446.352616.09650543.1447582.04082922.2858046.08165844.3154986.08908194.3897334.10021718 1.2137414.50850939 1.4067522.69780851.2746693.27466931.2672458.59759133-.0222705.78689045-.1299111.08537019-.4751036.22641659-.660691.26724581-.4713919.10392893-.9205133.1410464-1.6702863.13733466-.7683317 0-1.1357947-.02227049-1.1246595-.0705232.0074235-.01855874.1113524-.03711748.2338401-.04082923.1224877-.00371174.2301283-.00742349.2412636-.01113524.0111352-.00371175.1039289-.01113524.2041461-.01484699.9390721-.05196446 1.6554393-.22270484 1.8967029-.44912143.1261994-.11877592.1336229-.13362291.0816585-.21156961-.0965055-.1410464-.720079-.41200396-1.1432182-.48995065-.0519645-.0074235-.2078579-.04082922-.352616-.0705232-.2598224-.05567621-.5122212-.10021718-.6866733-.11877592-.1670287-.01855874-.5753209-.06309971-.6866733-.07794669-.9168016-.11135243-3.28489644-.08908194-4.1274631.04082922-.06681145.01113524-.18558737.02598223-.25982232.04082922-.25611057.03711747-.84256666.16331688-1.03186577.22270484-.10021718.02969398-.21528135.06309971-.24868708.0705232-.03711747.0074235-.20414611.08165845-.37117474.15960514-.31178678.1484699-.54562687.33034552-.61986182.47881542-.10021718.19301086-.01484699.5641856.17445213.76090821.10392893.11506417.10021718.1484699-.01113524.10392893z"/></g></svg>