<svg width="16" height="16" viewBox="0 0 16 16" fill="none" xmlns="http://www.w3.org/2000/svg">
<path d="M4 7.31905V4C4 2.89543 4.89543 2 6 2H6.08535C6.29127 1.4174 6.84689 1 7.5 1C8.15311 1 8.70873 1.4174 8.91465 2H9C10.1046 2 11 2.89543 11 4C12.1046 4 13 4.89543 13 6V8.9684C13 10.7739 12.1197 12.4659 10.6413 13.5023L10.4027 13.6695C9.62433 14.2151 8.67797 14.4676 7.73122 14.3824C5.97306 14.2241 4.37677 13.2909 3.37629 11.8365L1.32028 8.84776C0.764381 8.03966 1.12345 6.92421 2.04637 6.59216C2.58362 6.39886 3.18405 6.52822 3.59405 6.9256L4 7.31905ZM7 2.5V6.5C7 6.77614 6.77614 7 6.5 7C6.22386 7 6 6.77614 6 6.5V3C5.44772 3 5 3.44772 5 4V8.5C5.00155 8.66018 4.9544 8.74962 4.85906 8.84799C4.66687 9.04628 4.35033 9.05122 4.15204 8.85903L2.89808 7.64366C2.76214 7.5119 2.56305 7.46901 2.38491 7.53311C2.0789 7.64321 1.95984 8.01306 2.14416 8.281L4.20017 11.2697C5.03198 12.4789 6.35915 13.2548 7.82091 13.3864C8.53245 13.4505 9.24372 13.2607 9.82874 12.8506L10.0673 12.6834C11.2787 11.8342 12 10.4478 12 8.9684V6C12 5.44771 11.5523 5 11 5V6.5C11 6.77614 10.7761 7 10.5 7C10.2239 7 10 6.77614 10 6.5V4C10 3.44772 9.55228 3 9 3V6.5C9 6.77614 8.77614 7 8.5 7C8.22386 7 8 6.77614 8 6.5V2.5C8 2.22386 7.77614 2 7.5 2C7.22386 2 7 2.22386 7 2.5Z" fill="white"/>
</svg>
