<svg width="16" height="16" viewBox="0 0 16 16" fill="none" xmlns="http://www.w3.org/2000/svg">
<path d="M7.86328 1.82129C7.95274 1.79583 8.04726 1.79583 8.13672 1.82129C8.16193 1.82848 8.20621 1.846 8.29883 1.91211C8.39645 1.98183 8.51662 2.08107 8.7041 2.2373L12.5283 5.4248C12.9721 5.79465 13.1214 5.92385 13.2266 6.07324C13.3276 6.21683 13.4026 6.37733 13.4482 6.54688C13.4957 6.72338 13.5 6.92104 13.5 7.49902V9.2002C13.5 10.0484 13.4998 10.6547 13.4609 11.1299C13.4226 11.599 13.3491 11.8962 13.2275 12.1348C12.9879 12.6052 12.6052 12.9879 12.1348 13.2275C11.8962 13.3491 11.599 13.4226 11.1299 13.4609C10.6547 13.4998 10.0484 13.5 9.2002 13.5H6.7998C5.95158 13.5 5.34525 13.4998 4.87012 13.4609C4.40101 13.4226 4.10381 13.3491 3.86523 13.2275C3.39483 12.9879 3.01214 12.6052 2.77246 12.1348C2.65094 11.8962 2.5774 11.599 2.53906 11.1299C2.50024 10.6547 2.5 10.0484 2.5 9.2002V7.49902C2.5 6.92104 2.50427 6.72338 2.55176 6.54688C2.5974 6.37733 2.67239 6.21683 2.77344 6.07324C2.87863 5.92385 3.02786 5.79465 3.47168 5.4248L7.2959 2.2373C7.48338 2.08107 7.60355 1.98183 7.70117 1.91211C7.79379 1.846 7.83807 1.82848 7.86328 1.82129Z" stroke="white" stroke-linejoin="round"/>
</svg>
