<svg width="24" height="24" viewBox="0 0 24 24" fill="none" xmlns="http://www.w3.org/2000/svg">
<path d="M11.9121 2.68842C12.8506 1.76517 14.3579 1.77134 15.2888 2.70221C15.8931 3.3065 16.1074 4.1531 15.9316 4.92923C16.2896 5.28717 16.5883 5.58614 16.8126 5.85043C17.0476 6.12741 17.2425 6.41312 17.3531 6.75633C17.485 7.16574 17.5128 7.59954 17.4368 8.0191L18.2434 8.82571C19.0703 9.65257 19.2215 10.8907 18.7136 11.8683L18.9948 12.1494C19.3569 12.511 19.6367 12.7904 19.8123 13.1005C20.2623 13.8952 20.2632 14.8675 19.8146 15.6629C19.6395 15.9733 19.3602 16.2533 18.9988 16.6155L17.0383 18.5831C13.8309 21.8019 8.61994 21.8066 5.40681 18.5935C2.34153 15.5282 2.18462 10.609 5.04832 7.3546L6.23498 6.00603C6.41534 5.8009 6.55571 5.64125 6.70948 5.51265C7.3785 4.9531 8.28321 4.76562 9.1195 5.01322C9.22051 5.04312 9.32154 5.08237 9.43051 5.12979L11.9121 2.68842ZM17.7743 12.9378L16.2179 14.3476C15.9272 14.6109 15.478 14.5887 15.2147 14.298C14.9514 14.0073 14.9736 13.5582 15.2643 13.2948L17.1967 11.5445C17.6982 11.0902 17.7175 10.3086 17.239 9.83013L16.7451 9.33617C16.5242 9.58487 16.2398 9.86457 15.9039 10.1948L15.1189 10.9668C14.8392 11.2418 14.3896 11.2381 14.1145 10.9584C13.8395 10.6787 13.8432 10.229 14.1229 9.95401L14.8873 9.20232C15.2767 8.81938 15.5378 8.56184 15.7228 8.34741C15.9025 8.13923 15.9676 8.01895 15.998 7.92723C16.077 7.68866 16.0781 7.43111 16.0011 7.19189C15.9714 7.09991 15.9073 6.9791 15.7294 6.76942C15.5957 6.61178 15.4216 6.43083 15.1872 6.19442L13.3133 8.06832C13.2021 8.17952 13.0632 8.24613 12.9188 8.26817C12.9337 8.71692 12.8271 9.17607 12.5834 9.59572C12.0023 10.5966 10.8074 11.0641 9.70142 10.7232L9.37058 10.6213C8.99572 10.5058 8.78548 10.1083 8.90099 9.73341C9.01651 9.35855 9.41403 9.14831 9.78888 9.26382L10.1197 9.36577C10.5938 9.51185 11.1059 9.31148 11.355 8.8825C11.6685 8.34252 11.4526 7.64991 10.8878 7.38368L9.18993 6.58331C8.87737 6.43597 8.79037 6.39719 8.71625 6.37524C8.33612 6.26269 7.92489 6.34791 7.62078 6.60225C7.56149 6.65185 7.49707 6.72201 7.2688 6.98143L6.11471 8.29296C3.74604 10.9848 3.87582 15.0537 6.41123 17.5891C9.06893 20.2468 13.3791 20.2429 16.032 17.5804L17.9252 15.6804C18.386 15.218 18.5102 15.0841 18.5773 14.9652C18.7812 14.6036 18.7808 14.1617 18.5762 13.8005C18.509 13.6817 18.3845 13.548 17.9229 13.0864L17.7743 12.9378ZM14.2844 5.08838C14.6659 4.70682 14.6659 4.08819 14.2844 3.70663C13.905 3.32728 13.2907 3.32477 12.9083 3.70101L10.8022 5.77295L11.4935 6.09881C11.8969 6.28894 12.2239 6.57228 12.4627 6.91009L14.2844 5.08838Z" fill="white"/>
</svg>
