<svg width="16" height="16" viewBox="0 0 16 16" fill="none" xmlns="http://www.w3.org/2000/svg">
<path d="M8 11C8.55228 11 9 10.5523 9 10C9 9.44772 8.55228 9 8 9C7.44772 9 7 9.44772 7 10C7 10.5523 7.44772 11 8 11Z" fill="currentColor"/>
<path d="M4.5 5C4.5 3.067 6.067 1.5 8 1.5C9.933 1.5 11.5 3.067 11.5 5V7C11.5 7.05047 11.4925 7.09918 11.4786 7.14511C12.1169 7.92188 12.5 8.91619 12.5 10C12.5 12.4853 10.4853 14.5 8 14.5C5.51472 14.5 3.5 12.4853 3.5 10C3.5 8.91619 3.88315 7.92188 4.52138 7.14511C4.50748 7.09918 4.5 7.05047 4.5 7V5ZM10.5 5C10.5 3.61929 9.38071 2.5 8 2.5C6.61929 2.5 5.5 3.61929 5.5 5V6.25777C6.21505 5.77914 7.07493 5.5 8 5.5C8.92507 5.5 9.78495 5.77914 10.5 6.25777V5ZM8 6.5C6.067 6.5 4.5 8.067 4.5 10C4.5 11.933 6.067 13.5 8 13.5C9.933 13.5 11.5 11.933 11.5 10C11.5 8.067 9.933 6.5 8 6.5Z" fill="currentColor"/>
</svg>
