<svg width="16" height="16" viewBox="0 0 16 16" fill="none" xmlns="http://www.w3.org/2000/svg">
<circle cx="8" cy="8" r="2" stroke="white" stroke-opacity="0.5"/>
<path d="M10.5705 1.29119C10.6421 1.13968 10.6779 1.06393 10.7226 1.03372C10.7891 0.988759 10.8763 0.988759 10.9429 1.03372C10.9876 1.06393 11.0233 1.13968 11.0949 1.29119C11.2444 1.60782 11.3192 1.76613 11.4108 1.91271C11.5463 2.12973 11.7095 2.3282 11.8962 2.50313C12.0223 2.62128 12.1632 2.72525 12.445 2.93318L12.4736 2.95432C12.5745 3.02876 12.6249 3.06598 12.6461 3.11013C12.6719 3.16391 12.6719 3.22648 12.6461 3.28026C12.6249 3.32441 12.5745 3.36163 12.4736 3.43608L12.445 3.45721C12.1632 3.66515 12.0223 3.76911 11.8962 3.88727C11.7095 4.06219 11.5463 4.26066 11.4108 4.47768C11.3192 4.62426 11.2444 4.78258 11.0949 5.09921C11.0233 5.25071 10.9876 5.32647 10.9429 5.35667C10.8763 5.40164 10.7891 5.40164 10.7226 5.35667C10.6779 5.32647 10.6421 5.25071 10.5705 5.09921C10.421 4.78258 10.3462 4.62426 10.2547 4.47768C10.1191 4.26066 9.95593 4.06219 9.7692 3.88727C9.64308 3.76911 9.50221 3.66515 9.22046 3.45721L9.19182 3.43608C9.09095 3.36163 9.04051 3.32441 9.01934 3.28026C8.99355 3.22648 8.99355 3.16391 9.01934 3.11013C9.04051 3.06598 9.09095 3.02876 9.19182 2.95432L9.22046 2.93318C9.50221 2.72525 9.64308 2.62128 9.7692 2.50313C9.95593 2.3282 10.1191 2.12973 10.2547 1.91271C10.3462 1.76613 10.421 1.60782 10.5705 1.29119Z" fill="white"/>
<path d="M13.2193 4.1245C13.1671 4.16784 13.1119 4.20845 13.0777 4.23361L13.039 4.26216C12.7392 4.48344 12.6537 4.54846 12.5801 4.6174C12.5324 4.66208 12.4871 4.70909 12.4442 4.75823C12.9262 5.41716 13.243 6.15865 13.395 6.9265C13.4486 7.19738 13.7117 7.37351 13.9826 7.31988C14.2535 7.26625 14.4296 7.00318 14.3759 6.73229C14.1928 5.80721 13.8071 4.91407 13.2193 4.1245Z" fill="white"/>
<path d="M14.3759 9.26801C14.4296 8.99713 14.2535 8.73406 13.9826 8.68043C13.7117 8.6268 13.4486 8.80292 13.395 9.0738C13.1908 10.1053 12.6893 11.0892 11.8892 11.8892C11.0892 12.6893 10.1053 13.1908 9.07381 13.395C8.80292 13.4486 8.6268 13.7117 8.68043 13.9826C8.73406 14.2535 8.99713 14.4296 9.26801 14.3759C10.4877 14.1345 11.6519 13.5408 12.5963 12.5963C13.5408 11.6519 14.1345 10.4877 14.3759 9.26801Z" fill="white"/>
<path d="M6.9265 2.60532C7.19738 2.55169 7.37351 2.28862 7.31988 2.01774C7.26625 1.74685 7.00318 1.57073 6.73229 1.62436C5.51259 1.86583 4.34842 2.45949 3.40396 3.40396C2.45949 4.34843 1.86583 5.51259 1.62436 6.73229C1.57073 7.00318 1.74685 7.26625 2.01774 7.31988C2.28862 7.37351 2.55169 7.19738 2.60532 6.9265C2.80952 5.89505 3.31098 4.91115 4.11107 4.11107C4.91115 3.31098 5.89505 2.80952 6.9265 2.60532Z" fill="white"/>
<path d="M6.73229 14.3759C7.00318 14.4296 7.26625 14.2535 7.31988 13.9826C7.37351 13.7117 7.19739 13.4486 6.9265 13.395C5.89505 13.1908 4.91115 12.6893 4.11107 11.8892C3.31098 11.0892 2.80952 10.1053 2.60532 9.07381C2.55169 8.80292 2.28862 8.6268 2.01774 8.68043C1.74685 8.73406 1.57073 8.99713 1.62436 9.26801C1.86583 10.4877 2.45949 11.6519 3.40396 12.5963C4.34843 13.5408 5.51259 14.1345 6.73229 14.3759Z" fill="white"/>
<path d="M8 11.5C9.09339 11.5 10.0678 12.003 10.709 12.7871C10.4002 12.9621 10.0775 13.1024 9.74707 13.2129C9.29589 12.7718 8.67974 12.5 8 12.5C7.32001 12.5 6.70318 12.7715 6.25195 13.2129C5.92152 13.1024 5.59878 12.9621 5.29004 12.7871C5.93122 12.0027 6.90639 11.5 8 11.5Z" fill="white" fill-opacity="0.5"/>
</svg>
