<svg width="16" height="16" viewBox="0 0 16 16" fill="none" xmlns="http://www.w3.org/2000/svg">
<path d="M10.954 1.70965C11.0697 1.45892 10.9603 1.16186 10.7095 1.04614C10.4588 0.930421 10.1617 1.03987 10.046 1.29059L6.14355 9.74594C6.05091 9.51554 6 9.26391 6 9.00012V5.00012C6 3.89555 6.89543 3.00012 8 3.00012C8.27614 3.00012 8.5 2.77626 8.5 2.50012C8.5 2.22398 8.27614 2.00012 8 2.00012C6.34315 2.00012 5 3.34327 5 5.00012V9.00012C5 9.69628 5.23762 10.3377 5.63551 10.8467L5.17894 11.8359C4.45019 11.111 4 10.1082 4 9.00012V8.00012C4 7.72398 3.77614 7.50012 3.5 7.50012C3.22386 7.50012 3 7.72398 3 8.00012V9.00012C3 10.5157 3.67476 11.8738 4.73857 12.7901L4.04602 14.2906C3.9303 14.5413 4.03974 14.8384 4.29047 14.9541C4.5412 15.0698 4.83826 14.9604 4.95398 14.7096L9.81935 4.16801C9.93542 4.42136 10 4.70308 10 5.00012V9.00012C10 10.1047 9.10457 11.0001 8 11.0001C7.72386 11.0001 7.5 11.224 7.5 11.5001C7.5 11.7763 7.72386 12.0001 8 12.0001C9.65685 12.0001 11 10.657 11 9.00012V5.00012C11 4.2758 10.7428 3.61091 10.3156 3.09273L10.954 1.70965Z" fill="#EF5350"/>
<path d="M12.5 7.50012C12.7761 7.50012 13 7.72398 13 8.00012V9.00012C13 11.7615 10.7614 14.0001 8 14.0001C7.5411 14.0001 7.09587 13.9382 6.67259 13.8219C6.40631 13.7487 6.24976 13.4736 6.32291 13.2073C6.39607 12.941 6.67123 12.7845 6.93751 12.8576C7.27529 12.9504 7.63144 13.0001 8 13.0001C10.2091 13.0001 12 11.2093 12 9.00012V8.00012C12 7.72398 12.2239 7.50012 12.5 7.50012Z" fill="#EF5350"/>
</svg>
