<svg width="16" height="16" viewBox="0 0 16 16" fill="none" xmlns="http://www.w3.org/2000/svg">
<path fill-rule="evenodd" clip-rule="evenodd" d="M6 1C6 0.723858 5.77614 0.5 5.5 0.5C5.22386 0.5 5 0.723858 5 1V1.50544C4.74737 1.51019 4.52097 1.51908 4.31729 1.53572C3.86949 1.57231 3.48765 1.64884 3.13803 1.82698C2.57354 2.1146 2.1146 2.57354 1.82698 3.13803C1.64884 3.48765 1.57231 3.86949 1.53572 4.31729C1.52097 4.4978 1.51231 4.69616 1.50723 4.91481C1.50248 4.94249 1.5 4.97096 1.5 5C1.5 5.02234 1.50147 5.04434 1.5043 5.0659C1.5 5.33871 1.5 5.64139 1.5 5.97812V10.0219C1.5 10.7034 1.49999 11.2454 1.53572 11.6827C1.57231 12.1305 1.64884 12.5123 1.82698 12.862C2.1146 13.4265 2.57354 13.8854 3.13803 14.173C3.48765 14.3512 3.86949 14.4277 4.31729 14.4643C4.75457 14.5 5.29657 14.5 5.97806 14.5H10.0219C10.7034 14.5 11.2454 14.5 11.6827 14.4643C12.1305 14.4277 12.5123 14.3512 12.862 14.173C13.4265 13.8854 13.8854 13.4265 14.173 12.862C14.3512 12.5123 14.4277 12.1305 14.4643 11.6827C14.5 11.2454 14.5 10.7034 14.5 10.0219V5.97811C14.5 5.6414 14.5 5.3387 14.4957 5.0659C14.4985 5.04434 14.5 5.02234 14.5 5C14.5 4.97096 14.4975 4.9425 14.4928 4.91481C14.4877 4.69616 14.479 4.4978 14.4643 4.31729C14.4277 3.86949 14.3512 3.48765 14.173 3.13803C13.8854 2.57354 13.4265 2.1146 12.862 1.82698C12.5123 1.64884 12.1305 1.57231 11.6827 1.53572C11.479 1.51908 11.2526 1.51019 11 1.50544V1C11 0.723858 10.7761 0.5 10.5 0.5C10.2239 0.5 10 0.723858 10 1V1.5H6V1ZM13.475 4.5C13.4728 4.46543 13.4703 4.43169 13.4676 4.39872C13.4361 4.01276 13.3764 3.77717 13.282 3.59202C13.0903 3.21569 12.7843 2.90973 12.408 2.71799C12.2228 2.62365 11.9872 2.56393 11.6013 2.5324C11.4257 2.51806 11.2282 2.51006 11 2.50561V3C11 3.27614 10.7761 3.5 10.5 3.5C10.2239 3.5 10 3.27614 10 3V2.5H6V3C6 3.27614 5.77614 3.5 5.5 3.5C5.22386 3.5 5 3.27614 5 3V2.50561C4.77176 2.51006 4.57426 2.51806 4.39872 2.5324C4.01276 2.56393 3.77717 2.62365 3.59202 2.71799C3.21569 2.90973 2.90973 3.21569 2.71799 3.59202C2.62365 3.77717 2.56393 4.01276 2.5324 4.39872C2.52971 4.43169 2.52724 4.46543 2.52497 4.5H13.475ZM2.50058 5.5C2.50003 5.65443 2.5 5.82057 2.5 6V10C2.5 10.7083 2.50039 11.2095 2.5324 11.6013C2.56393 11.9872 2.62365 12.2228 2.71799 12.408C2.90973 12.7843 3.21569 13.0903 3.59202 13.282C3.77717 13.3764 4.01276 13.4361 4.39872 13.4676C4.79052 13.4996 5.29168 13.5 6 13.5H10C10.7083 13.5 11.2095 13.4996 11.6013 13.4676C11.9872 13.4361 12.2228 13.3764 12.408 13.282C12.7843 13.0903 13.0903 12.7843 13.282 12.408C13.3764 12.2228 13.4361 11.9872 13.4676 11.6013C13.4996 11.2095 13.5 10.7083 13.5 10V6C13.5 5.82057 13.5 5.65443 13.4994 5.5H2.50058Z" fill="white" fill-opacity="0.5"/>
</svg>
