<svg width="16" height="16" viewBox="0 0 16 16" fill="none" xmlns="http://www.w3.org/2000/svg">
<path fill-rule="evenodd" clip-rule="evenodd" d="M8 1.5C4.41015 1.5 1.5 4.41015 1.5 8C1.5 11.5899 4.41015 14.5 8 14.5C11.5899 14.5 14.5 11.5899 14.5 8C14.5 4.41015 11.5899 1.5 8 1.5ZM6.5 5.25C6.91421 5.25 7.25 5.58579 7.25 6V10C7.25 10.4142 6.91421 10.75 6.5 10.75C6.08579 10.75 5.75 10.4142 5.75 10V6C5.75 5.58579 6.08579 5.25 6.5 5.25ZM9.5 5.25C9.91421 5.25 10.25 5.58579 10.25 6V10C10.25 10.4142 9.91421 10.75 9.5 10.75C9.08579 10.75 8.75 10.4142 8.75 10V6C8.75 5.58579 9.08579 5.25 9.5 5.25Z" fill="white"/>
</svg>
