<svg width="16" height="16" viewBox="0 0 16 16" fill="none" xmlns="http://www.w3.org/2000/svg">
<path d="M8.00007 2.5C7.24095 2.5 6.51327 2.62992 5.83735 2.86832C5.57693 2.96018 5.29136 2.82353 5.19951 2.56311C5.10765 2.30269 5.2443 2.01712 5.50472 1.92526C6.28601 1.6497 7.12609 1.5 8.00007 1.5C8.87404 1.5 9.71413 1.6497 10.4954 1.92526C10.7558 2.01712 10.8925 2.30269 10.8006 2.56311C10.7088 2.82353 10.4232 2.96018 10.1628 2.86832C9.48687 2.62992 8.75918 2.5 8.00007 2.5Z" fill="white" fill-opacity="0.5"/>
<path d="M10.3536 7.35355C10.5488 7.15829 10.5488 6.84171 10.3536 6.64645C10.1583 6.45118 9.84171 6.45118 9.64645 6.64645L7.64645 8.64645C7.45118 8.84171 7.45118 9.15829 7.64645 9.35355C7.84171 9.54882 8.15829 9.54882 8.35355 9.35355L10.3536 7.35355Z" fill="white" fill-opacity="0.5"/>
<path d="M2.5 9C2.5 5.96243 4.96243 3.5 8 3.5C11.0376 3.5 13.5 5.96243 13.5 9C13.5 12.0376 11.0376 14.5 8 14.5C4.96243 14.5 2.5 12.0376 2.5 9ZM8 4.5C5.51472 4.5 3.5 6.51472 3.5 9C3.5 11.4853 5.51472 13.5 8 13.5C10.4853 13.5 12.5 11.4853 12.5 9C12.5 6.51472 10.4853 4.5 8 4.5Z" fill="white" fill-opacity="0.5"/>
</svg>
