<svg width="16" height="16" viewBox="0 0 16 16" fill="none" xmlns="http://www.w3.org/2000/svg">
<path d="M2 7C2 5.59987 2 4.8998 2.27248 4.36502C2.51217 3.89462 2.89462 3.51217 3.36502 3.27248C3.8998 3 4.59987 3 6 3H10C11.4001 3 12.1002 3 12.635 3.27248C13.1054 3.51217 13.4878 3.89462 13.7275 4.36502C14 4.8998 14 5.59987 14 7V9C14 10.4001 14 11.1002 13.7275 11.635C13.4878 12.1054 13.1054 12.4878 12.635 12.7275C12.1002 13 11.4001 13 10 13H6C4.59987 13 3.8998 13 3.36502 12.7275C2.89462 12.4878 2.51217 12.1054 2.27248 11.635C2 11.1002 2 10.4001 2 9V7ZM6 4C5.28343 4 4.80615 4.00078 4.43944 4.03074C4.0844 4.05975 3.92194 4.11105 3.81901 4.16349C3.53677 4.3073 3.3073 4.53677 3.16349 4.81901C3.12101 4.90238 3.07928 5.02481 3.04954 5.25701L7.19469 7.89483C7.68604 8.20751 8.31396 8.20751 8.80531 7.89483L12.9505 5.25701C12.9207 5.02481 12.879 4.90238 12.8365 4.81901C12.6927 4.53677 12.4632 4.3073 12.181 4.16349C12.0781 4.11105 11.9156 4.05975 11.5606 4.03074C11.1938 4.00078 10.7166 4 10 4H6ZM3.001 6.41143C3.00007 6.58807 3 6.78307 3 7V9C3 9.71657 3.00078 10.1939 3.03074 10.5606C3.05975 10.9156 3.11105 11.0781 3.16349 11.181C3.3073 11.4632 3.53677 11.6927 3.81901 11.8365C3.92194 11.889 4.0844 11.9403 4.43944 11.9693C4.80615 11.9992 5.28343 12 6 12H10C10.7166 12 11.1938 11.9992 11.5606 11.9693C11.9156 11.9403 12.0781 11.889 12.181 11.8365C12.4632 11.6927 12.6927 11.4632 12.8365 11.181C12.889 11.0781 12.9403 10.9156 12.9693 10.5606C12.9992 10.1939 13 9.71657 13 9V7C13 6.78307 12.9999 6.58807 12.999 6.41143L9.34219 8.73849C8.52327 9.25962 7.47673 9.25962 6.65781 8.73849L3.001 6.41143Z" fill="white" fill-opacity="0.5"/>
</svg>
