<svg width="24" height="24" viewBox="0 0 24 24" fill="none" xmlns="http://www.w3.org/2000/svg">
<path fill-rule="evenodd" clip-rule="evenodd" d="M12 8.25C9.9289 8.25 8.24997 9.92893 8.24997 12C8.24997 14.0711 9.9289 15.75 12 15.75C14.071 15.75 15.75 14.0711 15.75 12C15.75 9.92893 14.071 8.25 12 8.25ZM9.74997 12C9.74997 10.7574 10.7573 9.75 12 9.75C13.2426 9.75 14.25 10.7574 14.25 12C14.25 13.2426 13.2426 14.25 12 14.25C10.7573 14.25 9.74997 13.2426 9.74997 12Z" fill="white"/>
<path fill-rule="evenodd" clip-rule="evenodd" d="M1.79388 11.2216C1.685 11.7348 1.685 12.2651 1.79388 12.7782C1.91734 13.3602 2.22536 13.8943 2.67099 14.6671L5.20995 19.0742C5.65633 19.8497 5.96485 20.3857 6.40786 20.7851C6.79852 21.1373 7.2589 21.4034 7.7591 21.5661C8.32634 21.7506 8.9448 21.7503 9.83959 21.75H14.1603C15.0551 21.7503 15.6736 21.7506 16.2408 21.5661C16.741 21.4034 17.2014 21.1373 17.5921 20.7851C18.0351 20.3857 18.3436 19.8497 18.79 19.0742L21.329 14.6671C21.7746 13.8943 22.0826 13.3602 22.2061 12.7782C22.3149 12.2651 22.3149 11.7348 22.2061 11.2216C22.0826 10.6397 21.7746 10.1056 21.329 9.33273L18.79 4.92567C18.3436 4.15019 18.0351 3.61417 17.5921 3.21477C17.2014 2.86257 16.741 2.59648 16.2408 2.4338C15.6736 2.24932 15.0551 2.24956 14.1603 2.24991L9.8396 2.24991C8.9448 2.24956 8.32634 2.24932 7.7591 2.4338C7.2589 2.59648 6.79852 2.86257 6.40786 3.21477C5.96485 3.61418 5.65633 4.15019 5.20995 4.9257L2.67099 9.33273C2.22536 10.1056 1.91734 10.6397 1.79388 11.2216ZM3.26121 12.4669C3.19589 12.159 3.19589 11.8409 3.26121 11.533C3.3292 11.2125 3.50213 10.8949 4.03029 9.97819L6.44997 5.77819C6.97975 4.85862 7.16833 4.54878 7.41228 4.32884C7.64668 4.11752 7.9229 3.95786 8.22303 3.86025C8.53538 3.75867 8.89799 3.74994 9.95925 3.74994L14.0407 3.74994C15.102 3.74994 15.4646 3.75867 15.7769 3.86025C16.077 3.95786 16.3533 4.11751 16.5877 4.32884C16.8316 4.54878 17.0202 4.85862 17.55 5.77819L19.9696 9.97819C20.4978 10.8949 20.6707 11.2125 20.7387 11.533C20.8041 11.8408 20.8041 12.159 20.7387 12.4669C20.6707 12.7874 20.4978 13.1049 19.9696 14.0217L17.55 18.2217C17.0202 19.1413 16.8316 19.4511 16.5877 19.671C16.3533 19.8824 16.077 20.042 15.7769 20.1396C15.4646 20.2412 15.102 20.2499 14.0407 20.2499H9.95925C8.89799 20.2499 8.53538 20.2412 8.22303 20.1396C7.92291 20.042 7.64668 19.8824 7.41228 19.671C7.16833 19.4511 6.97975 19.1413 6.44997 18.2217L4.03029 14.0217C3.50213 13.1049 3.3292 12.7874 3.26121 12.4669Z" fill="white"/>
</svg>
