<svg width="16" height="16" viewBox="0 0 16 16" fill="none" xmlns="http://www.w3.org/2000/svg">
<path d="M8.00002 2.99988C9.10459 2.99988 10 3.89531 10 4.99988C9.99994 5.6958 9.64383 6.30765 9.10452 6.6659L11.9639 13.8143C12.0663 14.0706 11.9417 14.3611 11.6856 14.4637C11.4293 14.566 11.1387 14.4416 11.0362 14.1854L9.76174 10.9999H6.2383L4.96389 14.1854C4.8613 14.4415 4.5707 14.566 4.31448 14.4637C4.05832 14.3611 3.9338 14.0706 4.03616 13.8143L6.89455 6.6659C6.35573 6.30757 6.00011 5.6954 6.00002 4.99988C6.00002 3.89539 6.89556 3.00001 8.00002 2.99988ZM6.63772 9.99988H9.36233L8.16213 6.99988H7.83791L6.63772 9.99988ZM2.14651 1.64636C2.34177 1.45129 2.65833 1.4512 2.85354 1.64636C3.04869 1.84157 3.04861 2.15814 2.85354 2.3534C1.39253 3.81486 1.39257 6.1839 2.85354 7.64539C3.0488 7.84065 3.0488 8.15813 2.85354 8.3534C2.65838 8.54829 2.34172 8.5482 2.14651 8.3534C0.294894 6.50139 0.294934 3.49839 2.14651 1.64636ZM13.1465 1.64636C13.3417 1.4512 13.6583 1.45122 13.8535 1.64636C15.7055 3.49845 15.7055 6.50131 13.8535 8.3534C13.6583 8.54822 13.3417 8.54827 13.1465 8.3534C12.9515 8.15815 12.9514 7.84057 13.1465 7.64539C14.6077 6.1838 14.6079 3.81488 13.1465 2.3534C12.9514 2.15823 12.9516 1.84162 13.1465 1.64636ZM4.14651 3.14636C4.34176 2.95112 4.65828 2.95115 4.85354 3.14636C5.04866 3.34164 5.04875 3.65818 4.85354 3.8534C4.17047 4.53681 4.1703 5.64469 4.85354 6.32801C5.04879 6.52327 5.0488 6.83978 4.85354 7.03504C4.65827 7.23014 4.34172 7.23024 4.14651 7.03504C3.07275 5.9612 3.07292 4.22031 4.14651 3.14636ZM11.1465 3.14636C11.3417 2.95132 11.6583 2.95137 11.8535 3.14636C12.9273 4.22032 12.9274 5.96214 11.8535 7.03601C11.6583 7.23056 11.3416 7.23073 11.1465 7.03601C10.9515 6.84095 10.9519 6.52428 11.1465 6.32898C11.8299 5.64563 11.8297 4.53683 11.1465 3.8534C10.9516 3.65826 10.9517 3.34159 11.1465 3.14636ZM8.00002 3.99988C7.44785 4.00001 7.00002 4.44767 7.00002 4.99988C7.00016 5.55197 7.44793 5.99975 8.00002 5.99988C8.55222 5.99988 8.99988 5.55205 9.00002 4.99988C9.00002 4.4476 8.55231 3.99988 8.00002 3.99988Z" fill="white"/>
</svg>
