<svg width="16" height="16" viewBox="0 0 16 16" fill="none" xmlns="http://www.w3.org/2000/svg">
<path d="M11.7988 3C11.7506 3.0359 11.6946 3.07895 11.627 3.12891L11.5977 3.14941C11.5602 3.17707 11.485 3.23262 11.4209 3.28809C11.3703 3.33198 11.2803 3.41479 11.1973 3.53906L11.1172 3.67773C11.0678 3.7808 11.0358 3.88956 11.0176 4H3.5C2.67157 4 2 4.67157 2 5.5V10.5C2 11.3284 2.67157 12 3.5 12H12.5C13.3284 12 14 11.3284 14 10.5V7.37793C14.1764 7.35306 14.3491 7.28947 14.5029 7.18555C14.7285 7.03304 14.8428 6.83047 14.8799 6.76465C14.9252 6.68415 14.9699 6.58793 14.999 6.52637C14.9995 6.52544 14.9996 6.52436 15 6.52344V10.5C15 11.8807 13.8807 13 12.5 13H3.5C2.11929 13 1 11.8807 1 10.5V5.5C1 4.11929 2.11929 3 3.5 3H11.7988ZM3.5 9C3.77614 9 4 9.22386 4 9.5V10.5C4 10.7761 3.77614 11 3.5 11C3.22386 11 3 10.7761 3 10.5V9.5C3 9.22386 3.22386 9 3.5 9ZM12.5 9C12.7761 9 13 9.22386 13 9.5V10.5C13 10.7761 12.7761 11 12.5 11C12.2239 11 12 10.7761 12 10.5V9.5C12 9.22386 12.2239 9 12.5 9ZM7 6.50098C7 6.11484 7.34609 5.8745 7.62109 6.06934L9.8252 7.63086C10.0581 7.79583 10.0581 8.20417 9.8252 8.36914L7.62109 9.93066C7.34609 10.1255 7 9.88516 7 9.49902V6.50098ZM3.5 5C3.77614 5 4 5.22386 4 5.5V6.5C4 6.77614 3.77614 7 3.5 7C3.22386 7 3 6.77614 3 6.5V5.5C3 5.22386 3.22386 5 3.5 5Z" fill="white"/>
<path d="M13.5705 2.29119C13.6421 2.13968 13.6779 2.06393 13.7226 2.03372C13.7891 1.98876 13.8763 1.98876 13.9429 2.03372C13.9876 2.06393 14.0233 2.13968 14.0949 2.29119C14.2444 2.60782 14.3192 2.76613 14.4108 2.91271C14.5463 3.12973 14.7095 3.3282 14.8962 3.50313C15.0223 3.62128 15.1632 3.72525 15.445 3.93318L15.4736 3.95432C15.5745 4.02876 15.6249 4.06598 15.6461 4.11013C15.6719 4.16391 15.6719 4.22648 15.6461 4.28026C15.6249 4.32441 15.5745 4.36163 15.4736 4.43608L15.445 4.45721C15.1632 4.66515 15.0223 4.76911 14.8962 4.88727C14.7095 5.06219 14.5463 5.26066 14.4108 5.47768C14.3192 5.62426 14.2444 5.78258 14.0949 6.09921C14.0233 6.25071 13.9876 6.32647 13.9429 6.35667C13.8763 6.40164 13.7891 6.40164 13.7226 6.35667C13.6779 6.32647 13.6421 6.25071 13.5705 6.09921C13.421 5.78258 13.3462 5.62426 13.2547 5.47768C13.1191 5.26066 12.9559 5.06219 12.7692 4.88727C12.6431 4.76911 12.5022 4.66515 12.2205 4.45721L12.1918 4.43608C12.0909 4.36163 12.0405 4.32441 12.0193 4.28026C11.9936 4.22648 11.9936 4.16391 12.0193 4.11013C12.0405 4.06598 12.0909 4.02876 12.1918 3.95432L12.2205 3.93318C12.5022 3.72525 12.6431 3.62128 12.7692 3.50313C12.9559 3.3282 13.1191 3.12973 13.2547 2.91271C13.3462 2.76613 13.421 2.60782 13.5705 2.29119Z" fill="white"/>
</svg>
