<svg width="16" height="16" viewBox="0 0 16 16" fill="none" xmlns="http://www.w3.org/2000/svg">
<path d="M6.00431 1.83291C7.09936 0.722364 8.90064 0.722364 9.99569 1.83291C10.4422 2.28576 11.0344 2.57338 11.6686 2.64724C13.2062 2.82633 14.3187 4.20218 14.1523 5.72934L14.1417 5.82689C14.0725 6.46231 14.2168 7.10262 14.5524 7.64819L14.5784 7.69049C15.3954 9.019 14.9887 10.7568 13.6718 11.6023C13.1346 11.9471 12.7268 12.4629 12.5191 13.0634L12.4933 13.1381C11.9913 14.5899 10.3903 15.3548 8.93337 14.8389C8.32977 14.6252 7.67023 14.6252 7.06663 14.8389C5.60966 15.3548 4.00869 14.5899 3.5067 13.1381L3.48088 13.0634C3.27324 12.4629 2.86543 11.9471 2.3282 11.6023C1.01126 10.7568 0.604573 9.019 1.42162 7.69049L1.44763 7.64819C1.78316 7.10262 1.92754 6.46231 1.8583 5.82689L1.84767 5.72934C1.68126 4.20218 2.79385 2.82633 4.33144 2.64724C4.96559 2.57338 5.55778 2.28576 6.00431 1.83291Z" fill="url(#paint0_linear_77815_207556)"/>
<path d="M6.12305 1.9502C7.15283 0.905844 8.84717 0.905844 9.87695 1.9502C10.3503 2.43024 10.9779 2.73429 11.6494 2.8125C13.0977 2.98124 14.1424 4.27672 13.9863 5.71094L13.9756 5.80859C13.9023 6.48079 14.0554 7.15838 14.4102 7.73535L14.4365 7.77734C15.2053 9.02737 14.8234 10.6648 13.582 11.4619C13.0137 11.8268 12.5813 12.3726 12.3613 13.0088L12.3359 13.084C11.8644 14.4472 10.3598 15.1669 8.98926 14.6816C8.34966 14.4552 7.65034 14.4552 7.01074 14.6816C5.64021 15.1669 4.13558 14.4472 3.66406 13.084L3.63867 13.0088C3.41867 12.3726 2.98632 11.8268 2.41797 11.4619C1.17655 10.6648 0.794702 9.02737 1.56348 7.77734L1.58984 7.73535C1.94462 7.15838 2.09766 6.48079 2.02441 5.80859L2.01367 5.71094C1.85756 4.27672 2.90233 2.98124 4.35059 2.8125C5.02206 2.73429 5.64966 2.43024 6.12305 1.9502Z" stroke="white" stroke-opacity="0.3" stroke-width="0.333333"/>
<path d="M11.3123 5.60958C11.528 5.78209 11.5629 6.09673 11.3904 6.31237L7.39043 11.3124C7.30159 11.4234 7.16965 11.4914 7.02765 11.4993C6.88565 11.5071 6.74701 11.4541 6.64645 11.3536L4.64645 9.35357C4.45118 9.15831 4.45118 8.84173 4.64645 8.64647C4.84171 8.4512 5.15829 8.4512 5.35355 8.64647L6.95854 10.2515L10.6096 5.68767C10.7821 5.47204 11.0967 5.43708 11.3123 5.60958Z" fill="white"/>
<defs>
<linearGradient id="paint0_linear_77815_207556" x1="1" y1="1" x2="17.3855" y2="4.85161" gradientUnits="userSpaceOnUse">
<stop stop-color="#F6DD91"/>
<stop offset="0.5" stop-color="#C79C1A"/>
<stop offset="1" stop-color="#F6DD91"/>
</linearGradient>
</defs>
</svg>
