<svg width="16" height="16" viewBox="0 0 16 16" fill="none" xmlns="http://www.w3.org/2000/svg">
<path d="M8.5 9.5C8.5 9.77614 8.27614 10 8 10C7.72386 10 7.5 9.77614 7.5 9.5V7.20711L6.85355 7.85355C6.65829 8.04882 6.34171 8.04882 6.14645 7.85355C5.95118 7.65829 5.95118 7.34171 6.14645 7.14645L7.64645 5.64645C7.84171 5.45118 8.15829 5.45118 8.35355 5.64645L9.85355 7.14645C10.0488 7.34171 10.0488 7.65829 9.85355 7.85355C9.65829 8.04882 9.34171 8.04882 9.14645 7.85355L8.5 7.20711V9.5Z" fill="white"/>
<path d="M2.21799 4.09202C2 4.51984 2 5.0799 2 6.2V9.8C2 10.9201 2 11.4802 2.21799 11.908C2.40973 12.2843 2.71569 12.5903 3.09202 12.782C3.51984 13 4.0799 13 5.2 13H10.8C11.9201 13 12.4802 13 12.908 12.782C13.2843 12.5903 13.5903 12.2843 13.782 11.908C14 11.4802 14 10.9201 14 9.8V6.2C14 5.0799 14 4.51984 13.782 4.09202C13.5903 3.71569 13.2843 3.40973 12.908 3.21799C12.4802 3 11.9201 3 10.8 3H5.2C4.0799 3 3.51984 3 3.09202 3.21799C2.71569 3.40973 2.40973 3.71569 2.21799 4.09202ZM10.8 4C11.3766 4 11.7488 4.00078 12.0322 4.02393C12.3038 4.04612 12.4045 4.0838 12.454 4.10899C12.6422 4.20487 12.7951 4.35785 12.891 4.54601C12.9162 4.59545 12.9539 4.69617 12.9761 4.96784C12.9992 5.25117 13 5.62345 13 6.2V9.8C13 10.3766 12.9992 10.7488 12.9761 11.0322C12.9539 11.3038 12.9162 11.4045 12.891 11.454C12.7951 11.6422 12.6422 11.7951 12.454 11.891C12.4045 11.9162 12.3038 11.9539 12.0322 11.9761C11.7488 11.9992 11.3766 12 10.8 12H5.2C4.62345 12 4.25117 11.9992 3.96784 11.9761C3.69617 11.9539 3.59545 11.9162 3.54601 11.891C3.35785 11.7951 3.20487 11.6422 3.10899 11.454C3.0838 11.4045 3.04612 11.3038 3.02393 11.0322C3.00078 10.7488 3 10.3766 3 9.8V6.2C3 5.62345 3.00078 5.25117 3.02393 4.96784C3.04612 4.69617 3.0838 4.59545 3.10899 4.54601C3.20487 4.35785 3.35785 4.20487 3.54601 4.10899C3.59545 4.0838 3.69617 4.04612 3.96784 4.02393C4.25117 4.00078 4.62345 4 5.2 4H10.8Z" fill="white"/>
</svg>
