<svg width="16" height="16" viewBox="0 0 16 16" fill="none" xmlns="http://www.w3.org/2000/svg">
<path d="M9.81259 2C10.7274 2 11.5698 2.4996 12.0079 3.30273L13.9171 6.80273C14.3241 7.54892 14.3241 8.45108 13.9171 9.19727L12.0079 12.6973C11.5698 13.5004 10.7274 14 9.81259 14H6.18759C5.27272 14 4.43036 13.5004 3.99227 12.6973L2.08407 9.19727C1.67705 8.45107 1.67705 7.54893 2.08407 6.80273L3.99227 3.30273C4.43036 2.49958 5.27272 2 6.18759 2H9.81259ZM6.18759 3C5.63873 3 5.13308 3.29946 4.8702 3.78125L2.962 7.28125C2.71779 7.72897 2.71779 8.27103 2.962 8.71875L4.8702 12.2188C5.13308 12.7005 5.63873 13 6.18759 13H9.81259C10.3614 13 10.8671 12.7005 11.13 12.2188L13.0391 8.71875C13.2834 8.27103 13.2834 7.72897 13.0391 7.28125L11.13 3.78125C10.8671 3.29953 10.3614 3 9.81259 3H6.18759ZM8.00009 6C9.10465 6 10.0001 6.89543 10.0001 8C10.0001 9.10457 9.10465 10 8.00009 10C6.89557 9.99993 6.00009 9.10453 6.00009 8C6.00009 6.89547 6.89557 6.00007 8.00009 6ZM8.00009 7C7.44786 7.00007 7.00009 7.44776 7.00009 8C7.00009 8.55224 7.44786 8.99993 8.00009 9C8.55237 9 9.00009 8.55228 9.00009 8C9.00009 7.44772 8.55237 7 8.00009 7Z" fill="white"/>
</svg>
