<svg width="16" height="16" viewBox="0 0 16 16" fill="none" xmlns="http://www.w3.org/2000/svg">
<path fill-rule="evenodd" clip-rule="evenodd" d="M4.5 7C5.70948 7 6.71836 6.14112 6.94999 5H12.5C12.7761 5 13 4.77614 13 4.5C13 4.22386 12.7761 4 12.5 4H6.94999C6.71836 2.85888 5.70948 2 4.5 2C3.11929 2 2 3.11929 2 4.5C2 5.88071 3.11929 7 4.5 7ZM4.5 3C5.32843 3 6 3.67157 6 4.5C6 5.32843 5.32843 6 4.5 6C3.67157 6 3 5.32843 3 4.5C3 3.67157 3.67157 3 4.5 3Z" fill="white" fill-opacity="0.5"/>
<path fill-rule="evenodd" clip-rule="evenodd" d="M11.5 9C10.2905 9 9.28164 9.85888 9.05001 11H3.5C3.22386 11 3 11.2239 3 11.5C3 11.7761 3.22386 12 3.5 12H9.05001C9.28164 13.1411 10.2905 14 11.5 14C12.8807 14 14 12.8807 14 11.5C14 10.1193 12.8807 9 11.5 9ZM11.5 13C10.6716 13 10 12.3284 10 11.5C10 10.6716 10.6716 10 11.5 10C12.3284 10 13 10.6716 13 11.5C13 12.3284 12.3284 13 11.5 13Z" fill="white" fill-opacity="0.5"/>
</svg>
