<svg fill="none" viewBox="0 0 24 24" xmlns="http://www.w3.org/2000/svg"><path d="m3 5.75c0-.41421.33579-.75.75-.75 2.66341 0 5.25797-.94348 7.8-2.85.2667-.2.6333-.2.9 0 2.542 1.90652 5.1366 2.85 7.8 2.85.4142 0 .75.33579.75.75v5.25c0 5.0012-2.9576 8.6757-8.7251 10.9478-.1767.0696-.3731.0696-.5498 0-5.76754-2.2721-8.7251-5.9466-8.7251-10.9478zm1.5.72793v4.52207c0 4.2556 2.45337 7.3789 7.5 9.4419 5.0466-2.063 7.5-5.1863 7.5-9.4419v-4.52207c-2.5773-.15208-5.0808-1.08964-7.5-2.80011-2.41916 1.71047-4.92265 2.64803-7.5 2.80011z" fill="currentColor"/></svg>