<svg width="16" height="16" viewBox="0 0 16 16" fill="none" xmlns="http://www.w3.org/2000/svg">
<path d="M8 15C11.866 15 15 11.866 15 8C15 4.13401 11.866 1 8 1C4.13401 1 1 4.13401 1 8C1 11.866 4.13401 15 8 15Z" fill="#1ED760"/>
<path d="M12.0152 7.19857C9.75258 5.85466 6.01952 5.73109 3.85925 6.38674C3.51235 6.49195 3.1455 6.29612 3.04037 5.94922C2.93524 5.60216 3.13092 5.23556 3.47807 5.1301C5.95791 4.37728 10.0804 4.52273 12.6854 6.06919C12.9981 6.25437 13.1003 6.65735 12.9151 6.96896C12.7306 7.28098 12.3262 7.38385 12.0152 7.19857Z" fill="black"/>
<path d="M11.1886 9.3695C11.446 9.52794 11.783 9.44663 11.9414 9.18909C12.0999 8.93206 12.0186 8.59514 11.7612 8.4367C9.59413 7.10502 6.42452 6.73029 3.87493 7.50389C3.58596 7.59192 3.42274 7.89707 3.50992 8.18654C3.59778 8.47551 3.90351 8.63865 4.19299 8.55121C6.42502 7.87368 9.30156 8.20959 11.1886 9.3695Z" fill="black"/>
<path d="M10.4802 11.2457C10.6865 11.3723 10.9564 11.3069 11.0822 11.1006C11.2087 10.8944 11.1434 10.6253 10.9371 10.4987C9.08662 9.36782 6.79271 9.10476 4.11846 9.71572C3.88239 9.76938 3.73543 10.0041 3.78934 10.2397C3.84298 10.4752 4.07772 10.6228 4.3132 10.5691C6.75691 10.0108 8.83193 10.2388 10.4802 11.2457Z" fill="black"/>
</svg>
