<svg width="24" height="24" viewBox="0 0 24 24" fill="none" xmlns="http://www.w3.org/2000/svg">
<path d="M4.5 19C5.32843 19 6 19.6716 6 20.5C6 21.3284 5.32843 22 4.5 22C3.67157 22 3 21.3284 3 20.5C3 19.6716 3.67157 19 4.5 19ZM9.5 19C10.3284 19 11 19.6716 11 20.5C11 21.3284 10.3284 22 9.5 22C8.67157 22 8 21.3284 8 20.5C8 19.6716 8.67157 19 9.5 19ZM14.5 19C15.3284 19 16 19.6716 16 20.5C16 21.3284 15.3284 22 14.5 22C13.6716 22 13 21.3284 13 20.5C13 19.6716 13.6716 19 14.5 19ZM19.5 19C20.3284 19 21 19.6716 21 20.5C21 21.3284 20.3284 22 19.5 22C18.6716 22 18 21.3284 18 20.5C18 19.6716 18.6716 19 19.5 19ZM16.2324 2.25C17.0451 2.24999 17.7006 2.2496 18.2314 2.29297C18.7781 2.33763 19.2579 2.43286 19.7021 2.65918C20.4078 3.0187 20.9813 3.59224 21.3408 4.29785C21.5671 4.74205 21.6624 5.22195 21.707 5.76855C21.7504 6.29939 21.75 6.95491 21.75 7.76758V16C21.75 16.4142 21.4142 16.75 21 16.75H3C2.58579 16.75 2.25 16.4142 2.25 16V7.76758C2.24999 6.95492 2.2496 6.29938 2.29297 5.76855C2.33763 5.22195 2.43286 4.74205 2.65918 4.29785C3.0187 3.59224 3.59224 3.0187 4.29785 2.65918C4.74205 2.43286 5.22195 2.33763 5.76855 2.29297C6.29938 2.2496 6.95492 2.24999 7.76758 2.25H16.2324ZM7.7998 3.75C6.94745 3.75 6.35322 3.75029 5.89062 3.78809C5.4368 3.82517 5.17602 3.89449 4.97852 3.99512C4.55515 4.21083 4.21083 4.55515 3.99512 4.97852C3.89449 5.17602 3.82517 5.4368 3.78809 5.89062C3.75029 6.35322 3.75 6.94745 3.75 7.7998V15.25H20.25V7.7998C20.25 6.94745 20.2497 6.35322 20.2119 5.89062C20.1748 5.4368 20.1055 5.17602 20.0049 4.97852C19.7892 4.55515 19.4448 4.21083 19.0215 3.99512C18.824 3.89449 18.5632 3.82517 18.1094 3.78809C17.6468 3.75029 17.0525 3.75 16.2002 3.75H7.7998Z" fill="white"/>
</svg>
