<svg width="24" height="24" viewBox="0 0 24 24" fill="none" xmlns="http://www.w3.org/2000/svg">
<path d="M14.8311 2.25C15.365 2.24999 15.8107 2.24956 16.1748 2.2793C16.5547 2.31033 16.9118 2.37796 17.249 2.5498C17.7663 2.81347 18.1866 3.2346 18.4502 3.75195C18.6219 4.08912 18.6897 4.44543 18.7207 4.8252C18.7505 5.18941 18.75 5.63579 18.75 6.16992V8.5C18.75 8.91421 18.4142 9.25 18 9.25C17.5859 9.24987 17.25 8.91413 17.25 8.5V6.2002C17.25 5.62777 17.2498 5.24314 17.2256 4.94727C17.2021 4.66048 17.1604 4.52316 17.1143 4.43262C16.9944 4.19741 16.8026 4.00656 16.5674 3.88672C16.4768 3.84059 16.3398 3.79787 16.0527 3.77441C15.7569 3.75024 15.3722 3.75 14.7998 3.75H9.86621L12.6123 4.61719C13.2945 4.8319 13.8297 5.00044 14.2412 5.33691C14.602 5.63201 14.882 6.0143 15.0547 6.44727C15.2515 6.94098 15.2507 7.50176 15.25 8.2168V18.6689C15.25 18.8727 15.25 19.066 15.249 19.249C15.5859 19.2474 15.8418 19.2428 16.0527 19.2256C16.3398 19.2021 16.4768 19.1594 16.5674 19.1133C16.8026 18.9934 16.9944 18.8026 17.1143 18.5674C17.1604 18.4768 17.2021 18.3395 17.2256 18.0527C17.2498 17.7569 17.25 17.3722 17.25 16.7998V14.5C17.25 14.0859 17.5859 13.7501 18 13.75C18.4142 13.75 18.75 14.0858 18.75 14.5V16.8301C18.75 17.3642 18.7505 17.8106 18.7207 18.1748C18.6897 18.5546 18.6219 18.9109 18.4502 19.248C18.1866 19.7654 17.7663 20.1865 17.249 20.4502C16.9118 20.622 16.5547 20.6897 16.1748 20.7207C15.8906 20.7439 15.5567 20.7489 15.1699 20.75C15.1151 21.1038 15.0163 21.4368 14.8262 21.7383C14.4545 22.3271 13.8726 22.7536 13.1992 22.9307C12.7501 23.0487 12.2967 23.002 11.8301 22.8994C11.3751 22.7993 10.8201 22.6245 10.1445 22.4111L6.8877 21.3828C6.20565 21.1681 5.67128 20.9995 5.25977 20.6631C4.89876 20.3679 4.61804 19.9859 4.44531 19.5527C4.2485 19.059 4.24933 18.4982 4.25 17.7832V6.16992C4.24999 5.63577 4.25051 5.18943 4.28027 4.8252C4.3113 4.44552 4.37814 4.08905 4.5498 3.75195C4.81346 3.23451 5.23451 2.81346 5.75195 2.5498C6.08908 2.37806 6.44548 2.31034 6.8252 2.2793C7.18943 2.24954 7.63577 2.24999 8.16992 2.25H14.8311ZM7.34766 4.56543C6.97101 4.48263 6.79278 4.49066 6.68262 4.51953C6.37662 4.59999 6.11229 4.79401 5.94336 5.06152C5.88258 5.15783 5.82064 5.32533 5.78613 5.70996C5.75541 6.05265 5.75057 6.49317 5.75 7.10742V17.6543C5.75 18.5615 5.76296 18.8066 5.83887 18.9971C5.91738 19.1939 6.04489 19.3678 6.20898 19.502C6.36776 19.6318 6.59688 19.718 7.46191 19.9912L10.5625 20.9697C11.2802 21.1964 11.7708 21.3507 12.1523 21.4346C12.5297 21.5175 12.7082 21.5085 12.8184 21.4795C13.1243 21.3989 13.3888 21.206 13.5576 20.9385C13.6184 20.8422 13.6803 20.6746 13.7148 20.29C13.7497 19.901 13.75 19.3863 13.75 18.6338V8.34473C13.75 7.43788 13.737 7.19339 13.6611 7.00293C13.5826 6.80606 13.4551 6.6322 13.291 6.49805C13.1322 6.3683 12.9031 6.28195 12.0381 6.00879L8.9375 5.03027C8.21998 4.80369 7.72912 4.64932 7.34766 4.56543Z" fill="white"/>
<path d="M19.9697 9.46967C20.2626 9.17678 20.7374 9.17678 21.0303 9.46967L22.5303 10.9697C22.8232 11.2626 22.8232 11.7374 22.5303 12.0303L21.0303 13.5303C20.7374 13.8232 20.2626 13.8232 19.9697 13.5303C19.6768 13.2374 19.6768 12.7626 19.9697 12.4697L20.1893 12.25H18C17.5858 12.25 17.25 11.9142 17.25 11.5C17.25 11.0858 17.5858 10.75 18 10.75H20.1893L19.9697 10.5303C19.6768 10.2374 19.6768 9.76256 19.9697 9.46967Z" fill="#EF5350"/>
</svg>
