<svg width="26" height="16" viewBox="0 0 26 16" fill="none" xmlns="http://www.w3.org/2000/svg">
<path d="M10.2002 1C10.6366 1 11.0163 1.00013 11.3506 1.00586C10.9771 1.33633 10.6647 1.73398 10.4355 2.18359C10.3193 2.41182 10.2344 2.65931 10.1719 2.94141C9.99744 2.94821 9.82278 2.96843 9.65039 3.00488C9.28981 2.60933 8.83009 2.31432 8.31738 2.14941C7.8045 1.98448 7.25631 1.95541 6.72852 2.06543C6.20079 2.17547 5.71189 2.4209 5.31055 2.77637C4.90922 3.13183 4.6099 3.58509 4.44238 4.09082C4.01966 4.17632 3.61984 4.34974 3.27051 4.59961C2.92108 4.84965 2.62973 5.17104 2.41602 5.54102C2.08909 6.09538 1.94893 6.73813 2.0166 7.37598C2.08432 8.01361 2.35598 8.6134 2.79199 9.08887C2.65547 9.49273 2.60767 9.92129 2.65234 10.3447C2.69704 10.7681 2.83293 11.1775 3.05078 11.5449C3.3746 12.1003 3.86949 12.5402 4.46289 12.8008C5.05625 13.0612 5.71849 13.1285 6.35352 12.9941C6.63997 13.3123 6.99176 13.5669 7.38574 13.7402C7.77984 13.9136 8.20716 14.0024 8.63867 14C9.23137 14.0005 9.80878 13.8294 10.3047 13.5137C10.3435 13.6186 10.3862 13.7195 10.4355 13.8164C10.6646 14.2658 10.9773 14.6628 11.3506 14.9932C11.0163 14.9989 10.6366 15 10.2002 15H5.7998C4.11978 15 3.27941 14.9998 2.6377 14.6729C2.07347 14.3853 1.61472 13.9265 1.32715 13.3623C1.00018 12.7206 1 11.8802 1 10.2002V5.7998C1 4.11978 1.00018 3.27941 1.32715 2.6377C1.61472 2.07347 2.07347 1.61472 2.6377 1.32715C3.27941 1.00018 4.11978 1 5.7998 1H10.2002ZM10 7.63672V9.59961C10 10.9908 10.0001 11.9504 10.1045 12.6826C9.69556 13.0228 9.17772 13.2137 8.63867 13.2148C8.10584 13.2157 7.5896 13.0313 7.18066 12.6943L7.25293 12.6543L9.6748 11.2744C9.73492 11.2396 9.78548 11.1905 9.82031 11.1309C9.85515 11.0712 9.87358 11.0034 9.87402 10.9346V7.56543L10 7.63672ZM9.32422 10.5488C9.32392 10.5548 9.32222 10.5611 9.31934 10.5664C9.31646 10.5715 9.31238 10.5757 9.30762 10.5791L6.85449 11.9746C6.33094 12.2721 5.7086 12.3526 5.125 12.1982C4.54183 12.0439 4.04458 11.6679 3.74219 11.1523C3.47494 10.6972 3.37849 10.1626 3.4707 9.64453L3.54297 9.6875L5.9668 11.0664C6.02679 11.1011 6.09548 11.1201 6.16504 11.1201C6.23459 11.1201 6.3033 11.1011 6.36328 11.0664L9.32422 9.38281V10.5488ZM4.30273 7.7998C4.30182 7.86838 4.31991 7.9366 4.35449 7.99609C4.38907 8.0554 4.43968 8.10489 4.5 8.13867L7.44727 9.81543L6.42285 10.3994C6.41744 10.4022 6.4114 10.4042 6.40527 10.4043C6.399 10.4043 6.39226 10.4023 6.38672 10.3994L3.93848 9.00684C3.416 8.7081 3.0344 8.21695 2.87793 7.6416C2.72151 7.06612 2.80257 6.45213 3.10352 5.93555V5.94824C3.37261 5.49014 3.79755 5.1398 4.30273 4.96094V7.7998ZM9.32422 7.24902V8.74805L8.00781 9.49805L6.68652 8.74805L6.68457 7.24902L8.00293 6.49902L9.32422 7.24902ZM6.39844 3.00293C6.79053 2.82187 7.22685 2.75414 7.65625 2.80859C8.08563 2.86308 8.49035 3.03752 8.82324 3.31055L8.75098 3.35059L6.3291 4.72949C6.26889 4.76436 6.21846 4.81435 6.18359 4.87402C6.14883 4.93366 6.13026 5.00152 6.12988 5.07031L6.12793 8.43164L5.10352 7.84961C5.09856 7.84661 5.09408 7.84264 5.09082 7.83789C5.08751 7.83302 5.08588 7.82708 5.08496 7.82129V5.03711C5.08552 4.61016 5.20898 4.19219 5.44141 3.83203C5.674 3.47177 6.0063 3.18405 6.39844 3.00293ZM9.61719 5.59961L10.002 5.81934C10.0016 6.00416 10 6.19789 10 6.40039V7.00684L8.55957 6.18164L9.58105 5.59961C9.58643 5.59682 9.59256 5.59577 9.59863 5.5957C9.60488 5.5957 9.61166 5.59673 9.61719 5.59961ZM10.0586 3.73535C10.0293 4.07769 10.0139 4.46591 10.0068 4.91504C9.95574 4.89205 9.9012 4.87695 9.84473 4.87695C9.77479 4.87698 9.70582 4.89575 9.64551 4.93066L6.68652 6.61523V5.44824C6.686 5.44256 6.68708 5.43684 6.68945 5.43164C6.69199 5.42623 6.69619 5.42134 6.70117 5.41797L9.14941 4.02441C9.42945 3.86529 9.7395 3.76716 10.0586 3.73535Z" fill="white"/>
<rect x="11" y="1" width="14" height="14" rx="3" fill="#DE7356"/>
<path d="M14.8902 9.6977L16.9042 8.56246L16.9381 8.46387L16.9042 8.40904L16.8061 8.40901L16.4695 8.38816L15.3187 8.3569L14.3207 8.31526L13.3538 8.26317L13.1106 8.21112L12.8825 7.90908L12.906 7.75843L13.1106 7.62026L13.4036 7.64594L14.0512 7.69036L15.0229 7.75772L15.7279 7.79939L16.7722 7.90839H16.9381L16.9616 7.84106L16.9049 7.79939L16.8606 7.75772L15.855 7.0731L14.7665 6.34959L14.1963 5.93297L13.8881 5.72192L13.7326 5.52402L13.6656 5.09216L13.9455 4.78248L14.3214 4.80817L14.4175 4.83388L14.7983 5.12825L15.6118 5.76081L16.674 6.5468L16.8296 6.67665L16.8918 6.63223L16.8994 6.60097L16.8296 6.48364L16.2518 5.43447L15.6353 4.3673L15.3609 3.925L15.2883 3.65977C15.2628 3.55077 15.2441 3.45913 15.2441 3.34732L15.5627 2.91266L15.7389 2.85571L16.164 2.91266L16.343 3.06888L16.607 3.67576L17.0348 4.63118L17.6983 5.93028L17.8926 6.31563L17.9962 6.67253L18.0349 6.78153L18.1019 6.7815V6.71901L18.1565 5.98717L18.2574 5.0887L18.3556 3.93263L18.3894 3.607L18.5497 3.21676L18.8684 3.0057L19.1172 3.12514L19.3217 3.41951L19.2934 3.60977L19.1718 4.40408L18.9333 5.64832L18.7778 6.48153H18.8684L18.9721 6.37739L19.3916 5.81776L20.0966 4.93247L20.4076 4.58115L20.7704 4.19303L21.0033 4.00831L21.4436 4.00829L21.7677 4.49223L21.6226 4.99217L21.1692 5.56984L20.7932 6.05934L20.2541 6.7884L19.9175 7.37162L19.9487 7.41816L20.0288 7.41052L21.2466 7.15013L21.9046 7.03071L22.6897 6.89534L23.0449 7.06198L23.0837 7.23139L22.944 7.57787L22.1043 7.78618L21.1195 7.98407L19.6528 8.33265L19.6349 8.34583L19.6556 8.37152L20.3163 8.43401L20.599 8.44929H21.2908L22.5791 8.54582L22.9157 8.7694L23.1175 9.04297L23.0836 9.25128L22.5653 9.51651L21.8659 9.34987L20.2334 8.95966L19.6735 8.81939L19.5962 8.81937V8.8659L20.0627 9.32416L20.9176 10.0997L21.9882 11.0996L22.0428 11.3468L21.9052 11.5419L21.7601 11.521L20.8195 10.81L20.4566 10.49L19.6349 9.79492L19.5803 9.79489V9.8678L19.7697 10.1462L20.7697 11.6564L20.8215 12.1195L20.749 12.2702L20.4898 12.3612L20.2051 12.3091L19.6197 11.4835L19.0156 10.5538L18.5284 9.72061L18.4689 9.75462L18.1814 12.8659L18.0466 13.0249L17.7356 13.1444L17.4765 12.9465L17.3389 12.6264L17.4765 11.9938L17.6423 11.1683L17.7771 10.5121L17.8987 9.69699L17.9713 9.42619L17.9665 9.40814L17.9071 9.41578L17.2954 10.2594L16.3651 11.5224L15.6291 12.314L15.4528 12.3841L15.1473 12.2251L15.1757 11.9411L15.3464 11.6884L16.3651 10.3865L16.9795 9.57966L17.3762 9.11374L17.3735 9.04641H17.35L14.6442 10.8114L14.1625 10.8739L13.9551 10.6788L13.9807 10.3587L14.0789 10.2546L14.8923 9.69213L14.8895 9.69493L14.8902 9.6977Z" fill="#FCF2EE"/>
</svg>
