<svg width="16" height="16" viewBox="0 0 16 16" fill="none" xmlns="http://www.w3.org/2000/svg">
<path d="M9.62065 3.5H4.37935C3.97687 3.49999 3.64468 3.49999 3.37409 3.5221C3.09304 3.54506 2.83469 3.59434 2.59202 3.71799C2.2157 3.90973 1.90973 4.2157 1.71799 4.59202C1.59434 4.83469 1.54506 5.09304 1.5221 5.37409C1.49999 5.64468 1.49999 5.97686 1.5 6.37934V9.62065C1.49999 10.0231 1.49999 10.3553 1.5221 10.6259C1.54506 10.907 1.59434 11.1653 1.71799 11.408C1.90973 11.7843 2.2157 12.0903 2.59202 12.282C2.83469 12.4057 3.09304 12.4549 3.37409 12.4779C3.64468 12.5 3.97686 12.5 4.37934 12.5H9.62066C10.0231 12.5 10.3553 12.5 10.6259 12.4779C10.907 12.4549 11.1653 12.4057 11.408 12.282C11.7843 12.0903 12.0903 11.7843 12.282 11.408C12.4057 11.1653 12.4549 10.907 12.4779 10.6259C12.4978 10.3822 12.4998 10.0885 12.5 9.7385L13.2356 10.0327C13.4035 10.0999 13.5595 10.1623 13.6918 10.2018C13.8303 10.2432 14.0087 10.281 14.2035 10.2406C14.4615 10.1869 14.6879 10.0336 14.8335 9.814C14.9434 9.64818 14.9745 9.46854 14.9875 9.3246C15 9.18703 15 9.01903 15 8.83822V7.16181C15 6.981 15 6.81295 14.9875 6.67539C14.9745 6.53144 14.9434 6.35181 14.8335 6.18598C14.6879 5.96633 14.4615 5.81304 14.2035 5.75942C14.0087 5.71895 13.8303 5.75682 13.6918 5.79815C13.5595 5.83765 13.4035 5.90007 13.2356 5.96724L12.5 6.26148C12.4998 5.91148 12.4978 5.61781 12.4779 5.37409C12.4549 5.09304 12.4057 4.83469 12.282 4.59202C12.0903 4.2157 11.7843 3.90973 11.408 3.71799C11.1653 3.59434 10.907 3.54506 10.6259 3.5221C10.3553 3.49999 10.0231 3.49999 9.62065 3.5ZM12.5 7.33851L13.5886 6.90308C13.7812 6.82601 13.8943 6.7813 13.9778 6.7564L13.9904 6.75275L13.9916 6.76577C13.9995 6.85251 14 6.97412 14 7.18162V8.81837C14 9.02586 13.9995 9.14747 13.9916 9.23421L13.9904 9.24723L13.9778 9.24359C13.8943 9.21868 13.7812 9.17397 13.5886 9.09691L12.5 8.66148V7.33851ZM11.5 6.4V9.6C11.5 10.0283 11.4996 10.3194 11.4812 10.5445C11.4633 10.7637 11.4309 10.8758 11.391 10.954C11.2951 11.1422 11.1422 11.2951 10.954 11.391C10.8758 11.4309 10.7637 11.4633 10.5445 11.4812C10.3194 11.4996 10.0283 11.5 9.6 11.5H4.4C3.97171 11.5 3.68056 11.4996 3.45552 11.4812C3.23631 11.4633 3.12421 11.4309 3.04601 11.391C2.85785 11.2951 2.70487 11.1422 2.60899 10.954C2.56915 10.8758 2.53669 10.7637 2.51878 10.5445C2.50039 10.3194 2.5 10.0283 2.5 9.6V6.4C2.5 5.97171 2.50039 5.68056 2.51878 5.45552C2.53669 5.23631 2.56915 5.12421 2.60899 5.04601C2.70487 4.85785 2.85785 4.70487 3.04601 4.60899C3.12421 4.56915 3.23631 4.53669 3.45552 4.51878C3.68056 4.50039 3.97171 4.5 4.4 4.5H9.6C10.0283 4.5 10.3194 4.50039 10.5445 4.51878C10.7637 4.53669 10.8758 4.56915 10.954 4.60899C11.1422 4.70487 11.2951 4.85785 11.391 5.04601C11.4309 5.12421 11.4633 5.23631 11.4812 5.45552C11.4996 5.68056 11.5 5.97171 11.5 6.4Z" fill="white"/>
</svg>
