<svg width="16" height="16" viewBox="0 0 16 16" fill="none" xmlns="http://www.w3.org/2000/svg">
<path d="M10.4725 1.66345L9.83673 3.50014C10.1439 3.50075 10.4053 3.50408 10.6259 3.5221C10.907 3.54506 11.1653 3.59435 11.408 3.71799C11.7843 3.90974 12.0903 4.2157 12.282 4.59202C12.4057 4.83469 12.4549 5.09304 12.4779 5.37409C12.4978 5.61783 12.4998 5.91152 12.5 6.26155L13.2356 5.96731C13.4035 5.90013 13.5595 5.83772 13.6918 5.79822C13.8303 5.75689 14.0087 5.71901 14.2035 5.75949C14.4615 5.81311 14.6879 5.9664 14.8335 6.18605C14.9434 6.35187 14.9745 6.53151 14.9875 6.67545C15 6.81302 15 6.98107 15 7.16188V8.8383C15 9.01911 15 9.1871 14.9875 9.32466C14.9745 9.46861 14.9434 9.64824 14.8335 9.81407C14.6879 10.0337 14.4615 10.187 14.2035 10.2406C14.0087 10.2811 13.8303 10.2432 13.6918 10.2019C13.5595 10.1624 13.4035 10.1 13.2356 10.0328L12.5 9.73857C12.4998 10.0885 12.4978 10.3822 12.4779 10.6259C12.4549 10.907 12.4057 11.1653 12.282 11.408C12.0903 11.7843 11.7843 12.0903 11.408 12.282C11.1653 12.4057 10.907 12.4549 10.6259 12.4779C10.3553 12.5 10.0231 12.5 9.62066 12.5H9C8.72386 12.5 8.5 12.2761 8.5 12C8.5 11.7239 8.72386 11.5 9 11.5H9.6C10.0283 11.5 10.3194 11.4996 10.5445 11.4812C10.7637 11.4633 10.8758 11.4309 10.954 11.391C11.1422 11.2951 11.2951 11.1422 11.391 10.954C11.4309 10.8758 11.4633 10.7637 11.4812 10.5445C11.4996 10.3194 11.5 10.0283 11.5 9.6V6.40001C11.5 5.97172 11.4996 5.68057 11.4812 5.45552C11.4633 5.23632 11.4309 5.12421 11.391 5.04601C11.2951 4.85785 11.1422 4.70487 10.954 4.609C10.8758 4.56915 10.7637 4.53669 10.5445 4.51878C10.3194 4.50039 10.0283 4.50001 9.6 4.50001H9.5C9.49688 4.50001 9.49376 4.49998 9.49065 4.49992L5.97249 14.6635C5.88217 14.9245 5.5974 15.0628 5.33645 14.9725C5.0755 14.8821 4.93718 14.5974 5.02751 14.3364L5.66319 12.5H4.37934C3.97686 12.5 3.64468 12.5 3.37409 12.4779C3.09304 12.4549 2.83469 12.4057 2.59202 12.282C2.2157 12.0903 1.90973 11.7843 1.71799 11.408C1.59434 11.1653 1.54506 10.907 1.5221 10.6259C1.49999 10.3553 1.49999 10.0231 1.5 9.62065V6.37935C1.49999 5.97687 1.49999 5.64469 1.5221 5.37409C1.54506 5.09304 1.59434 4.83469 1.71799 4.59202C1.90973 4.2157 2.2157 3.90974 2.59202 3.71799C2.83469 3.59435 3.09304 3.54506 3.37409 3.5221C3.64469 3.49999 3.97687 3.5 4.37935 3.50001L6.5 3.50001C6.77614 3.50001 7 3.72386 7 4.00001C7 4.27615 6.77614 4.50001 6.5 4.50001H4.4C3.97171 4.50001 3.68056 4.50039 3.45552 4.51878C3.23631 4.53669 3.12421 4.56915 3.04601 4.609C2.85785 4.70487 2.70487 4.85785 2.60899 5.04601C2.56915 5.12421 2.53669 5.23632 2.51878 5.45552C2.50039 5.68057 2.5 5.97172 2.5 6.40001V9.6C2.5 10.0283 2.50039 10.3194 2.51878 10.5445C2.53669 10.7637 2.56915 10.8758 2.60899 10.954C2.70487 11.1422 2.85785 11.2951 3.04601 11.391C3.12421 11.4309 3.23631 11.4633 3.45552 11.4812C3.68056 11.4996 3.97171 11.5 4.4 11.5H6.00934L9.52752 1.33634C9.61785 1.07539 9.90261 0.93707 10.1636 1.0274C10.4245 1.11773 10.5628 1.4025 10.4725 1.66345ZM12.5 8.66154L13.5886 9.09697C13.7812 9.17404 13.8943 9.21875 13.9778 9.24365L13.9904 9.2473L13.9916 9.23427C13.9995 9.14754 14 9.02593 14 8.81843V7.18168C14 6.97419 13.9995 6.85258 13.9916 6.76584L13.9904 6.75282L13.9778 6.75646C13.8943 6.78137 13.7812 6.82608 13.5886 6.90314L12.5 7.33857V8.66154Z" fill="white"/>
</svg>
