<svg preserveAspectRatio="none" width="100%" height="100%" overflow="visible" style="display: block;" viewBox="0 0 13 13" fill="none" xmlns="http://www.w3.org/2000/svg">
<path id="Subtract" d="M6.5 13C10.0899 13 13 10.0899 13 6.5C13 2.91015 10.0899 0 6.5 0C2.91015 0 0 2.91015 0 6.5C0 10.0899 2.91015 13 6.5 13ZM9.56448 4.99388L6.06448 8.99388C5.91556 9.16408 5.69779 9.25799 5.4718 9.24947C5.24581 9.24096 5.03573 9.13092 4.90004 8.95L3.40004 6.95C3.15152 6.61863 3.21867 6.14853 3.55004 5.9C3.88141 5.65147 4.35152 5.71863 4.60004 6.05L5.54489 7.3098L8.43561 4.00612C8.70837 3.6944 9.1822 3.66281 9.49392 3.93557C9.80565 4.20833 9.83724 4.68215 9.56448 4.99388Z" fill="var(--fill-0, #00A466)"/>
</svg>
