<svg preserveAspectRatio="none" width="100%" height="100%" overflow="visible" style="display: block;" viewBox="0 0 13 13" fill="none" xmlns="http://www.w3.org/2000/svg">
<g id="Subtract">
<path d="M6.5 13C10.0899 13 13 10.0899 13 6.5C13 2.91015 10.0899 0 6.5 0C2.91015 0 0 2.91015 0 6.5C0 10.0899 2.91015 13 6.5 13ZM4.20196 4.2019C4.49485 3.90901 4.96973 3.90901 5.26262 4.2019L6.5 5.43928L7.73738 4.20191C8.03027 3.90901 8.50515 3.90901 8.79804 4.20191C9.09093 4.4948 9.09093 4.96967 8.79804 5.26257L7.56066 6.49994L8.79815 7.73743C9.09105 8.03033 9.09105 8.5052 8.79815 8.79809C8.50526 9.09099 8.03039 9.09099 7.73749 8.79809L6.5 7.5606L5.26251 8.7981C4.96961 9.09099 4.49474 9.09099 4.20185 8.7981C3.90895 8.50521 3.90895 8.03033 4.20185 7.73744L5.43934 6.49994L4.20196 5.26256C3.90907 4.96967 3.90907 4.49479 4.20196 4.2019Z" fill="var(--fill-0, #F44336)"/>
</g>
</svg>
