<svg preserveAspectRatio="none" width="100%" height="100%" overflow="visible" style="display: block;" viewBox="0 0 13 13" fill="none" xmlns="http://www.w3.org/2000/svg">
<path id="Subtract" d="M6.5 0C10.0899 0 13 2.91015 13 6.5C13 10.0899 10.0899 13 6.5 13C2.91015 13 0 10.0899 0 6.5C0 2.91015 2.91015 0 6.5 0ZM6.45117 8.58887C6.01172 8.58887 5.65527 8.92578 5.65527 9.35547C5.65527 9.78516 6.01172 10.1221 6.45117 10.1221C6.89551 10.1221 7.25195 9.78516 7.25195 9.35547C7.25195 8.92578 6.89551 8.58887 6.45117 8.58887ZM6.63672 2.89062C5.58691 2.89062 4.80566 3.30566 4.49316 3.9502C4.39551 4.13574 4.34668 4.32129 4.34668 4.53125C4.34668 4.90234 4.58594 5.1416 4.97168 5.1416C5.26953 5.1416 5.48926 5.00488 5.61133 4.69238C5.76758 4.25781 6.08984 4.02344 6.56836 4.02344C7.10547 4.02344 7.47656 4.35547 7.47656 4.83398C7.47656 5.2832 7.28613 5.52734 6.65625 5.90332C6.08008 6.24023 5.78223 6.62109 5.78223 7.19727V7.26562C5.78223 7.66602 6.02637 7.94922 6.44141 7.94922C6.78809 7.94922 6.97852 7.75879 7.05176 7.43164C7.11523 7.02148 7.26172 6.81152 7.91113 6.43555C8.59961 6.03027 8.95605 5.52734 8.95605 4.79004C8.95605 3.65234 8.02344 2.89062 6.63672 2.89062Z" fill="var(--fill-0, white)"/>
</svg>
