<svg fill="none" viewBox="0 0 24 24" xmlns="http://www.w3.org/2000/svg"><path d="m3.75 11.7793c0-.8642.00599-1.1592.07682-1.4232.06807-.2538.18005-.49367.33088-.70879.15695-.22385.3792-.41783 1.04173-.97277l6.25477-5.23904c.1913-.16019.3034-.2535.3921-.31708.0542-.03889.0797-.05174.0868-.05485.0438-.01216.09-.01216.1338 0 .0071.00312.0326.01596.0868.05485.0887.06358.2008.15689.3921.31708l6.2548 5.23904c.6625.55494.8848.74892 1.0417.97277.1508.21512.2628.45499.3309.70879.0708.264.0768.559.0768 1.4232v2.2207c0 1.4125-.0006 2.4268-.0656 3.2229-.0644.7874-.188 1.2951-.3976 1.7066-.4075.7996-1.0577 1.4498-1.8573 1.8573-.4115.2096-.9192.3332-1.7066.3976-.7961.065-1.8104.0656-3.2229.0656h-2c-1.41251 0-2.42678-.0006-3.22292-.0656-.78738-.0644-1.29511-.188-1.70654-.3976-.79969-.4075-1.44986-1.0577-1.85732-1.8573-.20963-.4115-.33326-.9192-.39759-1.7066-.06505-.7961-.06563-1.8104-.06563-3.2229zm8.1852-8.71656c-.0001.00003-.0006.00028-.0017.00064zm.1296 0c0-.00003.0005.00015.0017.00064z" stroke="currentColor" stroke-linejoin="round" stroke-width="1.5"/></svg>