<svg fill="none" viewBox="0 0 16 16" xmlns="http://www.w3.org/2000/svg"><path d="m7.5 4.5c-.27614 0-.5.22386-.5.5s.22386.5.5.5h6c.2761 0 .5-.22386.5-.5s-.2239-.5-.5-.5zm-.5 6.5c0-.2761.22386-.5.5-.5h6c.2761 0 .5.2239.5.5s-.2239.5-.5.5h-6c-.27614 0-.5-.2239-.5-.5z" fill="currentColor"/><g stroke="currentColor"><path d="m5 5c0 .82843-.67157 1.5-1.5 1.5s-1.5-.67157-1.5-1.5.67157-1.5 1.5-1.5 1.5.67157 1.5 1.5z"/><path d="m5 11c0 .8284-.67157 1.5-1.5 1.5s-1.5-.6716-1.5-1.5.67157-1.5 1.5-1.5 1.5.6716 1.5 1.5z"/></g></svg>