<svg viewBox="0 0 24 24" fill="none" xmlns="http://www.w3.org/2000/svg"><path d="M13.7533 2C14.9109 2 15.8641 2.87549 15.9867 4.00046L17.75 4C18.9409 4 19.9156 4.92516 19.9948 6.09595L20 6.25V19.7546C20 20.9455 19.0748 21.9202 17.904 21.9994L17.75 22.0046H6.25C5.05914 22.0046 4.08436 21.0794 4.00519 19.9086L4 19.7546V6.25C4 5.05914 4.92516 4.08436 6.09595 4.00519L6.25 4L8.01334 4.00046C8.13595 2.87549 9.08906 2 10.2467 2H13.7533ZM13.7533 6.4933H10.2467C9.47031 6.4933 8.78594 6.09953 8.38237 5.50082L6.25 5.5C5.8703 5.5 5.55651 5.78215 5.50685 6.14823L5.5 6.25V19.7546C5.5 20.1343 5.78215 20.4481 6.14823 20.4977L6.25 20.5046H17.75C18.1297 20.5046 18.4435 20.2224 18.4932 19.8564L18.5 19.7546V6.25C18.5 5.8703 18.2178 5.55651 17.8518 5.50685L17.75 5.5L15.6176 5.50082C15.2141 6.09953 14.5297 6.4933 13.7533 6.4933ZM13.7533 3.5H10.2467C9.83429 3.5 9.5 3.83429 9.5 4.24665C9.5 4.65902 9.83429 4.9933 10.2467 4.9933H13.7533C14.1657 4.9933 14.5 4.65902 14.5 4.24665C14.5 3.83429 14.1657 3.5 13.7533 3.5Z" fill="currentColor"/><path d="M15.2349 14.8633C15.2349 14.305 14.7823 13.8524 14.224 13.8524H9.77597C9.21766 13.8524 8.76505 14.305 8.76505 14.8633V15.2655C8.76505 16.7597 9.95555 17.4947 12 17.4947C14.0444 17.4947 15.2349 16.7604 15.2349 15.2671V14.8633Z" fill="currentColor"/><path d="M14.0218 11.0218C14.0218 9.90521 13.1166 9 12 9C10.8834 9 9.97816 9.90521 9.97816 11.0218C9.97816 12.1385 10.8834 13.0437 12 13.0437C13.1166 13.0437 14.0218 12.1385 14.0218 11.0218Z" fill="currentColor"/></svg>