<svg fill="none" viewBox="0 0 24 24" xmlns="http://www.w3.org/2000/svg"><path d="m10.5179 3h2.9642c.8128-.00001 1.4685-.00001 1.9994.04336.5466.04467 1.0267.13903 1.471.36537.7056.35952 1.2792.9332 1.6388 1.63881.2263.44421.3207.92436.3653 1.47099.0434.53091.0434 1.18652.0434 1.99935v11.48212c0 .2883-.1653.5511-.4251.676-.2599.1249-.5683.0898-.7934-.0903l-5.7815-4.6252-5.78148 4.6252c-.22513.1801-.53356.2152-.79341.0903s-.42511-.3877-.42511-.676v-11.4821c-.00001-.81284-.00001-1.46846.04336-1.99937.04467-.54663.13903-1.02678.36537-1.47099.35952-.70561.9332-1.27929 1.63881-1.63881.44421-.22634.92436-.3207 1.47099-.36537.53091-.04337 1.18653-.04337 1.99937-.04336zm-1.87722 1.53838c-.45388.03709-.71464.10622-.91216.20686-.42336.21571-.76757.55992-.98328.98328-.10064.19752-.16977.45828-.20686.91216-.0378.46263-.03838 1.05687-.03838 1.90932v9.8895l5.0315-4.0252c.2739-.2191.6631-.2191.937 0l5.0315 4.0252v-9.8895c0-.85245-.0006-1.44669-.0384-1.90932-.0371-.45388-.1062-.71464-.2068-.91216-.2158-.42336-.56-.76757-.9833-.98328-.1975-.10064-.4583-.16977-.9122-.20686-.4626-.0378-1.0568-.03838-1.9093-.03838h-2.9c-.85245 0-1.44669.00058-1.90932.03838z" fill="currentColor"/></svg>