<svg width="24" height="24" viewBox="0 0 24 24" fill="none" xmlns="http://www.w3.org/2000/svg">
<path d="M18.5697 7.71541C19.3519 6.41957 20.3314 5.36662 20.852 4.84851C21.0494 4.65207 21.0494 4.34793 20.852 4.15149C20.3314 3.63338 19.3519 2.58043 18.5697 1.28459C18.3406 0.905137 17.6594 0.905137 17.4304 1.28459C16.6481 2.58043 15.6686 3.63338 15.1481 4.15149C14.9507 4.34794 14.9507 4.65207 15.1481 4.84851C15.6686 5.36662 16.6481 6.41957 17.4304 7.71541C17.6594 8.09486 18.3406 8.09486 18.5697 7.71541Z" fill="white"/>
<path d="M14.7139 9.16214C14.3195 9.58856 13.4721 10.571 12.8172 11.7922C12.6686 12.0693 12.1482 12.0693 11.9996 11.7922C11.3354 10.5538 10.4733 9.56093 10.0864 9.14445C9.9712 9.02046 9.9712 8.84423 10.0864 8.72023C10.4592 8.31894 11.2732 7.38252 11.9261 6.20697C12.0861 5.91896 12.6707 5.93635 12.818 6.22911C13.4113 7.40773 14.2807 8.31851 14.696 8.71522C14.827 8.84032 14.8356 9.03056 14.7139 9.16214Z" fill="white"/>
<path d="M16.7607 14.8615C17.1701 14.0473 17.6997 13.3924 17.9462 13.1081C18.0223 13.0204 18.0169 12.8935 17.935 12.8101C17.6755 12.5457 17.1321 11.9385 16.7613 11.1527C16.6692 10.9576 16.3038 10.946 16.2039 11.138C15.7957 11.9217 15.287 12.546 15.054 12.8135C14.982 12.8962 14.982 13.0136 15.054 13.0963C15.2958 13.374 15.8346 14.0359 16.2497 14.8615C16.3426 15.0462 16.6679 15.0462 16.7607 14.8615Z" fill="white"/>
<path d="M20.954 13.1805C21.3588 13.2682 21.6159 13.6674 21.5283 14.0722C21.1455 15.8398 20.2668 17.5218 18.8942 18.8944C17.5216 20.267 15.8395 21.1457 14.072 21.5285C13.6672 21.6162 13.2679 21.3591 13.1803 20.9542C13.0926 20.5494 13.3497 20.1502 13.7545 20.0625C15.249 19.7388 16.6706 18.9966 17.8335 17.8338C18.9964 16.6709 19.7386 15.2492 20.0622 13.7548C20.1499 13.3499 20.5492 13.0928 20.954 13.1805Z" fill="white"/>
<path d="M10.8195 3.04601C10.9072 3.45084 10.6501 3.85009 10.2452 3.93776C8.75076 4.2614 7.32913 5.00361 6.16625 6.16649C5.00337 7.32937 4.26115 8.751 3.93751 10.2455C3.84984 10.6503 3.45059 10.9074 3.04576 10.8197C2.64093 10.7321 2.38382 10.3328 2.47149 9.928C2.85427 8.16048 3.733 6.47842 5.10559 5.10583C6.47818 3.73324 8.16023 2.85451 9.92775 2.47174C10.3326 2.38407 10.7318 2.64118 10.8195 3.04601Z" fill="white"/>
<path d="M3.04576 13.1805C3.45059 13.0928 3.84984 13.3499 3.93751 13.7548C4.26115 15.2492 5.00337 16.6709 6.16625 17.8338C7.32913 18.9966 8.75076 19.7388 10.2452 20.0625C10.6501 20.1502 10.9072 20.5494 10.8195 20.9542C10.7318 21.3591 10.3326 21.6162 9.92775 21.5285C8.16023 21.1457 6.47818 20.267 5.10559 18.8944C3.733 17.5218 2.85427 15.8398 2.47149 14.0722C2.38382 13.6674 2.64093 13.2682 3.04576 13.1805Z" fill="white"/>
</svg>
