<svg width="24" height="24" viewBox="0 0 24 24" fill="none" xmlns="http://www.w3.org/2000/svg">
<path fill-rule="evenodd" clip-rule="evenodd" d="M12 2.25C6.61522 2.25 2.25 6.61522 2.25 12C2.25 17.3848 6.61522 21.75 12 21.75C17.3848 21.75 21.75 17.3848 21.75 12C21.75 6.61522 17.3848 2.25 12 2.25ZM9 9C9 8.44771 9.44771 8 10 8C10.5523 8 11 8.44771 11 9V15C11 15.5523 10.5523 16 10 16C9.44771 16 9 15.5523 9 15V9ZM13 9C13 8.44771 13.4477 8 14 8C14.5523 8 15 8.44771 15 9V15C15 15.5523 14.5523 16 14 16C13.4477 16 13 15.5523 13 15V9Z" fill="white"/>
</svg>
