<svg width="24" height="24" viewBox="0 0 24 24" fill="none" xmlns="http://www.w3.org/2000/svg">
<path d="M11.3643 2.27059C10.9739 2.29611 10.59 2.34433 10.2139 2.41395C9.80662 2.48936 9.53758 2.88066 9.61298 3.28796C9.68839 3.69525 10.0797 3.96429 10.487 3.88889C10.8052 3.82997 11.1306 3.78906 11.4621 3.7674C11.6353 3.75608 11.8075 3.75019 11.9786 3.74957C11.9857 3.74977 11.9929 3.74987 12.0001 3.74987C16.5564 3.74987 20.2501 7.44352 20.2501 11.9999C20.2501 15.238 18.3846 18.0418 15.6663 19.3927C15.2953 19.5771 15.1441 20.0272 15.3284 20.3981C15.5128 20.7691 15.9629 20.9203 16.3338 20.736C19.5424 19.1415 21.7501 15.8292 21.7501 11.9999C21.7501 6.80194 17.6825 2.55404 12.5568 2.2655C12.5458 2.26444 12.5347 2.26361 12.5236 2.26302C12.1417 2.24293 11.7548 2.24508 11.3643 2.27059Z" fill="white"/>
<path d="M8.26414 4.64163C8.63338 4.45392 8.78054 4.00242 8.59282 3.63318C8.40511 3.26394 7.95362 3.11679 7.58438 3.3045C6.88928 3.65787 6.24403 4.09142 5.65993 4.59205C5.34543 4.86161 5.309 5.33509 5.57856 5.64959C5.84812 5.96409 6.3216 6.00052 6.6361 5.73096C7.13068 5.30705 7.67659 4.94032 8.26414 4.64163Z" fill="white"/>
<path d="M5.08646 7.49728C5.3128 7.15038 5.21506 6.68567 4.86815 6.45933C4.52125 6.23299 4.05654 6.33073 3.8302 6.67763C3.40984 7.32192 3.06395 8.0181 2.80404 8.75327C2.66597 9.1438 2.87064 9.5723 3.26116 9.71037C3.65169 9.84843 4.0802 9.64377 4.21826 9.25324C4.43795 8.63182 4.73052 8.04282 5.08646 7.49728Z" fill="white"/>
<path d="M3.7612 11.5551C3.78296 11.1415 3.46528 10.7885 3.05163 10.7668C2.63799 10.745 2.28503 11.0627 2.26327 11.4763C2.24318 11.8583 2.24532 12.2452 2.27084 12.6356C2.29635 13.0261 2.34457 13.41 2.4142 13.786C2.4896 14.1933 2.88091 14.4623 3.2882 14.3869C3.69549 14.3115 3.96454 13.9202 3.88913 13.5129C3.83021 13.1947 3.78931 12.8693 3.76764 12.5378C3.74598 12.2063 3.74419 11.8784 3.7612 11.5551Z" fill="white"/>
<path d="M4.64187 15.7358C4.45416 15.3665 4.00266 15.2194 3.63342 15.4071C3.26419 15.5948 3.11703 16.0463 3.30474 16.4156C3.65811 17.1107 4.09166 17.7559 4.5923 18.34C4.86186 18.6545 5.33533 18.6909 5.64983 18.4214C5.96433 18.1518 6.00076 17.6783 5.7312 17.3638C5.30729 16.8693 4.94057 16.3233 4.64187 15.7358Z" fill="white"/>
<path d="M7.49753 18.9135C7.15062 18.6871 6.68592 18.7849 6.45958 19.1318C6.23324 19.4787 6.33097 19.9434 6.67788 20.1697C7.32216 20.5901 8.01834 20.936 8.75351 21.1959C9.14404 21.334 9.57255 21.1293 9.71061 20.7388C9.84868 20.3482 9.64401 19.9197 9.25349 19.7817C8.63207 19.562 8.04307 19.2694 7.49753 18.9135Z" fill="white"/>
<path d="M11.5554 20.2387C11.1417 20.217 10.7888 20.5347 10.767 20.9483C10.7453 21.3619 11.0629 21.7149 11.4766 21.7367C11.8585 21.7568 12.2454 21.7546 12.6359 21.7291C13.0263 21.7036 13.4102 21.6554 13.7863 21.5857C14.1935 21.5103 14.4626 21.119 14.3872 20.7117C14.3118 20.3044 13.9205 20.0354 13.5132 20.1108C13.1949 20.1697 12.8696 20.2106 12.538 20.2323C12.2065 20.2539 11.8786 20.2557 11.5554 20.2387Z" fill="white"/>
<path d="M9.63048 15.6525C9.39534 15.5194 9.25 15.2701 9.25 14.9999V8.99988C9.25 8.72967 9.39534 8.48036 9.63048 8.34723C9.86561 8.2141 10.1542 8.21774 10.3859 8.35676L15.3859 11.3568C15.6118 11.4923 15.75 11.7364 15.75 11.9999C15.75 12.2633 15.6118 12.5075 15.3859 12.643L10.3859 15.643C10.1542 15.782 9.86561 15.7857 9.63048 15.6525Z" fill="white"/>
</svg>
