<svg width="24" height="24" viewBox="0 0 24 24" fill="none" xmlns="http://www.w3.org/2000/svg">
<path d="M12 2.25C17.3848 2.25 21.75 6.61522 21.75 12C21.75 17.3848 17.3848 21.75 12 21.75C6.61522 21.75 2.25 17.3848 2.25 12C2.25 6.61522 6.61522 2.25 12 2.25ZM10.3857 8.35645C10.1541 8.21763 9.86586 8.21467 9.63086 8.34766C9.39573 8.48079 9.25 8.7298 9.25 9V15C9.25 15.2702 9.39573 15.5192 9.63086 15.6523C9.86586 15.7853 10.1541 15.7824 10.3857 15.6436L15.3857 12.6436C15.6116 12.508 15.75 12.2634 15.75 12C15.75 11.7366 15.6116 11.492 15.3857 11.3564L10.3857 8.35645Z" fill="white"/>
</svg>
