<svg width="24" height="24" viewBox="0 0 24 24" fill="none" xmlns="http://www.w3.org/2000/svg">
<path d="M9.71702 3.59891C10.7061 1.79776 13.2939 1.79776 14.283 3.59891C14.5496 4.08447 15.1347 4.29742 15.6511 4.09686C17.5666 3.35289 19.5489 5.01626 19.1488 7.03181C19.041 7.57518 19.3523 8.11439 19.8768 8.29267C21.8223 8.954 22.2717 11.5024 20.6697 12.7893C20.2378 13.1362 20.1297 13.7494 20.4169 14.2231C21.4821 15.9802 20.1883 18.2213 18.1339 18.1773C17.58 18.1655 17.1031 18.5657 17.0186 19.1132C16.7051 21.144 14.2735 22.0291 12.728 20.6748C12.3113 20.3097 11.6887 20.3097 11.272 20.6748C9.72655 22.0291 7.29487 21.144 6.98144 19.1132C6.89694 18.5657 6.41998 18.1655 5.86614 18.1773C3.81174 18.2213 2.51787 15.9803 3.58315 14.2231C3.87034 13.7494 3.76222 13.1362 3.33033 12.7893C1.72831 11.5024 2.17767 8.954 4.12321 8.29267C4.6477 8.11439 4.95901 7.57518 4.85116 7.03181C4.45112 5.01626 6.43344 3.35289 8.34891 4.09686C8.86529 4.29742 9.45037 4.08447 9.71702 3.59891ZM12.9682 4.32094C12.5487 3.55708 11.4513 3.55708 11.0318 4.32094C10.403 5.46589 9.02345 5.96802 7.80583 5.4951C6.9935 5.17959 6.15281 5.88501 6.32246 6.73979C6.57677 8.02103 5.8427 9.29248 4.60596 9.71287C3.78087 9.99333 3.5903 11.0741 4.2697 11.6198C5.28808 12.4379 5.54302 13.8837 4.86584 15.0007C4.41406 15.7459 4.96279 16.6963 5.83404 16.6777C7.13998 16.6497 8.26464 17.5934 8.46388 18.8844C8.59681 19.7456 9.62807 20.121 10.2835 19.5467C11.2659 18.6858 12.7341 18.6858 13.7165 19.5467C14.3719 20.121 15.4032 19.7456 15.5361 18.8844C15.7354 17.5934 16.86 16.6497 18.166 16.6777C19.0372 16.6963 19.5859 15.7459 19.1342 15.0007C18.457 13.8837 18.7119 12.4379 19.7303 11.6198C20.4097 11.0741 20.2191 9.99333 19.3941 9.71287C18.1573 9.29248 17.4232 8.02103 17.6775 6.73979C17.8472 5.88501 17.0065 5.17959 16.1942 5.4951C14.9766 5.96802 13.597 5.46589 12.9682 4.32094Z" fill="white"/>
</svg>
