<svg width="24" height="24" viewBox="0 0 24 24" fill="none" xmlns="http://www.w3.org/2000/svg">
<path d="M11.9268 2.80762C12.2246 2.73117 12.5371 2.73114 12.835 2.80762C13.1387 2.88567 13.4397 3.08851 14.3623 3.75879L20.3516 8.11035C21.274 8.78055 21.5604 9.00387 21.7285 9.26855C21.8933 9.52825 21.9895 9.82585 22.0088 10.1328C22.0285 10.4458 21.9287 10.795 21.5762 11.8799L19.2891 18.9199C18.9366 20.0046 18.8121 20.3462 18.6123 20.5879C18.4163 20.8249 18.1629 21.0088 17.877 21.1221C17.5854 21.2374 17.2224 21.25 16.082 21.25H8.67871C7.5383 21.25 7.17537 21.2375 6.88379 21.1221C6.59788 21.0089 6.34544 20.8248 6.14941 20.5879C5.94949 20.3462 5.82517 20.0049 5.47266 18.9199L3.18457 11.8799C2.83207 10.795 2.73227 10.4458 2.75195 10.1328C2.77127 9.82585 2.8684 9.52825 3.0332 9.26855C3.20131 9.00395 3.48783 8.78046 4.41016 8.11035L10.3984 3.75879C11.3213 3.08826 11.623 2.88562 11.9268 2.80762Z" stroke="white" stroke-width="1.5"/>
</svg>
