<svg width="24" height="24" viewBox="0 0 24 24" fill="none" xmlns="http://www.w3.org/2000/svg">
<path d="M14.75 10C14.75 10.4142 15.0858 10.75 15.5 10.75C15.9142 10.75 16.25 10.4142 16.25 10V9.25H17C17.4142 9.25 17.75 8.91421 17.75 8.5C17.75 8.08579 17.4142 7.75 17 7.75H16.25V7C16.25 6.58579 15.9142 6.25 15.5 6.25C15.0858 6.25 14.75 6.58579 14.75 7V7.75H14C13.5858 7.75 13.25 8.08579 13.25 8.5C13.25 8.91421 13.5858 9.25 14 9.25H14.75V10Z" fill="white"/>
<path d="M3 11C3 8.19974 3 6.79961 3.54497 5.73005C4.02433 4.78924 4.78924 4.02433 5.73005 3.54497C6.79961 3 8.19974 3 11 3H13C15.8003 3 17.2004 3 18.27 3.54497C19.2108 4.02433 19.9757 4.78924 20.455 5.73005C21 6.79961 21 8.19974 21 11V13C21 15.8003 21 17.2004 20.455 18.27C19.9757 19.2108 19.2108 19.9757 18.27 20.455C17.2004 21 15.8003 21 13 21H11C8.19974 21 6.79961 21 5.73005 20.455C4.78924 19.9757 4.02433 19.2108 3.54497 18.27C3 17.2004 3 15.8003 3 13V11ZM11 4.5C9.57512 4.5 8.59667 4.50117 7.83816 4.56314C7.09716 4.62368 6.69911 4.73469 6.41103 4.88148C5.75247 5.21703 5.21703 5.75247 4.88148 6.41103C4.73469 6.69911 4.62368 7.09716 4.56314 7.83816C4.50117 8.59667 4.5 9.57512 4.5 11V13C4.5 13.1163 4.50001 13.2296 4.50006 13.34L7.62447 11.5174C9.09593 10.6591 10.9611 10.9004 12.1656 12.105L14.8038 14.7431L19.5 11.9254V11C19.5 9.57512 19.4988 8.59667 19.4369 7.83816C19.3763 7.09716 19.2653 6.69911 19.1185 6.41103C18.783 5.75247 18.2475 5.21703 17.589 4.88148C17.3009 4.73469 16.9028 4.62368 16.1618 4.56314C15.4033 4.50117 14.4249 4.5 13 4.5H11ZM4.51273 15.0692C4.52172 15.4837 4.53703 15.8423 4.56314 16.1618C4.62368 16.9028 4.73469 17.3009 4.88148 17.589C5.21703 18.2475 5.75247 18.783 6.41103 19.1185C6.69911 19.2653 7.09716 19.3763 7.83816 19.4369C8.59667 19.4988 9.57512 19.5 11 19.5H13C14.4249 19.5 15.4033 19.4988 16.1618 19.4369C16.9028 19.3763 17.3009 19.2653 17.589 19.1185C18.2475 18.783 18.783 18.2475 19.1185 17.589C19.2653 17.3009 19.3763 16.9028 19.4369 16.1618C19.4885 15.5295 19.4979 14.7442 19.4996 13.6749L12.8859 17.6431C12.5307 17.8562 12.07 17.7411 11.8569 17.3859C11.6438 17.0307 11.7589 16.57 12.1141 16.3569L13.4779 15.5386L11.105 13.1656C10.3822 12.4429 9.26315 12.2981 8.38027 12.8131L4.51273 15.0692Z" fill="white"/>
</svg>
