<svg width="24" height="24" viewBox="0 0 24 24" fill="none" xmlns="http://www.w3.org/2000/svg">
<path d="M12.2321 4.25H7.7679C6.95507 4.24999 6.29944 4.24999 5.76853 4.29336C5.2219 4.33803 4.74175 4.43239 4.29754 4.65873C3.59193 5.01825 3.01825 5.59193 2.65873 6.29754C2.43239 6.74176 2.33803 7.2219 2.29336 7.76853C2.24999 8.29944 2.24999 8.95505 2.25 9.76789V14.2321C2.24999 15.0449 2.24999 15.7006 2.29336 16.2315C2.33803 16.7781 2.43239 17.2582 2.65873 17.7025C3.01825 18.4081 3.59193 18.9817 4.29754 19.3413C4.74175 19.5676 5.2219 19.662 5.76853 19.7066C6.29944 19.75 6.95505 19.75 7.76788 19.75H12.2321C13.045 19.75 13.7006 19.75 14.2315 19.7066C14.7781 19.662 15.2582 19.5676 15.7025 19.3413C16.4081 18.9817 16.9817 18.4081 17.3413 17.7025C17.5676 17.2582 17.662 16.7781 17.7066 16.2315C17.7332 15.906 17.7435 15.5336 17.7475 15.1069L19.557 15.8307C19.899 15.9675 20.2016 16.0886 20.4552 16.1642C20.7181 16.2427 21.027 16.3049 21.356 16.2365C21.8076 16.1427 22.2038 15.8744 22.4586 15.49C22.6443 15.2099 22.7013 14.9 22.7261 14.6267C22.75 14.3632 22.75 14.0373 22.75 13.669V10.3312C22.75 9.96293 22.75 9.63708 22.7261 9.37351C22.7013 9.10026 22.6443 8.79037 22.4586 8.51023C22.2038 8.12585 21.8076 7.85758 21.356 7.76376C21.027 7.69538 20.7181 7.75754 20.4552 7.836C20.2016 7.91168 19.899 8.03272 19.557 8.16952L17.7475 8.89335C17.7435 8.46652 17.7332 8.09408 17.7066 7.76853C17.662 7.2219 17.5676 6.74175 17.3413 6.29754C16.9817 5.59193 16.4081 5.01825 15.7025 4.65873C15.2582 4.43239 14.7781 4.33803 14.2315 4.29336C13.7006 4.24999 13.0449 4.24999 12.2321 4.25ZM17.75 10.5079L20.0843 9.57417C20.4652 9.42182 20.7037 9.32719 20.8841 9.27337C20.9951 9.24025 21.0457 9.23521 21.0599 9.23443C21.1176 9.24868 21.1684 9.28307 21.2031 9.33141C21.2077 9.34489 21.2218 9.39375 21.2323 9.50909C21.2493 9.69652 21.25 9.95316 21.25 10.3634V13.6369C21.25 14.0471 21.2493 14.3037 21.2323 14.4912C21.2218 14.6065 21.2077 14.6554 21.2031 14.6688C21.1684 14.7172 21.1176 14.7516 21.0599 14.7658C21.0457 14.765 20.9951 14.76 20.8841 14.7269C20.7037 14.6731 20.4652 14.5784 20.0843 14.4261L17.75 13.4923V10.5079ZM16.25 9.8V14.2C16.25 15.0525 16.2494 15.6467 16.2116 16.1093C16.1745 16.5632 16.1054 16.824 16.0048 17.0215C15.789 17.4448 15.4448 17.789 15.0215 18.0048C14.824 18.1054 14.5632 18.1745 14.1093 18.2116C13.6467 18.2494 13.0525 18.25 12.2 18.25H7.8C6.94755 18.25 6.35331 18.2494 5.89068 18.2116C5.43681 18.1745 5.17604 18.1054 4.97852 18.0048C4.55516 17.789 4.21095 17.4448 3.99524 17.0215C3.8946 16.824 3.82547 16.5632 3.78838 16.1093C3.75058 15.6467 3.75 15.0525 3.75 14.2V9.8C3.75 8.94755 3.75058 8.35331 3.78838 7.89068C3.82547 7.43681 3.8946 7.17604 3.99524 6.97852C4.21095 6.55516 4.55516 6.21095 4.97852 5.99524C5.17604 5.8946 5.43681 5.82547 5.89068 5.78838C6.35331 5.75058 6.94755 5.75 7.8 5.75H12.2C13.0525 5.75 13.6467 5.75058 14.1093 5.78838C14.5632 5.82547 14.824 5.8946 15.0215 5.99524C15.4448 6.21095 15.789 6.55516 16.0048 6.97852C16.1054 7.17604 16.1745 7.43681 16.2116 7.89068C16.2494 8.35331 16.25 8.94755 16.25 9.8Z" fill="white"/>
</svg>
