<svg width="105" height="50" viewBox="0 0 105 50" fill="none" xmlns="http://www.w3.org/2000/svg">
<path d="M11.7979 28.2915C11.7664 28.2915 18.5772 22.4576 22.333 20.5719C31.824 15.8068 38.3529 11.9222 39.1367 12.0002C40.1678 12.1027 39.5956 15.2438 37.8693 21.2281C36.6289 25.5282 34.1167 32.2288 33.2468 35.5397C32.377 38.8507 33.0896 38.5269 36.0768 36.2944C44.4078 30.0679 49.8009 26.0446 49.8892 26.9359C49.9404 27.4536 49.7597 28.1139 49.5082 28.9741C49.2567 29.8342 48.8773 30.8766 50.6701 29.8848C52.4629 28.893 56.4395 25.8355 58.6156 24.6293C60.7916 23.4232 61.0467 24.1612 61.1781 25.433C61.3095 26.7048 61.3095 28.4881 61.4955 29.5778C61.6816 30.6675 62.0536 31.0096 62.7643 30.9137C64.6087 30.6648 70.3738 26.2757 77.6641 21.511C80.0337 19.9623 80.2238 21.0697 79.5305 23.1423C77.7152 28.569 75.7412 32.2593 75.7202 32.9551C75.7028 33.5311 81.4791 29.2448 88.8073 23.7441C91.2742 21.8924 91.574 22.4813 91.4995 23.9278C91.2992 27.8163 90.6685 30.8728 90.9544 31.9683C91.1061 32.5492 91.8975 32.9159 92.8065 32.9647" stroke="black" stroke-width="24" stroke-linecap="round"/>
</svg>
