<svg width="156" height="50" viewBox="0 0 156 50" fill="none" xmlns="http://www.w3.org/2000/svg">
<path d="M11.7979 28.2915C11.7664 28.2915 18.5772 22.4576 22.333 20.5719C31.824 15.8068 38.353 11.9222 39.1367 12.0002C40.1678 12.1027 39.5956 15.2438 37.8694 21.2281C36.6289 25.5282 34.1167 32.2288 33.2469 35.5397C32.377 38.8507 33.0896 38.5269 36.0768 36.2944C44.4078 30.0679 49.801 26.0446 49.8892 26.9359C49.9404 27.4536 49.7597 28.1139 49.5082 28.9741C49.2567 29.8342 48.8773 30.8766 50.6701 29.8848C52.4629 28.893 56.4395 25.8355 58.6156 24.6293C60.7917 23.4232 61.0467 24.1612 61.1781 25.433C61.3095 26.7048 61.3095 28.4881 61.4956 29.5778C61.6816 30.6675 62.0536 31.0096 62.7643 30.9137C64.6087 30.6648 70.3739 26.2757 77.6641 21.511C80.0337 19.9623 80.2238 21.0697 79.5305 23.1423C77.7152 28.569 75.7412 32.2593 75.7202 32.9551C75.7029 33.5311 81.4791 29.2448 88.8073 23.7441C91.2743 21.8924 91.5741 22.4813 91.4996 23.9278C91.2992 27.8163 90.6685 30.8728 90.9545 31.9683C91.1061 32.5492 91.8975 32.9159 92.8066 32.9647C94.8967 33.077 99.8142 30.1965 105.393 27.5452C107.128 26.7209 107.067 28.0972 106.657 29.4211C105.759 32.3213 104.803 34.293 104.823 34.9939C104.841 35.6421 110.593 31.8834 118.068 26.5885C120.804 24.651 121.454 24.3274 121.954 24.2843C122.454 24.2412 122.799 24.5121 122.893 25.111C122.987 25.71 122.819 26.6289 122.829 27.272C122.84 27.9151 123.034 28.2547 123.517 28.2915C129.294 28.7312 136.057 22.2525 136.874 22.2731C137.817 22.2969 137.002 24.5335 137.016 25.5712C137.299 25.9095 138.142 25.8655 139.306 25.7348C140.47 25.6041 141.929 25.3881 143.798 25.1656" stroke="black" stroke-width="24" stroke-linecap="round"/>
</svg>
