<svg fill="none" height="32" viewBox="0 0 92 32" width="92" xmlns="http://www.w3.org/2000/svg"><g fill="#fff"><path d="m16.288 5.54681c-.7336.49753-1.3898 1.10052-1.947 1.78718l-.0075-.00001c-3.866 0-7 3.13402-7 7.00002v6.3333h-2v-6.3333c0-4.97059 4.02943-9.00002 9-9.00002.6712 0 1.3252.07348 1.9545.21283z"/><path d="m24.6505 17.5956c.3562.5686.7766 1.0929 1.251 1.5628-1.2758.948-2.8564 1.5089-4.568 1.5089-4.2342 0-7.6667-3.4325-7.6667-7.6666 0-4.23423 3.4325-7.66672 7.6667-7.66672 1.7116 0 3.2922.5609 4.5681 1.50891-.4745.46989-.8949.99421-1.2511 1.56284-.9325-.67431-2.0783-1.07175-3.317-1.07175-3.1296 0-5.6667 2.53706-5.6667 5.66672 0 3.1296 2.5371 5.6666 5.6667 5.6666 1.2387 0 2.3845-.3974 3.317-1.0717z"/><path clip-rule="evenodd" d="m32.0002 5.33398c-4.2342 0-7.6667 3.43249-7.6667 7.66672 0 4.2341 3.4325 7.6666 7.6667 7.6666 2.2449 0 4.2645-.9649 5.6666-2.5026v2.5026h2v-7.3333h-.0071c.0047-.1105.0071-.2217.0071-.3333 0-4.23423-3.4325-7.66672-7.6666-7.66672zm-5.6667 7.66672c0-3.12966 2.5371-5.66672 5.6667-5.66672s5.6666 2.53706 5.6666 5.66672c0 3.1296-2.537 5.6666-5.6666 5.6666s-5.6667-2.537-5.6667-5.6666z" fill-rule="evenodd"/><path d="m39.3082 7.7466c.4224.58658.776 1.22609 1.0489 1.90666.7715-1.19492 2.1149-1.98594 3.6431-1.98594 2.3932 0 4.3333 1.9401 4.3333 4.33328v8.6667h2v-8.6667c0-2.39318 1.9401-4.33328 4.3333-4.33328 2.3933 0 4.3334 1.9401 4.3334 4.33328v8.6667h2v-8.6667c0-3.49775-2.8356-6.33328-6.3334-6.33328-2.2393 0-4.2071 1.16216-5.3333 2.91624-1.1262-1.75408-3.094-2.91624-5.3333-2.91624-1.8604 0-3.5333.80208-4.692 2.07928z"/><g fill-opacity=".5"><path clip-rule="evenodd" d="m63 13.6667c0-4.23422 3.4325-7.6667 7.6667-7.6667s7.6666 3.43248 7.6666 7.6667c0 4.2341-3.4324 7.6666-7.6666 7.6666s-7.6667-3.4325-7.6667-7.6666zm7.6667-5.6667c-3.1296 0-5.6667 2.5371-5.6667 5.6667s2.5371 5.6666 5.6667 5.6666 5.6666-2.537 5.6666-5.6666-2.537-5.6667-5.6666-5.6667z" fill-rule="evenodd"/><path d="m80 22.1328v-15.46613h2v15.46613c0 3.1685-1.5161 6.1457-4.0785 8.0093l-1.1764-1.6175c2.045-1.4872 3.2549-3.8632 3.2549-6.3918z"/><path d="m86.3333 21.3333v-14.66663h-2v14.66663z"/></g></g></svg>