<svg width="16" height="16" viewBox="0 0 16 16" fill="none" xmlns="http://www.w3.org/2000/svg">
<path d="M7.5 4.5C7.22386 4.5 7 4.72386 7 5C7 5.27614 7.22386 5.5 7.5 5.5H13.5C13.7761 5.5 14 5.27614 14 5C14 4.72386 13.7761 4.5 13.5 4.5H7.5ZM7 11C7 10.7239 7.22386 10.5 7.5 10.5H13.5C13.7761 10.5 14 10.7239 14 11C14 11.2761 13.7761 11.5 13.5 11.5H7.5C7.22386 11.5 7 11.2761 7 11Z" fill="white"/>
<path d="M5 5C5 5.82843 4.32843 6.5 3.5 6.5C2.67157 6.5 2 5.82843 2 5C2 4.17157 2.67157 3.5 3.5 3.5C4.32843 3.5 5 4.17157 5 5Z" stroke="white"/>
<path d="M5 11C5 11.8284 4.32843 12.5 3.5 12.5C2.67157 12.5 2 11.8284 2 11C2 10.1716 2.67157 9.5 3.5 9.5C4.32843 9.5 5 10.1716 5 11Z" stroke="white"/>
</svg>
