<svg fill="none" viewBox="0 0 24 24" xmlns="http://www.w3.org/2000/svg"><g clip-rule="evenodd" fill="currentColor" fill-rule="evenodd"><path d="m12 3c-2.4444 0-2.7504.0102-3.7104.054-.9582.0438-1.6128.1962-2.1852.4188-.6.2256-1.1442.5796-1.5942 1.038-.45767.44948-.81189.9933-1.038 1.5936-.2214.5724-.3744 1.2276-.4182 2.1858-.0432.9594-.054 1.2648-.054 3.7098s.0102 2.7504.054 3.7104c.0438.9582.1962 1.6128.4188 2.1852.2256.6.5796 1.1442 1.038 1.5942.44949.4577.99331.8119 1.5936 1.038.5724.222 1.227.3744 2.1852.4182.96.0438 1.266.054 3.7104.054s2.7504-.0102 3.7104-.054c.9582-.0438 1.6128-.1962 2.1852-.4188.6-.2256 1.1442-.5796 1.5942-1.038.4577-.4495.8119-.9933 1.038-1.5936.222-.5724.3744-1.227.4182-2.1852.0438-.96.054-1.266.054-3.7104s-.0102-2.7504-.054-3.7104c-.0438-.9582-.1962-1.6128-.4188-2.1852-.226-.60056-.5802-1.14461-1.038-1.5942-.4495-.45767-.9933-.81189-1.5936-1.038-.5724-.2214-1.2276-.3744-2.1858-.4182-.9594-.0432-1.2648-.054-3.7098-.054zm0 1.6218c2.403 0 2.688.009 3.6372.0522.8772.0402 1.3536.186 1.671.3102.42.1626.72.3582 1.035.6726.315.315.51.615.6726 1.035.1236.3174.27.7938.3102 1.671.0432.9492.0522 1.2342.0522 3.6372s-.009 2.688-.0522 3.6372c-.0402.8772-.186 1.3536-.3102 1.671-.144.3909-.3739.7446-.6726 1.035-.2904.2988-.644.5286-1.035.6726-.3174.1236-.7938.27-1.671.3102-.9492.0432-1.2336.0522-3.6372.0522s-2.688-.009-3.6372-.0522c-.8772-.0402-1.3536-.186-1.671-.3102-.39093-.144-.7446-.3739-1.035-.6726-.29869-.2904-.52852-.6441-.6726-1.035-.1236-.3174-.27-.7938-.3102-1.671-.0432-.9492-.0522-1.2342-.0522-3.6372s.009-2.688.0522-3.6372c.0402-.8772.186-1.3536.3102-1.671.1626-.42.3582-.72.6726-1.035.29036-.29877.64405-.52861 1.035-.6726.3174-.1236.7938-.27 1.671-.3102.9492-.0432 1.2342-.0522 3.6372-.0522z"/><path d="m12 15.003c-.3943 0-.7848-.0777-1.1492-.2286-.3643-.1509-.6954-.3721-.97422-.651-.27885-.2788-.50005-.6099-.65097-.9742-.15091-.3643-.22859-.7548-.22859-1.1492s.07768-.7849.22859-1.1492c.15092-.3643.37212-.6954.65097-.97424.27882-.27885.60992-.50005.97422-.65097.3644-.15091.7549-.22859 1.1492-.22859.7965 0 1.5603.31639 2.1235.87956.5631.56314.8795 1.32704.8795 2.12344s-.3164 1.5603-.8795 2.1234c-.5632.5632-1.327.8796-2.1235.8796zm0-7.629c-1.2269 0-2.40351.48738-3.27105 1.35493-.86755.86754-1.35493 2.04417-1.35493 3.27107s.48738 2.4035 1.35493 3.2711c.86754.8675 2.04415 1.3549 3.27105 1.3549s2.4036-.4874 3.2711-1.3549c.8675-.8676 1.3549-2.0442 1.3549-3.2711s-.4874-2.40353-1.3549-3.27107c-.8675-.86755-2.0442-1.35493-3.2711-1.35493zm5.9718-.084c0 .29002-.1152.56815-.3203.77322-.205.20508-.4832.32028-.7732.32028s-.5681-.1152-.7732-.32028c-.2051-.20507-.3203-.4832-.3203-.77322 0-.29001.1152-.56815.3203-.77322s.4832-.32028.7732-.32028.5682.11521.7732.32028c.2051.20507.3203.48321.3203.77322z"/></g></svg>