<svg fill="none" viewBox="0 0 24 24" xmlns="http://www.w3.org/2000/svg" xmlns:xlink="http://www.w3.org/1999/xlink"><clipPath id="a"><path d="m2 2h20v20h-20z"/></clipPath><g clip-path="url(#a)"><path d="m12 2c-5.52266 0-10 4.47734-10 10 0 2.7617 1.11953 5.2617 2.92891 7.0711l-1.90469 1.9047c-.37813.3781-.11016 1.0242.42422 1.0242h8.55156c5.5227 0 10-4.4773 10-10 0-5.52266-4.4773-10-10-10z" fill="#ff4500"/><path d="m14.0344 6.71602c.1735.73515.8336 1.28281 1.6219 1.28281.9203 0 1.6664-.7461 1.6664-1.66641s-.7461-1.6664-1.6664-1.6664c-.8047 0-1.4758.57031-1.632 1.3289-1.3477.14453-2.4 1.2875-2.4 2.67266v.00859c-1.4657.06172-2.80394.47891-3.86644 1.1375-.39453-.30547-.88984-.4875-1.42734-.4875-1.28985 0-2.33516 1.04533-2.33516 2.33513 0 .936.55 1.7422 1.34453 2.1149.07735 2.7109 3.03125 4.8914 6.66481 4.8914 3.6336 0 6.5914-2.1828 6.6649-4.8961.7883-.375 1.3336-1.1789 1.3336-2.1094 0-1.2898-1.0453-2.33515-2.3352-2.33515-.5351 0-1.0281.18047-1.4219.4836-1.0718-.66328-2.425-1.08047-3.9054-1.13594 0-.00234 0-.00391 0-.00625 0-.99219.7375-1.81563 1.6937-1.95078zm-6.37029 6.42738c.03906-.8469.60156-1.4969 1.25547-1.4969s1.15392.6867 1.11482 1.5336c-.03904.8469-.52732 1.1547-1.18201 1.1547s-1.22734-.3446-1.18828-1.1914zm7.42659-1.4969c.6547 0 1.2172.65 1.2554 1.4969.0391.8468-.5343 1.1914-1.1882 1.1914s-1.143-.3071-1.1821-1.1547c-.039-.8469.4602-1.5336 1.1149-1.5336zm-.7782 3.4562c.1227.0125.2008.1399.1532.2539-.4024.9618-1.3524 1.6375-2.461 1.6375s-2.05778-.6757-2.4609-1.6375c-.04766-.114.03047-.2414.15312-.2539.71878-.0726 1.49608-.1125 2.30778-.1125.8118 0 1.5883.0399 2.3078.1125z" fill="#fff"/></g></svg>