<svg width="32" height="32" viewBox="0 0 32 32" fill="none" xmlns="http://www.w3.org/2000/svg">
<path d="M16 11.25C13.3766 11.25 11.25 13.3766 11.25 16C11.25 18.6234 13.3766 20.75 16 20.75C18.6234 20.75 20.75 18.6234 20.75 16C20.75 13.3766 18.6234 11.25 16 11.25ZM12.75 16C12.75 14.2051 14.2051 12.75 16 12.75C17.7949 12.75 19.25 14.2051 19.25 16C19.25 17.7949 17.7949 19.25 16 19.25C14.2051 19.25 12.75 17.7949 12.75 16Z" fill="white"/>
<path d="M17.3022 4.25H14.6978C14.3796 4.24998 14.175 4.24997 13.9764 4.26663C12.8464 4.36143 11.7877 4.85733 10.9915 5.6647C10.8515 5.80661 10.7205 5.9638 10.5168 6.20827L10.3367 6.42443L10.314 6.4516C9.88977 6.954 9.26701 7.24569 8.60947 7.24996L8.57406 7.25H8.56804C8.50499 7.25 8.4666 7.25 8.43311 7.25039C5.3098 7.28673 2.78673 9.80981 2.75039 12.9331C2.75 12.9666 2.75 13.005 2.75 13.0681V16.7923C2.74999 18.5121 2.74999 19.8602 2.85918 20.9336C2.97055 22.0283 3.20166 22.9202 3.71905 23.6945C4.13856 24.3224 4.67763 24.8614 5.30547 25.281C6.0798 25.7983 6.97168 26.0295 8.06641 26.1408C9.13982 26.25 10.488 26.25 12.2077 26.25H19.7923C21.512 26.25 22.8602 26.25 23.9336 26.1408C25.0283 26.0295 25.9202 25.7983 26.6945 25.281C27.3224 24.8614 27.8614 24.3224 28.281 23.6945C28.7983 22.9202 29.0295 22.0283 29.1408 20.9336C29.25 19.8602 29.25 18.512 29.25 16.7923V13.0678C29.25 13.0049 29.25 12.9666 29.2496 12.9331C29.2133 9.80981 26.6902 7.28673 23.5669 7.25039C23.5334 7.25 23.495 7.25 23.432 7.25H23.4259L23.3905 7.24996C22.733 7.24569 22.1102 6.954 21.686 6.4516L21.6633 6.42443L21.4832 6.20828C21.2795 5.96382 21.1485 5.80661 21.0085 5.6647C20.2123 4.85733 19.1536 4.36143 18.0236 4.26663C17.825 4.24997 17.6204 4.24998 17.3022 4.25ZM14.1018 5.76138C14.2301 5.75062 14.3685 5.75 14.7315 5.75H17.2685C17.6315 5.75 17.7699 5.75062 17.8982 5.76138C18.6713 5.82625 19.3958 6.16554 19.9405 6.71795C20.0309 6.80962 20.12 6.91554 20.3524 7.19443L20.511 7.38471L20.5399 7.41934C21.247 8.25667 22.2849 8.74281 23.3808 8.74993L23.4259 8.75C23.4968 8.75 23.5258 8.75002 23.5494 8.75029C25.858 8.77715 27.7229 10.642 27.7497 12.9506C27.75 12.9742 27.75 13.0032 27.75 13.0741V16.75C27.75 18.5212 27.7491 19.7931 27.6485 20.7818C27.5492 21.7579 27.359 22.3744 27.0337 22.8612C26.7237 23.3252 26.3252 23.7237 25.8612 24.0338C25.3744 24.359 24.7579 24.5492 23.7818 24.6485C22.7931 24.7491 21.5212 24.75 19.75 24.75H12.25C10.4788 24.75 9.20688 24.7491 8.21821 24.6485C7.24209 24.5492 6.62561 24.359 6.13883 24.0338C5.67477 23.7237 5.27633 23.3252 4.96625 22.8612C4.64099 22.3744 4.45078 21.7579 4.35148 20.7818C4.25091 19.7931 4.25 18.5212 4.25 16.75V13.0741C4.25 13.0032 4.25001 12.9742 4.25029 12.9506C4.27715 10.642 6.14203 8.77715 8.45056 8.75029C8.47418 8.75002 8.50319 8.75 8.57406 8.75L8.61921 8.74993C9.7151 8.74281 10.753 8.25667 11.4601 7.41934L11.489 7.38471L11.6476 7.19443C11.88 6.91554 11.9691 6.80962 12.0595 6.71795C12.6042 6.16554 13.3287 5.82625 14.1018 5.76138Z" fill="white"/>
</svg>
