<svg width="32" height="32" viewBox="0 0 32 32" fill="none" xmlns="http://www.w3.org/2000/svg">
<circle cx="16" cy="16" r="12" stroke="white" stroke-width="1.5" stroke-linejoin="round"/>
<path d="M16.0107 20.1193C15.4254 20.1193 14.9027 20.0185 14.4425 19.8168C13.9851 19.6151 13.6229 19.3352 13.3558 18.9773C13.0916 18.6165 12.9496 18.1989 12.9297 17.7244H14.2678C14.2848 17.983 14.3714 18.2074 14.5277 18.3977C14.6868 18.5852 14.8942 18.7301 15.1499 18.8324C15.4055 18.9347 15.6896 18.9858 16.0021 18.9858C16.3459 18.9858 16.6499 18.9261 16.9141 18.8068C17.1811 18.6875 17.3899 18.5213 17.5405 18.3082C17.6911 18.0923 17.7663 17.8438 17.7663 17.5625C17.7663 17.2699 17.6911 17.0128 17.5405 16.7912C17.3928 16.5668 17.1754 16.3906 16.8885 16.2628C16.6044 16.1349 16.2607 16.071 15.8572 16.071H15.12V14.9972H15.8572C16.1811 14.9972 16.4652 14.9389 16.7095 14.8224C16.9567 14.706 17.1499 14.544 17.2891 14.3366C17.4283 14.1264 17.4979 13.8807 17.4979 13.5994C17.4979 13.3295 17.4368 13.0952 17.3146 12.8963C17.1953 12.6946 17.0249 12.5369 16.8033 12.4233C16.5845 12.3097 16.326 12.2528 16.0277 12.2528C15.7436 12.2528 15.478 12.3054 15.2308 12.4105C14.9865 12.5128 14.7876 12.6605 14.6342 12.8537C14.4808 13.044 14.3984 13.2727 14.3871 13.5398H13.1129C13.1271 13.0682 13.2663 12.6534 13.5305 12.2955C13.7976 11.9375 14.1499 11.6577 14.5874 11.456C15.0249 11.2543 15.5107 11.1534 16.0447 11.1534C16.6044 11.1534 17.0874 11.2628 17.4936 11.4815C17.9027 11.6974 18.218 11.9858 18.4396 12.3466C18.6641 12.7074 18.7749 13.1023 18.772 13.5312C18.7749 14.0199 18.6385 14.4347 18.3629 14.7756C18.0902 15.1165 17.7266 15.3452 17.272 15.4616V15.5298C17.8516 15.6179 18.3004 15.848 18.6186 16.2202C18.9396 16.5923 19.0987 17.054 19.0959 17.6051C19.0987 18.0852 18.9652 18.5156 18.6953 18.8963C18.4283 19.277 18.0632 19.5767 17.6001 19.7955C17.1371 20.0114 16.6072 20.1193 16.0107 20.1193Z" fill="white"/>
<path d="M4.23696 20.9297C4.51825 21.6 4.85799 22.2394 5.24477 22.8457C4.93581 23.9333 4.71532 24.7924 4.61293 25.499C4.46588 26.5142 4.58786 27.0367 4.87563 27.4053C4.90757 27.4462 4.94152 27.4858 4.97621 27.5244C5.28892 27.8722 5.78184 28.0839 6.80727 28.1162C7.82946 28.1484 9.20243 28.0001 11.1295 27.7861C12.6299 28.4066 14.2741 28.75 15.9987 28.75C16.013 28.75 16.0273 28.7491 16.0416 28.749L11.3873 29.2666C9.45922 29.4808 7.9315 29.6531 6.76039 29.6162C5.57654 29.5789 4.57867 29.3255 3.86098 28.5273C3.80322 28.4631 3.74717 28.3972 3.69399 28.3291C3.03324 27.4831 2.95871 26.4555 3.12856 25.2832C3.29234 24.1532 3.70924 22.7241 4.23696 20.9297Z" fill="white" fill-opacity="0.5"/>
</svg>
