<svg width="28" height="22" viewBox="0 0 28 22" fill="none" xmlns="http://www.w3.org/2000/svg">
<path d="M23.3262 8.68359C23.7188 8.68359 24.0557 8.5459 24.3369 8.27051C24.6182 7.98926 24.7588 7.64941 24.7588 7.25098C24.7588 6.86426 24.6182 6.53027 24.3369 6.24902C24.0557 5.96777 23.7188 5.82715 23.3262 5.82715C22.9336 5.82715 22.5967 5.96777 22.3154 6.24902C22.0342 6.53027 21.8936 6.86426 21.8936 7.25098C21.8936 7.64941 22.0342 7.98926 22.3154 8.27051C22.5967 8.5459 22.9336 8.68359 23.3262 8.68359ZM3.58594 21.6562C2.4082 21.6562 1.51465 21.3545 0.905273 20.751C0.301758 20.1533 0 19.2715 0 18.1055V6.19629C0 5.03027 0.301758 4.14844 0.905273 3.55078C1.51465 2.94727 2.4082 2.64551 3.58594 2.64551H6.5918C6.89062 2.64551 7.13086 2.625 7.3125 2.58398C7.5 2.54297 7.66992 2.46973 7.82227 2.36426C7.97461 2.25879 8.13867 2.10938 8.31445 1.91602L9.2373 0.914062C9.43652 0.703125 9.6416 0.530273 9.85254 0.395508C10.0635 0.260742 10.3008 0.161133 10.5645 0.0966797C10.834 0.0322266 11.1592 0 11.54 0H16.1191C16.5 0 16.8252 0.0322266 17.0947 0.0966797C17.3643 0.161133 17.6016 0.260742 17.8066 0.395508C18.0176 0.530273 18.2227 0.703125 18.4219 0.914062L19.3359 1.91602C19.5234 2.11523 19.6904 2.26758 19.8369 2.37305C19.9893 2.47266 20.1562 2.54297 20.3379 2.58398C20.5254 2.625 20.7686 2.64551 21.0674 2.64551H24.1875C25.3594 2.64551 26.2471 2.94727 26.8506 3.55078C27.46 4.14844 27.7646 5.03027 27.7646 6.19629V18.1055C27.7646 19.2715 27.46 20.1533 26.8506 20.751C26.2471 21.3545 25.3594 21.6562 24.1875 21.6562H3.58594ZM13.8867 18.2549C14.7422 18.2549 15.5391 18.0967 16.2773 17.7803C17.0215 17.4639 17.6748 17.0244 18.2373 16.4619C18.8057 15.8936 19.248 15.2373 19.5645 14.4932C19.8867 13.7432 20.0479 12.9404 20.0479 12.085C20.0479 11.2295 19.8867 10.4297 19.5645 9.68555C19.248 8.93555 18.8086 8.2793 18.2461 7.7168C17.6836 7.14844 17.0303 6.70605 16.2861 6.38965C15.542 6.07324 14.7422 5.91504 13.8867 5.91504C13.0312 5.91504 12.2314 6.07324 11.4873 6.38965C10.7432 6.70605 10.0898 7.14844 9.52734 7.7168C8.96484 8.2793 8.52539 8.93555 8.20898 9.68555C7.89258 10.4297 7.73438 11.2295 7.73438 12.085C7.73438 12.9404 7.89258 13.7432 8.20898 14.4932C8.52539 15.2373 8.96484 15.8936 9.52734 16.4619C10.0898 17.0244 10.7432 17.4639 11.4873 17.7803C12.2314 18.0967 13.0312 18.2549 13.8867 18.2549ZM13.8867 16.4707C13.2832 16.4707 12.7148 16.3594 12.1816 16.1367C11.6543 15.9082 11.1885 15.5947 10.7842 15.1963C10.3857 14.792 10.0723 14.3262 9.84375 13.7988C9.62109 13.2656 9.50977 12.6943 9.50977 12.085C9.50977 11.4756 9.62109 10.9072 9.84375 10.3799C10.0723 9.84668 10.3857 9.38086 10.7842 8.98242C11.1885 8.57812 11.6543 8.26465 12.1816 8.04199C12.7148 7.81348 13.2832 7.69922 13.8867 7.69922C14.4902 7.69922 15.0557 7.81348 15.583 8.04199C16.1162 8.26465 16.582 8.57812 16.9805 8.98242C17.3848 9.38086 17.6982 9.84668 17.9209 10.3799C18.1436 10.9072 18.2549 11.4756 18.2549 12.085C18.2549 12.6943 18.1436 13.2656 17.9209 13.7988C17.6982 14.3262 17.3848 14.792 16.9805 15.1963C16.582 15.5947 16.1162 15.9082 15.583 16.1367C15.0557 16.3594 14.4902 16.4707 13.8867 16.4707Z" fill="white"/>
</svg>
