<svg width="24" height="24" viewBox="0 0 24 24" fill="none" xmlns="http://www.w3.org/2000/svg">
<path d="M12 20.5C7.30558 20.5 3.5 16.6944 3.5 12C3.5 7.30558 7.30558 3.5 12 3.5C16.6944 3.5 20.5 7.30558 20.5 12C20.5 16.6944 16.6944 20.5 12 20.5ZM12 22C17.5228 22 22 17.5228 22 12C22 6.47715 17.5228 2 12 2C6.47715 2 2 6.47715 2 12C2 17.5228 6.47715 22 12 22Z" fill="white"/>
<path d="M17.3713 5.41186C16.6308 5.14528 15.8324 5 15 5C11.134 5 8 8.13401 8 12C8 15.866 11.134 19 15 19C15.8324 19 16.6308 18.8547 17.3713 18.5881C19.2808 17.0295 20.5 14.6571 20.5 12C20.5 9.34289 19.2808 6.97054 17.3713 5.41186ZM20.5 12C20.5 15.0376 18.0376 17.5 15 17.5C11.9624 17.5 9.5 15.0376 9.5 12C9.5 8.96243 11.9624 6.5 15 6.5C18.0376 6.5 20.5 8.96243 20.5 12Z" fill="white" fill-opacity="0.5"/>
<path d="M18.8739 15.9043C19.8781 14.9078 20.5 13.5265 20.5 12C20.5 10.4735 19.8781 9.09222 18.8739 8.09574C18.5926 8.03306 18.3002 8 18 8C15.7909 8 14 9.79086 14 12C14 14.2091 15.7909 16 18 16C18.3002 16 18.5926 15.9669 18.8739 15.9043ZM18 14.5C16.6193 14.5 15.5 13.3807 15.5 12C15.5 10.6193 16.6193 9.5 18 9.5C19.3807 9.5 20.5 10.6193 20.5 12C20.5 13.3807 19.3807 14.5 18 14.5Z" fill="white" fill-opacity="0.3"/>
</svg>
