<svg width="24" height="24" viewBox="0 0 24 24" fill="none" xmlns="http://www.w3.org/2000/svg">
<path d="M10.098 2.43557C10.7138 2.31375 11.3498 2.25 12 2.25C17.3848 2.25 21.75 6.61522 21.75 12C21.75 17.3848 17.3848 21.75 12 21.75C11.3498 21.75 10.7138 21.6863 10.098 21.5644C9.69165 21.484 9.42741 21.0895 9.5078 20.6831C9.58819 20.2768 9.98275 20.0126 10.3891 20.093C10.9095 20.1959 11.4481 20.25 12 20.25C16.5563 20.25 20.25 16.5563 20.25 12C20.25 7.44365 16.5563 3.75 12 3.75C11.4481 3.75 10.9095 3.8041 10.3891 3.90705C9.98275 3.98743 9.58819 3.7232 9.5078 3.31686C9.42741 2.91052 9.69165 2.51595 10.098 2.43557Z" fill="white"/>
<path d="M7.62268 4.09867C7.85312 4.44287 7.7609 4.9087 7.4167 5.13914C6.5167 5.74167 5.74167 6.5167 5.13914 7.4167C4.9087 7.7609 4.44287 7.85312 4.09867 7.62269C3.75447 7.39225 3.66225 6.92642 3.89268 6.58222C4.6043 5.51929 5.51929 4.6043 6.58222 3.89269C6.92642 3.66225 7.39225 3.75447 7.62268 4.09867Z" fill="white"/>
<path d="M3.31686 9.5078C3.7232 9.58819 3.98743 9.98275 3.90705 10.3891C3.8041 10.9095 3.75 11.4481 3.75 12C3.75 12.5519 3.8041 13.0905 3.90705 13.6109C3.98743 14.0172 3.7232 14.4118 3.31686 14.4922C2.91052 14.5726 2.51595 14.3083 2.43557 13.902C2.31375 13.2862 2.25 12.6502 2.25 12C2.25 11.3498 2.31375 10.7138 2.43557 10.098C2.51595 9.69165 2.91052 9.42741 3.31686 9.5078Z" fill="white"/>
<path d="M4.09867 16.3773C4.44287 16.1469 4.9087 16.2391 5.13914 16.5833C5.74167 17.4833 6.5167 18.2583 7.4167 18.8609C7.7609 19.0913 7.85312 19.5571 7.62269 19.9013C7.39225 20.2455 6.92642 20.3378 6.58222 20.1073C5.51929 19.3957 4.6043 18.4807 3.89269 17.4178C3.66225 17.0736 3.75447 16.6077 4.09867 16.3773Z" fill="white"/>
<path d="M19.8064 9.32434C19.5538 8.87158 19.2391 8.4582 18.8739 8.09574C18.5926 8.03306 18.3002 8 18 8C15.7909 8 14 9.79086 14 12C14 14.2091 15.7909 16 18 16C18.3002 16 18.5926 15.9669 18.8739 15.9043C19.2391 15.5418 19.5539 15.1284 19.8064 14.6757C19.9611 14.2243 20.0777 13.7552 20.1525 13.2723C19.7172 14.0072 18.9161 14.5 18 14.5C16.6193 14.5 15.5 13.3807 15.5 12C15.5 10.6193 16.6193 9.5 18 9.5C18.9161 9.5 19.7172 9.99277 20.1525 10.7277C20.0777 10.2448 19.9611 9.77574 19.8064 9.32434Z" fill="white" fill-opacity="0.3"/>
<path d="M16.6754 5.20176C16.1386 5.06993 15.5775 5 15 5C11.134 5 8 8.13401 8 12C8 15.866 11.134 19 15 19C15.5775 19 16.1386 18.9301 16.6754 18.7982C18.1177 17.8044 19.2281 16.3635 19.8064 14.6757C18.8665 16.3605 17.0663 17.5 15 17.5C11.9624 17.5 9.5 15.0376 9.5 12C9.5 8.96243 11.9624 6.5 15 6.5C17.0663 6.5 18.8665 7.63948 19.8064 9.32434C19.2281 7.63646 18.1177 6.19556 16.6754 5.20176Z" fill="white" fill-opacity="0.5"/>
</svg>
