<svg width="24" height="24" viewBox="0 0 24 24" fill="none" xmlns="http://www.w3.org/2000/svg">
<path d="M12 2.25C12.4142 2.25 12.75 2.58579 12.75 3V21C12.75 21.4142 12.4142 21.75 12 21.75C11.5858 21.75 11.25 21.4142 11.25 21V3C11.25 2.58579 11.5858 2.25 12 2.25Z" fill="white"/>
<path d="M8.25 5.25C8.66421 5.25 9 5.58579 9 6V18C9 18.4142 8.66421 18.75 8.25 18.75C7.83579 18.75 7.5 18.4142 7.5 18V6C7.5 5.58579 7.83579 5.25 8.25 5.25Z" fill="white"/>
<path d="M16.5 9.75C16.5 9.33579 16.1642 9 15.75 9C15.3358 9 15 9.33579 15 9.75V15.25C15 15.6642 15.3358 16 15.75 16C16.1642 16 16.5 15.6642 16.5 15.25V9.75Z" fill="white"/>
<path d="M19.75 10.75C20.1642 10.75 20.5 11.0858 20.5 11.5V12.5C20.5 12.9142 20.1642 13.25 19.75 13.25C19.3358 13.25 19 12.9142 19 12.5V11.5C19 11.0858 19.3358 10.75 19.75 10.75Z" fill="white"/>
<path d="M4.25 10.25C4.66421 10.25 5 10.5858 5 11V13C5 13.4142 4.66421 13.75 4.25 13.75C3.83579 13.75 3.5 13.4142 3.5 13V11C3.5 10.5858 3.83579 10.25 4.25 10.25Z" fill="white"/>
</svg>
