<svg width="16" height="16" viewBox="0 0 16 16" fill="none" xmlns="http://www.w3.org/2000/svg">
<path d="M1.08733 5.75018C0.811184 5.27189 0.975059 4.6603 1.45335 4.38416L4.48444 2.63416C4.96273 2.35801 5.57432 2.52189 5.85047 3.00018L7.85047 6.46428L9.58252 5.46428C10.7782 4.77393 12.3072 5.18361 12.9976 6.37935L14.2476 8.54441C14.5237 9.0227 14.3598 9.63429 13.8816 9.91043L6.95335 13.9104C6.47506 14.1866 5.86347 14.0227 5.58733 13.5444L1.08733 5.75018ZM4.98444 3.50018L1.95335 5.25018L5.32834 11.0958L12.2565 7.09583L12.1316 6.87935C11.7173 6.16191 10.8 5.91609 10.0825 6.33031L7.91745 7.58031C7.67831 7.71838 7.37251 7.63644 7.23444 7.39729L4.98444 3.50018ZM6.45335 13.0444L13.3816 9.04441L12.5065 7.52884L5.57834 11.5288L6.45335 13.0444Z" fill="white"/>
<path d="M9.88156 2.98218C9.64241 3.12025 9.56048 3.42604 9.69855 3.66519C9.83662 3.90434 10.1424 3.98627 10.3816 3.8482C11.5773 3.15785 13.1063 3.56754 13.7966 4.76327C13.9347 5.00241 14.2405 5.08435 14.4796 4.94628C14.7188 4.80821 14.8007 4.50241 14.6626 4.26327C13.6962 2.58924 11.5556 2.01568 9.88156 2.98218Z" fill="white"/>
</svg>
