<svg width="20" height="20" viewBox="0 0 20 20" fill="none" xmlns="http://www.w3.org/2000/svg">
<path d="M6.5 4C5.11929 4 4 5.11929 4 6.5V13.5C4 14.8807 5.11929 16 6.5 16H13.5C14.8807 16 16 14.8807 16 13.5V8.5C16 8.22386 15.7761 8 15.5 8C15.2239 8 15 8.22386 15 8.5V13.5C15 14.3284 14.3284 15 13.5 15H6.5C5.67157 15 5 14.3284 5 13.5V6.5C5 5.67157 5.67157 5 6.5 5H11.5046C11.7807 5 12.0046 4.77614 12.0046 4.5C12.0046 4.22386 11.7807 4 11.5046 4H6.5Z" fill="white" fill-opacity="0.5"/>
<path d="M15.3536 4.64645C15.5488 4.84171 15.5488 5.15829 15.3536 5.35355L9.85355 10.8536C9.65829 11.0488 9.34171 11.0488 9.14645 10.8536C8.95118 10.6583 8.95118 10.3417 9.14645 10.1464L14.6464 4.64645C14.8417 4.45118 15.1583 4.45118 15.3536 4.64645Z" fill="white" fill-opacity="0.5"/>
</svg>
