<svg width="16" height="16" viewBox="0 0 16 16" fill="none" xmlns="http://www.w3.org/2000/svg">
<path d="M10.387 2H5.61304C5.25695 1.99999 4.95971 1.99999 4.71689 2.01983C4.46363 2.04052 4.22586 2.08526 4.00102 2.19982C3.65605 2.37559 3.37559 2.65605 3.19982 3.00102C3.08526 3.22586 3.04052 3.46363 3.01983 3.71689C2.99999 3.95971 2.99999 4.25694 3 4.61303V11.6666C3 11.67 3.00003 11.6734 3.0001 11.6768L3.00005 11.8801C2.99961 12.3496 2.99927 12.7177 3.12731 13.0433C3.23965 13.3289 3.42189 13.5818 3.65733 13.7787C3.9257 14.0031 4.27503 14.1192 4.72064 14.2673L6.55658 14.8792C7.01143 15.0308 7.38469 15.1552 7.69084 15.2276C8.00449 15.3017 8.30991 15.3377 8.61326 15.2615C9.06739 15.1475 9.46067 14.864 9.71246 14.4693C9.80555 14.3233 9.86624 14.1659 9.90678 14H10.387C10.7431 14 11.0403 14 11.2831 13.9802C11.5364 13.9595 11.7741 13.9147 11.999 13.8002C12.3439 13.6244 12.6244 13.3439 12.8002 12.999C12.9147 12.7741 12.9595 12.5364 12.9802 12.2831C13 12.0403 13 11.7431 13 11.387V10.5C13 10.2239 12.7761 10 12.5 10C12.2239 10 12 10.2239 12 10.5V11.3667C12 11.7483 11.9996 12.0044 11.9835 12.2017C11.9679 12.3931 11.9399 12.4846 11.9092 12.545C11.8293 12.7018 11.7018 12.8293 11.545 12.9092C11.4846 12.9399 11.3931 12.9679 11.2017 12.9835C11.0044 12.9996 10.7483 13 10.3667 13H9.99744C10.0001 12.8166 10.0001 12.6158 10.0001 12.3972L10.0002 5.45323C10.0006 4.98366 10.0009 4.61554 9.87289 4.28998C9.76056 4.00436 9.57831 3.75151 9.34287 3.55461C9.0745 3.33019 8.72517 3.21411 8.27956 3.06603L8.0813 3H10.3667C10.7483 3 11.0044 3.00039 11.2017 3.01651C11.3931 3.03214 11.4846 3.06007 11.545 3.09083C11.7018 3.17072 11.8293 3.29821 11.9092 3.45501C11.9399 3.51538 11.9679 3.6069 11.9835 3.79832C11.9996 3.99557 12 4.25172 12 4.63333V5.5C12 5.77614 12.2239 6 12.5 6C12.7761 6 13 5.77614 13 5.5V4.61303C13 4.25693 13 3.95971 12.9802 3.71689C12.9595 3.46363 12.9147 3.22586 12.8002 3.00102C12.6244 2.65605 12.3439 2.37559 11.999 2.19982C11.7741 2.08526 11.5364 2.04052 11.2831 2.01983C11.0403 1.99999 10.7431 1.99999 10.387 2ZM4.63049 3.04164C4.70444 3.02307 4.82468 3.0187 5.07937 3.07889C5.33651 3.13967 5.667 3.24933 6.14994 3.41031L7.88327 3.98808C8.44829 4.17642 8.59778 4.23511 8.70136 4.32173C8.80838 4.41123 8.89122 4.52616 8.94228 4.65599C8.9917 4.78164 9.0001 4.94202 9.0001 5.5376V12.3735C9.0001 12.8825 8.99962 13.2307 8.97596 13.4939C8.95253 13.7546 8.91036 13.8672 8.86936 13.9315C8.75491 14.111 8.57614 14.2398 8.36972 14.2917C8.29576 14.3102 8.17552 14.3146 7.92084 14.2544C7.66369 14.1936 7.3332 14.084 6.85026 13.923L5.11693 13.3452C4.55191 13.1569 4.40242 13.0982 4.29884 13.0116C4.19182 12.9221 4.10899 12.8071 4.05793 12.6773C4.00851 12.5517 4.0001 12.3913 4.0001 11.7957V4.95982C4.0001 4.45076 4.00058 4.10255 4.02424 3.83938C4.04768 3.57873 4.08984 3.46605 4.13085 3.40176C4.2453 3.22232 4.42406 3.09347 4.63049 3.04164Z" fill="white"/>
<path d="M13.1471 6.64645C13.3424 6.45118 13.6589 6.45118 13.8542 6.64645L14.8542 7.64645C15.0495 7.84171 15.0495 8.15829 14.8542 8.35355L13.8542 9.35355C13.6589 9.54882 13.3424 9.54882 13.1471 9.35355C12.9518 9.15829 12.9518 8.84171 13.1471 8.64645L13.2935 8.5H11.834C11.5578 8.5 11.334 8.27614 11.334 8C11.334 7.72386 11.5578 7.5 11.834 7.5H13.2935L13.1471 7.35355C12.9518 7.15829 12.9518 6.84171 13.1471 6.64645Z" fill="white"/>
</svg>
