<svg width="16" height="16" viewBox="0 0 16 16" fill="none" xmlns="http://www.w3.org/2000/svg">
<path d="M8 1C6.89543 1 6 1.89543 6 3H3C2.72386 3 2.5 3.22386 2.5 3.5C2.5 3.77614 2.72386 4 3 4H3.54751L4.2883 11.4079C4.32482 11.7732 4.35509 12.0759 4.39931 12.3222C4.4454 12.5789 4.51261 12.8128 4.6431 13.03C4.84661 13.3687 5.14589 13.6396 5.50318 13.8084C5.73229 13.9166 5.97174 13.9602 6.23175 13.9805C6.48119 14 6.78536 14 7.15245 14H8.8475C9.21458 14 9.51881 14 9.76825 13.9805C10.0283 13.9602 10.2677 13.9166 10.4968 13.8084C10.8541 13.6396 11.1534 13.3687 11.3569 13.03C11.4874 12.8128 11.5546 12.5789 11.6007 12.3222C11.6449 12.0759 11.6752 11.7732 11.7117 11.4079L12.4525 4H13C13.2761 4 13.5 3.77614 13.5 3.5C13.5 3.22386 13.2761 3 13 3H10C10 1.89543 9.10457 1 8 1ZM9 3H7C7 2.44772 7.44772 2 8 2C8.55228 2 9 2.44772 9 3ZM4.5525 4H11.4475L10.7186 11.2891C10.6796 11.6786 10.6529 11.9422 10.6164 12.1454C10.581 12.3426 10.5425 12.4438 10.4997 12.515C10.398 12.6844 10.2483 12.8198 10.0697 12.9042C9.99454 12.9397 9.89003 12.9679 9.69033 12.9836C9.48446 12.9996 9.21951 13 8.82803 13H7.17197C6.7805 13 6.51555 12.9996 6.30967 12.9836C6.10997 12.9679 6.00547 12.9397 5.93033 12.9042C5.75169 12.8198 5.60205 12.6844 5.50029 12.515C5.4575 12.4438 5.41897 12.3426 5.38357 12.1454C5.34707 11.9422 5.32035 11.6786 5.2814 11.2891L4.5525 4Z" fill="white"/>
</svg>
