<svg width="22" height="22" viewBox="0 0 22 22" fill="none" xmlns="http://www.w3.org/2000/svg">
<path d="M11 4C11.6982 4 12.3725 4.10266 13.0088 4.29297C12.8113 4.64202 12.6346 5.0082 12.4766 5.38965C12.0051 5.26592 11.5102 5.2002 11 5.2002C7.79675 5.2002 5.2002 7.79675 5.2002 11C5.2002 14.2033 7.79675 16.7998 11 16.7998C14.2033 16.7998 16.7998 14.2033 16.7998 11C16.7998 10.4474 16.7205 9.91348 16.5762 9.40723C16.9671 9.29143 17.3417 9.14305 17.6963 8.95898C17.8929 9.60484 18 10.2899 18 11C18 14.866 14.866 18 11 18C7.13401 18 4 14.866 4 11C4 7.13401 7.13401 4 11 4Z" fill="white"/>
<path d="M13.5147 8.05069C15.9855 8.35953 17.9326 7.46429 18.8411 5.57854C17.4096 5.97282 16.5543 5.26347 16.5543 5.26347C18.4686 4.68806 19.2948 4.09577 19.9281 2C15.406 2 13.3912 5.30277 13 10.4502" stroke="white" stroke-width="1.2" stroke-linecap="round" stroke-linejoin="round"/>
<path d="M12.8795 12.0457C13.0914 12.0618 13.2967 12.0358 13.4874 11.9749C13.8078 12.4713 14.3659 12.8 15.0008 12.8C15.9949 12.8 16.8008 11.9941 16.8008 11C16.8008 12.207 16.238 13.2825 15.3606 13.9786C15.2426 13.9927 15.1225 14 15.0008 14C13.6115 14 12.4429 13.0557 12.1016 11.774C12.3252 11.9262 12.5904 12.0237 12.8795 12.0457Z" fill="white" fill-opacity="0.3"/>
<path d="M16.8 11.0002C16.8 13.0989 15.0987 14.8002 13 14.8002C10.9013 14.8002 9.2 13.0989 9.2 11.0002C9.2 9.30505 10.3099 7.86915 11.8427 7.37963C11.9495 6.92568 12.0749 6.48516 12.2208 6.06055C9.82946 6.43475 8 8.50382 8 11.0002C8 13.7616 10.2386 16.0002 13 16.0002C15.7614 16.0002 18 13.7616 18 11.0002C18 11.0002 18 11.0002 18 11.0002H16.8Z" fill="white" fill-opacity="0.5"/>
</svg>
