<svg width="16" height="16" viewBox="0 0 16 16" fill="none" xmlns="http://www.w3.org/2000/svg">
<path d="M12.5 6C13.8807 6 15 4.88071 15 3.5C15 2.11929 13.8807 1 12.5 1C11.1193 1 10 2.11929 10 3.5C10 4.88071 11.1193 6 12.5 6Z" fill="#EF5350"/>
<path d="M13.3872 6.88656C13.4612 7.24615 13.5 7.61854 13.5 8C13.5 11.0376 11.0376 13.5 8 13.5C4.96243 13.5 2.5 11.0376 2.5 8C2.5 4.96243 4.96243 2.5 8 2.5C8.38146 2.5 8.75385 2.53884 9.11344 2.61277C9.20072 2.27868 9.33613 1.96406 9.51182 1.67674C9.0267 1.56118 8.52049 1.5 8 1.5C4.41015 1.5 1.5 4.41015 1.5 8C1.5 11.5899 4.41015 14.5 8 14.5C11.5899 14.5 14.5 11.5899 14.5 8C14.5 7.4795 14.4388 6.9733 14.3233 6.48818C14.0359 6.66387 13.7213 6.79928 13.3872 6.88656Z" fill="white"/>
<path d="M4.86206 13.6949C5.66506 14.1383 6.57187 14.4168 7.53679 14.4847L7.53792 14.4994L6.26081 14.5976C5.08847 14.6878 4.15303 14.7598 3.43045 14.7108C2.68667 14.6604 2.06311 14.4766 1.6074 13.9623C1.15169 13.448 1.04425 12.8068 1.08368 12.0624C1.12199 11.3392 1.30599 10.4192 1.5366 9.26623L1.58204 9.03906C1.69313 9.73114 1.91348 10.3867 2.22484 10.9875C2.14923 11.4265 2.09917 11.7964 2.08228 12.1153C2.04895 12.7447 2.15234 13.0694 2.35584 13.2991C2.55934 13.5287 2.86928 13.6705 3.49811 13.7131C3.86954 13.7383 4.31515 13.7271 4.86206 13.6949Z" fill="white" fill-opacity="0.5"/>
</svg>
