<svg width="16" height="16" viewBox="0 0 16 16" fill="none" xmlns="http://www.w3.org/2000/svg">
<path fill-rule="evenodd" clip-rule="evenodd" d="M6.18798 2C5.27312 2 4.43133 2.49972 3.99325 3.30287L2.08415 6.80287C1.67714 7.54906 1.67714 8.45094 2.08415 9.19713L3.99325 12.6971C4.43133 13.5003 5.27312 14 6.18798 14H9.81345C10.7283 14 11.5701 13.5003 12.0082 12.6971L13.9173 9.19713C14.3243 8.45094 14.3243 7.54906 13.9173 6.80287L12.0082 3.30287C11.5701 2.49972 10.7283 2 9.81345 2H6.18798ZM4.87114 3.78172C5.13399 3.29983 5.63907 3 6.18798 3H9.81345C10.3624 3 10.8674 3.29983 11.1303 3.78172L13.0394 7.28172C13.2836 7.72944 13.2836 8.27056 13.0394 8.71828L11.1303 12.2183C10.8674 12.7002 10.3624 13 9.81345 13H6.18798C5.63907 13 5.13399 12.7002 4.87114 12.2183L2.96205 8.71828C2.71784 8.27056 2.71784 7.72944 2.96205 7.28172L4.87114 3.78172ZM7.0007 8C7.0007 7.44772 7.44841 7 8.0007 7C8.55298 7 9.0007 7.44772 9.0007 8C9.0007 8.55228 8.55298 9 8.0007 9C7.44841 9 7.0007 8.55228 7.0007 8ZM8.0007 6C6.89613 6 6.0007 6.89543 6.0007 8C6.0007 9.10457 6.89613 10 8.0007 10C9.10527 10 10.0007 9.10457 10.0007 8C10.0007 6.89543 9.10527 6 8.0007 6Z" fill="white"/>
</svg>
