<svg width="16" height="16" viewBox="0 0 16 16" fill="none" xmlns="http://www.w3.org/2000/svg">
<path fill-rule="evenodd" clip-rule="evenodd" d="M8 1.5C4.41015 1.5 1.5 4.41015 1.5 8C1.5 11.5899 4.41015 14.5 8 14.5C10.2803 14.5 12.2863 13.3258 13.4465 11.5491C13.3895 11.5261 13.333 11.4994 13.2771 11.4687L12.1316 10.8387L11.6585 11.2526C11.2623 11.5993 10.6652 11.5794 10.2929 11.2071L9.5 10.4142L8.70711 11.2071C8.31658 11.5976 7.68342 11.5976 7.29289 11.2071L6.5 10.4142L6.20711 10.7071C6.01957 10.8947 5.76522 11 5.5 11H4.5C3.94772 11 3.5 10.5523 3.5 10C3.5 9.44773 3.94772 9.00002 4.5 9.00002H5.08579L5.79289 8.29291C6.18342 7.90238 6.81658 7.90238 7.20711 8.29291L8 9.0858L8.79289 8.29291C9.18342 7.90238 9.81658 7.90238 10.2071 8.29291L11.0456 9.13137L11.3415 8.87244C11.3772 8.84116 11.4152 8.81246 11.455 8.78657L13.1825 7.66369C13.5991 7.39291 14.0718 7.35999 14.4811 7.5001C14.2258 4.14383 11.4216 1.5 8 1.5ZM7 6.5C7 6.91421 6.66421 7.25 6.25 7.25C5.83579 7.25 5.5 6.91421 5.5 6.5C5.5 6.08579 5.83579 5.75 6.25 5.75C6.66421 5.75 7 6.08579 7 6.5ZM9.75 7.25C10.1642 7.25 10.5 6.91421 10.5 6.5C10.5 6.08579 10.1642 5.75 9.75 5.75C9.33579 5.75 9 6.08579 9 6.5C9 6.91421 9.33579 7.25 9.75 7.25Z" fill="currentColor"/>
<path fill-rule="evenodd" clip-rule="evenodd" d="M13.455 8.08288C14.1203 7.65047 15 8.12789 15 8.92133V10.1543C15 10.915 14.1845 11.3971 13.5181 11.0306L12.0658 10.2318L11.3293 10.8763C11.1312 11.0496 10.8326 11.0397 10.6464 10.8535L9.5 9.70709L8.35355 10.8535C8.15829 11.0488 7.84171 11.0488 7.64645 10.8535L6.5 9.70709L5.85355 10.3535C5.75979 10.4473 5.63261 10.5 5.5 10.5H4.5C4.22386 10.5 4 10.2761 4 9.99998C4 9.72384 4.22386 9.49998 4.5 9.49998H5.29289L6.14645 8.64643C6.34171 8.45117 6.65829 8.45117 6.85355 8.64643L8 9.79288L9.14645 8.64643C9.34171 8.45117 9.65829 8.45117 9.85355 8.64643L11.0228 9.81566L11.6707 9.2487C11.6886 9.23305 11.7076 9.21871 11.7275 9.20576L13.455 8.08288ZM12.9725 9.58921L14 10.1543L14 8.92133L12.9725 9.58921Z" fill="currentColor"/>
</svg>
