<svg width="16" height="16" viewBox="0 0 16 16" fill="none" xmlns="http://www.w3.org/2000/svg">
<path d="M5.5 9C6.32843 9 7 9.67157 7 10.5V11.0059C6.38232 11.5257 6.00016 12.2965 6 13.1328C6 13.3827 6.02564 13.6343 6.0791 13.8828C5.90079 13.9576 5.70546 14 5.5 14H3.5C2.67157 14 2 13.3284 2 12.5V10.5C2 9.67157 2.67157 9 3.5 9H5.5ZM3.5 10C3.22386 10 3 10.2239 3 10.5V12.5C3 12.7761 3.22386 13 3.5 13H5.5C5.77614 13 6 12.7761 6 12.5V10.5C6 10.2239 5.77614 10 5.5 10H3.5ZM5.5 2C6.32843 2 7 2.67157 7 3.5V5.5C7 6.32843 6.32843 7 5.5 7H3.5C2.67157 7 2 6.32843 2 5.5V3.5C2 2.67157 2.67157 2 3.5 2H5.5ZM12.5 2C13.3284 2 14 2.67157 14 3.5V5.5C14 5.81863 13.8999 6.11351 13.7305 6.35645C13.5215 6.07732 13.2688 5.83101 12.9814 5.62695C12.9922 5.58624 13 5.54407 13 5.5V3.5C13 3.22386 12.7761 3 12.5 3H10.5C10.2239 3 10 3.22386 10 3.5V5.14551C9.63771 5.25459 9.30366 5.42208 9.00684 5.63477C9.00288 5.59035 9 5.54545 9 5.5V3.5C9 2.67157 9.67157 2 10.5 2H12.5ZM3.5 3C3.22386 3 3 3.22386 3 3.5V5.5C3 5.77614 3.22386 6 3.5 6H5.5C5.77614 6 6 5.77614 6 5.5V3.5C6 3.22386 5.77614 3 5.5 3H3.5Z" fill="white"/>
<path d="M13.2857 8.22222C13.2857 9.44952 12.2624 10.4444 11 10.4444C9.73764 10.4444 8.71429 9.44952 8.71429 8.22222C8.71429 6.99492 9.73764 6 11 6C12.2624 6 13.2857 6.99492 13.2857 8.22222ZM15 13.2222C15 14.6058 13.8571 16 11 16C8.14286 16 7 14.611 7 13.2222C7 12.3017 7.76751 11.5556 8.71429 11.5556H13.2857C14.2325 11.5556 15 12.3017 15 13.2222Z" fill="white"/>
</svg>
