<svg width="16" height="16" viewBox="0 0 16 16" fill="none" xmlns="http://www.w3.org/2000/svg">
<path d="M6.23226 3.40396C7.98962 1.6466 10.8389 1.6466 12.5962 3.40396C14.3536 5.16132 14.3536 8.01056 12.5962 9.76792L12.2427 10.1215C12.0474 10.3167 11.7308 10.3167 11.5356 10.1215C11.3403 9.92621 11.3403 9.60963 11.5356 9.41436L11.8891 9.06081C13.256 7.69398 13.256 5.4779 11.8891 4.11106C10.5223 2.74423 8.3062 2.74423 6.93937 4.11106L6.58582 4.46462C6.39055 4.65988 6.07397 4.65988 5.87871 4.46462C5.68345 4.26936 5.68345 3.95277 5.87871 3.75751L6.23226 3.40396ZM10.1213 5.87883C10.3166 6.07409 10.3166 6.39068 10.1213 6.58594L6.58582 10.1215C6.39055 10.3167 6.07397 10.3167 5.87871 10.1215C5.68345 9.92621 5.68345 9.60963 5.87871 9.41436L9.41424 5.87883C9.6095 5.68357 9.92609 5.68357 10.1213 5.87883ZM4.46449 5.87883C4.65976 6.07409 4.65976 6.39068 4.46449 6.58594L4.11094 6.93949C2.74411 8.30633 2.74411 10.5224 4.11094 11.8892C5.47778 13.2561 7.69385 13.2561 9.06069 11.8892L9.41424 11.5357C9.6095 11.3404 9.92609 11.3404 10.1213 11.5357C10.3166 11.7309 10.3166 12.0475 10.1213 12.2428L9.7678 12.5963C8.01044 14.3537 5.16119 14.3537 3.40383 12.5963C1.64648 10.839 1.64648 7.98974 3.40383 6.23238L3.75739 5.87883C3.95265 5.68357 4.26923 5.68357 4.46449 5.87883Z" fill="white"/>
</svg>
