<svg width="16" height="16" viewBox="0 0 16 16" fill="none" xmlns="http://www.w3.org/2000/svg">
<path d="M8 1C8.55228 1 9 1.44772 9 2C9 2.24377 8.91154 2.46613 8.7666 2.63965L10.7344 5H11.5996C12.4393 5 12.8598 4.99981 13.1807 5.16309C13.4629 5.3069 13.6931 5.53709 13.8369 5.81934C14.0002 6.14015 14 6.56068 14 7.40039V9.17383C13.6869 9.06306 13.351 9 13 9V7.40039C13 6.96385 12.9988 6.69605 12.9824 6.49609C12.9748 6.40312 12.9661 6.34671 12.958 6.3125C12.9542 6.29649 12.9502 6.28673 12.9482 6.28125C12.9466 6.27677 12.9457 6.27423 12.9453 6.27344C12.8974 6.17936 12.8206 6.10262 12.7266 6.05469C12.7258 6.0543 12.7232 6.05336 12.7188 6.05176C12.7133 6.04982 12.7035 6.04576 12.6875 6.04199C12.6533 6.03394 12.5969 6.02518 12.5039 6.01758C12.3039 6.00124 12.0361 6 11.5996 6H4.40039C3.96385 6 3.69606 6.00124 3.49609 6.01758C3.40312 6.02518 3.34671 6.03394 3.3125 6.04199C3.29649 6.04576 3.28673 6.04982 3.28125 6.05176C3.27677 6.05336 3.27423 6.0543 3.27344 6.05469C3.17936 6.10262 3.10262 6.17936 3.05469 6.27344C3.0543 6.27423 3.05336 6.27677 3.05176 6.28125C3.04982 6.28673 3.04576 6.29649 3.04199 6.3125C3.03394 6.34671 3.02518 6.40312 3.01758 6.49609C3.00124 6.69605 3 6.96385 3 7.40039V10.5996C3 11.0361 3.00124 11.3039 3.01758 11.5039C3.02518 11.5969 3.03394 11.6533 3.04199 11.6875C3.04576 11.7035 3.04982 11.7133 3.05176 11.7188C3.05336 11.7232 3.0543 11.7258 3.05469 11.7266C3.10262 11.8206 3.17936 11.8974 3.27344 11.9453C3.27423 11.9457 3.27677 11.9466 3.28125 11.9482C3.28673 11.9502 3.29649 11.9542 3.3125 11.958C3.34671 11.9661 3.40312 11.9748 3.49609 11.9824C3.69605 11.9988 3.96385 12 4.40039 12H10C10 12.351 10.0631 12.6869 10.1738 13H4.40039L3.84375 12.9971C3.43727 12.9907 3.16355 12.9689 2.94434 12.8906L2.81934 12.8369C2.53709 12.6931 2.3069 12.4629 2.16309 12.1807C1.99981 11.8598 2 11.4393 2 10.5996V7.40039C2 6.66516 1.99978 6.2512 2.10938 5.94434L2.16309 5.81934C2.28891 5.57239 2.48088 5.3658 2.71582 5.22168L2.81934 5.16309C3.05992 5.04064 3.35641 5.01059 3.84375 5.00293L4.40039 5H5.26562L6.58594 3.41406C6.82582 3.65391 7.1267 3.83122 7.46289 3.9248L6.56738 5H9.43262L7.73535 2.96289C7.31172 2.84672 7 2.46051 7 2C7 1.44772 7.44772 1 8 1Z" fill="white"/>
<path d="M15 12C15 13.1046 14.1046 14 13 14C11.8954 14 11 13.1046 11 12C11 10.8954 11.8954 10 13 10C14.1046 10 15 10.8954 15 12Z" fill="#46D08F"/>
</svg>
