<svg width="16" height="16" viewBox="0 0 16 16" fill="none" xmlns="http://www.w3.org/2000/svg">
<path d="M12.5649 9.80611C12.6252 9.67856 12.8066 9.67856 12.8669 9.80611C13.0438 10.1807 13.311 10.5056 13.6443 10.7517L13.6608 10.7638C13.6612 10.7641 13.6614 10.7643 13.6616 10.7644C13.7543 10.8332 13.7543 10.9719 13.6616 11.0407C13.6614 11.0408 13.6612 11.041 13.6608 11.0413L13.6443 11.0534C13.311 11.2995 13.0438 11.6243 12.8669 11.999C12.8066 12.1265 12.6252 12.1265 12.5649 11.999C12.388 11.6243 12.1209 11.2995 11.7875 11.0534L11.771 11.0413C11.7706 11.041 11.7704 11.0408 11.7702 11.0407C11.6775 10.9719 11.6775 10.8332 11.7702 10.7644C11.7704 10.7643 11.7706 10.7641 11.771 10.7638L11.7875 10.7517C12.1209 10.5056 12.388 10.1807 12.5649 9.80611Z" fill="white"/>
<path d="M3.89675 10.8755C3.73219 11.7305 3.61416 12.6459 3.54034 13.6172C3.52234 13.854 3.31581 14.0313 3.07903 14.0133C2.84226 13.9953 2.6649 13.7888 2.6829 13.552C2.94293 10.1305 3.74552 7.25756 5.28709 5.23158C6.84614 3.18262 9.1271 2.04492 12.2201 2.04492C12.3562 2.04492 12.4842 2.10932 12.5653 2.21856C12.6464 2.3278 12.6711 2.46899 12.6317 2.59924C12.2047 4.01257 11.6952 4.97907 10.9247 5.68646C10.3852 6.18175 9.73901 6.52975 8.95874 6.82598C9.39006 6.92642 9.96932 6.96006 10.6769 6.76516C10.8395 6.72039 11.0133 6.77477 11.1213 6.90425C11.2293 7.03373 11.2516 7.2144 11.1785 7.36631C9.90541 10.0085 7.20696 11.2399 3.89675 10.8755ZM4.07947 10.0302C6.70772 10.2967 8.77162 9.46242 9.95891 7.75701C9.35346 7.79714 8.84422 7.70465 8.44878 7.57573C8.15698 7.48059 7.92929 7.3664 7.77163 7.27363C7.69272 7.22721 7.63105 7.18597 7.58732 7.15486C7.56544 7.13929 7.54802 7.12624 7.53513 7.1163L7.51919 7.10379L7.51378 7.09943L7.51172 7.09774L7.51085 7.09702L7.51046 7.0967C7.51027 7.09655 7.51009 7.0964 7.78456 6.76545L7.51009 7.0964C7.38813 6.99525 7.33169 6.83522 7.36319 6.67994C7.3947 6.52467 7.50906 6.3993 7.6608 6.35369C8.90567 5.97951 9.72769 5.61806 10.3432 5.05301C10.8613 4.57732 11.264 3.92799 11.6221 2.92053C9.08329 3.05633 7.2532 4.06773 5.97142 5.75229C5.11643 6.87594 4.49296 8.31569 4.07947 10.0302Z" fill="white"/>
<path d="M10.935 12.4485C11.0836 12.2634 11.354 12.2336 11.5393 12.3821C11.7246 12.5306 11.7544 12.8012 11.6059 12.9865L11.2704 12.7176C11.6059 12.9865 11.6058 12.9866 11.6057 12.9867L11.6055 12.9869L11.6051 12.9875L11.6039 12.9889L11.6005 12.9931L11.5893 13.0067C11.5799 13.018 11.5667 13.0336 11.5499 13.0529C11.5163 13.0914 11.4682 13.145 11.4071 13.2086C11.2853 13.3353 11.1093 13.5043 10.8915 13.6742C10.4677 14.0049 9.82957 14.3829 9.094 14.3829C8.5288 14.3829 8.09828 14.1763 7.76452 14.0161C7.68022 13.9756 7.60208 13.9381 7.52951 13.9077C7.33631 13.8266 7.14007 13.7664 6.89578 13.7509C6.64888 13.7353 6.33161 13.7642 5.89995 13.8889C5.67181 13.9548 5.43346 13.8233 5.36758 13.5951C5.30169 13.367 5.43322 13.1286 5.66136 13.0628C6.16761 12.9166 6.58517 12.8697 6.95002 12.8927C7.31748 12.916 7.6099 13.0089 7.86227 13.1148C8.00124 13.1731 8.11905 13.2288 8.22582 13.2793C8.52727 13.422 8.74078 13.523 9.094 13.523C9.54473 13.523 9.99477 13.2833 10.3626 12.9963C10.5406 12.8573 10.6863 12.7175 10.7872 12.6126C10.8374 12.5604 10.8759 12.5174 10.9011 12.4884C10.9137 12.474 10.923 12.463 10.9287 12.4562L10.9345 12.4491L10.9349 12.4487C10.9349 12.4486 10.935 12.4486 10.935 12.4485Z" fill="white"/>
</svg>
