<svg width="16" height="16" viewBox="0 0 16 16" fill="none" xmlns="http://www.w3.org/2000/svg">
<path d="M14 2.5C14 2.22386 13.7761 2 13.5 2L9.5 2C9.22386 2 9 2.22386 9 2.5C9 2.77614 9.22386 3 9.5 3L12.2929 3L8.64643 6.64645C8.45117 6.84171 8.45117 7.15829 8.64643 7.35355C8.84169 7.54882 9.15828 7.54882 9.35354 7.35355L13 3.70709V6.5C13 6.77614 13.2239 7 13.5 7C13.7761 7 14 6.77614 14 6.5L14 2.5Z" fill="white" fill-opacity="0.5"/>
<path d="M2.5 14C2.22386 14 2 13.7761 2 13.5L2 9.5C2 9.22386 2.22386 9 2.5 9C2.77614 9 3 9.22386 3 9.5L3 12.2929L6.64646 8.64645C6.84172 8.45118 7.15831 8.45118 7.35357 8.64645C7.54883 8.84171 7.54883 9.15829 7.35357 9.35355L3.70712 13H6.5C6.77614 13 7 13.2239 7 13.5C7 13.7761 6.77614 14 6.5 14H2.5Z" fill="white" fill-opacity="0.5"/>
</svg>
