<svg width="16" height="16" viewBox="0 0 16 16" fill="none" xmlns="http://www.w3.org/2000/svg">
<path d="M8 14.5C11.5899 14.5 14.5 11.5899 14.5 8C14.5 4.41015 11.5899 1.5 8 1.5C4.41015 1.5 1.5 4.41015 1.5 8C1.5 11.5899 4.41015 14.5 8 14.5ZM11.0645 6.49388L7.56448 10.4939C7.41556 10.6641 7.19779 10.758 6.9718 10.7495C6.74581 10.741 6.53573 10.6309 6.40004 10.45L4.90004 8.45C4.65152 8.11863 4.71867 7.64853 5.05004 7.4C5.38141 7.15147 5.85152 7.21863 6.10004 7.55L7.04489 8.8098L9.93561 5.50612C10.2084 5.1944 10.6822 5.16281 10.9939 5.43557C11.3057 5.70833 11.3372 6.18215 11.0645 6.49388Z" fill="white"/>
</svg>
