<svg width="16" height="16" viewBox="0 0 16 16" fill="none" xmlns="http://www.w3.org/2000/svg">
<path d="M7.99992 5C8.27607 5 8.49992 5.22386 8.49992 5.5V9.2929L9.64658 8.14631C9.84185 7.95106 10.1584 7.95107 10.3537 8.14634C10.5489 8.3416 10.5489 8.65819 10.3537 8.85344L8.35778 10.8492C8.26698 10.9422 8.1402 11 7.99992 11C7.85922 11 7.73208 10.9419 7.64122 10.8483L5.64645 8.85355C5.45118 8.65829 5.45118 8.34171 5.64645 8.14645C5.84171 7.95118 6.15829 7.95118 6.35355 8.14645L7.49992 9.29282V5.5C7.49992 5.22386 7.72378 5 7.99992 5Z" fill="white" fill-opacity="0.5"/>
<path d="M1.5 8C1.5 4.41015 4.41015 1.5 8 1.5C11.5899 1.5 14.5 4.41015 14.5 8C14.5 11.5899 11.5899 14.5 8 14.5C4.41015 14.5 1.5 11.5899 1.5 8ZM8 2.5C4.96243 2.5 2.5 4.96243 2.5 8C2.5 11.0376 4.96243 13.5 8 13.5C11.0376 13.5 13.5 11.0376 13.5 8C13.5 4.96243 11.0376 2.5 8 2.5Z" fill="white" fill-opacity="0.5"/>
</svg>
