<svg width="16" height="24" viewBox="0 0 16 24" fill="none" xmlns="http://www.w3.org/2000/svg">
<path d="M0 4.65351C0 2.97336 0 2.13328 0.32698 1.49154C0.614601 0.927058 1.07354 0.468116 1.63803 0.180496C2.27976 -0.146484 3.11984 -0.146484 4.8 -0.146484H11.2C12.8802 -0.146484 13.7202 -0.146484 14.362 0.180496C14.9265 0.468116 15.3854 0.927058 15.673 1.49154C16 2.13328 16 2.97336 16 4.65352V12.1093C16 13.6239 16 14.3811 15.8243 15.0911C15.6686 15.7204 15.4118 16.3204 15.0641 16.8676C14.6719 17.4849 14.1241 18.0078 13.0286 19.0535L8 23.8535L2.97143 19.0535C1.87588 18.0078 1.3281 17.4849 0.93586 16.8676C0.588154 16.3204 0.331437 15.7204 0.175693 15.0911C0 14.3811 0 13.6239 0 12.1093V4.65351Z" fill="white"/>
</svg>
