<svg width="16" height="16" viewBox="0 0 16 16" fill="none" xmlns="http://www.w3.org/2000/svg">
<path d="M8 2.5C5.52189 2.5 3.5 4.54193 3.5 7.07692C3.5 8.71356 4.62287 10.3199 5.85624 11.5722C6.46095 12.1862 7.06751 12.6903 7.52361 13.0412C7.71268 13.1866 7.87516 13.3052 8 13.3937C8.12483 13.3052 8.28732 13.1866 8.47639 13.0412C8.93249 12.6903 9.53905 12.1862 10.1438 11.5722C11.3771 10.3199 12.5 8.71356 12.5 7.07692C12.5 4.54193 10.4781 2.5 8 2.5ZM8 14C7.72864 14.42 7.72852 14.4199 7.72837 14.4198L7.72687 14.4188L7.72329 14.4165L7.7108 14.4083L7.66532 14.3781C7.6262 14.3518 7.56985 14.3135 7.49873 14.2638C7.35654 14.1644 7.15501 14.0193 6.91389 13.8338C6.43249 13.4635 5.78905 12.9291 5.14376 12.2739C3.87713 10.9878 2.5 9.13259 2.5 7.07692C2.5 4.0041 4.95526 1.5 8 1.5C11.0447 1.5 13.5 4.0041 13.5 7.07692C13.5 9.13259 12.1229 10.9878 10.8562 12.2739C10.211 12.9291 9.56751 13.4635 9.08611 13.8338C8.84499 14.0193 8.64346 14.1644 8.50127 14.2638C8.43015 14.3135 8.3738 14.3518 8.33468 14.3781L8.2892 14.4083L8.27671 14.4165L8.27313 14.4188L8.27201 14.4195C8.27187 14.4196 8.27136 14.42 8 14ZM8 14L8.27201 14.4195C8.10685 14.5263 7.89354 14.5265 7.72837 14.4198L8 14Z" fill="white" fill-opacity="0.5"/>
</svg>
