<svg width="16" height="16" viewBox="0 0 16 16" fill="none" xmlns="http://www.w3.org/2000/svg">
<path d="M13.8245 1.53189C13.9999 1.46613 14.1975 1.50371 14.3362 1.62955C14.4747 1.75533 14.531 1.94784 14.4827 2.12857L11.6224 12.8161C11.582 12.9669 11.4739 13.0908 11.3294 13.1501C11.1848 13.2092 11.0206 13.1971 10.886 13.1178L8.86944 11.9284L6.91045 13.8844C6.17523 14.6183 4.91942 14.0979 4.91924 13.0592V9.41177L1.08233 7.18228C0.915318 7.08521 0.819076 6.90017 0.835259 6.70767C0.851475 6.51534 0.97686 6.34978 1.15752 6.28189L13.8245 1.53189ZM6.26202 9.07388L9.05499 10.8766L10.8265 11.9215L13.1107 3.38736L6.26202 9.07388ZM2.49542 6.84634L5.36846 8.51627L11.4007 3.50748L2.49542 6.84634ZM5.91924 13.0592C5.91942 13.2073 6.09838 13.2816 6.20342 13.1774L7.99834 11.3844L5.91924 10.0426V13.0592Z" fill="white" fill-opacity="0.5"/>
</svg>
