<svg width="16" height="16" viewBox="0 0 16 16" fill="none" xmlns="http://www.w3.org/2000/svg">
<path fill-rule="evenodd" clip-rule="evenodd" d="M10.8084 8.69202L10.9969 9.40366C11.1418 9.95113 11.2425 10.3329 11.2969 10.6366C11.3503 10.9346 11.35 11.1143 11.319 11.2585C11.2526 11.5676 11.0903 11.8478 10.8551 12.0592C10.7454 12.1577 10.5899 12.2473 10.305 12.3491C10.0144 12.453 9.63267 12.5556 9.0853 12.7022L7.47133 13.1347C6.92106 13.2821 6.53709 13.3849 6.23189 13.4405C5.93261 13.495 5.75211 13.4951 5.60738 13.4643C5.29699 13.398 5.01501 13.2347 4.80314 12.9983C4.70444 12.8881 4.61489 12.7318 4.51336 12.4451C4.40979 12.1527 4.30805 11.7686 4.16226 11.2178L3.13906 7.3539C2.99415 6.80645 2.89348 6.42464 2.83903 6.12099C2.78565 5.82311 2.78603 5.64327 2.81696 5.49906C2.88335 5.19 3.04572 4.90973 3.28082 4.69841C3.39051 4.59982 3.54603 4.51029 3.83096 4.40845C4.12156 4.3046 4.5033 4.20201 5.05066 4.05534L6.66557 3.62263C7.21583 3.47519 7.59983 3.3724 7.90502 3.31681C8.20433 3.26231 8.38479 3.26213 8.52952 3.29303C8.53499 3.2942 8.54045 3.2954 8.5459 3.29663C8.76002 3.00235 8.99043 2.7293 9.23709 2.47827C9.07761 2.40692 8.91026 2.35208 8.73764 2.31523C8.41205 2.24579 8.08592 2.26802 7.7255 2.33367C7.37189 2.39809 6.94374 2.51282 6.41184 2.65534L6.40675 2.6567L4.79184 3.08942C4.77691 3.09342 4.76207 3.09739 4.7473 3.10135C4.23643 3.23821 3.82304 3.34896 3.49461 3.46633C3.15113 3.58908 2.85904 3.73278 2.61237 3.95447C2.22051 4.30665 1.95026 4.7737 1.83959 5.28881C1.76996 5.61301 1.79057 5.93778 1.85489 6.29673C1.91803 6.64902 2.03102 7.07586 2.17129 7.60579L2.17238 7.60989L3.19558 11.4738L3.20715 11.5175C3.34329 12.0319 3.45343 12.4481 3.57049 12.7786C3.69282 13.1241 3.83668 13.4179 4.05894 13.6659C4.41207 14.0597 4.881 14.3319 5.39832 14.4423C5.72394 14.5118 6.05002 14.4895 6.41046 14.4239C6.76398 14.3595 7.19251 14.2447 7.72425 14.1022L7.73015 14.1006L9.34412 13.6681C9.87548 13.5258 10.3032 13.411 10.6411 13.2903C10.9845 13.1676 11.277 13.0247 11.5236 12.8031C11.9155 12.4509 12.1867 11.9837 12.2973 11.4685C12.3669 11.1444 12.3454 10.8197 12.2811 10.4608C12.2179 10.1085 12.1049 9.68171 11.9647 9.15181L11.9636 9.14767L11.7434 8.31619C11.4469 8.46769 11.1345 8.59304 10.8084 8.69202Z" fill="white"/>
<path d="M7.92462 7.90626C10.4211 8.2352 12.3883 7.28171 13.3063 5.27328C11.8599 5.6932 10.9958 4.93771 10.9958 4.93771C12.93 4.32486 13.7647 3.69403 14.4045 1.46191C9.8355 1.46191 7.7998 4.97956 7.40454 10.4619" stroke="white" stroke-linecap="round" stroke-linejoin="round"/>
<path fill-rule="evenodd" clip-rule="evenodd" d="M6.82912 7.38096C6.80925 7.38849 6.78972 7.39521 6.77048 7.40126C6.62518 7.44698 6.47682 7.46208 6.26169 7.48037L6.24557 7.48173C5.80661 7.51899 5.2482 7.56638 4.53708 8.03505C4.30675 8.18691 4.24301 8.49695 4.3945 8.72744C4.54646 8.95801 4.85729 9.02197 5.08786 8.87001C5.58723 8.54097 5.94024 8.51098 6.33502 8.47745L6.34665 8.47646L6.35882 8.47543C6.44144 8.46841 6.53156 8.46076 6.62691 8.44865C6.68489 8.08416 6.75209 7.72797 6.82912 7.38096ZM6.40715 10.3902C6.38753 10.6623 6.47876 10.9169 6.64253 11.1096C6.38831 11.131 6.16098 11.1819 5.91731 11.3641C5.6962 11.5296 5.38254 11.4847 5.21711 11.2636C5.05177 11.0425 5.09663 10.7288 5.3177 10.5634C5.7155 10.2657 6.10397 10.1656 6.42754 10.1261C6.42032 10.2137 6.41353 10.3018 6.40715 10.3902Z" fill="url(#paint0_linear_77814_207533)"/>
<defs>
<linearGradient id="paint0_linear_77814_207533" x1="6.82902" y1="11.4638" x2="3.93767" y2="11.1788" gradientUnits="userSpaceOnUse">
<stop stop-color="#D4FC79"/>
<stop offset="1" stop-color="#96E6A1"/>
</linearGradient>
</defs>
</svg>
