<svg width="16" height="16" viewBox="0 0 16 16" fill="none" xmlns="http://www.w3.org/2000/svg">
<path d="M11.5 0C11.7761 0 12 0.223858 12 0.5V4.5C12 4.77614 11.7761 5 11.5 5C11.2239 5 11 4.77614 11 4.5V0.5C11 0.223858 11.2239 0 11.5 0Z" fill="white"/>
<path d="M6.22361 11.0528C6.4706 11.1763 6.57071 11.4766 6.44721 11.7236L5.80902 13H10.191L9.55279 11.7236C9.42929 11.4766 9.5294 11.1763 9.77639 11.0528C10.0234 10.9293 10.3237 11.0294 10.4472 11.2764L11.4472 13.2764C11.5247 13.4314 11.5164 13.6154 11.4253 13.7629C11.3342 13.9103 11.1733 14 11 14H5C4.82671 14 4.66578 13.9103 4.57468 13.7629C4.48357 13.6154 4.47529 13.4314 4.55279 13.2764L5.55279 11.2764C5.67628 11.0294 5.97662 10.9293 6.22361 11.0528Z" fill="white"/>
<path d="M10 2C10 1.72386 9.77614 1.5 9.5 1.5C9.22386 1.5 9 1.72386 9 2V3C9 3.27614 9.22386 3.5 9.5 3.5C9.77614 3.5 10 3.27614 10 3V2Z" fill="white"/>
<path d="M13.5 1.5C13.7761 1.5 14 1.72386 14 2V3C14 3.27614 13.7761 3.5 13.5 3.5C13.2239 3.5 13 3.27614 13 3V2C13 1.72386 13.2239 1.5 13.5 1.5Z" fill="white"/>
<path d="M6.5 2L4.87935 2C4.47687 1.99999 4.14469 1.99999 3.87409 2.0221C3.59304 2.04506 3.33469 2.09434 3.09202 2.21799C2.7157 2.40973 2.40973 2.7157 2.21799 3.09202C2.09434 3.33469 2.04506 3.59304 2.0221 3.87409C1.99999 4.14468 1.99999 4.47686 2 4.87934V7.12065C1.99999 7.52313 1.99999 7.85532 2.0221 8.12591C2.04506 8.40696 2.09434 8.66531 2.21799 8.90798C2.40973 9.28431 2.7157 9.59027 3.09202 9.78201C3.33469 9.90566 3.59304 9.95494 3.87409 9.9779C4.14469 10 4.47687 10 4.87935 10H11.1206C11.5231 10 11.8553 10 12.1259 9.9779C12.407 9.95494 12.6653 9.90566 12.908 9.78201C13.2843 9.59027 13.5903 9.28431 13.782 8.90798C13.9057 8.66531 13.9549 8.40696 13.9779 8.12591C14 7.85532 14 7.52314 14 7.12066V6.5C14 6.22386 13.7761 6 13.5 6C13.2239 6 13 6.22386 13 6.5V7.1C13 7.52829 12.9996 7.81944 12.9812 8.04448C12.9633 8.26369 12.9309 8.37579 12.891 8.45399C12.7951 8.64215 12.6422 8.79513 12.454 8.89101C12.3758 8.93085 12.2637 8.96332 12.0445 8.98122C11.8194 8.99961 11.5283 9 11.1 9H4.9C4.47171 9 4.18056 8.99961 3.95552 8.98122C3.73631 8.96331 3.62421 8.93085 3.54601 8.89101C3.35785 8.79513 3.20487 8.64215 3.10899 8.45399C3.06915 8.37579 3.03669 8.26369 3.01878 8.04448C3.00039 7.81944 3 7.52829 3 7.1V4.9C3 4.47171 3.00039 4.18056 3.01878 3.95552C3.03669 3.73631 3.06915 3.62421 3.10899 3.54601C3.20487 3.35785 3.35785 3.20487 3.54601 3.10899C3.62421 3.06915 3.73631 3.03669 3.95552 3.01878C4.18056 3.00039 4.47171 3 4.9 3H6.5C6.77614 3 7 2.77614 7 2.5C7 2.22386 6.77614 2 6.5 2Z" fill="white"/>
</svg>
