<svg width="16" height="16" viewBox="0 0 16 16" fill="none" xmlns="http://www.w3.org/2000/svg">
<path fill-rule="evenodd" clip-rule="evenodd" d="M5.49995 6.50124C5.77608 6.49904 6 6.72386 6 7C6 7.27614 5.77607 7.49903 5.49993 7.5012C5.27672 7.50295 5.09521 7.50726 4.93972 7.51787C4.68627 7.53517 4.53867 7.5675 4.42598 7.61418C4.05843 7.76642 3.76642 8.05843 3.61418 8.42598C3.5675 8.53867 3.53516 8.68627 3.51787 8.93973C3.50027 9.19767 3.5 9.52722 3.5 10V10.8C3.5 11.3683 3.50039 11.7645 3.52559 12.0729C3.55031 12.3755 3.5964 12.5493 3.66349 12.681C3.8073 12.9632 4.03677 13.1927 4.31901 13.3365C4.45069 13.4036 4.62454 13.4497 4.92712 13.4744C5.23554 13.4996 5.6317 13.5 6.2 13.5H9.8C10.3683 13.5 10.7645 13.4996 11.0729 13.4744C11.3755 13.4497 11.5493 13.4036 11.681 13.3365C11.9632 13.1927 12.1927 12.9632 12.3365 12.681C12.4036 12.5493 12.4497 12.3755 12.4744 12.0729C12.4996 11.7645 12.5 11.3683 12.5 10.8V10C12.5 9.52722 12.4997 9.19767 12.4821 8.93973C12.4648 8.68627 12.4325 8.53867 12.3858 8.42598C12.2336 8.05843 11.9416 7.76642 11.574 7.61418C11.4613 7.5675 11.3137 7.53517 11.0603 7.51787C10.9048 7.50726 10.7233 7.50295 10.5001 7.5012C10.2239 7.49903 10 7.27614 10 7C10 6.72386 10.2239 6.49904 10.5 6.50124C10.7385 6.50314 10.9491 6.50796 11.1283 6.52019C11.4327 6.54096 11.7019 6.58474 11.9567 6.6903C12.5693 6.94404 13.056 7.43072 13.3097 8.04329C13.4153 8.29814 13.459 8.56728 13.4798 8.87165C13.5 9.16766 13.5 9.53136 13.5 9.98224V10.8214C13.5 11.3633 13.5 11.8004 13.4711 12.1543C13.4413 12.5187 13.3784 12.8388 13.2275 13.135C12.9878 13.6054 12.6054 13.9878 12.135 14.2275C11.8388 14.3784 11.5187 14.4413 11.1543 14.4711C10.8004 14.5 10.3633 14.5 9.82139 14.5H6.17861C5.63671 14.5 5.19963 14.5 4.84569 14.4711C4.48126 14.4413 4.16117 14.3784 3.86502 14.2275C3.39462 13.9878 3.01217 13.6054 2.77248 13.135C2.62159 12.8388 2.55868 12.5187 2.52891 12.1543C2.49999 11.8004 2.5 11.3633 2.5 10.8214V9.98224C2.5 9.53136 2.49999 9.16766 2.52019 8.87165C2.54096 8.56728 2.58474 8.29814 2.6903 8.04329C2.94404 7.43072 3.43072 6.94404 4.04329 6.6903C4.29814 6.58474 4.56728 6.54096 4.87165 6.52019C5.05093 6.50796 5.26155 6.50314 5.49995 6.50124Z" fill="white" fill-opacity="0.5"/>
<path d="M7.64645 1.64645C7.84171 1.45118 8.15829 1.45118 8.35355 1.64645L10.3536 3.64645C10.5488 3.84171 10.5488 4.15829 10.3536 4.35355C10.1583 4.54882 9.84171 4.54882 9.64645 4.35355L8.5 3.20711V9C8.5 9.27614 8.27614 9.5 8 9.5C7.72386 9.5 7.5 9.27614 7.5 9V3.20711L6.35355 4.35355C6.15829 4.54882 5.84171 4.54882 5.64645 4.35355C5.45118 4.15829 5.45118 3.84171 5.64645 3.64645L7.64645 1.64645Z" fill="white" fill-opacity="0.5"/>
</svg>
