<svg width="12" height="12" viewBox="0 0 12 12" fill="none" xmlns="http://www.w3.org/2000/svg">
<path d="M6.375 4.375C6.57938 4.37507 6.76296 4.49968 6.83887 4.68945L9.08887 10.3145C9.19136 10.5708 9.06681 10.8613 8.81055 10.9639C8.55418 11.0664 8.26371 10.9419 8.16113 10.6855L7.2373 8.375H4.7627L3.83887 10.6855C3.73633 10.9419 3.44581 11.0663 3.18945 10.9639C2.93306 10.8613 2.80858 10.5708 2.91113 10.3145L5.16113 4.68945L5.19434 4.62109C5.28323 4.47029 5.44623 4.375 5.625 4.375H6.375ZM5.16309 7.375H6.83691L6.03711 5.375H5.96289L5.16309 7.375Z" fill="white"/>
<path d="M1.52148 1.14722C1.71675 0.951954 2.03325 0.951955 2.22852 1.14722C2.42355 1.3425 2.4237 1.65906 2.22852 1.85425C1.18167 2.90158 1.18154 4.59899 2.22852 5.64624C2.42376 5.84149 2.42373 6.15801 2.22852 6.35327C2.03325 6.54853 1.71675 6.54853 1.52148 6.35327C0.0839869 4.9155 0.0841123 2.58507 1.52148 1.14722ZM9.77148 1.14722C9.96675 0.951964 10.2842 0.951958 10.4795 1.14722C11.9165 2.585 11.9166 4.91557 10.4795 6.35327C10.2842 6.54853 9.96675 6.54852 9.77148 6.35327C9.57656 6.15806 9.57652 5.84143 9.77148 5.64624C10.8185 4.59892 10.8185 2.90156 9.77148 1.85425C9.57639 1.65914 9.57668 1.34251 9.77148 1.14722ZM3.02148 2.27124C3.21666 2.07607 3.53323 2.07624 3.72852 2.27124C3.92378 2.4665 3.92377 2.78301 3.72852 2.97827C3.2649 3.44198 3.26494 4.19423 3.72852 4.65796C3.92377 4.85322 3.92378 5.16973 3.72852 5.36499C3.53324 5.56005 3.21668 5.56018 3.02148 5.36499C2.16738 4.51074 2.16735 3.12547 3.02148 2.27124ZM8.27148 2.27222C8.46675 2.07695 8.78423 2.07695 8.97949 2.27222C9.83311 3.12651 9.83347 4.5119 8.97949 5.36597C8.78432 5.56087 8.46669 5.56082 8.27148 5.36597C8.0765 5.17092 8.0769 4.85423 8.27148 4.65894C8.73512 4.1953 8.73491 3.44302 8.27148 2.97925C8.07658 2.78415 8.07682 2.46746 8.27148 2.27222ZM6 2.12476C6.89736 2.12476 7.62484 2.85243 7.625 3.74976C7.625 4.64722 6.89746 5.37476 6 5.37476C5.10264 5.37464 4.375 4.64715 4.375 3.74976C4.37516 2.8525 5.10274 2.12487 6 2.12476ZM6 3.12476C5.65502 3.12487 5.37516 3.40479 5.375 3.74976C5.375 4.09486 5.65492 4.37464 6 4.37476C6.34518 4.37476 6.625 4.09493 6.625 3.74976C6.62484 3.40472 6.34508 3.12476 6 3.12476Z" fill="white"/>
</svg>
