<svg fill="none" viewBox="0 0 24 24" xmlns="http://www.w3.org/2000/svg"><path d="m12.6481 2.62253c-.1343-.23066-.3812-.37253-.6481-.37253s-.5137.14187-.6481.37253l-2.74317 4.70977-5.32696 1.15354c-.26088.05649-.47207.24738-.55456.50124-.08248.25387-.02383.53244.15403.73149l3.63156 4.06433-.54904 5.4227c-.02689.2656.0894.5254.30535.6823.21594.1569.49901.1872.74327.0796l4.98762-2.1979 4.9876 2.1979c.2443.1076.5274.0773.7433-.0796.216-.1569.3323-.4167.3054-.6823l-.5491-5.4227 3.6316-4.06433c.1778-.19905.2365-.47762.154-.73149-.0825-.25386-.2937-.44475-.5545-.50124l-5.327-1.15354z" fill="currentColor"/></svg>