<svg width="16" height="16" viewBox="0 0 16 16" fill="none" xmlns="http://www.w3.org/2000/svg">
<path d="M11.834 5.01838C11.7243 5.00624 11.6129 5 11.5 5C9.84315 5 8.5 6.34315 8.5 8C8.5 9.65685 9.84315 11 11.5 11C11.6129 11 11.7243 10.9938 11.834 10.9816C12.8336 10.3654 13.5 9.26053 13.5 8C13.5 6.73947 12.8336 5.63458 11.834 5.01838ZM13.5 8C13.5 9.10457 12.6046 10 11.5 10C10.3954 10 9.5 9.10457 9.5 8C9.5 6.89543 10.3954 6 11.5 6C12.6046 6 13.5 6.89543 13.5 8Z" fill="white" fill-opacity="0.3"/>
<path d="M8 1.5C7.56653 1.5 7.1425 1.5425 6.73199 1.62371C6.4611 1.6773 6.28494 1.94035 6.33853 2.21124C6.39212 2.48213 6.65517 2.65829 6.92606 2.6047C7.273 2.53606 7.63204 2.5 8 2.5C11.0376 2.5 13.5 4.96243 13.5 8C13.5 11.0376 11.0376 13.5 8 13.5C7.63204 13.5 7.273 13.4639 6.92606 13.3953C6.65517 13.3417 6.39213 13.5179 6.33853 13.7888C6.28494 14.0597 6.4611 14.3227 6.73199 14.3763C7.1425 14.4575 7.56653 14.5 8 14.5C11.5899 14.5 14.5 11.5899 14.5 8C14.5 4.41015 11.5899 1.5 8 1.5Z" fill="white"/>
<path d="M4.94447 3.42609C5.17393 3.27247 5.23541 2.96191 5.08179 2.73245C4.92817 2.50298 4.61761 2.4415 4.38815 2.59512C3.67953 3.06953 3.06953 3.67953 2.59512 4.38815C2.4415 4.61761 2.50298 4.92817 2.73245 5.08179C2.96191 5.23541 3.27247 5.17393 3.42609 4.94447C3.82778 4.34447 4.34447 3.82778 4.94447 3.42609Z" fill="white"/>
<path d="M2.6047 6.92606C2.65829 6.65517 2.48213 6.39213 2.21124 6.33853C1.94035 6.28494 1.6773 6.4611 1.62371 6.73199C1.5425 7.1425 1.5 7.56653 1.5 8C1.5 8.43347 1.5425 8.8575 1.62371 9.26801C1.6773 9.5389 1.94035 9.71506 2.21124 9.66147C2.48213 9.60788 2.65829 9.34483 2.6047 9.07394C2.53606 8.727 2.5 8.36796 2.5 8C2.5 7.63204 2.53606 7.273 2.6047 6.92606Z" fill="white"/>
<path d="M3.42609 11.0555C3.27247 10.8261 2.96191 10.7646 2.73245 10.9182C2.50298 11.0718 2.4415 11.3824 2.59512 11.6119C3.06953 12.3205 3.67953 12.9305 4.38815 13.4049C4.61761 13.5585 4.92817 13.497 5.08179 13.2676C5.23541 13.0381 5.17393 12.7275 4.94447 12.5739C4.34447 12.1722 3.82778 11.6555 3.42609 11.0555Z" fill="white"/>
<path d="M11.4977 3.75523C11.0292 3.58993 10.5251 3.5 10 3.5C7.51472 3.5 5.5 5.51472 5.5 8C5.5 10.4853 7.51472 12.5 10 12.5C10.5251 12.5 11.0292 12.4101 11.4977 12.2448C12.7205 11.236 13.5 9.70902 13.5 8C13.5 6.29097 12.7205 4.76401 11.4977 3.75523ZM13.5 8C13.5 9.933 11.933 11.5 10 11.5C8.067 11.5 6.5 9.933 6.5 8C6.5 6.067 8.067 4.5 10 4.5C11.933 4.5 13.5 6.067 13.5 8Z" fill="white" fill-opacity="0.5"/>
</svg>
