<svg width="16" height="16" viewBox="0 0 16 16" fill="none" xmlns="http://www.w3.org/2000/svg">
<path fill-rule="evenodd" clip-rule="evenodd" d="M10.8083 8.69206L10.9967 9.40346C11.1416 9.95092 11.2423 10.3327 11.2967 10.6364C11.3501 10.9344 11.3497 11.1141 11.3188 11.2583C11.2524 11.5674 11.0901 11.8476 10.8549 12.0589C10.7452 12.1575 10.5897 12.2471 10.3048 12.3489C10.0142 12.4528 9.63245 12.5553 9.08507 12.702L7.47111 13.1345C6.92083 13.2819 6.53687 13.3847 6.23166 13.4403C5.93238 13.4948 5.75188 13.4949 5.60716 13.4641C5.29676 13.3978 5.01479 13.2345 4.80291 12.9981C4.70421 12.8879 4.61466 12.7316 4.51314 12.4449C4.40956 12.1525 4.30783 11.7684 4.16203 11.2176L3.13884 7.3537C2.99393 6.80625 2.89326 6.42444 2.83881 6.12079C2.78542 5.82291 2.7858 5.64307 2.81674 5.49886C2.88312 5.18979 3.04549 4.90953 3.28059 4.6982C3.39028 4.59962 3.5458 4.51009 3.83074 4.40824C4.12134 4.30439 4.50307 4.2018 5.05044 4.05514L6.66534 3.62242C7.2156 3.47498 7.5996 3.37219 7.90479 3.3166C8.20411 3.2621 8.38456 3.26193 8.52929 3.29283C8.53487 3.29402 8.54043 3.29524 8.54599 3.2965C8.7601 3.00224 8.99051 2.72921 9.23716 2.47819C9.07759 2.40678 8.91014 2.3519 8.73741 2.31502C8.41182 2.24559 8.0857 2.26782 7.72528 2.33347C7.37167 2.39789 6.94352 2.51261 6.41161 2.65514L6.40653 2.6565L4.79162 3.08921C4.77669 3.09321 4.76184 3.09719 4.74708 3.10115C4.2362 3.23801 3.82282 3.34876 3.49438 3.46612C3.1509 3.58887 2.85882 3.73257 2.61214 3.95426C2.22029 4.30645 1.95003 4.7735 1.83937 5.2886C1.76974 5.6128 1.79035 5.93758 1.85467 6.29653C1.91781 6.64882 2.03079 7.07565 2.17106 7.60557L2.17215 7.60969L3.19535 11.4736L3.20692 11.5173C3.34307 12.0317 3.4532 12.4479 3.57026 12.7784C3.6926 13.1239 3.83645 13.4177 4.05872 13.6657C4.41184 14.0595 4.88077 14.3317 5.3981 14.4421C5.72372 14.5116 6.0498 14.4893 6.41023 14.4237C6.76376 14.3593 7.19229 14.2445 7.72403 14.102L7.72993 14.1004L9.34389 13.6679C9.87525 13.5256 10.303 13.4108 10.6409 13.2901C10.9842 13.1674 11.2767 13.0244 11.5234 12.8029C11.9153 12.4507 12.1864 11.9835 12.2971 11.4683C12.3667 11.1441 12.3451 10.8195 12.2808 10.4606C12.2177 10.1084 12.1047 9.68153 11.9645 9.15165L11.9634 9.14747L11.7432 8.31626C11.4467 8.46775 11.1343 8.5931 10.8083 8.69206Z" fill="white"/>
<path d="M7.92438 7.90626C10.4208 8.2352 12.3881 7.28171 13.3061 5.27328C11.8597 5.6932 10.9955 4.93771 10.9955 4.93771C12.9297 4.32486 13.7645 3.69403 14.4043 1.46191C9.83526 1.46191 7.79956 4.97956 7.4043 10.4619" stroke="white" stroke-linecap="round" stroke-linejoin="round"/>
<path fill-rule="evenodd" clip-rule="evenodd" d="M6.82935 7.38086C6.80948 7.38839 6.78995 7.39511 6.7707 7.40116C6.6254 7.44688 6.47705 7.46197 6.26192 7.48026L6.2458 7.48163C5.80684 7.51889 5.24843 7.56628 4.53731 8.03495C4.30698 8.18681 4.24324 8.49685 4.39473 8.72733C4.54669 8.9579 4.85752 9.02187 5.08809 8.86991C5.58746 8.54087 5.94046 8.51088 6.33525 8.47735L6.34688 8.47636L6.35905 8.47532C6.44167 8.46831 6.53179 8.46066 6.62714 8.44855C6.68512 8.08406 6.75232 7.72787 6.82935 7.38086ZM6.40738 10.3901C6.38776 10.6622 6.47899 10.9168 6.64276 11.1095C6.38854 11.1309 6.16121 11.1818 5.91754 11.364C5.69643 11.5295 5.38277 11.4846 5.21734 11.2635C5.052 11.0424 5.09685 10.7287 5.31793 10.5633C5.71573 10.2656 6.1042 10.1655 6.42777 10.126C6.42055 10.2136 6.41375 10.3017 6.40738 10.3901Z" fill="url(#paint0_linear_75254_205414)"/>
<defs>
<linearGradient id="paint0_linear_75254_205414" x1="6.82923" y1="11.4638" x2="3.93795" y2="11.1786" gradientUnits="userSpaceOnUse">
<stop stop-color="#D4FC79"/>
<stop offset="1" stop-color="#96E6A1"/>
</linearGradient>
</defs>
</svg>
