<svg width="16" height="16" viewBox="0 0 16 16" fill="none" xmlns="http://www.w3.org/2000/svg">
<path d="M12.066 5.25202C12.203 5.01226 12.5084 4.92896 12.7482 5.06596C14.754 6.21218 15.0189 8.99963 13.2648 10.5031L12.8255 10.8797C12.6158 11.0594 12.3002 11.0351 12.1205 10.8255C11.9407 10.6158 11.965 10.3002 12.1747 10.1205L12.614 9.74388C13.8431 8.69041 13.6575 6.73733 12.252 5.93421C12.0123 5.7972 11.929 5.49177 12.066 5.25202Z" fill="white"/>
<path d="M6.97731 3.78072L2.85179 6.69285L2.85179 6.69285C2.22819 7.13304 1.91639 7.35314 1.8063 7.6268C1.70997 7.86628 1.70997 8.13372 1.8063 8.3732C1.91639 8.64686 2.22819 8.86696 2.85179 9.30715L6.97731 12.2193C7.79321 12.7952 8.20116 13.0832 8.54096 13.0692C8.83684 13.0571 9.11212 12.9145 9.29266 12.6797C9.5 12.4102 9.5 11.9108 9.5 10.9121V5.08787C9.5 4.08918 9.5 3.58983 9.29266 3.32026C9.11212 3.08553 8.83684 2.94289 8.54096 2.93076C8.20116 2.91683 7.79321 3.20479 6.97731 3.78072Z" stroke="white"/>
</svg>
