<svg width="26" height="16" viewBox="0 0 26 16" fill="none" xmlns="http://www.w3.org/2000/svg">
<path d="M11.3555 1C10.5246 1.73296 10 2.80496 10 4V12C10 13.195 10.5246 14.267 11.3555 15H3.62305C2.92737 15 2.25944 14.7234 1.76758 14.2314C1.27594 13.7395 0.999899 13.0724 1 12.377V3.62305C1 2.17459 2.17459 1 3.62305 1H11.3555Z" fill="url(#paint0_linear_13805_315)"/>
<path d="M6.28705 2.95093C6.70846 2.77755 7.16759 2.7143 7.62006 2.76831C8.20339 2.83539 8.72346 3.0837 9.17963 3.51245C9.18546 3.51826 9.19354 3.52282 9.20111 3.52515C9.20932 3.52715 9.21829 3.52717 9.2265 3.52515C9.49329 3.45627 9.76689 3.43087 10.038 3.44604C10.013 3.62703 9.99995 3.81188 9.99994 3.99976V9.11401H8.3183C8.1216 9.12518 7.96771 9.28806 7.96771 9.48511C7.96796 9.68194 8.12176 9.84406 8.3183 9.85522H9.99994V11.9998C9.99994 12.2923 10.0321 12.5776 10.0917 12.8523C9.67212 13.1134 9.18552 13.2525 8.66302 13.2498C7.97072 13.2462 7.35666 12.9937 6.82123 12.491C6.80489 12.4757 6.78204 12.4698 6.76068 12.4763C6.53447 12.5492 6.30571 12.5603 6.05853 12.5574C5.66461 12.5542 5.27636 12.4606 4.92377 12.2849C4.55444 12.1019 4.23255 11.8356 3.98431 11.5066C3.89565 11.3888 3.80785 11.2775 3.7431 11.1462C3.65474 10.9662 3.58248 10.7785 3.52728 10.5857C3.41082 10.147 3.40743 9.68592 3.51849 9.24585C3.52215 9.23537 3.52375 9.22366 3.5224 9.21265C3.52038 9.20188 3.51495 9.19162 3.50677 9.18433C3.23739 8.91161 3.03099 8.58286 2.90326 8.22144C2.81837 7.99886 2.76881 7.76404 2.75677 7.52612C2.73563 7.21291 2.76324 6.8982 2.83881 6.59351C3.03536 5.94493 3.41211 5.4354 3.96674 5.06616C4.09031 4.98398 4.20773 4.91985 4.31732 4.87378C4.44273 4.82186 4.56828 4.77772 4.69427 4.74097C4.71245 4.73533 4.72689 4.72109 4.73236 4.70288C4.82803 4.35936 4.99241 4.03848 5.21576 3.7605C5.49728 3.40302 5.8663 3.12415 6.28705 2.95093ZM5.93646 6.38452C5.83156 6.21366 5.60967 6.15636 5.43549 6.25562C5.26128 6.35501 5.19722 6.57537 5.29095 6.75269L6.03314 8.04956L5.29486 9.29565C5.22728 9.40968 5.2251 9.55117 5.28998 9.66675C5.35492 9.78226 5.47682 9.85454 5.60931 9.8562C5.74188 9.85769 5.86589 9.78857 5.93353 9.67456L6.78119 8.24194C6.84925 8.12709 6.85039 7.98479 6.78412 7.8689L5.93646 6.38452Z" fill="url(#paint1_linear_13805_315)"/>
<path d="M22 1H14C12.3431 1 11 2.34315 11 4V12C11 13.6569 12.3431 15 14 15H22C23.6569 15 25 13.6569 25 12V4C25 2.34315 23.6569 1 22 1Z" fill="#DE7356"/>
<path d="M14.8902 9.6977L16.9042 8.56246L16.9381 8.46387L16.9042 8.40904L16.8061 8.40901L16.4695 8.38816L15.3187 8.3569L14.3207 8.31526L13.3538 8.26317L13.1106 8.21112L12.8825 7.90908L12.906 7.75843L13.1106 7.62026L13.4036 7.64594L14.0512 7.69036L15.0229 7.75772L15.7279 7.79939L16.7722 7.90839H16.9381L16.9616 7.84106L16.9049 7.79939L16.8606 7.75772L15.855 7.0731L14.7665 6.34959L14.1963 5.93297L13.8881 5.72192L13.7326 5.52402L13.6656 5.09216L13.9455 4.78248L14.3214 4.80817L14.4175 4.83388L14.7983 5.12825L15.6118 5.76081L16.674 6.5468L16.8296 6.67665L16.8918 6.63223L16.8994 6.60097L16.8296 6.48364L16.2518 5.43447L15.6353 4.3673L15.3609 3.925L15.2883 3.65977C15.2628 3.55077 15.2441 3.45913 15.2441 3.34732L15.5627 2.91266L15.7389 2.85571L16.164 2.91266L16.343 3.06888L16.607 3.67576L17.0348 4.63118L17.6983 5.93028L17.8926 6.31563L17.9962 6.67253L18.0349 6.78153L18.1019 6.7815V6.71901L18.1565 5.98717L18.2574 5.0887L18.3556 3.93263L18.3894 3.607L18.5497 3.21676L18.8684 3.0057L19.1172 3.12514L19.3217 3.41951L19.2934 3.60977L19.1718 4.40408L18.9333 5.64832L18.7778 6.48153H18.8684L18.9721 6.37739L19.3916 5.81776L20.0966 4.93247L20.4076 4.58115L20.7704 4.19303L21.0033 4.00831L21.4436 4.00829L21.7677 4.49223L21.6226 4.99217L21.1692 5.56984L20.7932 6.05934L20.2541 6.7884L19.9175 7.37162L19.9487 7.41816L20.0288 7.41052L21.2466 7.15013L21.9046 7.03071L22.6897 6.89534L23.0449 7.06198L23.0837 7.23139L22.944 7.57787L22.1043 7.78618L21.1195 7.98407L19.6528 8.33265L19.6349 8.34583L19.6556 8.37152L20.3163 8.43401L20.599 8.44929H21.2908L22.5791 8.54582L22.9157 8.7694L23.1175 9.04297L23.0836 9.25128L22.5653 9.51651L21.8659 9.34987L20.2334 8.95966L19.6735 8.81939L19.5962 8.81937V8.8659L20.0627 9.32416L20.9176 10.0997L21.9882 11.0996L22.0428 11.3468L21.9052 11.5419L21.7601 11.521L20.8195 10.81L20.4566 10.49L19.6349 9.79492L19.5803 9.79489V9.8678L19.7697 10.1462L20.7697 11.6564L20.8215 12.1195L20.749 12.2702L20.4898 12.3612L20.2051 12.3091L19.6197 11.4835L19.0156 10.5538L18.5284 9.72061L18.4689 9.75462L18.1814 12.8659L18.0466 13.0249L17.7356 13.1444L17.4765 12.9465L17.3389 12.6264L17.4765 11.9938L17.6423 11.1683L17.7771 10.5121L17.8987 9.69699L17.9713 9.42619L17.9665 9.40814L17.9071 9.41578L17.2954 10.2594L16.3651 11.5224L15.6291 12.314L15.4528 12.3841L15.1473 12.2251L15.1757 11.9411L15.3464 11.6884L16.3651 10.3865L16.9795 9.57966L17.3762 9.11374L17.3735 9.04641H17.35L14.6442 10.8114L14.1625 10.8739L13.9551 10.6788L13.9807 10.3587L14.0789 10.2546L14.8923 9.69213L14.8895 9.69493L14.8902 9.6977Z" fill="#FCF2EE"/>
<defs>
<linearGradient id="paint0_linear_13805_315" x1="8" y1="1" x2="8" y2="15" gradientUnits="userSpaceOnUse">
<stop stop-color="white"/>
<stop offset="1" stop-color="#ECECEC"/>
</linearGradient>
<linearGradient id="paint1_linear_13805_315" x1="8.00001" y1="2.74995" x2="8.00001" y2="13.25" gradientUnits="userSpaceOnUse">
<stop stop-color="#B1A7FF"/>
<stop offset="0.5" stop-color="#7A9DFF"/>
<stop offset="1" stop-color="#3941FF"/>
</linearGradient>
</defs>
</svg>
