<svg fill="none" height="64" viewBox="0 0 64 64" width="64" xmlns="http://www.w3.org/2000/svg"><path d="m28.6219 1.40226c1.864-1.86968 4.8922-1.869681 6.7562 0 1.3659 1.37005 3.424 1.77944 5.2102 1.03638 2.4376-1.01404 5.2353.14479 6.2419 2.58547.7376 1.78847 2.4824 2.9543 4.417 2.95135 2.6401-.00401 4.7814 2.13724 4.7773 4.77734-.0029 1.9346 1.1629 3.6794 2.9514 4.417 2.4407 1.0066 3.5995 3.8043 2.5855 6.2419-.7431 1.7862-.3337 3.8443 1.0363 5.2102 1.8697 1.864 1.8697 4.8922 0 6.7562-1.37 1.3659-1.7794 3.424-1.0363 5.2102 1.014 2.4376-.1448 5.2353-2.5855 6.2419-1.7885.7376-2.9543 2.4824-2.9514 4.417.0041 2.6401-2.1372 4.7814-4.7773 4.7773-1.9346-.0029-3.6794 1.1629-4.417 2.9514-1.0066 2.4407-3.8043 3.5995-6.2419 2.5855-1.7862-.7431-3.8443-.3337-5.2102 1.0363-1.864 1.8697-4.8922 1.8697-6.7562 0-1.3659-1.37-3.424-1.7794-5.2102-1.0363-2.4376 1.014-5.2353-.1448-6.2419-2.5855-.7376-1.7885-2.4824-2.9543-4.417-2.9514-2.6401.0041-4.78135-2.1372-4.77734-4.7773.00295-1.9346-1.16288-3.6794-2.95135-4.417-2.44068-1.0066-3.59951-3.8043-2.58547-6.2419.74306-1.7862.33367-3.8443-1.03638-5.2102-1.86968-1.864-1.869681-4.8922 0-6.7562 1.37005-1.3659 1.77944-3.424 1.03638-5.2102-1.01404-2.4376.14479-5.2353 2.58547-6.2419 1.78847-.7376 2.9543-2.4824 2.95135-4.417-.00401-2.6401 2.13724-4.78135 4.77734-4.77734 1.9346.00295 3.6794-1.16288 4.417-2.95135 1.0066-2.44068 3.8043-3.59951 6.2419-2.58547 1.7862.74306 3.8443.33367 5.2102-1.03638z" fill="#f00"/></svg>
