<svg width="24" height="24" viewBox="0 0 24 24" fill="none" xmlns="http://www.w3.org/2000/svg">
<path d="M2.25 12C2.25 6.61522 6.61522 2.25 12 2.25C17.3848 2.25 21.75 6.61522 21.75 12C21.75 17.3848 17.3848 21.75 12 21.75C6.61522 21.75 2.25 17.3848 2.25 12ZM16.7863 9.11782C17.1276 8.68355 17.0521 8.05489 16.6178 7.71368C16.1836 7.37247 15.5549 7.4479 15.2137 7.88218L10.4772 13.9105L8.76825 11.8598C8.41468 11.4355 7.78412 11.3782 7.35984 11.7318C6.93556 12.0853 6.87824 12.7159 7.2318 13.1402L9.7318 16.1402C9.92502 16.372 10.2126 16.5042 10.5144 16.4999C10.8162 16.4956 11.0999 16.3551 11.2863 16.1178L16.7863 9.11782Z" fill="white"/>
</svg>
