<svg width="20" height="20" viewBox="0 0 20 20" fill="none" xmlns="http://www.w3.org/2000/svg">
<path d="M8.13649 11.6665C7.95232 11.4608 7.63623 11.4433 7.43046 11.6274C7.2247 11.8116 7.20719 12.1277 7.39135 12.3335C8.03151 13.0487 8.9634 13.5 10 13.5C11.0367 13.5 11.9685 13.0487 12.6087 12.3335C12.7929 12.1277 12.7754 11.8116 12.5696 11.6274C12.3638 11.4433 12.0477 11.4608 11.8636 11.6665C11.4051 12.1788 10.7404 12.5 10 12.5C9.25966 12.5 8.59497 12.1788 8.13649 11.6665Z" fill="white" fill-opacity="0.5"/>
<path d="M9 8.75C9 9.16421 8.66421 9.5 8.25 9.5C7.83579 9.5 7.5 9.16421 7.5 8.75C7.5 8.33579 7.83579 8 8.25 8C8.66421 8 9 8.33579 9 8.75Z" fill="white" fill-opacity="0.5"/>
<path d="M11.75 9.5C12.1642 9.5 12.5 9.16421 12.5 8.75C12.5 8.33579 12.1642 8 11.75 8C11.3358 8 11 8.33579 11 8.75C11 9.16421 11.3358 9.5 11.75 9.5Z" fill="white" fill-opacity="0.5"/>
<path fill-rule="evenodd" clip-rule="evenodd" d="M3.5 10C3.5 6.41015 6.41015 3.5 10 3.5C13.5899 3.5 16.5 6.41015 16.5 10C16.5 13.5899 13.5899 16.5 10 16.5C6.41015 16.5 3.5 13.5899 3.5 10ZM10 4.5C6.96243 4.5 4.5 6.96243 4.5 10C4.5 13.0376 6.96243 15.5 10 15.5C13.0376 15.5 15.5 13.0376 15.5 10C15.5 6.96243 13.0376 4.5 10 4.5Z" fill="white" fill-opacity="0.5"/>
</svg>
