<svg width="16" height="16" viewBox="0 0 16 16" fill="none" xmlns="http://www.w3.org/2000/svg">
<path d="M8.6786 2C8.13672 2 7.69962 1.99999 7.34569 2.02891C6.98126 2.05868 6.66117 2.12159 6.36502 2.27248C5.89462 2.51217 5.51217 2.89462 5.27248 3.36502C5.17091 3.56437 5.10921 3.77457 5.07064 4.00183C5.25427 3.99999 5.44613 3.99999 5.64419 4H6.09387C6.11379 3.92955 6.137 3.871 6.16349 3.81902C6.3073 3.53677 6.53677 3.3073 6.81901 3.16349C6.95069 3.0964 7.12454 3.05031 7.42712 3.02559C7.73554 3.00039 8.1317 3 8.7 3H10.3C10.8683 3 11.2645 3.00039 11.5729 3.02559C11.8755 3.05031 12.0493 3.0964 12.181 3.16349C12.4632 3.3073 12.6927 3.53677 12.8365 3.81902C12.9036 3.95069 12.9497 4.12454 12.9744 4.42712C12.9996 4.73554 13 5.1317 13 5.7V7.3C13 7.8683 12.9996 8.26446 12.9744 8.57288C12.9497 8.87546 12.9036 9.04931 12.8365 9.18099C12.6927 9.46323 12.4632 9.6927 12.181 9.83651C12.129 9.863 12.0705 9.88621 12 9.90613V10.3559C12 10.5539 12 10.7458 11.9982 10.9294C12.2254 10.8908 12.4356 10.8291 12.635 10.7275C13.1054 10.4878 13.4878 10.1054 13.7275 9.63498C13.8784 9.33883 13.9413 9.01874 13.9711 8.65431C14 8.30039 14 7.86333 14 7.32147V5.67858C14 5.13672 14 4.69961 13.9711 4.34569C13.9413 3.98126 13.8784 3.66117 13.7275 3.36502C13.4878 2.89462 13.1054 2.51217 12.635 2.27248C12.3388 2.12159 12.0187 2.05868 11.6543 2.02891C11.3004 1.99999 10.8633 2 10.3214 2H8.6786Z" fill="white"/>
<path d="M7.97361 7.5529C8.2206 7.67639 8.32071 7.97673 8.19721 8.22372L6.69721 11.2237C6.62534 11.3675 6.48874 11.4679 6.33009 11.4937C6.17144 11.5194 6.01009 11.4673 5.89645 11.3537L4.89645 10.3537C4.70118 10.1584 4.70118 9.84182 4.89645 9.64656C5.09171 9.45129 5.40829 9.45129 5.60355 9.64656L6.11302 10.156L7.30279 7.7765C7.42628 7.52951 7.72662 7.4294 7.97361 7.5529Z" fill="white"/>
<path d="M5.6786 5H7.3214C7.8633 5 8.30037 4.99999 8.65431 5.02891C9.01874 5.05868 9.33883 5.12159 9.63498 5.27248C10.1054 5.51217 10.4878 5.89462 10.7275 6.36502C10.8784 6.66117 10.9413 6.98126 10.9711 7.34569C11 7.69961 11 8.13667 11 8.67853V10.3214C11 10.8633 11 11.3004 10.9711 11.6543C10.9413 12.0187 10.8784 12.3388 10.7275 12.635C10.4878 13.1054 10.1054 13.4878 9.63498 13.7275C9.33883 13.8784 9.01874 13.9413 8.65431 13.9711C8.30039 14 7.86333 14 7.32147 14H5.67858C5.13672 14 4.69961 14 4.34569 13.9711C3.98126 13.9413 3.66117 13.8784 3.36502 13.7275C2.89462 13.4878 2.51217 13.1054 2.27248 12.635C2.12159 12.3388 2.05868 12.0187 2.02891 11.6543C1.99999 11.3004 2 10.8633 2 10.3214V8.6786C2 8.1367 1.99999 7.69963 2.02891 7.34569C2.05868 6.98126 2.12159 6.66117 2.27248 6.36502C2.51217 5.89462 2.89462 5.51217 3.36502 5.27248C3.66117 5.12159 3.98126 5.05868 4.34569 5.02891C4.69963 4.99999 5.1367 5 5.6786 5ZM4.42712 6.02559C4.12454 6.05031 3.95069 6.0964 3.81901 6.16349C3.53677 6.3073 3.3073 6.53677 3.16349 6.81901C3.0964 6.95069 3.05031 7.12454 3.02559 7.42712C3.00039 7.73554 3 8.1317 3 8.7V10.3C3 10.8683 3.00039 11.2645 3.02559 11.5729C3.05031 11.8755 3.0964 12.0493 3.16349 12.181C3.3073 12.4632 3.53677 12.6927 3.81901 12.8365C3.95069 12.9036 4.12454 12.9497 4.42712 12.9744C4.73554 12.9996 5.1317 13 5.7 13H7.3C7.8683 13 8.26446 12.9996 8.57288 12.9744C8.87546 12.9497 9.04931 12.9036 9.18099 12.8365C9.46323 12.6927 9.6927 12.4632 9.83651 12.181C9.9036 12.0493 9.94969 11.8755 9.97441 11.5729C9.99961 11.2645 10 10.8683 10 10.3V8.7C10 8.1317 9.99961 7.73554 9.97441 7.42712C9.94969 7.12454 9.9036 6.95069 9.83651 6.81901C9.6927 6.53677 9.46323 6.3073 9.18099 6.16349C9.04931 6.0964 8.87546 6.05031 8.57288 6.02559C8.26446 6.00039 7.8683 6 7.3 6H5.7C5.1317 6 4.73554 6.00039 4.42712 6.02559Z" fill="white"/>
</svg>
