<svg width="16" height="16" viewBox="0 0 16 16" fill="none" xmlns="http://www.w3.org/2000/svg">
<path d="M8.6786 2H10.3214C10.8633 2 11.3004 1.99999 11.6543 2.02891C12.0187 2.05868 12.3388 2.12159 12.635 2.27248C13.1054 2.51217 13.4878 2.89462 13.7275 3.36502C13.8784 3.66117 13.9413 3.98126 13.9711 4.34569C14 4.69961 14 5.13667 14 5.67853V7.32142C14 7.86328 14 8.30039 13.9711 8.65431C13.9413 9.01874 13.8784 9.33883 13.7275 9.63498C13.4878 10.1054 13.1054 10.4878 12.635 10.7275C12.4356 10.8291 12.2254 10.8908 11.9982 10.9294C12 10.7458 12 10.554 12 10.356V9.90613C12.0705 9.88621 12.129 9.863 12.181 9.83651C12.4632 9.6927 12.6927 9.46323 12.8365 9.18099C12.9036 9.04931 12.9497 8.87546 12.9744 8.57288C12.9996 8.26446 13 7.8683 13 7.3V5.7C13 5.1317 12.9996 4.73554 12.9744 4.42712C12.9497 4.12454 12.9036 3.95069 12.8365 3.81902C12.6927 3.53677 12.4632 3.3073 12.181 3.16349C12.0493 3.0964 11.8755 3.05031 11.5729 3.02559C11.2645 3.00039 10.8683 3 10.3 3H8.7C8.1317 3 7.73554 3.00039 7.42712 3.02559C7.12454 3.05031 6.95069 3.0964 6.81901 3.16349C6.53677 3.3073 6.3073 3.53677 6.16349 3.81902C6.137 3.871 6.11379 3.92955 6.09387 4H5.64419C5.44613 3.99999 5.25427 3.99999 5.07064 4.00183C5.10921 3.77457 5.17091 3.56437 5.27248 3.36502C5.51217 2.89462 5.89462 2.51217 6.36502 2.27248C6.66117 2.12159 6.98126 2.05868 7.34569 2.02891C7.69962 1.99999 8.13672 2 8.6786 2Z" fill="white"/>
<path d="M7.3214 5H5.6786C5.1367 5 4.69963 4.99999 4.34569 5.02891C3.98126 5.05868 3.66117 5.12159 3.36502 5.27248C2.89462 5.51217 2.51217 5.89462 2.27248 6.36502C2.12159 6.66117 2.05868 6.98126 2.02891 7.34569C1.99999 7.69963 2 8.1367 2 8.6786V10.3214C2 10.8633 1.99999 11.3004 2.02891 11.6543C2.05868 12.0187 2.12159 12.3388 2.27248 12.635C2.51217 13.1054 2.89462 13.4878 3.36502 13.7275C3.66117 13.8784 3.98126 13.9413 4.34569 13.9711C4.69961 14 5.13667 14 5.67853 14H7.32142C7.86328 14 8.30039 14 8.65431 13.9711C9.01874 13.9413 9.33883 13.8784 9.63498 13.7275C10.1054 13.4878 10.4878 13.1054 10.7275 12.635C10.8784 12.3388 10.9413 12.0187 10.9711 11.6543C11 11.3004 11 10.8633 11 10.3215V8.67858C11 8.13672 11 7.69961 10.9711 7.34569C10.9413 6.98126 10.8784 6.66117 10.7275 6.36502C10.4878 5.89462 10.1054 5.51217 9.63498 5.27248C9.33883 5.12159 9.01874 5.05868 8.65431 5.02891C8.30037 4.99999 7.8633 5 7.3214 5ZM3.81901 6.16349C3.95069 6.0964 4.12454 6.05031 4.42712 6.02559C4.73554 6.00039 5.1317 6 5.7 6H7.3C7.8683 6 8.26446 6.00039 8.57288 6.02559C8.87546 6.05031 9.04931 6.0964 9.18099 6.16349C9.46323 6.3073 9.6927 6.53677 9.83651 6.81901C9.9036 6.95069 9.94969 7.12454 9.97441 7.42712C9.99961 7.73554 10 8.1317 10 8.7V10.3C10 10.8683 9.99961 11.2645 9.97441 11.5729C9.94969 11.8755 9.9036 12.0493 9.83651 12.181C9.6927 12.4632 9.46323 12.6927 9.18099 12.8365C9.04931 12.9036 8.87546 12.9497 8.57288 12.9744C8.26446 12.9996 7.8683 13 7.3 13H5.7C5.1317 13 4.73554 12.9996 4.42712 12.9744C4.12454 12.9497 3.95069 12.9036 3.81901 12.8365C3.53677 12.6927 3.3073 12.4632 3.16349 12.181C3.0964 12.0493 3.05031 11.8755 3.02559 11.5729C3.00039 11.2645 3 10.8683 3 10.3V8.7C3 8.1317 3.00039 7.73554 3.02559 7.42712C3.05031 7.12454 3.0964 6.95069 3.16349 6.81901C3.3073 6.53677 3.53677 6.3073 3.81901 6.16349Z" fill="white"/>
</svg>
