<svg width="24" height="24" viewBox="0 0 24 24" fill="none" xmlns="http://www.w3.org/2000/svg">
<path d="M12 2.25C9.37665 2.25 7.25 4.37665 7.25 7V14C7.25 16.6234 9.37665 18.75 12 18.75C14.6234 18.75 16.75 16.6234 16.75 14V7C16.75 4.37665 14.6234 2.25 12 2.25ZM8.75 7C8.75 5.20507 10.2051 3.75 12 3.75C13.7949 3.75 15.25 5.20507 15.25 7V14C15.25 15.7949 13.7949 17.25 12 17.25C10.2051 17.25 8.75 15.7949 8.75 14V7Z" fill="white"/>
<path d="M5.75 12C5.75 11.5858 5.41421 11.25 5 11.25C4.58579 11.25 4.25 11.5858 4.25 12V14C4.25 18.2802 7.71979 21.75 12 21.75C16.2802 21.75 19.75 18.2802 19.75 14V12C19.75 11.5858 19.4142 11.25 19 11.25C18.5858 11.25 18.25 11.5858 18.25 12V14C18.25 17.4518 15.4518 20.25 12 20.25C8.54822 20.25 5.75 17.4518 5.75 14V12Z" fill="white"/>
</svg>
