<svg width="24" height="24" viewBox="0 0 24 24" fill="none" xmlns="http://www.w3.org/2000/svg">
<path fill-rule="evenodd" clip-rule="evenodd" d="M6.2 4C5.0799 4 4.51984 4 4.09202 4.21799C3.71569 4.40973 3.40973 4.71569 3.21799 5.09202C3 5.51984 3 6.0799 3 7.2V12.8C3 13.9201 3 14.4802 3.21799 14.908C3.40973 15.2843 3.71569 15.5903 4.09202 15.782C4.51984 16 5.0799 16 6.2 16H17.8C18.9201 16 19.4802 16 19.908 15.782C20.2843 15.5903 20.5903 15.2843 20.782 14.908C21 14.4802 21 13.9201 21 12.8V7.2C21 6.0799 21 5.51984 20.782 5.09202C20.5903 4.71569 20.2843 4.40973 19.908 4.21799C19.4802 4 18.9201 4 17.8 4H6.2ZM5.00855 5.52227C5.26681 5.50117 5.6152 5.5 6.2 5.5H17.8C18.3848 5.5 18.7332 5.50117 18.9914 5.52227C19.1491 5.53514 19.2153 5.55214 19.2331 5.55765C19.3224 5.60469 19.3953 5.67765 19.4424 5.76693C19.4479 5.78469 19.4649 5.85094 19.4777 6.00855C19.4988 6.26681 19.5 6.6152 19.5 7.2V12.8C19.5 13.3848 19.4988 13.7332 19.4777 13.9914C19.4649 14.1491 19.4479 14.2153 19.4424 14.2331C19.3953 14.3224 19.3224 14.3953 19.2331 14.4424C19.2153 14.4479 19.1491 14.4649 18.9914 14.4777C18.7332 14.4988 18.3848 14.5 17.8 14.5H6.2C5.6152 14.5 5.26681 14.4988 5.00855 14.4777C4.85093 14.4649 4.78468 14.4479 4.76692 14.4424C4.67765 14.3953 4.60469 14.3224 4.55765 14.2331C4.55214 14.2153 4.53514 14.1491 4.52227 13.9914C4.50117 13.7332 4.5 13.3848 4.5 12.8V7.2C4.5 6.6152 4.50117 6.26681 4.52227 6.00855C4.53514 5.85093 4.55214 5.78468 4.55765 5.76693C4.60469 5.67765 4.67765 5.60469 4.76692 5.55765C4.78468 5.55214 4.85093 5.53514 5.00855 5.52227Z" fill="white"/>
<path d="M9 17.75L8 20H16L15 17.75" stroke="white" stroke-width="1.5" stroke-linecap="round" stroke-linejoin="round"/>
</svg>
