<svg width="24" height="24" viewBox="0 0 24 24" fill="none" xmlns="http://www.w3.org/2000/svg">
<path d="M13.15 3.52413C12.6852 3.49308 12.255 3.66623 11.8592 3.87556C11.4643 4.08442 10.9876 4.39531 10.4104 4.7718L3.84671 9.05244C2.85062 9.70207 2.25 10.8108 2.25 12.0001C2.25 13.1893 2.85062 14.298 3.84672 14.9477L10.4104 19.2283C10.9876 19.6048 11.4643 19.9157 11.8592 20.1245C12.255 20.3339 12.6852 20.507 13.15 20.476C13.8032 20.4323 14.4051 20.1063 14.7985 19.583C15.0784 19.2106 15.1684 18.7557 15.2092 18.3098C15.25 17.865 15.25 17.2959 15.25 16.6067V7.39343C15.25 6.70424 15.25 6.13515 15.2092 5.69027C15.1684 5.24438 15.0784 4.78947 14.7985 4.41713C14.4051 3.89379 13.8032 3.56777 13.15 3.52413ZM11.1987 6.04851C11.8149 5.64663 12.2338 5.37433 12.5605 5.20153C12.8934 5.02548 13.015 5.01845 13.05 5.02079C13.2677 5.03534 13.4684 5.14401 13.5995 5.31846C13.6206 5.34652 13.6811 5.4522 13.7155 5.8272C13.7492 6.19525 13.75 6.69489 13.75 7.43056V16.5695C13.75 17.3052 13.7492 17.8049 13.7155 18.1729C13.6811 18.5479 13.6206 18.6536 13.5995 18.6816C13.4684 18.8561 13.2677 18.9648 13.05 18.9793C13.015 18.9817 12.8934 18.9746 12.5605 18.7986C12.2338 18.6258 11.8149 18.3535 11.1987 17.9516L4.66612 13.6912C4.09461 13.3185 3.75 12.6824 3.75 12.0001C3.75 11.3177 4.0946 10.6816 4.66612 10.3089L11.1987 6.04851Z" fill="white"/>
<path d="M22.0303 14.5303C21.7374 14.8232 21.2626 14.8232 20.9697 14.5303L19.5 13.0607L18.0303 14.5303C17.7374 14.8232 17.2626 14.8232 16.9697 14.5303C16.6768 14.2374 16.6768 13.7626 16.9697 13.4697L18.4393 12L16.9697 10.5303C16.6768 10.2374 16.6768 9.76256 16.9697 9.46967C17.2626 9.17678 17.7374 9.17678 18.0303 9.46967L19.5 10.9393L20.9697 9.46967C21.2626 9.17678 21.7374 9.17678 22.0303 9.46967C22.3232 9.76256 22.3232 10.2374 22.0303 10.5303L20.5607 12L22.0303 13.4697C22.3232 13.7626 22.3232 14.2374 22.0303 14.5303Z" fill="white"/>
</svg>
