<svg width="24" height="24" viewBox="0 0 24 24" fill="none" xmlns="http://www.w3.org/2000/svg">
<path d="M8.6413 14.2982C8.34841 14.5911 8.34841 15.0659 8.6413 15.3588C8.93419 15.6517 9.40907 15.6517 9.70196 15.3588L15.3588 9.70198C15.6517 9.40908 15.6517 8.93421 15.3588 8.64132C15.0659 8.34842 14.591 8.34842 14.2982 8.64132L8.6413 14.2982Z" fill="white"/>
<path d="M12 2.25C6.61522 2.25 2.25 6.61522 2.25 12C2.25 17.3848 6.61522 21.75 12 21.75C17.3848 21.75 21.75 17.3848 21.75 12C21.75 6.61522 17.3848 2.25 12 2.25ZM3.75 12C3.75 7.44365 7.44365 3.75 12 3.75C16.5563 3.75 20.25 7.44365 20.25 12C20.25 16.5563 16.5563 20.25 12 20.25C7.44365 20.25 3.75 16.5563 3.75 12Z" fill="white"/>
</svg>
