<svg width="16" height="16" viewBox="0 0 16 16" fill="none" xmlns="http://www.w3.org/2000/svg">
<path d="M11.4985 5.99998C10.9249 6.00006 10.3689 6.19736 9.92353 6.55877C9.47818 6.92018 9.17064 7.42373 9.05249 7.98498C7.17049 7.85998 5.46449 6.96298 5.07949 5.93098C5.67845 5.78724 6.20326 5.42744 6.55327 4.92058C6.90328 4.41373 7.05385 3.7955 6.97611 3.18446C6.89836 2.57343 6.59778 2.0126 6.132 1.60954C5.66622 1.20648 5.06803 0.989562 4.45216 1.00039C3.8363 1.01121 3.24611 1.24902 2.79478 1.6682C2.34345 2.08738 2.06276 2.65842 2.00653 3.27181C1.95031 3.8852 2.12252 4.49776 2.49012 4.992C2.85773 5.48624 3.39486 5.82737 3.99849 5.94998V10.05C3.39147 10.1739 2.85208 10.5188 2.48489 11.0178C2.11771 11.5168 1.94888 12.1343 2.01115 12.7507C2.07342 13.3671 2.36235 13.9385 2.82192 14.3539C3.28149 14.7694 3.87895 14.9995 4.49849 14.9995C5.11803 14.9995 5.7155 14.7694 6.17507 14.3539C6.63464 13.9385 6.92356 13.3671 6.98583 12.7507C7.0481 12.1343 6.87928 11.5168 6.51209 11.0178C6.14491 10.5188 5.60551 10.1739 4.99849 10.05V7.46598C6.15309 8.38805 7.57036 8.92022 9.04649 8.98598C9.13857 9.4506 9.36075 9.8795 9.68715 10.2227C10.0135 10.566 10.4307 10.8094 10.8901 10.9248C11.3495 11.0401 11.8323 11.0225 12.2821 10.8741C12.7319 10.7257 13.1303 10.4526 13.4309 10.0865C13.7315 9.72047 13.9219 9.27655 13.9799 8.80647C14.038 8.33639 13.9613 7.85948 13.7589 7.43128C13.5564 7.00308 13.2364 6.64122 12.8363 6.38782C12.4361 6.13442 11.9721 5.99992 11.4985 5.99998V5.99998ZM2.99849 3.49998C2.99849 3.20331 3.08647 2.9133 3.25129 2.66662C3.41611 2.41995 3.65038 2.22769 3.92447 2.11416C4.19856 2.00063 4.50016 1.97092 4.79113 2.0288C5.0821 2.08668 5.34938 2.22954 5.55915 2.43932C5.76893 2.6491 5.91179 2.91637 5.96967 3.20734C6.02755 3.49831 5.99784 3.79991 5.88431 4.074C5.77078 4.34809 5.57852 4.58236 5.33185 4.74718C5.08518 4.912 4.79517 4.99998 4.49849 4.99998C4.10067 4.99998 3.71914 4.84194 3.43783 4.56064C3.15653 4.27933 2.99849 3.8978 2.99849 3.49998ZM5.99849 12.5C5.99849 12.7967 5.91052 13.0867 5.7457 13.3333C5.58088 13.58 5.34661 13.7723 5.07252 13.8858C4.79843 13.9993 4.49683 14.029 4.20586 13.9712C3.91489 13.9133 3.64761 13.7704 3.43783 13.5606C3.22805 13.3509 3.08519 13.0836 3.02732 12.7926C2.96944 12.5016 2.99914 12.2 3.11267 11.926C3.22621 11.6519 3.41846 11.4176 3.66514 11.2528C3.91181 11.088 4.20182 11 4.49849 11C4.89632 11 5.27785 11.158 5.55915 11.4393C5.84046 11.7206 5.99849 12.1022 5.99849 12.5V12.5ZM11.4985 9.99998C11.2018 9.99998 10.9118 9.912 10.6651 9.74718C10.4185 9.58236 10.2262 9.34809 10.1127 9.074C9.99914 8.79991 9.96944 8.49831 10.0273 8.20734C10.0852 7.91637 10.2281 7.6491 10.4378 7.43932C10.6476 7.22954 10.9149 7.08668 11.2059 7.0288C11.4968 6.97092 11.7984 7.00063 12.0725 7.11416C12.3466 7.22769 12.5809 7.41995 12.7457 7.66662C12.9105 7.9133 12.9985 8.20331 12.9985 8.49998C12.9985 8.8978 12.8405 9.27933 12.5592 9.56064C12.2778 9.84194 11.8963 9.99998 11.4985 9.99998Z" fill="#242424"/>
</svg>
