<svg viewBox="0 0 24 24" xmlns="http://www.w3.org/2000/svg"><g fill-rule="nonzero"><path d="m2 2h20v20h-20z" fill="#ff4f00"/><rect fill="#ff4f00" height="20" rx="10" width="20" x="2" y="2"/><path d="m4.81369665 13.0181-.002855-.00905 1.80315-1.65075v-.7954h-2.892855v.7954h1.727905l.002855.0076-1.785535 1.6522v.79535h2.976685v-.79535z" fill="#fffdf9"/><path d="m8.41853165 10.4874c-.3337 0-.60565.0503-.81585.15095-.1958.08775-.36075.23225-.4734.41485-.1078.1838-.175485.3883-.198615.6001l.877765.12335c.03175-.187.09525-.31955.1905-.3977.1083-.08165.2417-.12295.3772-.11665.17815 0 .30735.0476.3877.14285.07955.09525.12.2272.12.40105v.08665h-.84395c-.4296 0-.7382.09525-.92585.2858-.187655.1905-.28132.44195-.28100579.7544 0 .32005.09367079.5582.28100579.7144.18735.1562.4229.23385.7068.2329086.3521 0 .62295-.1211586.8125-.3634086.11195-.1489.1919-.3193.2348-.50055h.0319l.121.79535h.79535v-2.01415c0-.41625-.1097-.7387-.3291-.9673s-.57565-.3429-1.06875-.3429zm.27815 2.4828c-.12625.10525-.2915.15765-.49725.15765-.16955 0-.28735-.0297-.3534-.0891-.03215-.02805-.05775-.0629-.07495-.102s-.0256-.0815-.02455-.1242c-.0019-.0403.00445-.0805.0186-.11825s.03585-.0722.0638-.1013c.03015-.0283.06575-.0502.10465-.0644.0389-.01415.08025-.0203.12155-.018h.83015v.05475c.00165.07745-.01445.1542-.04715.2244s-.0811.1319-.14145.18045z" fill="#fffdf9"/><path d="m14.6242817 10.5629h-.9397v3.25105h.9397z" fill="#fffdf9"/><path d="m20.1759817 10.5629c-.2654 0-.47465.0937-.6277001.281-.1098499.13465-.1933499.33355-.2504999.5968h-.0276501l-.1228499-.8778h-.8025501v3.25055h.9397v-1.66695c0-.2102.0492001-.3713.1476501-.4834.0984-.1121.2800499-.1681.54485-.1681h.3567v-.9321z" fill="#fffdf9"/><path d="m17.4090817 10.66895c-.2194-.1305-.4961-.19555-.8301-.195251-.5258 0-.9373.149701-1.2345.449101-.2972.29945-.4458.7122-.4458 1.2383-.00755.3181.0619.6333.2024.91875.12865.25435.329.46545.5763.60725.24895.1438.545.2159.88825.2162.2969 0 .54485-.0457.74395-.13715.18715-.08215.35015-.21085.4734-.3739.11735-.16.20455-.34015.2572-.5315l-.8097-.2267c-.03405.12445-.09965.23795-.1905.3296-.09145.0914-.24465.13715-.4596.13715-.2556 0-.4461-.0732-.5715-.21955-.091-.10575-.14815-.2567-.17335-.45245h2.217c.00905-.09145.0138-.16815.0138-.23005v-.2024c.0054-.27195-.0508-.54155-.1643-.78875-.10625-.22515-.27805-.4129-.49295-.53865zm-.85725.5796487c.381 0 .59705.1874513.6482.5624513h-1.34785c.0214-.1251.07325-.24305.15095-.3434.12355-.14635.3064-.2194.5487-.2190513z" fill="#fffdf9"/><path d="m14.1656317 9.2528c-.0707-.00245-.14115.0094-.2072.03475-.06605.0254-.1263.06375-.1772.1129-.0502.04955-.08955.10905-.1155.17465-.026.0656-.0381.1359-.0355.2064-.0025.07095.0096.1417.0356.20775.02605.0661.0654.1261.1156.1763.05025.0502.1103.0895.1764.11545s.13685.038.2078.0354c.0705.00265.1408-.0094.2064-.0354.06565-.026.1251-.06535.17465-.1156.04915-.05075.08755-.11095.11285-.1769.02525-.066.03695-.1364.03435-.207.00325-.0702-.0082-.1403-.03355-.20585-.02535-.0655-.0641-.12505-.1138-.17475-.04965-.0497-.10915-.0885-.17465-.1139-.0655-.02545-.13605-.0374-.20625-.0342z" fill="#fffdf9"/><path d="m12.2243316 10.4737c-.32005 0-.5772.1005-.77155.30145-.1438.14895-.2494.3712-.3167.6668h-.03l-.1229-.87775h-.8025v4.18355h.9397v-1.72315h.03425c.0287.1149.0689.2266.12005.3334.0795.17395.20985.31975.3738501.41815.1701.0928.3616499.13895.5553499.1338.3934 0 .69295-.1532.8987-.45955.20575-.3064.30865-.73395.30865-1.2826 0-.52995-.09955-.9448-.29865-1.2445-.19905-.29975-.49515-.4496-.88825-.4496zm.0953 2.3556c-.10955.15875-.281.23815-.5144.23815-.0961999.00445-.1921-.0141-.27975-.0541-.0876-.04-.1644499-.1003-.22415-.17595-.1216-.1527-.18225-.3618-.1819015-.62725v-.0619c0-.26955.0606016-.47595.1819015-.61915.1213-.1432.28925-.214.5039-.2124.2375001 0 .41005.0754.5177001.2262.10765.15085.1614557.3612.1614557.63105.0006442.2791-.0539558.49755-.1638058.65535z" fill="#fffdf9"/></g></svg>