<svg width="16" height="16" viewBox="0 0 16 16" fill="none" xmlns="http://www.w3.org/2000/svg">
<path d="M3 2.5C3 2.22386 2.77614 2 2.5 2C2.22386 2 2 2.22386 2 2.5V12.5C2 12.7761 2.22386 13 2.5 13C2.77614 13 3 12.7761 3 12.5V2.5Z" fill="white"/>
<path d="M5.5 3C5.22386 3 5 3.22386 5 3.5C5 3.77614 5.22386 4 5.5 4H11.5C11.7761 4 12 3.77614 12 3.5C12 3.22386 11.7761 3 11.5 3H5.5Z" fill="white"/>
<path d="M5 7.5C5 7.22386 5.22386 7 5.5 7H13.5C13.7761 7 14 7.22386 14 7.5C14 7.77614 13.7761 8 13.5 8H5.5C5.22386 8 5 7.77614 5 7.5Z" fill="white"/>
<path d="M5.5 11C5.22386 11 5 11.2239 5 11.5C5 11.7761 5.22386 12 5.5 12H10.5C10.7761 12 11 11.7761 11 11.5C11 11.2239 10.7761 11 10.5 11H5.5Z" fill="white"/>
</svg>
