<svg width="16" height="16" viewBox="0 0 16 16" fill="none" xmlns="http://www.w3.org/2000/svg">
<path d="M6.23223 3.40383C7.98959 1.64648 10.8388 1.64648 12.5962 3.40383C14.3536 5.16119 14.3536 8.01044 12.5962 9.7678L12.2426 10.1213C12.0474 10.3166 11.7308 10.3166 11.5355 10.1213C11.3403 9.92609 11.3403 9.6095 11.5355 9.41424L11.8891 9.06069C13.2559 7.69385 13.2559 5.47778 11.8891 4.11094C10.5223 2.74411 8.30617 2.74411 6.93934 4.11094L6.58578 4.4645C6.39052 4.65976 6.07394 4.65976 5.87868 4.4645C5.68342 4.26923 5.68342 3.95265 5.87868 3.75739L6.23223 3.40383ZM10.1213 5.87871C10.3166 6.07397 10.3166 6.39055 10.1213 6.58582L6.58578 10.1213C6.39052 10.3166 6.07394 10.3166 5.87868 10.1213C5.68342 9.92609 5.68342 9.6095 5.87868 9.41424L9.41421 5.87871C9.60947 5.68345 9.92606 5.68345 10.1213 5.87871ZM4.46446 5.87871C4.65973 6.07397 4.65973 6.39055 4.46446 6.58582L4.11091 6.93937C2.74408 8.3062 2.74408 10.5223 4.11091 11.8891C5.47775 13.256 7.69382 13.256 9.06066 11.8891L9.41421 11.5356C9.60947 11.3403 9.92606 11.3403 10.1213 11.5356C10.3166 11.7308 10.3166 12.0474 10.1213 12.2427L9.76777 12.5962C8.01041 14.3536 5.16116 14.3536 3.4038 12.5962C1.64644 10.8389 1.64645 7.98962 3.4038 6.23226L3.75736 5.87871C3.95262 5.68345 4.2692 5.68345 4.46446 5.87871Z" fill="white"/>
</svg>
