<svg width="208" height="15" viewBox="0 0 208 15" fill="none" xmlns="http://www.w3.org/2000/svg">
<path d="M203.807 6.37444L201.362 3.44661L201.362 3.4465C200.304 2.17961 199.775 1.54615 199.127 1.09078C198.553 0.687287 197.913 0.387667 197.235 0.205546C196.47 0 195.645 0 193.994 0H14.0061C12.3555 0 11.5302 0 10.7652 0.205545C10.0875 0.387667 9.44691 0.687286 8.87269 1.09078C8.22461 1.54616 7.6956 2.17964 6.63758 3.4466L6.63757 3.4466L4.19258 6.37443C3.49328 7.21183 3.14363 7.63052 3.13804 7.9842C3.13319 8.29165 3.27005 8.58425 3.50915 8.77759C3.7842 9 4.32969 9 5.42067 9H202.579C203.67 9 204.216 9 204.491 8.77759C204.73 8.58425 204.867 8.29165 204.862 7.9842C204.856 7.63052 204.507 7.21183 203.807 6.37444Z" fill="#303236"/>
<path d="M6 15H202C204.209 15 206 13.2091 206 11C206 8.79086 204.209 7 202 7H6C3.79086 7 2 8.79086 2 11C2 13.2091 3.79086 15 6 15Z" fill="#1D1E20"/>
</svg>
