<svg viewBox="0 0 24 24" xmlns="http://www.w3.org/2000/svg"><g fill="none" fill-rule="evenodd"><path d="m12 2c5.5228 0 10 4.4772 10 10s-4.4772 10-10 10-10-4.4772-10-10 4.4772-10 10-10zm.1032 4.28711c-3.15708 0-5.71648 2.55764-5.71648 5.71249 0 3.1551 2.5594 5.7125 5.71648 5.7125 1.2587 0 2.4222-.4068 3.3666-1.0956l-1.2385-2.1435c-.5721.4923-1.3157.7909-2.1281.7909-1.8012 0-3.2666-1.4643-3.2666-3.2643 0-1.7998 1.4654-3.26417 3.2666-3.26417l1.1182-2.33876c-.3616-.07172-.7354-.10956-1.1182-.10956zm3.9985 4.89549h-2.8253l-1.4126 2.4473h2.8253l1.4126 2.4474 1.4126-2.4474zm-1.0587-4.48631c-.284 0-.5421.07216-.7796.22152-.2324.14432-.408.32976-.5163.56152l.4957.4946c.191-.38636.4698-.577.8364-.577.3098 0 .5009.15976.5009.38116 0 .18556-.093.34-.4493.5204l-.2014.09784c-.4388.22152-.7434.47392-.919.7624-.1755.28332-.2633.649-.2633 1.08697v.1185h2.5867v-.70583h-1.709c.0464-.26784.2116-.41724.5473-.58724l.315-.15972c.5628-.28836.8622-.61292.8622-1.14356 0-.33484-.129-.59764-.3872-.78812-.253-.19064-.5628-.28344-.9191-.28344z" fill="currentColor"/></g></svg>