<svg fill="none" viewBox="0 0 24 24" xmlns="http://www.w3.org/2000/svg"><path d="m21 4.32353v15.35297c0 .351-.1394.6876-.3877.9358-.2482.2483-.5848.3877-.9358.3877h-15.35297c-.35102 0-.68767-.1394-.93588-.3877-.24821-.2482-.38765-.5848-.38765-.9358v-15.35297c0-.35102.13944-.68767.38765-.93588s.58486-.38765.93588-.38765h15.35297c.351 0 .6876.13944.9358.38765.2483.24821.3877.58486.3877.93588zm-12.70588 5.55882h-2.64706v8.47055h2.64706zm.23823-2.91176c.0014-.20023-.03666-.39877-.112-.58429-.07533-.18552-.18648-.35439-.32707-.49695-.1406-.14257-.30791-.25605-.49237-.33395-.18445-.07791-.38245-.11872-.58267-.12011h-.04765c-.40719 0-.7977.16176-1.08562.44968s-.44968.67843-.44968 1.08562c0 .40718.16176.79769.44968 1.08562.28792.28792.67843.44967 1.08562.44967.20024.00493.39949-.02965.58637-.10175.18687-.07211.35771-.18033.50274-.31848.14504-.13816.26143-.30353.34253-.48668s.12532-.38049.13012-.58073zm9.82055 6.23651c0-2.5465-1.62-3.53651-3.2294-3.53651-.5269-.02639-1.0516.08585-1.5216.32551-.4701.2397-.8691.5984-1.1572 1.0404h-.0741v-1.15415h-2.48825v8.47055h2.64705v-4.5053c-.0383-.4614.1071-.9193.4045-1.2741.2974-.3549.7228-.5781 1.1837-.6211h.1006c.8418 0 1.4665.5294 1.4665 1.8635v4.537h2.6471z" fill="currentColor"/></svg>