<svg width="16" height="16" viewBox="0 0 16 16" fill="none" xmlns="http://www.w3.org/2000/svg">
<path d="M6.23214 3.40396C7.9895 1.6466 10.8387 1.6466 12.5961 3.40396C14.3535 5.16132 14.3535 8.01056 12.5961 9.76792L12.2425 10.1215C12.0473 10.3167 11.7307 10.3167 11.5354 10.1215C11.3402 9.92621 11.3402 9.60963 11.5354 9.41436L11.889 9.06081C13.2558 7.69398 13.2558 5.4779 11.889 4.11106C10.5222 2.74423 8.30608 2.74423 6.93925 4.11106L6.58569 4.46462C6.39043 4.65988 6.07385 4.65988 5.87859 4.46462C5.68332 4.26936 5.68332 3.95277 5.87859 3.75751L6.23214 3.40396ZM10.1212 5.87883C10.3165 6.07409 10.3165 6.39068 10.1212 6.58594L6.58569 10.1215C6.39043 10.3167 6.07385 10.3167 5.87859 10.1215C5.68332 9.92621 5.68332 9.60963 5.87859 9.41436L9.41412 5.87883C9.60938 5.68357 9.92597 5.68357 10.1212 5.87883ZM4.46437 5.87883C4.65964 6.07409 4.65964 6.39068 4.46437 6.58594L4.11082 6.93949C2.74398 8.30633 2.74398 10.5224 4.11082 11.8892C5.47765 13.2561 7.69373 13.2561 9.06057 11.8892L9.41412 11.5357C9.60938 11.3404 9.92596 11.3404 10.1212 11.5357C10.3165 11.7309 10.3165 12.0475 10.1212 12.2428L9.76767 12.5963C8.01031 14.3537 5.16107 14.3537 3.40371 12.5963C1.64635 10.839 1.64635 7.98974 3.40371 6.23238L3.75727 5.87883C3.95253 5.68357 4.26911 5.68357 4.46437 5.87883Z" fill="white"/>
</svg>
