<svg fill="none" viewBox="0 0 24 24" xmlns="http://www.w3.org/2000/svg" xmlns:xlink="http://www.w3.org/1999/xlink"><clipPath id="a"><path d="m6.00006 3h12v18h-12z"/></clipPath><g clip-path="url(#a)"><path d="m11.9999 12.0001c0-.7956.3161-1.5587.8787-2.1213.5626-.56261 1.3257-.87868 2.1213-.87868.7957 0 1.5587.31607 2.1213.87868.5627.5626.8787 1.3257.8787 2.1213 0 .7957-.316 1.5587-.8787 2.1213-.5626.5627-1.3256.8787-2.1213.8787-.7956 0-1.5587-.316-2.1213-.8787-.5626-.5626-.8787-1.3256-.8787-2.1213z" fill="#1abcfe"/><path d="m6 17.9999c0-.7957.31607-1.5587.87868-2.1213.56261-.5627 1.32567-.8787 2.12131-.8787h3.00001v3c0 .7956-.3161 1.5587-.8787 2.1213s-1.32566.8787-2.12131.8787c-.79564 0-1.5587-.3161-2.12131-.8787s-.87868-1.3257-.87868-2.1213z" fill="#0acf83"/><path d="m11.9999 3v6h3c.7957 0 1.5587-.31607 2.1213-.87868.5627-.56261.8787-1.32567.8787-2.12132s-.316-1.55871-.8787-2.12132c-.5626-.56261-1.3256-.87868-2.1213-.87868z" fill="#ff7262"/><path d="m6 6c0 .79565.31607 1.55871.87868 2.12132s1.32567.87868 2.12131.87868h3.00001v-6h-3.00001c-.79564 0-1.5587.31607-2.12131.87868s-.87868 1.32567-.87868 2.12132z" fill="#f24e1e"/><path d="m6 12.0001c0 .7957.31607 1.5587.87868 2.1213.56261.5627 1.32567.8787 2.12131.8787h3.00001v-5.99998h-3.00001c-.79564 0-1.5587.31607-2.12131.87868-.56261.5626-.87868 1.3257-.87868 2.1213z" fill="#a259ff"/></g></svg>