<svg fill="none" viewBox="0 0 24 24" xmlns="http://www.w3.org/2000/svg"><path clip-rule="evenodd" d="m11.9687 1.5c-5.78891 0-10.4687 4.71429-10.4687 10.5465 0 4.662 2.9985 8.6083 7.15821 10.005.52008.105.71058-.2269.71058-.5061 0-.2445-.01715-1.0826-.01715-1.9558-2.91214.6287-3.51857-1.2572-3.51857-1.2572-.468-1.2223-1.16143-1.5365-1.16143-1.5365-.95314-.646.06943-.646.06943-.646 1.05729.0698 1.61207 1.0825 1.61207 1.0825.93579 1.6063 2.44372 1.1525 3.05036.873.08657-.681.36407-1.1524.6587-1.4143-2.32263-.2445-4.76634-1.1524-4.76634-5.2035 0-1.1524.41571-2.09524 1.07443-2.82853-.10393-.26186-.468-1.34464.10414-2.79386 0 0 .88393-.27942 2.877 1.08258.85327-.23086 1.73327-.3483 2.61727-.34929.8839 0 1.785.12236 2.6171.34929 1.9933-1.362 2.8772-1.08258 2.8772-1.08258.5721 1.44922.2079 2.532.1039 2.79386.6761.73329 1.0747 1.67613 1.0747 2.82853 0 4.0511-2.4437 4.9415-4.7837 5.2035.3814.3318.7105.9603.7105 1.9556 0 1.4143-.0171 2.5494-.0171 2.8984 0 .2795.1907.6114.7106.5066 4.1597-1.3971 7.1582-5.3432 7.1582-10.0052.0171-5.83221-4.6798-10.5465-10.4514-10.5465z" fill="currentColor" fill-rule="evenodd"/></svg>