<svg fill="none" viewBox="0 0 24 24" xmlns="http://www.w3.org/2000/svg"><path d="m12.204 10.1818v3.8727h5.4917c-.2412 1.2455-.9648 2.3001-2.0502 3.0091l3.3117 2.5182c1.9296-1.7454 3.0427-4.309 3.0427-7.3545 0-.709-.0649-1.3909-.1855-2.0454z" fill="#4285f4"/><path d="m6.48525 13.9034-.74691.5603-2.64386 2.0181c1.67905 3.2636 5.12039 5.5182 9.10922 5.5182 2.7551 0 5.0649-.8909 6.7533-2.4181l-3.3117-2.5182c-.9091.6-2.0687.9636-3.4416.9636-2.65303 0-4.90716-1.7545-5.71428-4.1181z" fill="#34a853"/><path d="m3.09455 7.51819c-.6957 1.34539-1.09455 2.86361-1.09455 4.48171 0 1.6182.39885 3.1364 1.09455 4.4818 0 .009 3.39527-2.5818 3.39527-2.5818-.20408-.6-.32471-1.2363-.32471-1.9001 0-.6637.12063-1.3.32471-1.9z" fill="#fbbc05"/><path d="m12.204 5.98181c1.5028 0 2.8386.50907 3.9054 1.4909l2.922-2.86359c-1.7718-1.61815-4.0723-2.60912-6.8274-2.60912-3.98892 0-7.43047 2.24545-9.10952 5.51818l3.39517 2.58182c.80701-2.36367 3.06123-4.11819 5.71435-4.11819z" fill="#ea4335"/></svg>