<svg fill="none" viewBox="0 0 24 24" xmlns="http://www.w3.org/2000/svg"><circle cx="12" cy="12" fill="#1ed760" r="10"/><g fill="#000"><path d="m17.6104 11.0156c-3.1692-1.88236-8.39788-2.05544-11.42365-1.1371-.48589.1474-.99971-.12693-1.14696-.61281-.14725-.48612.12682-.99959.61306-1.14731 3.47337-1.05442 9.24745-.8507 12.89615 1.31533.438.25938.5812.82379.3217 1.26029-.2583.437-.8247.5811-1.2603.3216z"/><path d="m16.4526 14.0563c.3605.2219.8325.108 1.0544-.2527.222-.36.1081-.8319-.2524-1.0538-3.0353-1.8653-7.47482-2.3901-11.04589-1.3066-.40475.1233-.63336.5507-.51124.9562.12305.4047.55127.6332.95672.5107 3.12629-.9489 7.15531-.4784 9.79841 1.1462z"/><path d="m15.4604 16.6841c.2889.1773.6669.0857.8431-.2031.1773-.2889.0857-.6658-.2032-.8431-2.5919-1.584-5.8048-1.9524-9.5505-1.0967-.33064.0752-.53648.4039-.46097.7339.07513.3299.40391.5366.73374.4614 3.42273-.782 6.32913-.4626 8.63783.9476z"/></g></svg>