<svg fill="none" height="30" viewBox="0 0 130 30" width="130" xmlns="http://www.w3.org/2000/svg"><path clip-rule="evenodd" d="m14.8062 5.4196c1.8338 1.86131 2.82 4.32159 2.7813 6.9268v-.0032c-.0805 5.2458-4.4927 9.5126-9.83312 9.5126h-7.502991c-.141809 0-.2127138-.1706-.112803-.2737l3.651584-3.6679c.06123-.0612.14181-.0966.22883-.0966h3.80628c3.06182 0 5.62722-2.4474 5.71752-5.4519.0451-1.5328-.5189-2.98195-1.5889-4.08328-1.0701-1.10133-2.50426-1.70675-4.03515-1.70675h-3.87397v6.25373c0 .0548-.0419.0966-.09669.0966h-3.851402c-.0547899 0-.096688-.0418-.096688-.0966v-10.19856c0-.05474.0418981-.0966.096688-.0966h7.822062c2.60735 0 5.05355 1.02404 6.88745 2.88536zm10.9966 2.29643c-4.7184 0-6.8713 3.61317-6.8713 7.14257l-.0032.0032c0 3.5036 2.4301 7.1973 7.1485 7.1973 3.3776 0 6.0011-1.8806 6.6005-4.8175.0129-.0612-.0354-.1192-.0967-.1192h-3.5613c-.0419 0-.0774.029-.0902.0709-.3256 1.1399-1.3376 1.7228-2.8523 1.7228-1.9306 0-3.1714-1.214-3.4486-3.172h9.9009c.0515 0 .0934-.0354.0967-.0869.0257-.2963.0483-.6795.0483-1.1561 0-3.1719-2.1529-6.78507-6.8713-6.78507zm0 2.81127c1.85 0 2.9264 1.2398 3.036 2.7856h-6.1558c.332-1.9322 1.3827-2.7856 3.1198-2.7856zm8.5534 4.3313c0-3.5294 2.1529-7.14257 6.8713-7.14257s6.8713 3.61317 6.8713 6.78507c0 .4766-.0226.8598-.0483 1.1561-.0033.0515-.0452.0869-.0967.0869h-9.9009c.2772 1.958 1.518 3.172 3.4486 3.172 1.5147 0 2.5267-.5829 2.8523-1.7228.0128-.0419.0483-.0709.0902-.0709h3.5613c.0613 0 .1096.058.0967.1192-.5994 2.9369-3.2229 4.8175-6.6005 4.8175-4.7184 0-7.1485-3.6937-7.1485-7.1973zm9.9073-1.5457c-.1096-1.5458-1.186-2.7856-3.036-2.7856-1.7372 0-2.7878.8534-3.1198 2.7856zm9.7113-5.37467h-3.642v-.00645c-.0547 0-.0966.04187-.0966.09662v19.3312c0 .0548.0419.0967.0966.0967h3.642c.0547 0 .0966-.0419.0966-.0967v-6.7689c.7445.9371 2.0982 1.4619 3.671 1.4619 4.0029 0 6.7069-2.8402 6.7069-7.1683 0-4.328-2.4849-7.16827-6.404-7.16827-1.7951 0-3.1456.66337-3.9739 1.73894v-1.42014c0-.05474-.0419-.0966-.0966-.0966zm6.665 6.94937c0 2.3153-1.3504 3.8611-3.3938 3.8611-2.0401 0-3.3937-1.52-3.3937-3.8611 0-2.3412 1.3536-3.8869 3.3937-3.8869 2.0402 0 3.3938 1.5715 3.3938 3.8869zm9.417 9.6606c.0612-.0612.1418-.0934.2288-.0934h3.9127c1.186 0 2.0143-.9371 2.0143-2.2059v-1.8194c-.7187 1.0208-2.1819 1.6262-3.8095 1.6262-4.1125 0-6.5683-2.8403-6.5683-7.1683s2.4558-7.16831 6.5135-7.16831c1.7114 0 3.0618.63439 3.8643 1.60047v-1.28167c0-.05474.0419-.09661.0967-.09661h3.6419c.0548 0 .0967.04187.0967.09661v14.62971c0 2.8692-2.0691 4.7981-5.2147 4.7981h-7.2935c-.145 0-.2159-.1738-.1128-.2737l2.6299-2.6374zm2.9554-5.8029c2.0982 0 3.4228-1.5168 3.4228-3.8611 0-2.3444-1.3246-3.8869-3.4228-3.8869-2.0981 0-3.3937 1.5457-3.3937 3.8869 0 2.3411 1.3536 3.8611 3.3937 3.8611zm13.6978 2.9912v-6.6595h.0032c0-2.3733.8541-3.9448 2.7589-3.9448h2.1948c.0548 0 .0967-.0419.0967-.0966v-3.00452c0-.05475-.0419-.09662-.0967-.09662h-1.4503c-1.7114 0-2.7621.57643-3.5066 2.31534v-2.21872c0-.05475-.0419-.09662-.0967-.09662h-3.6419c-.0548 0-.0967.04187-.0967.09662v13.70542c0 .0548.0419.0966.0967.0966h3.6419c.0548 0 .0967-.0418.0967-.0966zm6.2814-3.8448c0-2.7308 2.0433-4.386 5.1051-4.386h2.3175c.69 0 1.047-.4411 1.047-1.0208 0-1.1593-.883-1.9579-2.4556-1.9579-1.5728 0-2.5203.995-2.5913 2.1157 0 .0515-.0419.0902-.0934.0902h-3.2262c-.058 0-.1031-.0483-.0999-.1063.1902-2.73723 2.443-4.91413 6.2042-4.91413 3.5322 0 6.0982 2.04165 6.0982 5.18463v8.8364c0 .0548-.042.0966-.097.0966h-3.642c-.055 0-.097-.0418-.097-.0966v-1.8323c-.47 1.2945-2.0141 2.1511-3.9188 2.1511-2.6783 0-4.554-1.7937-4.554-4.1638zm5.5467 1.3783c1.8499 0 2.9259-1.3783 2.9259-3.143v-.1932h-2.7873c-1.1861 0-1.9886.7181-1.9886 1.7937 0 .9113.7735 1.5457 1.85 1.5457zm12.8369-11.33177h-3.642l.006-.00322c-.054 0-.096.04187-.096.09661v13.70548c0 .0547.042.0966.096.0966h3.642c.055 0 .097-.0419.097-.0966v-7.7899c0-1.7936 1.018-2.9787 2.62-2.9787 1.489 0 2.456 1.1851 2.456 2.9787v7.7899c0 .0547.042.0966.097.0966h3.642c.054 0 .096-.0419.096-.0966v-7.7899c0-1.7936 1.019-2.9787 2.621-2.9787 1.489 0 2.455 1.1851 2.455 2.9787v7.7899c0 .0547.042.0966.097.0966h3.642c.055 0 .097-.0419.097-.0966v-9.0039c0-2.78231-1.96-5.01717-4.967-5.01717-2.233 0-3.974 1.18506-4.663 2.53757-.664-1.65522-2.073-2.53757-4.251-2.53757-1.879 0-3.204.91133-3.948 2.18012v-1.86132c0-.05474-.042-.0966-.097-.0966z" fill="#fff" fill-rule="evenodd"/></svg>