<svg height="168" viewBox="0 0 342 168" width="342" xmlns="http://www.w3.org/2000/svg"><path d="m58.2 97.6 57.6-56.6-.9 97.6h-15.2c0-.1.6-61 .6-61l-42.2 41.5.2-21.6zm49-83.9-49.7 48.8-55.9-56.9-1.2 131.4 15.2-.3.9-94.2 40.8 41.5 60.6-59.5 5.6 5.7 8.4-30.1-30.3 7.8zm52.9 52.7h-33v8.4l7.4 1.4v52.5l-7.4 1.4v8.3h28.7v-8.3l-7.4-1.4v-18.3h11.7c7.9 0 14.1-2 18.7-6s6.8-9.3 6.8-15.9-2.3-11.9-6.8-15.9c-4.5-4.1-10.8-6.1-18.7-6.1zm-11.7 33.3v-22.6h11.7c3.8 0 6.7 1.1 8.7 3.3s2.9 4.9 2.9 8.2-1 5.9-2.9 8c-2 2.1-4.9 3.2-8.7 3.2h-11.7zm39.1-25 7.4 1.4v52.5l-7.4 1.4v8.3h28.6v-8.3l-7.4-1.4v-52.5l7.4-1.4v-8.4h-28.6v8.3zm75.5 50.6-.2 13.1h19.9v-7.3l-5.9-2.3v-7.5c0-4.1-.9-10.6-2.7-13.4s-4.7-4.8-8.8-6c3.6-1.6 6.4-3.7 8.2-6.2s2.8-5.5 2.8-9c0-6.3-2.2-11.3-6.6-14.9s-10.6-5.4-18.4-5.4h-31.1v8.3l7.4 1.4v52.5l-7.4 1.4v8.3h28.7v-8.3l-7.4-1.4v-21.3h11.3c3.2 0 5.7 1 7.6 3 1.8 2 2.7 7.6 2.7 11v3.9zm-21.6-28.4v-19.8h9.8c3.7 0 6.5.9 8.4 2.8s2.8 4.3 2.8 7.4-1 5.5-2.8 7.1c-1.9 1.6-4.8 2.5-8.7 2.5zm89.5 8.2v-10.7h-23.3v-17.4h22.1l.6 8.3h10.7v-18.9h-54.6v8.4l7.4 1.4v52.5l-7.4 1.4v8.3h54.7v-18.8h-10.6l-.6 8.3h-22.3v-22.7h23.3zm-329.9 59.8v2.6h9.1v-2.6l-2.4-.4v-6h7.7v-3.4h-7.7v-6.1h7.2l.2 2.6h3.4v-6h-17.5v2.7l2.4.4v15.8l-2.4.5zm38.1-16.6 2.4.4v15.8l-2.4.4v2.6h9.1v-2.6l-2.4-.4v-15.8l2.4-.4v-2.7h-9.1zm54.8-2.7h-9.1v2.7l2.4.4v11.7s-8.9-14.8-8.9-14.8h-6.8v2.7l2.4.4v15.8l-2.4.4v2.6h9.2v-2.6l-2.4-.4v-11.7s8.9 14.8 8.9 14.8h4.4v-18.8l2.4-.4v-2.7zm16.5 19.3v2.6h7.5v-2.6l-1.5-.3 1-3h7.1l1 3-1.5.3v2.6h7.5v-2.6l-1.6-.2-6.6-19.1h-4.5l-6.7 19.1-1.6.2zm8-6.5 2.5-7.7 2.5 7.7h-5.1zm57.8-12.8h-9.1v2.7l2.4.4v11.7s-8.9-14.8-8.9-14.8h-6.8v2.7l2.4.4v15.8l-2.4.4v2.6h9.1v-2.6l-2.4-.4v-11.7s8.9 14.8 8.9 14.8h4.4v-18.8l2.4-.4v-2.7zm40.9 7.4v-4.4c-.9-1-2-1.8-3.4-2.4-1.3-.6-2.9-.9-4.6-.9-3 0-5.4 1-7.3 3.1-1.9 2-2.8 4.7-2.8 7.9v.7c0 3.2 1 5.8 2.8 7.9s4.3 3 7.2 3 3.2-.3 4.6-.9 2.5-1.4 3.4-2.5v-4.3h-3.3l-.4 2.9c-.4.4-1 .8-1.7 1-.7.3-1.5.4-2.4.4-1.9 0-3.3-.7-4.3-2.1s-1.5-3.2-1.5-5.4v-.8c0-2.2.5-4 1.5-5.4s2.5-2.1 4.4-2.1 1.7.1 2.3.4c.7.2 1.2.6 1.6 1l.4 2.9h3.3zm22.3-4.7 2.4.4v15.8l-2.4.4v2.6h9.1v-2.6l-2.4-.4v-15.8l2.4-.4v-2.7h-9.1zm33.9 16.6v2.6h7.5v-2.6l-1.5-.3 1-3h7.1l1 3-1.5.3v2.6h7.5v-2.6l-1.6-.2-6.6-19.1h-4.5l-6.7 19.1-1.6.2zm8-6.5 2.5-7.7 2.5 7.7h-5.1zm38.4 9.2h16.5v-6.1h-3.4l-.2 2.8h-6.2v-15.5l2.4-.4v-2.7h-9.2v2.7l2.4.4v15.8l-2.4.4v2.6z" fill="#fff"/></svg>