<svg height="106" viewBox="0 0 268 106" width="268" xmlns="http://www.w3.org/2000/svg"><g fill="#fff" fill-rule="evenodd"><path d="m66.6 53.52c0 9.2-3.25 17.05-9.75 23.55s-14.35 9.75-23.55 9.75-17.05-3.25-23.55-9.75-9.75-14.35-9.75-23.55 3.25-17.05 9.75-23.55 14.35-9.75 23.55-9.75 17.05 3.25 23.55 9.75 9.75 14.35 9.75 23.55zm-33.3-23.79c-6.58 0-12.19 2.32-16.83 6.96s-6.96 10.25-6.96 16.83 2.32 12.19 6.96 16.83 10.25 6.96 16.83 6.96 12.19-2.32 16.83-6.96 6.96-10.25 6.96-16.83-2.32-12.19-6.96-16.83-10.25-6.96-16.83-6.96z"/><path d="m85.6301 82.06c0 1.31-.47 2.43-1.4 3.36s-2.05 1.4-3.36 1.4-2.43-.47-3.36-1.4-1.4-2.05-1.4-3.36v-57.08c0-1.31.47-2.43 1.4-3.36s2.05-1.4 3.36-1.4 2.43.47 3.36 1.4 1.4 2.05 1.4 3.36v1.25c4.72-4 10.27-6.01 16.6499-6.01 7.21 0 13.38 2.56 18.49 7.67 1.07 1.07 2.04 2.2 2.91 3.39.87-1.19 1.84-2.32 2.91-3.39 5.11-5.11 11.28-7.67 18.49-7.67s13.38 2.56 18.49 7.67c5.12 5.11 7.67 11.28 7.67 18.49v35.68c0 1.31-.47 2.43-1.4 3.36s-2.05 1.4-3.36 1.4-2.43-.47-3.36-1.4-1.4-2.05-1.4-3.36v-35.68c0-4.6-1.63-8.52-4.88-11.77s-7.18-4.88-11.77-4.88-8.52 1.63-11.77 4.88-4.88 7.18-4.88 11.77v35.68c0 1.31-.47 2.43-1.4 3.36s-2.05 1.4-3.36 1.4-2.43-.47-3.36-1.4-1.4-2.05-1.4-3.36v-35.68c0-4.6-1.63-8.52-4.88-11.77s-7.18-4.88-11.77-4.88c-4.5899 0-8.5199 1.63-11.7699 4.88s-4.88 7.18-4.88 11.77v35.68z"/><path d="m183.22 24.98c0-1.31.46-2.43 1.4-3.36.93-.93 2.05-1.4 3.36-1.4s2.43.47 3.36 1.4 1.4 2.05 1.4 3.36v3.87c5.95-5.75 13.08-8.62 21.41-8.62s15.81 3.02 21.85 9.07 9.07 13.33 9.07 21.85v30.92c0 1.31-.47 2.43-1.4 3.36s-2.05 1.4-3.36 1.4-2.43-.47-3.36-1.4-1.4-2.05-1.4-3.36v-30.92c0-5.91-2.09-10.95-6.27-15.13s-9.23-6.27-15.13-6.27-10.95 2.09-15.13 6.27-6.27 9.23-6.27 15.13v30.92c0 1.31-.47 2.43-1.4 3.36s-2.05 1.4-3.36 1.4-2.43-.47-3.36-1.4-1.4-2.05-1.4-3.36v-57.09z"/><path d="m267.74 5.95001c0 1.63-.58 3.02-1.75 4.18999-1.17 1.17-2.57 1.75-4.19 1.75s-3.02-.58-4.19-1.75c-1.17-1.16999-1.75-2.56999-1.75-4.18999s.58-3.02 1.75-4.19 2.57-1.7500002 4.19-1.7500002 3.02.5800002 4.19 1.7500002 1.75 2.57 1.75 4.19zm-10.7 19.02999c0-1.31.47-2.43 1.4-3.36s2.05-1.4 3.36-1.4 2.43.47 3.36 1.4 1.4 2.05 1.4 3.36v57.09c0 1.31-.47 2.43-1.4 3.36s-2.05 1.4-3.36 1.4-2.43-.47-3.36-1.4-1.4-2.05-1.4-3.36z"/><path d="m61.85 96.34c1.31 0 2.43.47 3.36 1.4s1.4 2.05 1.4 3.36-.47 2.43-1.4 3.36-2.05 1.4-3.36 1.4h-57.09c-1.31 0-2.43-.47-3.36-1.4s-1.4-2.05-1.4-3.36.47-2.43 1.4-3.36 2.05-1.4 3.36-1.4z"/></g></svg>