<svg preserveAspectRatio="xMidYMid meet" viewBox="0 0 105 30" xmlns="http://www.w3.org/2000/svg"><path d="m39.0965 17.9081-1.5344 1.5875v5.1595h-3.8362v-23.812994h3.8362v14.043594l5.5853-5.49533h4.8182l-6.0457 6.04483 6.4549 9.2199h-4.6443zm19.1196 7.4797c-5.6263 0-9.1453-3.6024-9.1453-8.365s3.4985-8.36513 8.5111-8.36513c1.0937-.016 2.1795.18753 3.1924.59843 1.0128.41089 1.9321 1.0207 2.7027 1.793s1.3768 1.6913 1.7823 2.7019.6021 2.0923.5779 3.1802v.9769h-12.7155c.3376 2.8087 2.271 4.4268 5.1558 4.4268 1.948.022 3.8288-.7074 5.2478-2.0353l2.0868 2.3508c-2.018 1.8274-4.668 2.8082-7.396 2.7374zm-4.9409-10.0442h8.4701c-.5115-2.1676-2.0459-3.5617-4.2044-3.5617-2.1584 0-3.744 1.3636-4.2657 3.5617zm23.4459 10.0442c-5.6263 0-9.1453-3.6024-9.1453-8.365s3.4985-8.36513 8.5008-8.36513c1.0938-.016 2.1795.18753 3.1924.59843 1.0129.41089 1.9321 1.0207 2.7027 1.793s1.3768 1.6913 1.7823 2.7019c.4056 1.0106.6021 2.0923.5779 3.1802v.9769h-12.7052c.3376 2.8087 2.271 4.4268 5.1557 4.4268 1.948.022 3.8289-.7074 5.2479-2.0353l2.0868 2.3508c-2.018 1.8274-4.668 2.8082-7.396 2.7374zm-4.941-10.0442h8.4702c-.5115-2.1676-2.0459-3.5617-4.2044-3.5617-2.1584 0-3.744 1.3636-4.2658 3.5617zm18.751 7.0523v8.762h-3.8361v-21.76756h3.6213v2.41186c.7118-.9466 1.6395-1.7114 2.7065-2.23158 1.0671-.52016 2.2431-.78076 3.4313-.76034 4.3889 0 7.6719 3.60252 7.6719 8.18192 0 4.4878-3.283 8.243-7.6719 8.243-1.1395.0069-2.2655-.2453-3.292-.7374-1.0265-.492-1.9264-1.211-2.631-2.1019zm4.7875-.5088c1.3023 0 2.5512-.5146 3.472-1.4307.9209-.9161 1.4384-2.1585 1.4384-3.454s-.5175-2.538-1.4384-3.4541c-.9208-.916-2.1697-1.4307-3.472-1.4307s-2.5512.5147-3.4721 1.4307c-.9208.9161-1.4382 2.1586-1.4382 3.4541s.5174 2.5379 1.4382 3.454c.9209.9161 2.1698 1.4307 3.4721 1.4307zm-73.28-11.0005-2.7927-2.70696 3.1047-3.16998 2.7927 2.70186c.8194.79316 1.4741 1.73916 1.9261 2.78388.4519 1.0448.6926 2.1678.7083 3.3051s-.194 2.2665-.617 3.3232-1.0511 2.0201-1.8484 2.8353-1.7482 1.4662-2.7984 1.9158-2.1791.6891-3.3223.7047c-2.3088.0315-4.5357-.8507-6.1907-2.4526l-2.7926-2.7069 3.1047-3.17 2.7926 2.7018c.6021.5857 1.3658.9797 2.1938 1.132.8281.1522 1.6829.0557 2.4556-.2771.5135-.2183.9778-.5367 1.3657-.9363.5887-.5989.9848-1.3586 1.1378-2.1824.1531-.8237.0561-1.6741-.2785-2.4428-.2195-.5108-.5398-.9728-.9414-1.3586zm-6.9663-4.00474c-1.655-1.60184-3.8818-2.48406-6.19063-2.45257s-4.51053.97411-6.12073 2.62048c-1.61021 1.64638-2.497036 3.86163-2.465382 6.15853.031654 2.2968.979192 4.4871 2.634162 6.0889l2.79272 2.702 3.1047-3.17-2.79272-2.7223c-.59982-.5817-1.01352-1.3266-1.18915-2.1414-.17563-.8147-.10536-1.6629.20199-2.4381.20356-.518.51168-.989.90533-1.384.38906-.39945.85301-.71925 1.36566-.9413.51404-.21992 1.06697-.33581 1.62651-.34091.55854-.00779 1.11314.09429 1.63184.30037.5188.20608.9915.51209 1.391.90044l.0024-.0025 2.7901 2.6993 3.1047-3.16996z" fill="#fff"/></svg>